<?xml version="1.0" encoding="UTF-8" standalone="no"?>
<svg width="32px" height="32px" viewBox="0 0 32 32" version="1.1" xmlns="http://www.w3.org/2000/svg" xmlns:xlink="http://www.w3.org/1999/xlink" xmlns:sketch="http://www.bohemiancoding.com/sketch/ns">
    <!-- Generator: Sketch 3.3.2 (12043) - http://www.bohemiancoding.com/sketch -->
    <title>lt</title>
    <desc>Created with Sketch.</desc>
    <defs></defs>
    <g id="Page-1" stroke="none" stroke-width="1" fill="none" fill-rule="evenodd" sketch:type="MSPage">
        <g id="lt" sketch:type="MSLayerGroup" transform="translate(-1.000000, 0.000000)" fill="#000000">
            <path d="M3.28571429,6.4 L30.7142857,6.4 C31.976,6.4 33,4.9664 33,3.2 C33,1.4336 31.976,0 30.7142857,0 L3.28571429,0 C2.024,0 1,1.4336 1,3.2 C1,4.9664 2.024,6.4 3.28571429,6.4 L3.28571429,6.4 Z M30.7142857,12.8 L3.28571429,12.8 C2.024,12.8 1,14.2336 1,16 C1,17.7664 2.024,19.2 3.28571429,19.2 L30.7142857,19.2 C31.976,19.2 33,17.7664 33,16 C33,14.2336 31.976,12.8 30.7142857,12.8 L30.7142857,12.8 Z M30.7142857,25.6 L3.28571429,25.6 C2.024,25.6 1,27.0336 1,28.8 C1,30.5664 2.024,32 3.28571429,32 L30.7142857,32 C31.976,32 33,30.5664 33,28.8 C33,27.0336 31.976,25.6 30.7142857,25.6 L30.7142857,25.6 Z" id="Shape" sketch:type="MSShapeGroup"></path>
        </g>
    </g>
</svg>