<?xml version="1.0" encoding="UTF-8" standalone="no"?>
<svg width="32px" height="33px" viewBox="0 0 32 33" version="1.1" xmlns="http://www.w3.org/2000/svg" xmlns:xlink="http://www.w3.org/1999/xlink" xmlns:sketch="http://www.bohemiancoding.com/sketch/ns">
    <!-- Generator: Sketch 3.3.2 (12043) - http://www.bohemiancoding.com/sketch -->
    <title>bl</title>
    <desc>Created with Sketch.</desc>
    <defs></defs>
    <g id="Page-1" stroke="none" stroke-width="1" fill="none" fill-rule="evenodd" sketch:type="MSPage">
        <g id="bl" sketch:type="MSLayerGroup" fill="#000000">
            <path d="M2.28571429,7.0952381 L29.7142857,7.0952381 C30.976,7.0952381 32,5.72990476 32,4.04761905 C32,2.36533333 30.976,1 29.7142857,1 L2.28571429,1 C1.024,1 -1.0658141e-14,2.36533333 -1.0658141e-14,4.04761905 C-1.0658141e-14,5.72990476 1.024,7.0952381 2.28571429,7.0952381 L2.28571429,7.0952381 Z M29.7142857,13.1904762 L2.28571429,13.1904762 C1.024,13.1904762 -1.0658141e-14,14.5558095 -1.0658141e-14,16.2380952 C-1.0658141e-14,17.920381 1.024,19.2857143 2.28571429,19.2857143 L29.7142857,19.2857143 C30.976,19.2857143 32,17.920381 32,16.2380952 C32,14.5558095 30.976,13.1904762 29.7142857,13.1904762 L29.7142857,13.1904762 Z M29.7142857,25.9047619 L2.28571429,25.9047619 C1.024,25.9047619 -1.0658141e-14,27.2700952 -1.0658141e-14,28.952381 C-1.0658141e-14,30.6346667 1.024,32 2.28571429,32 L29.7142857,32 C30.976,32 32,30.6346667 32,28.952381 C32,27.2700952 30.976,25.9047619 29.7142857,25.9047619 L29.7142857,25.9047619 Z" id="Shape" sketch:type="MSShapeGroup" transform="translate(16.000000, 16.500000) rotate(90.000000) translate(-16.000000, -16.500000) "></path>
        </g>
    </g>
</svg>