<?xml version="1.0" encoding="UTF-8"?>
<svg xmlns="http://www.w3.org/2000/svg" xmlns:xlink="http://www.w3.org/1999/xlink" version="1.2" >
<font id="TriviaSeznam">
<font-face  font-family="Trivia Seznam" units-per-em="1000" ascent="923" descent="-210" font-style="normal" font-weight="400" font-stretch="normal" cap-height="735" x-height="525" underline-position="-125" underline-thickness="50" />
<missing-glyph  horiz-adv-x="239" d="" />
<glyph glyph-name="NULL" d="" />
<glyph glyph-name="nonmarkingreturn" unicode="&#xd;" horiz-adv-x="239" d="" />
<glyph glyph-name="space" unicode="&#x20;" horiz-adv-x="239" d="" />
<glyph glyph-name="D" unicode="D" horiz-adv-x="741" d="M91 0 L91 720 L375 720 Q446 720 503 695 Q560 670 600 623.5 Q640 577 661.5 511 Q683 445 683 364 Q683 283 662.5 216 Q642 149 603 101 Q564 53 507.5 26.5 Q451 0 379 0 L91 0 Z M364 66 Q478 66 537 146 Q596 226 596 364 Q596 503 536 579 Q476 655 361 655 L174 655 L174 66 L364 66 Z " />
<glyph glyph-name="E" unicode="E" horiz-adv-x="620" d="M91 0 L91 720 L564 720 L564 655 L174 655 L174 406 L505 406 L505 341 L174 341 L174 66 L570 66 L570 0 L91 0 Z " />
<glyph glyph-name="F" unicode="F" horiz-adv-x="585" d="M567 720 L567 655 L174 655 L174 389 L508 389 L508 325 L174 325 L174 0 L91 0 L91 720 L567 720 Z " />
<glyph glyph-name="G" unicode="G" horiz-adv-x="773" d="M390 730 Q448 730 497 714.5 Q546 699 583.5 670.5 Q621 642 645.5 602 Q670 562 679 514 L593 514 Q577 580 524 619 Q471 658 389 658 Q329 658 284 636 Q239 614 208.5 574 Q178 534 162.5 479.5 Q147 425 147 360 Q147 294 162.5 239 Q178 184 208 144.5 Q238 105 283 83 Q328 61 387 61 Q431 61 470 76.5 Q509 92 538 123 Q567 154 583.5 201.5 Q600 249 600 313 L380 313 L380 374 L682 374 L682 0 L604 0 L604 172 Q595 138 577.5 105 Q560 72 532 46.5 Q504 21 464.5 5 Q425 -11 371 -11 Q304 -11 246.5 15.5 Q189 42 147 91 Q105 140 81.5 208 Q58 276 58 360 Q58 436 80.5 503.5 Q103 571 145.5 621 Q188 671 250 700.5 Q312 730 390 730 Z " />
<glyph glyph-name="H" unicode="H" horiz-adv-x="710" d="M534 0 L534 341 L174 341 L174 0 L91 0 L91 720 L174 720 L174 406 L534 406 L534 720 L617 720 L617 0 L534 0 Z " />
<glyph glyph-name="I" unicode="I" horiz-adv-x="266" d="M91 0 L91 720 L174 720 L174 0 L91 0 Z " />
<glyph glyph-name="J" unicode="J" horiz-adv-x="542" d="M452 720 L452 190 Q452 98 392.5 43.5 Q333 -11 227 -11 Q182 -11 144.5 2 Q107 15 79.5 38.5 Q52 62 35 94.5 Q18 127 13 166 L99 166 Q104 123 136 91.5 Q168 60 229 60 Q303 60 335.5 96 Q368 132 368 188 L368 720 L452 720 Z " />
<glyph glyph-name="K" unicode="K" horiz-adv-x="630" d="M91 0 L91 720 L174 720 L174 0 L91 0 Z M519 0 L184 376 L498 720 L598 720 L282 381 L621 0 L519 0 Z " />
<glyph glyph-name="L" unicode="L" horiz-adv-x="554" d="M91 0 L91 720 L174 720 L174 66 L543 66 L543 0 L91 0 Z " />
<glyph glyph-name="M" unicode="M" horiz-adv-x="874" d="M221 720 L420 172 Q425 156 430 134.5 Q435 113 439 95 Q442 114 447 136 Q452 158 457 172 L653 720 L783 720 L783 0 L700 0 L700 581 Q700 598 700.5 620 Q701 642 702 659 Q698 640 692.5 620.5 Q687 601 682 584 L471 0 L402 0 L191 585 Q185 601 180.5 620 Q176 639 172 659 Q173 642 173 620 Q173 598 173 581 L173 0 L91 0 L91 720 L221 720 Z " />
<glyph glyph-name="N" unicode="N" horiz-adv-x="712" d="M209 720 L514 167 Q521 153 529 133 Q537 113 544 93 Q542 110 541 134.5 Q540 159 540 176 L540 720 L622 720 L622 0 L515 0 L202 576 Q194 592 185.5 612.5 Q177 633 172 650 Q173 634 173.5 611.5 Q174 589 174 573 L174 0 L91 0 L91 720 L209 720 Z " />
<glyph glyph-name="O" unicode="O" horiz-adv-x="773" d="M387 658 Q327 658 282 636 Q237 614 207 574 Q177 534 162 479.5 Q147 425 147 360 Q147 295 162 240.5 Q177 186 207 146 Q237 106 282 84 Q327 62 387 62 Q447 62 491.5 84 Q536 106 566 146 Q596 186 611 240.5 Q626 295 626 360 Q626 425 611 479.5 Q596 534 566 574 Q536 614 491.5 636 Q447 658 387 658 Z M387 730 Q465 730 526 700.5 Q587 671 629 621 Q671 571 693 503.5 Q715 436 715 360 Q715 283 693 215.5 Q671 148 629 98 Q587 48 526 18.5 Q465 -11 387 -11 Q309 -11 247.5 18.5 Q186 48 143.5 98 Q101 148 79 215.5 Q57 283 57 360 Q57 436 79 503.5 Q101 571 143.5 621 Q186 671 247.5 700.5 Q309 730 387 730 Z " />
<glyph glyph-name="P" unicode="P" horiz-adv-x="648" d="M401 720 Q455 720 494 703.5 Q533 687 559 658.5 Q585 630 597.5 591.5 Q610 553 610 510 Q610 465 598 425 Q586 385 560 355 Q534 325 494 308 Q454 291 397 291 L174 291 L174 0 L91 0 L91 720 L401 720 Z M174 655 L174 352 L383 352 Q420 352 447 363.5 Q474 375 491 396 Q508 417 516 445.5 Q524 474 524 508 Q524 539 516.5 565.5 Q509 592 492.5 612 Q476 632 449 643.5 Q422 655 383 655 L174 655 Z " />
<glyph glyph-name="Q" unicode="Q" horiz-adv-x="773" d="M387 730 Q465 730 526 700.5 Q587 671 629 621 Q671 571 693 503.5 Q715 436 715 360 Q715 260 678 177 Q641 94 571 44 L709 -126 L618 -126 L509 11 Q481 0 451 -5.5 Q421 -11 387 -11 Q309 -11 247.5 18.5 Q186 48 143.5 98 Q101 148 79 215.5 Q57 283 57 360 Q57 436 79 503.5 Q101 571 143.5 621 Q186 671 247.5 700.5 Q309 730 387 730 Z M434 214 L523 103 Q575 141 600.5 207.5 Q626 274 626 360 Q626 425 611 479.5 Q596 534 566 574 Q536 614 491.5 636 Q447 658 387 658 Q327 658 282 636 Q237 614 207 574 Q177 534 162 479.5 Q147 425 147 360 Q147 295 162 240.5 Q177 186 207 146 Q237 106 282 84 Q327 62 387 62 Q407 62 425 64.5 Q443 67 460 72 L347 214 L434 214 Z " />
<glyph glyph-name="R" unicode="R" horiz-adv-x="681" d="M528 0 Q528 101 516 163 Q504 225 483 259 Q462 293 433 304.5 Q404 316 371 316 L174 316 L174 0 L91 0 L91 720 L406 720 Q461 720 500 705 Q539 690 564 664 Q589 638 600.5 604 Q612 570 612 531 Q612 455 573.5 406.5 Q535 358 455 347 Q485 341 513.5 324.5 Q542 308 563.5 269.5 Q585 231 598.5 166.5 Q612 102 612 0 L528 0 Z M386 379 Q425 379 451.5 390 Q478 401 494.5 420 Q511 439 518 464.5 Q525 490 525 520 Q525 549 518 574 Q511 599 494.5 617 Q478 635 451.5 645 Q425 655 386 655 L174 655 L174 379 L386 379 Z " />
<glyph glyph-name="S" unicode="S" horiz-adv-x="658" d="M329 730 Q389 730 436 715.5 Q483 701 517 676.5 Q551 652 571.5 618 Q592 584 597 545 L511 545 Q506 570 493.5 591.5 Q481 613 459 629 Q437 645 404.5 654.5 Q372 664 327 664 Q280 664 247 653.5 Q214 643 193.5 625 Q173 607 163.5 584 Q154 561 154 537 Q154 502 167.5 479.5 Q181 457 205 443.5 Q229 430 261 422.5 Q293 415 331 410 Q386 403 435.5 390.5 Q485 378 522.5 355 Q560 332 581.5 296 Q603 260 603 207 Q603 162 585 122.5 Q567 83 532 53.5 Q497 24 445.5 6.5 Q394 -11 327 -11 Q268 -11 220 3.5 Q172 18 137 43 Q102 68 81 102.5 Q60 137 55 176 L141 176 Q145 151 158.5 129 Q172 107 195 90.5 Q218 74 251.5 64.5 Q285 55 329 55 Q376 55 410.5 67 Q445 79 467.5 98.5 Q490 118 501 143.5 Q512 169 512 196 Q512 234 496.5 258 Q481 282 454.5 297 Q428 312 392 320.5 Q356 329 314 335 Q259 342 213.5 354 Q168 366 135 388 Q102 410 84 444 Q66 478 66 530 Q66 569 82 605.5 Q98 642 131 669.5 Q164 697 213.5 713.5 Q263 730 329 730 Z " />
<glyph glyph-name="T" unicode="T" horiz-adv-x="594" d="M256 0 L256 655 L12 655 L12 720 L584 720 L584 655 L339 655 L339 0 L256 0 Z " />
<glyph glyph-name="U" unicode="U" horiz-adv-x="711" d="M540 720 L624 720 L624 193 Q624 143 602.5 105 Q581 67 544.5 41 Q508 15 458.5 2 Q409 -11 354 -11 Q299 -11 250.5 2 Q202 15 166 41 Q130 67 109 105 Q88 143 88 193 L88 720 L172 720 L172 210 Q172 135 220.5 97 Q269 59 356 59 Q443 59 491.5 97 Q540 135 540 210 L540 720 Z " />
<glyph glyph-name="V" unicode="V" horiz-adv-x="633" d="M92 720 L298 136 Q303 121 307.5 104 Q312 87 317 70 Q319 87 324 103.5 Q329 120 335 136 L543 720 L631 720 L372 0 L259 0 L1 720 L92 720 Z " />
<glyph glyph-name="W" unicode="W" horiz-adv-x="971" d="M109 720 L260 161 Q265 144 270 121.5 Q275 99 277 79 Q281 99 286 121 Q291 143 296 161 L448 720 L525 720 L677 161 Q682 144 687 122 Q692 100 696 79 Q699 100 703.5 122 Q708 144 713 161 L867 720 L950 720 L748 0 L646 0 L503 518 Q498 536 493.5 560 Q489 584 486 603 Q483 584 478.5 561 Q474 538 469 518 L325 0 L224 0 L22 720 L109 720 Z " />
<glyph glyph-name="X" unicode="X" horiz-adv-x="657" d="M121 720 L299 471 Q317 445 330 416 Q344 447 363 471 L540 720 L636 720 L379 367 L647 0 L543 0 L358 259 Q349 272 340 286.5 Q331 301 325 317 Q318 300 309.5 286 Q301 272 291 258 L107 0 L10 0 L275 365 L18 720 L121 720 Z " />
<glyph glyph-name="Y" unicode="Y" horiz-adv-x="631" d="M273 0 L273 329 L-1 720 L98 720 L318 400 L540 720 L632 720 L357 329 L357 0 L273 0 Z " />
<glyph glyph-name="Z" unicode="Z" horiz-adv-x="638" d="M42 0 L42 67 L493 655 L53 655 L53 720 L589 720 L589 653 L141 66 L601 66 L601 0 L42 0 Z " />
<glyph glyph-name="AE" unicode="&#xc6;" horiz-adv-x="984" d="M454 0 L454 213 L158 213 L11 0 L-84 0 L420 720 L928 720 L928 655 L538 655 L538 406 L867 406 L867 341 L538 341 L538 66 L933 66 L933 0 L454 0 Z M454 276 L454 642 L198 276 L454 276 Z " />
<glyph glyph-name="Eng" unicode="&#x14a;" horiz-adv-x="712" d="M209 720 L514 167 Q521 153 529 133 Q537 113 544 93 Q542 110 541 134.5 Q540 159 540 176 L540 720 L622 720 L622 -65 Q622 -106 608.5 -135 Q595 -164 572.5 -183.5 Q550 -203 521.5 -212 Q493 -221 463 -221 L463 -157 Q501 -157 523 -137.5 Q545 -118 545 -61 L545 0 L515 0 L202 576 Q194 592 185.5 612.5 Q177 633 172 650 Q173 634 173.5 611.5 Q174 589 174 573 L174 0 L91 0 L91 720 L209 720 Z " />
<glyph glyph-name="Eth" unicode="&#xd0;" horiz-adv-x="741" d="M91 0 L91 340 L25 340 L25 403 L91 403 L91 720 L375 720 Q446 720 503 695 Q560 670 600 623.5 Q640 577 661.5 511 Q683 445 683 364 Q683 283 662.5 216 Q642 149 603 101 Q564 53 507.5 26.5 Q451 0 379 0 L91 0 Z M364 66 Q478 66 537 146 Q596 226 596 364 Q596 503 536 579 Q476 655 361 655 L174 655 L174 403 L286 403 L286 340 L174 340 L174 66 L364 66 Z " />
<glyph glyph-name="IJ" unicode="&#x132;" horiz-adv-x="788" d="M91 0 L91 720 L174 720 L174 0 L91 0 Z M614 720 L698 720 L698 190 Q698 98 638.5 43.5 Q579 -11 473 -11 Q428 -11 391 2 Q354 15 326.5 38.5 Q299 62 282 94.5 Q265 127 260 166 L346 166 Q351 123 383 91.5 Q415 60 477 60 Q550 60 582 96 Q614 132 614 188 L614 720 Z " />
<glyph glyph-name="OE" unicode="&#x152;" horiz-adv-x="1090" d="M387 730 Q410 730 431 727.5 Q452 725 472 720 L1034 720 L1034 655 L576 655 Q638 620 672 553 Q706 486 711 406 L973 406 L973 341 L713 341 Q711 250 676.5 177 Q642 104 576 66 L1040 66 L1040 0 L472 0 Q452 -5 431 -8 Q410 -11 387 -11 Q309 -11 247.5 18.5 Q186 48 143.5 98 Q101 148 79 215.5 Q57 283 57 360 Q57 436 79 503.5 Q101 571 143.5 621 Q186 671 247.5 700.5 Q309 730 387 730 Z M387 658 Q327 658 282 636 Q237 614 207 574 Q177 534 162 479.5 Q147 425 147 360 Q147 295 162 240.5 Q177 186 207 146 Q237 106 282 84 Q327 62 387 62 Q447 62 491.5 84 Q536 106 566 146 Q596 186 611 240.5 Q626 295 626 360 Q626 425 611 479.5 Q596 534 566 574 Q536 614 491.5 636 Q447 658 387 658 Z " />
<glyph glyph-name="Oslash" unicode="&#xd8;" horiz-adv-x="773" d="M675 720 L616 636 Q665 585 690 513.5 Q715 442 715 360 Q715 283 693 215.5 Q671 148 629 98 Q587 48 526 18.5 Q465 -11 387 -11 Q333 -11 287 3 Q241 17 204 43 L174 0 L97 0 L156 84 Q108 135 82.5 206.5 Q57 278 57 360 Q57 436 79 503.5 Q101 571 143.5 621 Q186 671 247.5 700.5 Q309 730 387 730 Q441 730 486 716 Q531 702 568 676 L599 720 L675 720 Z M626 360 Q626 423 612 476 Q598 529 570 569 L247 105 Q304 62 387 62 Q447 62 491.5 84 Q536 106 566 146 Q596 186 611 240.5 Q626 295 626 360 Z M387 658 Q327 658 282 636 Q237 614 207 574 Q177 534 162 479.5 Q147 425 147 360 Q147 297 160.5 244 Q174 191 203 151 L526 615 Q498 635 463.5 646.5 Q429 658 387 658 Z " />
<glyph glyph-name="Thorn" unicode="&#xde;" horiz-adv-x="648" d="M91 0 L91 720 L174 720 L174 593 L401 593 Q455 593 494 576.5 Q533 560 559 531.5 Q585 503 597.5 464.5 Q610 426 610 383 Q610 338 598 298 Q586 258 560 228.5 Q534 199 494 181.5 Q454 164 397 164 L174 164 L174 0 L91 0 Z M174 225 L383 225 Q420 225 447 236.5 Q474 248 491 269 Q508 290 516 318.5 Q524 347 524 380 Q524 411 516.5 438 Q509 465 492.5 485 Q476 505 449 516 Q422 527 383 527 L174 527 L174 225 Z " />
<glyph glyph-name="a" unicode="a" horiz-adv-x="564" d="M286 535 Q340 535 377 523 Q414 511 436.5 490 Q459 469 469 440 Q479 411 479 377 L479 0 L401 0 L401 103 Q378 49 331 20 Q284 -9 213 -9 Q140 -9 98 28 Q56 65 56 131 Q56 219 124 265.5 Q192 312 340 312 Q357 312 372.5 312 Q388 312 401 311 L401 377 Q401 398 395.5 416.5 Q390 435 376 448.5 Q362 462 339 469.5 Q316 477 282 477 Q219 477 183 451 Q147 425 144 379 L71 379 Q78 451 130.5 493 Q183 535 286 535 Z M343 261 Q237 261 186.5 232.5 Q136 204 136 142 Q136 98 162 74 Q188 50 236 50 Q267 50 296.5 60 Q326 70 349.5 90 Q373 110 387 139 Q401 168 401 207 L401 259 Q388 260 373.5 260.5 Q359 261 343 261 Z " />
<glyph glyph-name="b" unicode="b" horiz-adv-x="603" d="M160 735 L160 398 Q168 426 183 450.5 Q198 475 220 494 Q242 513 271 524 Q300 535 336 535 Q387 535 427.5 515 Q468 495 496.5 459 Q525 423 540 373 Q555 323 555 262 Q555 202 540 151.5 Q525 101 496.5 65 Q468 29 427.5 9 Q387 -11 336 -11 Q302 -11 273.5 0 Q245 11 222.5 30 Q200 49 184 73.5 Q168 98 160 124 L160 0 L82 0 L82 735 L160 735 Z M319 471 Q249 471 204.5 418 Q160 365 160 256 Q160 216 169.5 179.5 Q179 143 198.5 115 Q218 87 248 70.5 Q278 54 319 54 Q395 54 434.5 110.5 Q474 167 474 262 Q474 357 434.5 414 Q395 471 319 471 Z " />
<glyph glyph-name="c" unicode="c" horiz-adv-x="535" d="M290 535 Q332 535 369.5 523 Q407 511 436 487.5 Q465 464 484 431 Q503 398 507 356 L428 356 Q421 409 383.5 440 Q346 471 287 471 Q249 471 219 456 Q189 441 168 413.5 Q147 386 136 347.5 Q125 309 125 262 Q125 215 136 177 Q147 139 168 111 Q189 83 219 68 Q249 53 287 53 Q346 53 383.5 84 Q421 115 428 169 L507 169 Q503 127 484 93.5 Q465 60 436 37 Q407 14 369.5 1.5 Q332 -11 290 -11 Q233 -11 188 9 Q143 29 111.5 65 Q80 101 63.5 151 Q47 201 47 262 Q47 323 63.5 373 Q80 423 111.5 459 Q143 495 188 515 Q233 535 290 535 Z " />
<glyph glyph-name="d" unicode="d" horiz-adv-x="603" d="M267 535 Q303 535 332 524 Q361 513 382.5 494 Q404 475 419 450.5 Q434 426 442 398 L442 735 L520 735 L520 0 L442 0 L442 124 Q434 98 418 73.5 Q402 49 380 30 Q358 11 329.5 0 Q301 -11 267 -11 Q216 -11 175 9 Q134 29 105.5 65 Q77 101 62 151.5 Q47 202 47 262 Q47 323 62 373 Q77 423 105.5 459 Q134 495 175 515 Q216 535 267 535 Z M283 471 Q207 471 168 414 Q129 357 129 262 Q129 167 168 110.5 Q207 54 283 54 Q324 54 354 70.5 Q384 87 403.5 115 Q423 143 432.5 179.5 Q442 216 442 256 Q442 366 398 418.5 Q354 471 283 471 Z " />
<glyph glyph-name="e" unicode="e" horiz-adv-x="561" d="M289 535 Q346 535 389 513.5 Q432 492 460.5 454.5 Q489 417 502.5 366 Q516 315 515 257 L124 257 Q125 160 167 105.5 Q209 51 287 51 Q341 51 380 78.5 Q419 106 427 158 L505 158 Q500 118 481 86.5 Q462 55 432.5 33.5 Q403 12 366 0.5 Q329 -11 288 -11 Q232 -11 187.5 9 Q143 29 111.5 65 Q80 101 63 151 Q46 201 46 262 Q46 323 63 373 Q80 423 111.5 459 Q143 495 188 515 Q233 535 289 535 Z M286 477 Q216 477 176 433 Q136 389 126 311 L434 311 Q433 346 423 376.5 Q413 407 394 429.5 Q375 452 347.5 464.5 Q320 477 286 477 Z " />
<glyph glyph-name="f" unicode="f" horiz-adv-x="339" d="M263 745 Q299 745 337 738 L337 674 Q319 679 303.5 680.5 Q288 682 272 682 Q181 682 181 581 L181 525 L337 525 L337 465 L181 465 L181 0 L103 0 L103 465 L21 465 L21 525 L103 525 L103 580 Q103 664 145.5 704.5 Q188 745 263 745 Z " />
<glyph glyph-name="g" unicode="g" horiz-adv-x="573" d="M282 535 Q317 535 356.5 533.5 Q396 532 434 530 Q472 528 505.5 526.5 Q539 525 562 525 L562 465 Q547 465 528 466 Q509 467 488.5 468.5 Q468 470 448 471.5 Q428 473 411 475 Q452 461 473 425.5 Q494 390 494 346 Q494 307 480 275 Q466 243 439 220 Q412 197 372 184 Q332 171 280 171 Q223 171 175 191 Q159 181 149.5 167.5 Q140 154 140 137 Q140 107 160.5 93 Q181 79 214 79 L379 79 Q542 79 542 -46 Q542 -83 526.5 -115 Q511 -147 478.5 -170.5 Q446 -194 396 -207.5 Q346 -221 277 -221 Q158 -221 105 -186.5 Q52 -152 52 -87 Q52 -45 74 -17 Q96 11 136 28 Q107 38 88 60 Q69 82 69 119 Q69 151 89 176 Q109 201 135 213 Q104 236 86.5 270.5 Q69 305 69 350 Q69 390 83 424 Q97 458 124.5 483 Q152 508 191.5 521.5 Q231 535 282 535 Z M417 350 Q417 406 385.5 442.5 Q354 479 282 479 Q216 479 182.5 443 Q149 407 149 350 Q149 296 182.5 261 Q216 226 282 226 Q349 226 383 260 Q417 294 417 350 Z M218 19 Q211 19 203 19.5 Q195 20 188 21 Q160 6 144.5 -14.5 Q129 -35 129 -67 Q129 -114 163.5 -140.5 Q198 -167 279 -167 Q376 -167 418.5 -134.5 Q461 -102 461 -53 Q461 -16 437 1.5 Q413 19 360 19 L218 19 Z " />
<glyph glyph-name="h" unicode="h" horiz-adv-x="596" d="M164 735 L164 415 Q184 467 229 501 Q274 535 343 535 Q428 535 469.5 483 Q511 431 511 339 L511 0 L433 0 L433 324 Q433 391 407 430 Q381 469 318 469 Q289 469 261.5 458.5 Q234 448 212 425.5 Q190 403 177 368.5 Q164 334 164 285 L164 0 L86 0 L86 735 L164 735 Z " />
<glyph glyph-name="i" unicode="i" horiz-adv-x="250" d="M164 525 L164 0 L86 0 L86 525 L164 525 Z M165 687 L165 613 L85 613 L85 687 L165 687 Z " />
<glyph glyph-name="j" unicode="j" horiz-adv-x="250" d="M164 525 L164 -62 Q164 -103 150.5 -133 Q137 -163 114.5 -182.5 Q92 -202 62.5 -212 Q33 -222 2 -222 L2 -155 Q22 -155 37.5 -150.5 Q53 -146 64 -135.5 Q75 -125 80.5 -107 Q86 -89 86 -61 L86 525 L164 525 Z M165 687 L165 613 L85 613 L85 687 L165 687 Z " />
<glyph glyph-name="k" unicode="k" horiz-adv-x="505" d="M86 0 L86 735 L164 735 L164 0 L86 0 Z M407 0 L173 284 L391 525 L484 525 L263 287 L502 0 L407 0 Z " />
<glyph glyph-name="l" unicode="l" horiz-adv-x="250" d="M86 0 L86 735 L164 735 L164 0 L86 0 Z " />
<glyph glyph-name="m" unicode="m" horiz-adv-x="912" d="M164 525 L164 413 Q184 467 226.5 501 Q269 535 335 535 Q398 535 435.5 497.5 Q473 460 484 398 Q507 465 555.5 500 Q604 535 664 535 Q744 535 785 483 Q826 431 826 339 L826 0 L749 0 L749 322 Q749 390 722.5 429.5 Q696 469 639 469 Q613 469 588 459 Q563 449 542.5 428 Q522 407 509 373 Q496 339 495 291 L495 0 L417 0 L417 322 Q417 390 391 429.5 Q365 469 308 469 Q282 469 256 458.5 Q230 448 209.5 425.5 Q189 403 176.5 367.5 Q164 332 164 282 L164 0 L86 0 L86 525 L164 525 Z " />
<glyph glyph-name="n" unicode="n" horiz-adv-x="595" d="M164 525 L164 415 Q184 467 227 501 Q270 535 340 535 Q425 535 467.5 483 Q510 431 510 339 L510 0 L432 0 L432 324 Q432 391 406 430 Q380 469 317 469 Q288 469 260.5 458.5 Q233 448 211.5 425.5 Q190 403 177 368.5 Q164 334 164 285 L164 0 L86 0 L86 525 L164 525 Z " />
<glyph glyph-name="o" unicode="o" horiz-adv-x="571" d="M286 471 Q210 471 168 415 Q126 359 126 262 Q126 165 168 109 Q210 53 286 53 Q361 53 403 109.5 Q445 166 445 262 Q445 358 403 414.5 Q361 471 286 471 Z M286 535 Q340 535 384 515.5 Q428 496 459.5 460.5 Q491 425 508 374.5 Q525 324 525 262 Q525 199 508 148.5 Q491 98 459.5 62.5 Q428 27 384 8 Q340 -11 286 -11 Q232 -11 188 8 Q144 27 112.5 62.5 Q81 98 64 148.5 Q47 199 47 262 Q47 324 64 374.5 Q81 425 112.5 460.5 Q144 496 188 515.5 Q232 535 286 535 Z " />
<glyph glyph-name="p" unicode="p" horiz-adv-x="603" d="M337 535 Q388 535 428.5 515 Q469 495 497 459 Q525 423 540 373 Q555 323 555 262 Q555 202 540 151.5 Q525 101 497 65 Q469 29 428.5 9 Q388 -11 337 -11 Q303 -11 274 -0.5 Q245 10 222.5 28.5 Q200 47 184 71.5 Q168 96 160 124 L160 -210 L82 -210 L82 525 L160 525 L160 398 Q168 426 183 450.5 Q198 475 220 494 Q242 513 271.5 524 Q301 535 337 535 Z M318 471 Q248 471 204 418.5 Q160 366 160 256 Q160 216 169.5 179.5 Q179 143 198.5 115 Q218 87 247.5 70.5 Q277 54 318 54 Q395 54 434.5 110.5 Q474 167 474 262 Q474 357 434.5 414 Q395 471 318 471 Z " />
<glyph glyph-name="q" unicode="q" horiz-adv-x="603" d="M265 535 Q301 535 330.5 524 Q360 513 382 494 Q404 475 419 450.5 Q434 426 442 398 L442 525 L520 525 L520 -210 L442 -210 L442 124 Q434 96 418 71.5 Q402 47 379 28.5 Q356 10 327.5 -0.5 Q299 -11 265 -11 Q214 -11 173.5 9 Q133 29 105 65 Q77 101 62 151.5 Q47 202 47 262 Q47 323 62 373 Q77 423 105 459 Q133 495 173.5 515 Q214 535 265 535 Z M281 471 Q205 471 167 414 Q129 357 129 262 Q129 167 167 110.5 Q205 54 281 54 Q322 54 352 70.5 Q382 87 402 115 Q422 143 432 179.5 Q442 216 442 256 Q442 311 430 351.5 Q418 392 396.5 418.5 Q375 445 345.5 458 Q316 471 281 471 Z " />
<glyph glyph-name="r" unicode="r" horiz-adv-x="357" d="M164 525 L164 397 Q172 427 187.5 452 Q203 477 225.5 495.5 Q248 514 277 524.5 Q306 535 341 535 L341 461 Q338 462 332.5 462 Q327 462 322 462 Q295 462 266.5 450.5 Q238 439 215.5 415 Q193 391 178.5 353.5 Q164 316 164 265 L164 0 L86 0 L86 525 L164 525 Z " />
<glyph glyph-name="s" unicode="s" horiz-adv-x="515" d="M260 535 Q354 535 408.5 494 Q463 453 465 384 L392 384 Q390 429 353.5 453.5 Q317 478 263 478 Q229 478 205 470.5 Q181 463 165.5 450.5 Q150 438 143 422 Q136 406 136 390 Q136 367 146.5 352 Q157 337 174.5 327.5 Q192 318 215.5 312.5 Q239 307 265 303 Q301 298 337.5 289.5 Q374 281 404 264.5 Q434 248 452.5 220.5 Q471 193 471 148 Q471 116 458.5 87.5 Q446 59 420 37 Q394 15 353.5 2 Q313 -11 257 -11 Q210 -11 172 0 Q134 11 106.5 31 Q79 51 63 79 Q47 107 46 142 L120 142 Q121 120 132 102.5 Q143 85 161.5 72.5 Q180 60 205 53.5 Q230 47 259 47 Q296 47 322 55.5 Q348 64 364 77 Q380 90 387 106.5 Q394 123 394 140 Q394 166 383 182.5 Q372 199 353 209.5 Q334 220 310 225.5 Q286 231 259 236 Q222 242 186.5 249.5 Q151 257 123 272.5 Q95 288 78 314 Q61 340 61 384 Q61 414 74 441 Q87 468 112.5 489 Q138 510 175 522.5 Q212 535 260 535 Z " />
<glyph glyph-name="longs" unicode="&#x17f;" horiz-adv-x="273" d="M245 745 Q281 745 319 738 L319 674 Q300 679 285 680.5 Q270 682 254 682 Q163 682 163 581 L163 0 L85 0 L85 580 Q85 664 127.5 704.5 Q170 745 245 745 Z " />
<glyph glyph-name="germandbls" unicode="&#xdf;" horiz-adv-x="584" d="M300 745 Q350 745 389.5 732 Q429 719 456.5 695.5 Q484 672 498.5 639.5 Q513 607 513 568 Q513 490 468 445.5 Q423 401 335 394 Q430 383 483 337 Q536 291 536 203 Q536 162 520.5 124.5 Q505 87 474.5 58 Q444 29 397.5 11.5 Q351 -6 290 -6 Q273 -6 258.5 -4.5 Q244 -3 228 0 L228 65 Q243 62 256 60.5 Q269 59 286 59 Q332 59 363.5 72 Q395 85 414.5 106 Q434 127 442.5 154 Q451 181 451 209 Q451 280 404.5 317.5 Q358 355 253 355 L253 419 Q303 419 337 428 Q371 437 392 454.5 Q413 472 422 497 Q431 522 431 555 Q431 579 424.5 602 Q418 625 402.5 642.5 Q387 660 361.5 670.5 Q336 681 298 681 Q227 681 195.5 648 Q164 615 164 556 L164 0 L86 0 L86 557 Q86 647 143.5 696 Q201 745 300 745 Z " />
<glyph glyph-name="t" unicode="t" horiz-adv-x="341" d="M177 644 L177 525 L334 525 L334 465 L177 465 L177 160 Q177 53 272 53 Q298 53 334 62 L334 -2 Q293 -11 260 -11 Q185 -11 142.5 28 Q100 67 100 151 L100 465 L17 465 L17 525 L100 525 L100 644 L177 644 Z " />
<glyph glyph-name="u" unicode="u" horiz-adv-x="595" d="M163 525 L163 201 Q163 133 189 94.5 Q215 56 278 56 Q307 56 335 66.5 Q363 77 384.5 99 Q406 121 419 155.5 Q432 190 432 239 L432 525 L509 525 L509 0 L432 0 L432 110 Q412 57 368.5 23 Q325 -11 255 -11 Q170 -11 127.5 41 Q85 93 85 186 L85 525 L163 525 Z " />
<glyph glyph-name="v" unicode="v" horiz-adv-x="491" d="M87 525 L226 137 Q232 120 236.5 100 Q241 80 245 61 Q248 79 253 99 Q258 119 265 137 L409 525 L486 525 L291 0 L195 0 L3 525 L87 525 Z " />
<glyph glyph-name="w" unicode="w" horiz-adv-x="787" d="M92 525 L207 136 Q212 119 216 101.5 Q220 84 223 64 Q226 83 230 101 Q234 119 239 136 L356 525 L433 525 L549 136 Q555 119 558.5 101 Q562 83 566 64 Q569 83 573 101 Q577 119 582 136 L697 525 L773 525 L612 0 L517 0 L411 356 Q406 375 401 397.5 Q396 420 393 440 Q390 420 384.5 397.5 Q379 375 374 356 L265 0 L173 0 L13 525 L92 525 Z " />
<glyph glyph-name="x" unicode="x" horiz-adv-x="519" d="M113 525 L237 357 Q250 341 258 321 Q263 330 269 340 Q275 350 281 358 L405 525 L489 525 L301 273 L506 0 L412 0 L280 177 Q266 194 255 218 Q250 207 244.5 196.5 Q239 186 232 177 L100 0 L12 0 L213 268 L24 525 L113 525 Z " />
<glyph glyph-name="y" unicode="y" horiz-adv-x="491" d="M87 525 L226 140 Q231 123 236 103 Q241 83 245 66 Q248 82 253 102 Q258 122 265 140 L409 525 L486 525 L266 -58 Q248 -109 226.5 -140.5 Q205 -172 178.5 -189.5 Q152 -207 120.5 -213.5 Q89 -220 50 -221 L50 -151 Q96 -151 125.5 -134 Q155 -117 175 -72 L201 -9 L3 525 L87 525 Z " />
<glyph glyph-name="z" unicode="z" horiz-adv-x="485" d="M33 0 L33 60 L351 465 L47 465 L47 525 L443 525 L443 465 L125 60 L456 60 L456 0 L33 0 Z " />
<glyph glyph-name="ae" unicode="&#xe6;" horiz-adv-x="916" d="M286 535 Q361 535 402.5 514 Q444 493 461 448 Q492 489 537.5 512 Q583 535 643 535 Q698 535 740.5 514.5 Q783 494 812.5 458 Q842 422 856.5 372 Q871 322 870 263 L476 263 L476 259 Q476 162 518.5 106.5 Q561 51 639 51 Q692 51 731.5 80 Q771 109 781 158 L858 158 Q852 117 832.5 85.5 Q813 54 784 32.5 Q755 11 718 0 Q681 -11 641 -11 Q562 -11 507.5 26.5 Q453 64 427 131 Q416 104 398.5 79 Q381 54 355 34.5 Q329 15 293.5 3 Q258 -9 212 -9 Q139 -9 98 28 Q57 65 57 131 Q57 219 124.5 266 Q192 313 340 313 L401 313 L401 377 Q401 420 373.5 448 Q346 476 278 476 Q219 476 182 451.5 Q145 427 142 379 L71 379 Q77 451 129 493 Q181 535 286 535 Z M233 50 Q264 50 294.5 60 Q325 70 348.5 90 Q372 110 386.5 139.5 Q401 169 401 208 L401 263 L342 263 Q133 263 133 142 Q133 98 159.5 74 Q186 50 233 50 Z M639 477 Q574 477 532 433.5 Q490 390 479 313 L794 313 Q792 348 780.5 378 Q769 408 749.5 430 Q730 452 702 464.5 Q674 477 639 477 Z " />
<glyph glyph-name="eng" unicode="&#x14b;" horiz-adv-x="599" d="M167 525 L167 415 Q187 467 231 501 Q275 535 344 535 Q430 535 471.5 483 Q513 431 513 339 L513 -41 Q513 -82 499.5 -112 Q486 -142 463.5 -161.5 Q441 -181 411.5 -191 Q382 -201 351 -201 L351 -134 Q369 -134 384.5 -130 Q400 -126 411.5 -115.5 Q423 -105 429 -87.5 Q435 -70 435 -42 L435 324 Q435 391 409 430 Q383 469 320 469 Q291 469 263.5 458.5 Q236 448 214.5 425.5 Q193 403 180 368.5 Q167 334 167 285 L167 0 L88 0 L88 525 L167 525 Z " />
<glyph glyph-name="eth" unicode="&#xf0;" horiz-adv-x="616" d="M247 745 Q354 745 431 688 L491 746 L523 714 L465 658 Q514 607 540.5 532.5 Q567 458 567 362 Q567 180 498.5 84.5 Q430 -11 300 -11 Q238 -11 191 9 Q144 29 112.5 64 Q81 99 65 146 Q49 193 49 247 Q49 294 62 339 Q75 384 103 419.5 Q131 455 175 476.5 Q219 498 281 498 Q350 498 400.5 466.5 Q451 435 484 390 Q482 459 464 514 Q446 569 413 607 L338 535 L307 567 L380 638 Q351 660 313.5 672 Q276 684 231 684 L247 745 Z M297 438 Q250 438 218 422 Q186 406 166.5 379 Q147 352 138.5 317 Q130 282 130 245 Q130 203 140 168.5 Q150 134 170.5 109.5 Q191 85 222.5 71 Q254 57 297 57 Q388 57 433 127.5 Q478 198 483 327 Q452 373 404 405.5 Q356 438 297 438 Z " />
<glyph glyph-name="ij" unicode="&#x133;" horiz-adv-x="500" d="M164 525 L164 0 L86 0 L86 525 L164 525 Z M165 687 L165 613 L85 613 L85 687 L165 687 Z M414 525 L414 -62 Q414 -103 400.5 -133 Q387 -163 364.5 -182.5 Q342 -202 312.5 -212 Q283 -222 252 -222 L252 -155 Q272 -155 287.5 -150.5 Q303 -146 314 -135.5 Q325 -125 330.5 -107 Q336 -89 336 -61 L336 525 L414 525 Z M415 687 L415 613 L335 613 L335 687 L415 687 Z " />
<glyph glyph-name="oe" unicode="&#x153;" horiz-adv-x="963" d="M688 535 Q744 535 787.5 513 Q831 491 860 452.5 Q889 414 903.5 363 Q918 312 917 254 L523 254 Q525 159 566.5 106 Q608 53 685 53 Q739 53 776 80 Q813 107 825 158 L904 158 Q883 74 825 31.5 Q767 -11 686 -11 Q617 -11 566 18.5 Q515 48 485 101 Q456 47 405.5 18 Q355 -11 286 -11 Q230 -11 186 8 Q142 27 111 62.5 Q80 98 63.5 148.5 Q47 199 47 262 Q47 324 63.5 374.5 Q80 425 111 460.5 Q142 496 186 515.5 Q230 535 286 535 Q355 535 405.5 505.5 Q456 476 485 422 Q516 475 567.5 505 Q619 535 688 535 Z M286 470 Q210 470 168 413 Q126 356 126 262 Q126 167 168 111 Q210 55 286 55 Q361 55 403.5 111 Q446 167 446 262 Q446 309 435 347.5 Q424 386 403.5 413 Q383 440 353 455 Q323 470 286 470 Z M685 477 Q614 477 573.5 432 Q533 387 525 306 L837 306 Q836 341 825 372 Q814 403 794.5 426.5 Q775 450 747 463.5 Q719 477 685 477 Z " />
<glyph glyph-name="oslash" unicode="&#xf8;" horiz-adv-x="569" d="M286 535 Q365 535 422 495 L443 525 L505 525 L460 462 Q492 426 508.5 375.5 Q525 325 525 262 Q525 199 508.5 148.5 Q492 98 461 62.5 Q430 27 385.5 8 Q341 -11 286 -11 Q245 -11 211 -1 Q177 9 149 28 L129 0 L65 0 L110 63 Q47 135 47 262 Q47 324 63.5 374.5 Q80 425 111 460.5 Q142 496 186 515.5 Q230 535 286 535 Z M448 262 Q448 344 414 398 L191 86 Q230 55 286 55 Q323 55 353 69.5 Q383 84 404 111 Q425 138 436.5 176.5 Q448 215 448 262 Z M286 469 Q210 469 166.5 412.5 Q123 356 123 262 Q123 178 156 126 L380 437 Q340 469 286 469 Z " />
<glyph glyph-name="thorn" unicode="&#xfe;" horiz-adv-x="605" d="M338 535 Q389 535 429.5 515 Q470 495 498 459 Q526 423 541 373 Q556 323 556 262 Q556 202 541 151.5 Q526 101 498 65 Q470 29 429.5 9 Q389 -11 338 -11 Q305 -11 276 -0.5 Q247 10 224.5 28.5 Q202 47 185.5 71.5 Q169 96 161 124 L161 -217 L84 -217 L84 735 L161 735 L161 398 Q169 426 184.5 450.5 Q200 475 222 494 Q244 513 273 524 Q302 535 338 535 Z M320 471 Q250 471 205.5 418 Q161 365 161 256 Q161 216 170.5 179.5 Q180 143 199.5 115 Q219 87 249 70.5 Q279 54 320 54 Q396 54 435.5 110.5 Q475 167 475 262 Q475 357 435.5 414 Q396 471 320 471 Z " />
<glyph glyph-name="zero" unicode="0" horiz-adv-x="604" d="M302 658 Q257 658 224 636 Q191 614 170 574.5 Q149 535 139 480 Q129 425 129 360 Q129 295 139 240 Q149 185 170 145.5 Q191 106 224 84 Q257 62 302 62 Q347 62 379.5 84 Q412 106 433 145.5 Q454 185 464 240 Q474 295 474 360 Q474 425 464 480 Q454 535 433 574.5 Q412 614 379.5 636 Q347 658 302 658 Z M302 730 Q360 730 407.5 705.5 Q455 681 489 633.5 Q523 586 541.5 517 Q560 448 560 360 Q560 271 541.5 202 Q523 133 489 85.5 Q455 38 407.5 13.5 Q360 -11 302 -11 Q244 -11 196.5 13.5 Q149 38 115 85.5 Q81 133 62.5 202 Q44 271 44 360 Q44 448 62.5 517 Q81 586 115 633.5 Q149 681 196.5 705.5 Q244 730 302 730 Z " />
<glyph glyph-name="one" unicode="1" horiz-adv-x="604" d="M191 0 L191 66 L334 66 L334 645 L155 522 L123 580 L334 720 L414 720 L414 66 L535 66 L535 0 L191 0 Z " />
<glyph glyph-name="two" unicode="2" horiz-adv-x="604" d="M58 0 L58 65 Q185 153 263 218 Q341 283 384.5 334 Q428 385 443 427 Q458 469 458 513 Q458 542 449.5 569 Q441 596 422.5 617 Q404 638 375.5 650.5 Q347 663 307 663 Q226 663 186.5 625.5 Q147 588 139 522 L66 522 Q69 570 87.5 608.5 Q106 647 138.5 674 Q171 701 215 715.5 Q259 730 312 730 Q370 730 413 713 Q456 696 484.5 667 Q513 638 527 599 Q541 560 541 517 Q541 464 523.5 416 Q506 368 462 316 Q418 264 344 203.5 Q270 143 156 66 L547 66 L547 0 L58 0 Z " />
<glyph glyph-name="three" unicode="3" horiz-adv-x="604" d="M266 401 Q368 401 411 436.5 Q454 472 454 540 Q454 568 446 591 Q438 614 420 631 Q402 648 373 657.5 Q344 667 302 667 Q223 667 185.5 634.5 Q148 602 140 543 L65 543 Q73 630 136.5 680 Q200 730 305 730 Q362 730 405.5 716.5 Q449 703 478.5 679 Q508 655 523 621.5 Q538 588 538 549 Q538 465 488.5 421.5 Q439 378 351 370 Q443 365 494.5 320 Q546 275 546 190 Q546 148 529 111.5 Q512 75 480.5 48 Q449 21 403 5 Q357 -11 300 -11 Q248 -11 205 3 Q162 17 130 42 Q98 67 79 102.5 Q60 138 57 181 L133 181 Q140 121 181.5 86.5 Q223 52 302 52 Q343 52 373.5 63.5 Q404 75 424 94.5 Q444 114 454 140 Q464 166 464 194 Q464 264 417.5 301 Q371 338 266 338 L266 401 Z " />
<glyph glyph-name="four" unicode="4" horiz-adv-x="604" d="M371 0 L371 210 L51 210 L51 276 L355 720 L452 720 L452 275 L556 275 L556 210 L452 210 L452 0 L371 0 Z M371 639 L123 275 L371 275 L371 639 Z " />
<glyph glyph-name="five" unicode="5" horiz-adv-x="604" d="M506 720 L506 655 L172 655 L161 450 Q190 455 225 459.5 Q260 464 304 464 Q362 464 408 447.5 Q454 431 485.5 401 Q517 371 533.5 329.5 Q550 288 550 239 Q550 185 531.5 139 Q513 93 479.5 60 Q446 27 398 8 Q350 -11 292 -11 Q186 -11 125.5 41.5 Q65 94 58 183 L131 183 Q137 123 176.5 87.5 Q216 52 294 52 Q335 52 367.5 65.5 Q400 79 422 103 Q444 127 455.5 160 Q467 193 467 232 Q467 268 457 299.5 Q447 331 425 353.5 Q403 376 368 389 Q333 402 283 402 Q235 402 183 397.5 Q131 393 83 383 L104 720 L506 720 Z " />
<glyph glyph-name="six" unicode="6" horiz-adv-x="604" d="M327 730 Q371 730 410 717.5 Q449 705 478.5 682 Q508 659 526.5 626 Q545 593 549 552 L473 552 Q465 611 424 640.5 Q383 670 326 670 Q279 670 242.5 648.5 Q206 627 181.5 588 Q157 549 143.5 494 Q130 439 129 372 Q161 413 211 440.5 Q261 468 327 468 Q388 468 431.5 448.5 Q475 429 503 397.5 Q531 366 543.5 324.5 Q556 283 556 240 Q556 190 540 144.5 Q524 99 493 64.5 Q462 30 416 9.5 Q370 -11 309 -11 Q246 -11 197.5 13.5 Q149 38 115.5 84.5 Q82 131 65 198 Q48 265 48 349 Q48 434 66.5 504.5 Q85 575 120.5 625 Q156 675 208 702.5 Q260 730 327 730 Z M130 316 Q132 258 144 210.5 Q156 163 178.5 128.5 Q201 94 234.5 75 Q268 56 312 56 Q354 56 384.5 69.5 Q415 83 435.5 107 Q456 131 466 163.5 Q476 196 476 234 Q476 268 467.5 299.5 Q459 331 440 355.5 Q421 380 389.5 394.5 Q358 409 312 409 Q255 409 208 382 Q161 355 130 316 Z " />
<glyph glyph-name="seven" unicode="7" horiz-adv-x="604" d="M181 0 L468 655 L57 655 L57 720 L548 720 L548 655 L268 0 L181 0 Z " />
<glyph glyph-name="eight" unicode="8" horiz-adv-x="604" d="M302 667 Q226 667 187.5 630.5 Q149 594 149 538 Q149 471 192.5 438 Q236 405 302 405 Q368 405 411.5 438 Q455 471 455 538 Q455 594 416 630.5 Q377 667 302 667 Z M302 344 Q268 344 237 336.5 Q206 329 182 312 Q158 295 144 267.5 Q130 240 130 200 Q130 136 173.5 96 Q217 56 302 56 Q387 56 430 96 Q473 136 473 200 Q473 240 459 267.5 Q445 295 421 312 Q397 329 366 336.5 Q335 344 302 344 Z M302 730 Q359 730 402 716 Q445 702 474 677 Q503 652 518 618.5 Q533 585 533 545 Q533 482 493.5 435 Q454 388 374 375 Q413 372 446 358 Q479 344 502.5 319.5 Q526 295 539 261.5 Q552 228 552 188 Q552 143 535.5 106.5 Q519 70 487.5 43.5 Q456 17 409.5 3 Q363 -11 302 -11 Q180 -11 115.5 43.5 Q51 98 51 188 Q51 228 64 261 Q77 294 100.5 318 Q124 342 156.5 356.5 Q189 371 229 374 Q151 388 110.5 434 Q70 480 70 546 Q70 585 85 619 Q100 653 129 677.5 Q158 702 201.5 716 Q245 730 302 730 Z " />
<glyph glyph-name="nine" unicode="9" horiz-adv-x="604" d="M294 730 Q357 730 406 705.5 Q455 681 488.5 634.5 Q522 588 539 521 Q556 454 556 370 Q556 285 537.5 215 Q519 145 483 94.5 Q447 44 394.5 16.5 Q342 -11 275 -11 Q232 -11 193.5 0.5 Q155 12 125.5 35 Q96 58 77.5 91.5 Q59 125 55 169 L128 169 Q136 109 177.5 79.5 Q219 50 276 50 Q324 50 360.5 71.5 Q397 93 421.5 132.5 Q446 172 459 226.5 Q472 281 474 347 Q442 307 392.5 279.5 Q343 252 275 252 Q214 252 171 271.5 Q128 291 100.5 322.5 Q73 354 60.5 395 Q48 436 48 480 Q48 530 63.5 575.5 Q79 621 110 655.5 Q141 690 187 710 Q233 730 294 730 Z M291 663 Q249 663 218 649.5 Q187 636 167 612.5 Q147 589 137 556.5 Q127 524 127 486 Q127 452 135.5 420.5 Q144 389 163.5 365 Q183 341 214 326.5 Q245 312 291 312 Q349 312 396 338.5 Q443 365 473 404 Q471 462 458.5 510 Q446 558 423.5 592 Q401 626 368 644.5 Q335 663 291 663 Z " />
<glyph glyph-name="onequarter" unicode="&#xbc;" horiz-adv-x="792" d="M86 362 L86 411 L179 411 L179 682 L70 611 L46 653 L181 740 L243 740 L243 411 L319 411 L319 362 L86 362 Z M677 374 L677 147 L735 147 L735 98 L677 98 L677 0 L617 0 L617 98 L437 98 L437 146 L607 374 L677 374 Z M492 147 L617 147 L617 316 L492 147 Z M100 0 L658 735 L737 735 L178 0 L100 0 Z " />
<glyph glyph-name="onehalf" unicode="&#xbd;" horiz-adv-x="792" d="M82 362 L82 411 L175 411 L175 682 L66 611 L42 653 L177 740 L239 740 L239 411 L315 411 L315 362 L82 362 Z M610 381 Q680 381 713 347.5 Q746 314 746 268 Q746 242 738 218.5 Q730 195 708 169.5 Q686 144 648.5 115 Q611 86 551 49 L749 49 L749 0 L457 0 L457 44 Q526 87 569 118.5 Q612 150 636 174.5 Q660 199 668 218.5 Q676 238 676 258 Q676 287 659.5 308.5 Q643 330 603 330 Q564 330 544.5 310.5 Q525 291 520 258 L461 258 Q465 312 503.5 346.5 Q542 381 610 381 Z M95 0 L653 735 L732 735 L173 0 L95 0 Z " />
<glyph glyph-name="threequarters" unicode="&#xbe;" horiz-adv-x="792" d="M643 374 L643 147 L701 147 L701 98 L643 98 L643 0 L583 0 L583 98 L403 98 L403 146 L573 374 L643 374 Z M458 147 L583 147 L583 316 L458 147 Z M208 743 Q277 743 310.5 716 Q344 689 344 646 Q344 607 320 584 Q296 561 255 553 Q299 547 324 523 Q349 499 349 460 Q349 415 311.5 385 Q274 355 205 355 Q141 355 103 385 Q65 415 61 463 L122 463 Q127 433 147.5 416 Q168 399 206 399 Q248 399 266.5 418.5 Q285 438 285 464 Q285 496 261.5 514 Q238 532 186 532 L186 573 Q236 573 258 589 Q280 605 280 637 Q280 664 263.5 680.5 Q247 697 206 697 Q168 697 149.5 682 Q131 667 127 637 L66 637 Q71 685 108 714 Q145 743 208 743 Z M92 0 L650 735 L729 735 L170 0 L92 0 Z " />
<glyph glyph-name="onethird" unicode="&#x2153;" horiz-adv-x="792" d="M80 362 L80 411 L173 411 L173 682 L64 611 L40 653 L175 740 L237 740 L237 411 L313 411 L313 362 L80 362 Z M604 381 Q673 381 706.5 354 Q740 327 740 284 Q740 245 716 222 Q692 199 651 191 Q695 185 720 161 Q745 137 745 98 Q745 53 707.5 23 Q670 -7 601 -7 Q537 -7 499 23 Q461 53 457 101 L518 101 Q523 71 543.5 54 Q564 37 602 37 Q644 37 662.5 56.5 Q681 76 681 102 Q681 134 657.5 152 Q634 170 582 170 L582 211 Q632 211 654 227 Q676 243 676 275 Q676 302 659.5 318.5 Q643 335 602 335 Q564 335 545.5 320 Q527 305 523 275 L462 275 Q467 323 504 352 Q541 381 604 381 Z M89 0 L647 735 L726 735 L167 0 L89 0 Z " />
<glyph glyph-name="rupee" unicode="&#x20a8;" horiz-adv-x="604" d="M562 720 L562 668 L385 668 Q423 651 442 614 Q461 577 463 535 L562 535 L562 482 L457 482 Q449 418 412 376.5 Q375 335 306 326 Q336 321 364.5 307.5 Q393 294 415 259.5 Q437 225 450.5 163.5 Q464 102 464 0 L380 0 Q380 95 368 152.5 Q356 210 335 240.5 Q314 271 285 281 Q256 291 222 291 L42 291 L42 354 L237 354 Q272 354 297 364.5 Q322 375 338 392.5 Q354 410 362 433 Q370 456 372 482 L42 482 L42 535 L372 535 Q370 559 362.5 581 Q355 603 339 619.5 Q323 636 299.5 645.5 Q276 655 243 655 L42 655 L42 720 L562 720 Z " />
<glyph glyph-name="dollar" unicode="&#x24;" horiz-adv-x="618" d="M283 -103 L283 -10 Q230 -7 187.5 8.5 Q145 24 114 49 Q83 74 64 106.5 Q45 139 41 176 L121 176 Q129 130 168.5 96 Q208 62 283 56 L283 338 Q240 346 198.5 356.5 Q157 367 124 387 Q91 407 71 440 Q51 473 51 526 Q51 563 65 598 Q79 633 108 661 Q137 689 180.5 707.5 Q224 726 283 729 L283 814 L333 814 L333 729 Q386 726 427.5 710.5 Q469 695 499 670.5 Q529 646 547 614 Q565 582 571 545 L492 545 Q483 591 445.5 624.5 Q408 658 333 663 L333 403 Q377 395 421 384 Q465 373 499.5 351.5 Q534 330 555.5 295 Q577 260 577 204 Q577 163 561 126 Q545 89 514.5 60 Q484 31 438.5 12 Q393 -7 333 -10 L333 -103 L283 -103 Z M497 192 Q497 226 483.5 249.5 Q470 273 447.5 288.5 Q425 304 395.5 313 Q366 322 333 329 L333 55 Q376 58 407 71 Q438 84 458 103 Q478 122 487.5 145 Q497 168 497 192 Z M129 532 Q129 502 141 482.5 Q153 463 174 449.5 Q195 436 223 427.5 Q251 419 283 413 L283 663 Q240 660 210.5 647.5 Q181 635 163 617 Q145 599 137 577 Q129 555 129 532 Z " />
<glyph glyph-name="cent" unicode="&#xa2;" horiz-adv-x="572" d="M280 4 L280 105 Q178 114 121.5 186.5 Q65 259 65 377 Q65 435 80 483 Q95 531 123 566 Q151 601 191 622 Q231 643 280 648 L280 732 L323 732 L323 649 Q401 644 455 599 Q509 554 525 471 L451 471 Q440 517 407.5 550 Q375 583 323 588 L323 166 Q374 171 407 204 Q440 237 451 283 L525 283 Q509 200 455 154.5 Q401 109 323 104 L323 4 L280 4 Z M138 377 Q138 290 174.5 233.5 Q211 177 280 167 L280 587 Q245 582 218.5 565 Q192 548 174 520.5 Q156 493 147 456.5 Q138 420 138 377 Z " />
<glyph glyph-name="sterling" unicode="&#xa3;" horiz-adv-x="618" d="M187 320 Q193 287 196 254.5 Q199 222 195 189.5 Q191 157 178.5 124.5 Q166 92 141 59 L536 59 L536 0 L63 0 L63 59 Q89 93 101.5 126 Q114 159 117 191 Q120 223 115.5 255 Q111 287 104 320 L32 320 L32 366 L93 366 Q85 401 78.5 437 Q72 473 72 511 Q72 550 85.5 589 Q99 628 128.5 659.5 Q158 691 204.5 710.5 Q251 730 316 730 Q372 730 415 716.5 Q458 703 489 679 Q520 655 538.5 622.5 Q557 590 563 552 L483 552 Q478 575 466.5 595.5 Q455 616 435 631 Q415 646 385 655 Q355 664 314 664 Q267 664 236.5 650 Q206 636 188.5 614 Q171 592 164 565.5 Q157 539 157 515 Q157 477 163.5 440 Q170 403 178 366 L409 366 L409 320 L187 320 Z " />
<glyph glyph-name="yen" unicode="&#xa5;" horiz-adv-x="592" d="M337 312 L337 209 L459 209 L459 163 L337 163 L337 0 L254 0 L254 163 L136 163 L136 209 L254 209 L254 312 L76 312 L76 358 L236 358 L9 720 L106 720 L298 403 L494 720 L583 720 L355 358 L517 358 L517 312 L337 312 Z " />
<glyph glyph-name="florin" unicode="&#x192;" horiz-adv-x="401" d="M310 744 Q327 744 345.5 742 Q364 740 385 736 L385 670 Q349 680 319 680 Q225 680 225 580 L225 525 L385 525 L385 465 L225 465 L225 -55 Q225 -139 180.5 -180 Q136 -221 61 -221 Q44 -221 25.5 -218.5 Q7 -216 -13 -212 L-13 -148 Q23 -157 52 -157 Q147 -157 147 -55 L147 465 L64 465 L64 525 L147 525 L147 578 Q147 663 191 703.5 Q235 744 310 744 Z " />
<glyph glyph-name="Euro" unicode="&#x20ac;" horiz-adv-x="658" d="M155 417 Q153 403 153 388 Q153 373 153 358 Q153 339 154 321.5 Q155 304 157 287 L379 287 L363 244 L164 244 Q183 158 235 107 Q287 56 378 56 Q459 56 507 95.5 Q555 135 572 200 L652 200 Q630 104 561 45.5 Q492 -13 379 -13 Q317 -13 267 6 Q217 25 179.5 59 Q142 93 117.5 140.5 Q93 188 81 244 L3 244 L20 287 L74 287 Q72 304 71 321.5 Q70 339 70 358 Q70 388 73 417 L3 417 L20 462 L79 462 Q90 519 114.5 568 Q139 617 176.5 652.5 Q214 688 264.5 708 Q315 728 379 728 Q492 728 561 669.5 Q630 611 652 515 L572 515 Q555 581 507 620.5 Q459 660 378 660 Q331 660 295 646 Q259 632 232.5 606 Q206 580 188.5 543.5 Q171 507 162 462 L465 462 L447 417 L155 417 Z " />
<glyph glyph-name="numbersign" unicode="&#x23;" horiz-adv-x="694" d="M175 0 L175 204 L60 204 L60 263 L175 263 L175 470 L60 470 L60 529 L175 529 L175 735 L249 735 L249 529 L444 529 L444 735 L519 735 L519 529 L633 529 L633 470 L519 470 L519 263 L633 263 L633 204 L519 204 L519 0 L444 0 L444 204 L249 204 L249 0 L175 0 Z M249 263 L444 263 L444 470 L249 470 L249 263 Z " />
<glyph glyph-name="currency" unicode="&#xa4;" horiz-adv-x="729" d="M365 639 Q413 639 451 622.5 Q489 606 515 577 L651 714 L698 667 L556 526 Q573 495 581.5 457.5 Q590 420 590 380 Q590 296 557 233 L698 92 L651 47 L515 182 Q489 153 451.5 137 Q414 121 365 121 Q315 121 277.5 137.5 Q240 154 213 183 L77 47 L31 93 L172 234 Q155 265 147.5 302 Q140 339 140 380 Q140 421 147.5 457.5 Q155 494 172 525 L31 666 L77 713 L213 576 Q240 605 277.5 622 Q315 639 365 639 Z M365 573 Q327 573 299 557.5 Q271 542 253 516 Q235 490 226 455 Q217 420 217 380 Q217 339 226 304 Q235 269 253 243 Q271 217 299 202 Q327 187 365 187 Q402 187 430 202 Q458 217 476.5 243 Q495 269 504 304 Q513 339 513 380 Q513 420 504 455 Q495 490 476.5 516 Q458 542 430 557.5 Q402 573 365 573 Z " />
<glyph glyph-name="percent" unicode="&#x25;" horiz-adv-x="852" d="M223 688 Q168 688 140 649 Q112 610 112 545 Q112 480 142 441 Q172 402 223 402 Q279 402 306.5 441 Q334 480 334 545 Q334 611 304 649.5 Q274 688 223 688 Z M223 745 Q264 745 296.5 730.5 Q329 716 351.5 689.5 Q374 663 386 626 Q398 589 398 545 Q398 502 386 465 Q374 428 351.5 401 Q329 374 297 359 Q265 344 224 344 Q182 344 149.5 359 Q117 374 94.5 400.5 Q72 427 60 463.5 Q48 500 48 544 Q48 587 60 624 Q72 661 94.5 688 Q117 715 149.5 730 Q182 745 223 745 Z M748 735 L192 0 L104 0 L660 735 L748 735 Z M628 334 Q574 334 546 294.5 Q518 255 518 190 Q518 125 547.5 86.5 Q577 48 628 48 Q684 48 712 87 Q740 126 740 190 Q740 256 710 295 Q680 334 628 334 Z M628 390 Q669 390 701.5 375 Q734 360 756.5 333.5 Q779 307 791 270.5 Q803 234 803 190 Q803 147 791 110.5 Q779 74 756.5 47 Q734 20 702 4.5 Q670 -11 629 -11 Q588 -11 555.5 4 Q523 19 500.5 45.5 Q478 72 466 108.5 Q454 145 454 189 Q454 232 466 269 Q478 306 500.5 333 Q523 360 555 375 Q587 390 628 390 Z " />
<glyph glyph-name="perthousand" unicode="&#x2030;" horiz-adv-x="1247" d="M223 688 Q168 688 140 649 Q112 610 112 545 Q112 480 142 441 Q172 402 223 402 Q279 402 306.5 441 Q334 480 334 545 Q334 611 304 649.5 Q274 688 223 688 Z M223 745 Q264 745 296.5 730.5 Q329 716 351.5 689.5 Q374 663 386 626 Q398 589 398 545 Q398 502 386 465 Q374 428 351.5 401 Q329 374 297 359 Q265 344 224 344 Q182 344 149.5 359 Q117 374 94.5 400.5 Q72 427 60 463.5 Q48 500 48 544 Q48 587 60 624 Q72 661 94.5 688 Q117 715 149.5 730 Q182 745 223 745 Z M748 735 L192 0 L104 0 L660 735 L748 735 Z M628 334 Q574 334 546 294.5 Q518 255 518 190 Q518 125 547.5 86.5 Q577 48 628 48 Q684 48 712 87 Q740 126 740 190 Q740 256 710 295 Q680 334 628 334 Z M628 390 Q669 390 701.5 375 Q734 360 756.5 333.5 Q779 307 791 270.5 Q803 234 803 190 Q803 147 791 110.5 Q779 74 756.5 47 Q734 20 702 4.5 Q670 -11 629 -11 Q588 -11 555.5 4 Q523 19 500.5 45.5 Q478 72 466 108.5 Q454 145 454 189 Q454 232 466 269 Q478 306 500.5 333 Q523 360 555 375 Q587 390 628 390 Z M1023 334 Q968 334 940 294.5 Q912 255 912 190 Q912 125 942 86.5 Q972 48 1023 48 Q1079 48 1106.5 87 Q1134 126 1134 190 Q1134 256 1104 295 Q1074 334 1023 334 Z M1023 390 Q1064 390 1096.5 375 Q1129 360 1151.5 333.5 Q1174 307 1186 270.5 Q1198 234 1198 190 Q1198 147 1186 110.5 Q1174 74 1151.5 47 Q1129 20 1096.5 4.5 Q1064 -11 1023 -11 Q982 -11 950 4 Q918 19 895.5 45.5 Q873 72 861 108.5 Q849 145 849 189 Q849 232 861 269 Q873 306 895.5 333 Q918 360 950 375 Q982 390 1023 390 Z " />
<glyph glyph-name="fraction" unicode="&#x2044;" horiz-adv-x="637" d="M0 0 L558 735 L637 735 L78 0 L0 0 Z " />
<glyph glyph-name="asciicircum" unicode="&#x5e;" horiz-adv-x="616" d="M551 502 L504 455 L308 652 L112 456 L65 502 L308 745 L551 502 Z " />
<glyph glyph-name="asciitilde" unicode="&#x7e;" horiz-adv-x="616" d="M191 662 Q231 662 263 647 Q295 632 322 614 Q349 596 374 581 Q399 566 425 566 Q457 566 475.5 582.5 Q494 599 502 642 L551 616 Q545 582 533 559 Q521 536 504.5 522 Q488 508 467 502 Q446 496 424 496 Q386 496 356.5 511 Q327 526 301 544.5 Q275 563 248.5 578 Q222 593 191 593 Q159 593 140.5 575.5 Q122 558 114 516 L64 541 Q76 609 111 635.5 Q146 662 191 662 Z " />
<glyph glyph-name="periodcentered" unicode="&#xb7;" horiz-adv-x="609" d="M347 347 L347 261 L262 261 L262 347 L347 347 Z " />
<glyph glyph-name="plus" unicode="&#x2b;" horiz-adv-x="616" d="M341 344 L572 344 L572 278 L341 278 L341 46 L275 46 L275 278 L43 278 L43 344 L275 344 L275 576 L341 576 L341 344 Z " />
<glyph glyph-name="multiply" unicode="&#xd7;" horiz-adv-x="616" d="M308 358 L504 554 L551 508 L354 311 L551 115 L504 68 L307 264 L112 68 L65 115 L261 311 L65 507 L112 554 L308 358 Z " />
<glyph glyph-name="plusminus" unicode="&#xb1;" horiz-adv-x="616" d="M341 479 L572 479 L572 413 L341 413 L341 181 L275 181 L275 413 L43 413 L43 479 L275 479 L275 711 L341 711 L341 479 Z M43 48 L43 114 L572 114 L572 48 L43 48 Z " />
<glyph glyph-name="less" unicode="&#x3c;" horiz-adv-x="616" d="M146 312 L553 89 L521 31 L63 287 L63 339 L521 594 L553 537 L146 312 Z " />
<glyph glyph-name="equal" unicode="&#x3d;" horiz-adv-x="616" d="M43 163 L43 229 L572 229 L572 163 L43 163 Z M43 394 L43 460 L572 460 L572 394 L43 394 Z " />
<glyph glyph-name="greater" unicode="&#x3e;" horiz-adv-x="609" d="M470 313 L63 537 L94 594 L553 339 L553 287 L94 31 L63 89 L470 313 Z " />
<glyph glyph-name="approxequal" unicode="&#x2248;" horiz-adv-x="609" d="M191 507 Q231 507 263 492 Q295 477 322 458.5 Q349 440 374 425 Q399 410 425 410 Q457 410 475.5 426.5 Q494 443 502 486 L551 461 Q540 393 504.5 366.5 Q469 340 424 340 Q386 340 356.5 355 Q327 370 301 388.5 Q275 407 248.5 422 Q222 437 191 437 Q159 437 140.5 420 Q122 403 114 360 L64 385 Q76 453 111 480 Q146 507 191 507 Z M191 266 Q231 266 263 251 Q295 236 322 218.5 Q349 201 374 186 Q399 171 425 171 Q457 171 475.5 187 Q494 203 502 246 L551 221 Q540 153 504.5 127 Q469 101 424 101 Q386 101 356.5 116 Q327 131 301 149 Q275 167 248.5 182 Q222 197 191 197 Q159 197 140.5 180 Q122 163 114 120 L64 146 Q76 213 111 239.5 Q146 266 191 266 Z " />
<glyph glyph-name="notequal" unicode="&#x2260;" horiz-adv-x="616" d="M267 163 L193 32 L120 32 L195 163 L43 163 L43 229 L233 229 L327 394 L43 394 L43 460 L365 460 L432 577 L503 577 L436 460 L572 460 L572 394 L399 394 L305 229 L572 229 L572 163 L267 163 Z " />
<glyph glyph-name="lessequal" unicode="&#x2264;" horiz-adv-x="616" d="M150 428 L547 212 L515 154 L67 402 L67 455 L515 703 L547 646 L150 428 Z M43 26 L43 92 L572 92 L572 26 L43 26 Z " />
<glyph glyph-name="greaterequal" unicode="&#x2265;" horiz-adv-x="609" d="M464 429 L67 646 L99 703 L547 455 L547 402 L99 154 L67 212 L464 429 Z M43 26 L43 92 L572 92 L572 26 L43 26 Z " />
<glyph glyph-name="divide" unicode="&#xf7;" horiz-adv-x="616" d="M43 278 L43 344 L572 344 L572 278 L43 278 Z M351 157 L351 67 L264 67 L264 157 L351 157 Z M351 564 L351 474 L264 474 L264 564 L351 564 Z " />
<glyph glyph-name="minus" unicode="&#x2212;" horiz-adv-x="616" d="M43 278 L43 344 L572 344 L572 278 L43 278 Z " />
<glyph glyph-name="partialdiff" unicode="&#x2202;" horiz-adv-x="616" d="M247 745 Q320 745 379.5 718 Q439 691 480.5 641 Q522 591 544.5 520.5 Q567 450 567 362 Q567 180 498.5 84.5 Q430 -11 300 -11 Q238 -11 191 9 Q144 29 112.5 64 Q81 99 65 146 Q49 193 49 247 Q49 294 62 339 Q75 384 103 419.5 Q131 455 175 476.5 Q219 498 281 498 Q350 498 400.5 466.5 Q451 435 484 390 Q482 457 465 511.5 Q448 566 416 604 Q384 642 337.5 663 Q291 684 231 684 L247 745 Z M297 438 Q250 438 218 422 Q186 406 166.5 379 Q147 352 138.5 317 Q130 282 130 245 Q130 203 140 168.5 Q150 134 170.5 109.5 Q191 85 222.5 71 Q254 57 297 57 Q388 57 433 127.5 Q478 198 483 327 Q452 373 404 405.5 Q356 438 297 438 Z " />
<glyph glyph-name="product" unicode="&#x220f;" horiz-adv-x="679" d="M515 0 L515 655 L165 655 L165 0 L84 0 L84 720 L594 720 L594 0 L515 0 Z " />
<glyph glyph-name="summation" unicode="&#x2211;" horiz-adv-x="616" d="M575 720 L575 655 L141 655 L362 378 L131 66 L585 66 L585 0 L37 0 L37 67 L267 378 L47 653 L47 720 L575 720 Z " />
<glyph glyph-name="radical" unicode="&#x221a;" horiz-adv-x="668" d="M303 0 L133 458 L6 458 L6 525 L191 525 L353 81 L594 735 L668 735 L400 0 L303 0 Z " />
<glyph glyph-name="infinity" unicode="&#x221e;" horiz-adv-x="828" d="M595 521 Q564 521 541.5 509.5 Q519 498 502 479 Q485 460 472 435 Q459 410 449 383 Q460 351 472.5 322.5 Q485 294 502 272 Q519 250 542.5 237 Q566 224 599 224 Q654 224 684 264 Q714 304 714 373 Q714 442 683 481.5 Q652 521 595 521 Z M234 601 Q274 601 304 588.5 Q334 576 356.5 554.5 Q379 533 395 504.5 Q411 476 423 444 Q436 476 452 504.5 Q468 533 490 554.5 Q512 576 540 588.5 Q568 601 605 601 Q685 601 730.5 541.5 Q776 482 776 373 Q776 319 762.5 276.5 Q749 234 725 204.5 Q701 175 667 159.5 Q633 144 593 144 Q553 144 523 156.5 Q493 169 471 190.5 Q449 212 433 241 Q417 270 404 302 Q391 270 375 241 Q359 212 337.5 190.5 Q316 169 288 156.5 Q260 144 224 144 Q143 144 97.5 203.5 Q52 263 52 372 Q52 426 65.5 468.5 Q79 511 103 540.5 Q127 570 160.5 585.5 Q194 601 234 601 Z M229 521 Q173 521 143.5 481 Q114 441 114 372 Q114 302 144.5 262.5 Q175 223 232 223 Q263 223 286 234.5 Q309 246 326 265 Q343 284 355.5 308.5 Q368 333 379 360 Q368 392 355.5 421 Q343 450 326 472.5 Q309 495 285.5 508 Q262 521 229 521 Z " />
<glyph glyph-name="integral" unicode="&#x222b;" horiz-adv-x="614" d="M269 562 Q269 656 319.5 702 Q370 748 473 736 L473 668 Q410 676 377 649.5 Q344 623 344 560 L344 -44 Q344 -138 293.5 -184 Q243 -230 141 -218 L141 -150 Q204 -158 236.5 -132.5 Q269 -107 269 -44 L269 562 Z " />
<glyph glyph-name="lozenge" unicode="&#x25ca;" horiz-adv-x="491" d="M291 -222 L195 -222 L21 256 L199 735 L296 735 L469 257 L291 -222 Z M245 -140 L393 250 L246 653 L97 263 L245 -140 Z " />
<glyph glyph-name="logicalnot" unicode="&#xac;" horiz-adv-x="616" d="M491 0 L491 278 L43 278 L43 344 L572 344 L572 0 L491 0 Z " />
<glyph glyph-name="estimated" unicode="&#x212e;" horiz-adv-x="728" d="M384 730 Q455 730 510.5 706.5 Q566 683 605.5 639 Q645 595 667 532.5 Q689 470 694 391 L143 391 Q142 383 142 375.5 Q142 368 142 360 Q142 295 157 240.5 Q172 186 202.5 146 Q233 106 278 84 Q323 62 383 62 Q465 62 517 101.5 Q569 141 588 206 L673 206 Q662 158 637.5 118 Q613 78 576 49.5 Q539 21 490.5 5 Q442 -11 384 -11 Q306 -11 244.5 18.5 Q183 48 140.5 98 Q98 148 75.5 215.5 Q53 283 53 360 Q53 436 75.5 503.5 Q98 571 140.5 621 Q183 671 244.5 700.5 Q306 730 384 730 Z M380 662 Q332 662 293.5 647 Q255 632 226.5 605 Q198 578 179 540 Q160 502 151 456 L595 456 Q590 500 575 537.5 Q560 575 533.5 603 Q507 631 468.5 646.5 Q430 662 380 662 Z " />
<glyph glyph-name="litre" unicode="&#x2113;" horiz-adv-x="398" d="M251 744 Q280 744 300 736.5 Q320 729 332.5 716 Q345 703 350.5 686 Q356 669 356 650 Q356 618 343.5 583.5 Q331 549 308.5 514 Q286 479 254.5 445 Q223 411 186 380 L186 95 Q186 49 226 49 Q252 49 269 71 Q286 93 291 143 L358 143 Q344 62 309 25.5 Q274 -11 217 -11 Q159 -11 135 18 Q111 47 111 95 L111 326 Q95 316 79 306.5 Q63 297 46 289 L25 335 Q73 360 111 386 L111 578 Q111 659 149.5 701.5 Q188 744 251 744 Z M186 450 Q237 502 263 552.5 Q289 603 289 638 Q289 685 246 685 Q186 685 186 584 L186 450 Z " />
<glyph glyph-name="bar" unicode="&#x7c;" horiz-adv-x="319" d="M119 -222 L119 735 L200 735 L200 -222 L119 -222 Z " />
<glyph glyph-name="brokenbar" unicode="&#xa6;" horiz-adv-x="319" d="M119 396 L119 735 L200 735 L200 396 L119 396 Z M119 -222 L119 118 L200 118 L200 -222 L119 -222 Z " />
<glyph glyph-name="degree" unicode="&#xb0;" horiz-adv-x="447" d="M223 688 Q168 688 140 649 Q112 610 112 545 Q112 480 142 441 Q172 402 223 402 Q279 402 306.5 441 Q334 480 334 545 Q334 611 304 649.5 Q274 688 223 688 Z M223 745 Q264 745 296.5 730.5 Q329 716 351.5 689.5 Q374 663 386 626 Q398 589 398 545 Q398 502 386 465 Q374 428 351.5 401 Q329 374 297 359 Q265 344 224 344 Q182 344 149.5 359 Q117 374 94.5 400.5 Q72 427 60 463.5 Q48 500 48 544 Q48 587 60 624 Q72 661 94.5 688 Q117 715 149.5 730 Q182 745 223 745 Z " />
<glyph glyph-name="minute" unicode="&#x2032;" horiz-adv-x="187" d="M72 532 L50 747 L137 747 L116 532 L72 532 Z " />
<glyph glyph-name="second" unicode="&#x2033;" horiz-adv-x="330" d="M72 532 L50 747 L137 747 L116 532 L72 532 Z M216 532 L194 747 L280 747 L260 532 L216 532 Z " />
<glyph glyph-name="ordfeminine" unicode="&#xaa;" horiz-adv-x="564" d="M286 769 Q340 769 377 757 Q414 745 436.5 724 Q459 703 469 674 Q479 645 479 611 L479 234 L401 234 L401 337 Q378 283 331 254 Q284 225 213 225 Q140 225 98 262 Q56 299 56 365 Q56 453 124 499.5 Q192 546 340 546 Q357 546 372.5 546 Q388 546 401 545 L401 611 Q401 632 395.5 650.5 Q390 669 376 682.5 Q362 696 339 703.5 Q316 711 282 711 Q219 711 183 685 Q147 659 144 613 L71 613 Q78 685 130.5 727 Q183 769 286 769 Z M343 495 Q237 495 186.5 466.5 Q136 438 136 376 Q136 332 162 308 Q188 284 236 284 Q267 284 296.5 294 Q326 304 349.5 324 Q373 344 387 373 Q401 402 401 441 L401 493 Q388 494 373.5 494.5 Q359 495 343 495 Z " />
<glyph glyph-name="ordmasculine" unicode="&#xba;" horiz-adv-x="538" d="M286 705 Q210 705 168 649 Q126 593 126 496 Q126 399 168 343 Q210 287 286 287 Q361 287 403 343.5 Q445 400 445 496 Q445 592 403 648.5 Q361 705 286 705 Z M286 769 Q340 769 384 749.5 Q428 730 459.5 694.5 Q491 659 508 608.5 Q525 558 525 496 Q525 433 508 382.5 Q491 332 459.5 296.5 Q428 261 384 242 Q340 223 286 223 Q232 223 188 242 Q144 261 112.5 296.5 Q81 332 64 382.5 Q47 433 47 496 Q47 558 64 608.5 Q81 659 112.5 694.5 Q144 730 188 749.5 Q232 769 286 769 Z " />
<glyph glyph-name="underscore" unicode="&#x5f;" horiz-adv-x="616" d="M22 -147 L22 -80 L593 -80 L593 -147 L22 -147 Z " />
<glyph glyph-name="emdash" unicode="&#x2014;" horiz-adv-x="1059" d="M54 277 L54 344 L1006 344 L1006 277 L54 277 Z " />
<glyph glyph-name="endash" unicode="&#x2013;" horiz-adv-x="677" d="M54 277 L54 344 L624 344 L624 277 L54 277 Z " />
<glyph glyph-name="hyphen" unicode="&#x2d;" horiz-adv-x="348" d="M52 277 L52 344 L296 344 L296 277 L52 277 Z " />
<glyph glyph-name="guillemotleft" unicode="&#xab;" horiz-adv-x="570" d="M306 484 L121 290 L306 95 L272 60 L52 262 L52 317 L272 520 L306 484 Z M518 484 L333 290 L518 95 L484 60 L264 262 L264 317 L484 520 L518 484 Z " />
<glyph glyph-name="guilsinglleft" unicode="&#x2039;" horiz-adv-x="358" d="M306 484 L121 290 L306 95 L272 60 L52 262 L52 317 L272 520 L306 484 Z " />
<glyph glyph-name="guilsinglright" unicode="&#x203a;" horiz-adv-x="358" d="M306 317 L306 262 L86 60 L52 95 L236 290 L52 484 L86 520 L306 317 Z " />
<glyph glyph-name="guillemotright" unicode="&#xbb;" horiz-adv-x="570" d="M518 317 L518 262 L297 60 L264 95 L449 290 L264 484 L297 520 L518 317 Z M306 317 L306 262 L86 60 L52 95 L236 290 L52 484 L86 520 L306 317 Z " />
<glyph glyph-name="quotesingle" unicode="&#x27;" horiz-adv-x="187" d="M72 532 L50 747 L137 747 L116 532 L72 532 Z " />
<glyph glyph-name="quotedbl" unicode="&#x22;" horiz-adv-x="330" d="M72 532 L50 747 L137 747 L116 532 L72 532 Z M216 532 L194 747 L280 747 L260 532 L216 532 Z " />
<glyph glyph-name="quotedblleft" unicode="&#x201c;" horiz-adv-x="361" d="M128 539 L48 539 L126 755 L173 755 L128 539 Z M265 539 L185 539 L263 755 L310 755 L265 539 Z " />
<glyph glyph-name="quotesinglbase" unicode="&#x201a;" horiz-adv-x="224" d="M93 88 L173 88 L95 -127 L48 -127 L93 88 Z " />
<glyph glyph-name="quotedblbase" unicode="&#x201e;" horiz-adv-x="361" d="M93 88 L173 88 L95 -127 L48 -127 L93 88 Z M230 88 L310 88 L232 -127 L185 -127 L230 88 Z " />
<glyph glyph-name="quotedblright" unicode="&#x201d;" horiz-adv-x="361" d="M93 747 L173 747 L95 532 L48 532 L93 747 Z M230 747 L310 747 L232 532 L185 532 L230 747 Z " />
<glyph glyph-name="quoteright" unicode="&#x2019;" horiz-adv-x="217" d="M93 747 L173 747 L95 532 L48 532 L93 747 Z " />
<glyph glyph-name="quoteleft" unicode="&#x2018;" horiz-adv-x="224" d="M131 539 L51 539 L129 755 L176 755 L131 539 Z " />
<glyph glyph-name="comma" unicode="&#x2c;" horiz-adv-x="232" d="M94 97 L181 97 L99 -143 L48 -143 L94 97 Z " />
<glyph glyph-name="period" unicode="&#x2e;" horiz-adv-x="232" d="M159 90 L159 0 L72 0 L72 90 L159 90 Z " />
<glyph glyph-name="colon" unicode="&#x3a;" horiz-adv-x="232" d="M159 90 L159 0 L72 0 L72 90 L159 90 Z M159 525 L159 434 L72 434 L72 525 L159 525 Z " />
<glyph glyph-name="semicolon" unicode="&#x3b;" horiz-adv-x="234" d="M159 525 L159 434 L72 434 L72 525 L159 525 Z M94 97 L181 97 L99 -143 L48 -143 L94 97 Z " />
<glyph glyph-name="ellipsis" unicode="&#x2026;" horiz-adv-x="939" d="M807 90 L807 0 L720 0 L720 90 L807 90 Z M218 90 L218 0 L131 0 L131 90 L218 90 Z M512 90 L512 0 L425 0 L425 90 L512 90 Z " />
<glyph glyph-name="question" unicode="&#x3f;" horiz-adv-x="554" d="M283 730 Q338 730 379.5 715 Q421 700 448 674.5 Q475 649 488.5 615.5 Q502 582 502 546 Q502 498 485.5 462 Q469 426 443.5 397.5 Q418 369 389 344 Q360 319 334.5 292.5 Q309 266 292.5 234.5 Q276 203 276 161 L204 161 Q204 212 220.5 249.5 Q237 287 261 317 Q285 347 314 371.5 Q343 396 367 422 Q391 448 407.5 477.5 Q424 507 424 546 Q424 567 416.5 588 Q409 609 392 626 Q375 643 348 653.5 Q321 664 282 664 Q244 664 217 655 Q190 646 172 630.5 Q154 615 144 594 Q134 573 129 548 L51 548 Q58 587 75 620.5 Q92 654 120.5 678.5 Q149 703 189.5 716.5 Q230 730 283 730 Z M281 81 L281 0 L200 0 L200 81 L281 81 Z " />
<glyph glyph-name="questiondown" unicode="&#xbf;" horiz-adv-x="554" d="M348 353 Q348 302 332 264.5 Q316 227 291.5 197.5 Q267 168 238.5 143 Q210 118 185.5 92 Q161 66 145 36.5 Q129 7 129 -32 Q129 -52 136.5 -73.5 Q144 -95 161 -112 Q178 -129 205 -140 Q232 -151 271 -151 Q309 -151 335.5 -142 Q362 -133 380 -117.5 Q398 -102 408 -80.5 Q418 -59 423 -34 L502 -34 Q496 -73 478.5 -106.5 Q461 -140 432.5 -164.5 Q404 -189 363.5 -203 Q323 -217 269 -217 Q214 -217 173 -201.5 Q132 -186 105 -160.5 Q78 -135 64.5 -101.5 Q51 -68 51 -32 Q51 17 67.5 52.5 Q84 88 109.5 116.5 Q135 145 164 169.5 Q193 194 218.5 220.5 Q244 247 260.5 278.5 Q277 310 277 353 L348 353 Z M354 514 L354 431 L271 431 L271 514 L354 514 Z " />
<glyph glyph-name="exclam" unicode="&#x21;" horiz-adv-x="282" d="M190 720 L177 176 L106 176 L92 720 L190 720 Z M182 81 L182 0 L100 0 L100 81 L182 81 Z " />
<glyph glyph-name="exclamdown" unicode="&#xa1;" horiz-adv-x="282" d="M177 337 L190 -206 L92 -206 L106 337 L177 337 Z M182 514 L182 431 L100 431 L100 514 L182 514 Z " />
<glyph glyph-name="parenleft" unicode="&#x28;" horiz-adv-x="356" d="M349 733 Q304 727 269.5 691 Q235 655 211.5 595 Q188 535 176 455 Q164 375 164 281 Q164 187 176 107.5 Q188 28 211.5 -31.5 Q235 -91 269.5 -127.5 Q304 -164 349 -170 L349 -222 Q290 -216 240.5 -177 Q191 -138 155 -72 Q119 -6 99 83.5 Q79 173 79 281 Q79 389 99 479 Q119 569 155 635 Q191 701 240.5 740 Q290 779 349 785 L349 733 Z " />
<glyph glyph-name="parenright" unicode="&#x29;" horiz-adv-x="356" d="M6 785 Q66 779 116 740 Q166 701 202 635 Q238 569 258 479.5 Q278 390 278 282 Q278 174 258 84 Q238 -6 202 -72 Q166 -138 116 -177 Q66 -216 6 -222 L6 -170 Q51 -164 86 -127.5 Q121 -91 144.5 -31.5 Q168 28 180 108 Q192 188 192 282 Q192 376 180 456 Q168 536 144.5 595.5 Q121 655 86 691 Q51 727 6 733 L6 785 L6 785 Z " />
<glyph glyph-name="bracketleft" unicode="&#x5b;" horiz-adv-x="349" d="M98 -222 L98 775 L311 775 L311 727 L172 727 L172 -175 L311 -175 L311 -222 L98 -222 Z " />
<glyph glyph-name="bracketright" unicode="&#x5d;" horiz-adv-x="349" d="M251 775 L251 -222 L38 -222 L38 -175 L177 -175 L177 727 L38 727 L38 775 L251 775 Z " />
<glyph glyph-name="braceleft" unicode="&#x7b;" horiz-adv-x="379" d="M347 732 Q308 732 284 722 Q260 712 246.5 694 Q233 676 228 651.5 Q223 627 223 597 Q223 577 225 554.5 Q227 532 230 508.5 Q233 485 235 461.5 Q237 438 237 418 Q237 356 213.5 323.5 Q190 291 146 283 Q191 274 214.5 240.5 Q238 207 238 145 Q238 124 236 100.5 Q234 77 231.5 54 Q229 31 227 8.5 Q225 -14 225 -33 Q225 -63 229.5 -88 Q234 -113 247.5 -131 Q261 -149 285 -159 Q309 -169 347 -169 L344 -222 Q287 -222 249.5 -207.5 Q212 -193 189.5 -168.5 Q167 -144 158 -112 Q149 -80 149 -44 Q149 -26 150.5 -3 Q152 20 154 43 Q156 66 157.5 88.5 Q159 111 159 129 Q159 250 77 250 L56 250 L56 313 L77 313 Q159 313 159 434 Q159 452 157.5 474.5 Q156 497 154 520 Q152 543 150.5 566 Q149 589 149 607 Q149 643 158 675 Q167 707 189.5 731 Q212 755 249.5 769.5 Q287 784 344 784 L347 732 Z " />
<glyph glyph-name="braceright" unicode="&#x7d;" horiz-adv-x="379" d="M35 784 Q92 784 129 769.5 Q166 755 188.5 731 Q211 707 220 675 Q229 643 229 607 Q229 589 227.5 566 Q226 543 224.5 519.5 Q223 496 221.5 474 Q220 452 220 434 Q220 313 302 313 L323 313 L323 249 L302 249 Q220 249 220 128 Q220 110 221.5 88 Q223 66 225 42.5 Q227 19 228.5 -3.5 Q230 -26 230 -44 Q230 -80 221 -112.5 Q212 -145 189.5 -169 Q167 -193 129.5 -207.5 Q92 -222 35 -222 L31 -169 Q70 -169 94 -159 Q118 -149 131.5 -131.5 Q145 -114 150 -89 Q155 -64 155 -34 Q155 -15 153 8 Q151 31 148.5 54.5 Q146 78 144 101 Q142 124 142 145 Q142 264 233 279 Q141 297 141 418 Q141 439 143 462 Q145 485 147 508.5 Q149 532 151 554.5 Q153 577 153 596 Q153 626 148.5 651 Q144 676 130.5 694.5 Q117 713 93 723 Q69 733 31 733 L35 784 Z " />
<glyph glyph-name="slash" unicode="&#x2f;" horiz-adv-x="485" d="M467 735 L99 0 L17 0 L385 735 L467 735 Z " />
<glyph glyph-name="backslash" unicode="&#x5c;" horiz-adv-x="419" d="M98 735 L467 0 L384 0 L17 735 L98 735 Z " />
<glyph glyph-name="asterisk" unicode="&#x2a;" horiz-adv-x="461" d="M263 735 L255 597 L389 646 L409 581 L272 549 L361 433 L307 395 L232 517 L154 395 L101 433 L192 549 L52 581 L73 646 L205 597 L196 735 L263 735 Z " />
<glyph glyph-name="bullet" unicode="&#x2022;" horiz-adv-x="411" d="M205 133 Q173 133 145.5 145 Q118 157 98 177.5 Q78 198 66 225.5 Q54 253 54 285 Q54 317 66 344.5 Q78 372 98 392.5 Q118 413 145.5 425 Q173 437 205 437 Q236 437 264 425 Q292 413 312 392.5 Q332 372 344 344.5 Q356 317 356 285 Q356 253 344 225.5 Q332 198 312 177.5 Q292 157 264 145 Q236 133 205 133 Z " />
<glyph glyph-name="section" unicode="&#xa7;" horiz-adv-x="617" d="M308 730 Q366 730 412 715.5 Q458 701 491 676.5 Q524 652 544 618 Q564 584 570 545 L488 545 Q483 570 470 591.5 Q457 613 435 629 Q413 645 381.5 654.5 Q350 664 308 664 Q267 664 239.5 654.5 Q212 645 195 630 Q178 615 170.5 595.5 Q163 576 163 556 Q163 515 194 493 Q225 471 271.5 456.5 Q318 442 372 430 Q426 418 472.5 396.5 Q519 375 550 338 Q581 301 581 237 Q581 189 561.5 153 Q542 117 512 92 Q529 74 539 50.5 Q549 27 549 -5 Q549 -41 535 -73 Q521 -105 493 -129 Q465 -153 423 -166.5 Q381 -180 326 -180 Q268 -180 222 -165.5 Q176 -151 143 -126 Q110 -101 90 -67 Q70 -33 64 6 L146 6 Q150 -19 163 -40.5 Q176 -62 198 -78.5 Q220 -95 252 -104.5 Q284 -114 326 -114 Q367 -114 394.5 -104.5 Q422 -95 439 -79.5 Q456 -64 463.5 -44.5 Q471 -25 471 -5 Q471 26 453 45.5 Q435 65 405 78.5 Q375 92 337 101 Q299 110 259.5 120.5 Q220 131 182 144.5 Q144 158 114 179.5 Q84 201 66 233.5 Q48 266 48 314 Q48 362 68.5 398.5 Q89 435 120 459 Q103 477 94 500.5 Q85 524 85 556 Q85 592 99 624 Q113 656 141 679.5 Q169 703 210.5 716.5 Q252 730 308 730 Z M510 226 Q510 262 493 286.5 Q476 311 447.5 327 Q419 343 382.5 354 Q346 365 307 375 Q268 385 230.5 396.5 Q193 408 162 426 Q144 407 132 380.5 Q120 354 120 324 Q120 287 137 263 Q154 239 182.5 222.5 Q211 206 247.5 195.5 Q284 185 322.5 175 Q361 165 399 153.5 Q437 142 468 125 Q486 144 498 170 Q510 196 510 226 Z " />
<glyph glyph-name="dagger" unicode="&#x2020;" horiz-adv-x="498" d="M296 735 L283 558 L460 571 L460 491 L283 504 L296 327 L215 327 L229 504 L52 491 L52 571 L229 558 L215 735 L296 735 Z " />
<glyph glyph-name="daggerdbl" unicode="&#x2021;" horiz-adv-x="514" d="M296 735 L283 558 L460 571 L460 491 L283 504 L283 230 L460 244 L460 164 L283 177 L296 0 L215 0 L229 177 L52 164 L52 244 L229 230 L229 504 L52 491 L52 571 L229 558 L215 735 L296 735 Z " />
<glyph glyph-name="paragraph" unicode="&#xb6;" horiz-adv-x="598" d="M515 525 L515 -66 Q515 -108 500.5 -138 Q486 -168 462.5 -187.5 Q439 -207 409.5 -216.5 Q380 -226 349 -226 L349 -161 Q366 -161 382 -157 Q398 -153 411 -143 Q424 -133 431.5 -115.5 Q439 -98 439 -70 L439 0 L275 0 Q222 0 179.5 21 Q137 42 107.5 78 Q78 114 62.5 162 Q47 210 47 265 Q47 319 62.5 366.5 Q78 414 107 449 Q136 484 177.5 504.5 Q219 525 272 525 L515 525 Z " />
<glyph glyph-name="copyright" unicode="&#xa9;" horiz-adv-x="839" d="M417 680 Q349 680 293 655.5 Q237 631 197 588.5 Q157 546 135 487.5 Q113 429 113 360 Q113 291 135 232 Q157 173 197 130.5 Q237 88 293 63.5 Q349 39 417 39 Q487 39 544 63.5 Q601 88 641 131 Q681 174 703 232.5 Q725 291 725 360 Q725 429 703 487.5 Q681 546 641 588.5 Q601 631 544 655.5 Q487 680 417 680 Z M417 730 Q495 730 563.5 702.5 Q632 675 682.5 625.5 Q733 576 762.5 508 Q792 440 792 360 Q792 279 762.5 210.5 Q733 142 682.5 93 Q632 44 563.5 16.5 Q495 -11 417 -11 Q341 -11 273.5 16.5 Q206 44 156 93 Q106 142 76.5 210 Q47 278 47 360 Q47 441 76.5 509 Q106 577 156.5 626 Q207 675 274 702.5 Q341 730 417 730 Z M432 616 Q508 616 562 574 Q616 532 631 451 L556 451 Q546 499 512.5 528 Q479 557 429 557 Q358 557 320 504 Q282 451 282 364 Q282 278 319.5 225.5 Q357 173 429 173 Q479 173 512.5 202 Q546 231 556 279 L631 279 Q616 198 562 155.5 Q508 113 432 113 Q380 113 338.5 130.5 Q297 148 268 181 Q239 214 223.5 260.5 Q208 307 208 364 Q208 421 223.5 467.5 Q239 514 268 547 Q297 580 338.5 598 Q380 616 432 616 Z " />
<glyph glyph-name="registered" unicode="&#xae;" horiz-adv-x="532" d="M264 714 Q229 714 197.5 702.5 Q166 691 142 668 Q118 645 104 611 Q90 577 90 532 Q90 492 102.5 459 Q115 426 138 402 Q161 378 193 365 Q225 352 264 352 Q303 352 335 365.5 Q367 379 389.5 403 Q412 427 424.5 460 Q437 493 437 532 Q437 572 424.5 605.5 Q412 639 389.5 663 Q367 687 335 700.5 Q303 714 264 714 Z M264 745 Q310 745 349.5 729.5 Q389 714 417.5 686 Q446 658 462.5 618.5 Q479 579 479 532 Q479 484 462.5 445 Q446 406 417.5 378 Q389 350 349.5 335 Q310 320 264 320 Q218 320 178.5 335 Q139 350 110 378 Q81 406 64.5 445 Q48 484 48 532 Q48 579 64.5 618 Q81 657 110.5 685.5 Q140 714 179.5 729.5 Q219 745 264 745 Z M290 668 Q334 668 354 648 Q374 628 374 599 Q374 573 360 554.5 Q346 536 317 529 Q329 527 339 521.5 Q349 516 356 501.5 Q363 487 366.5 463 Q370 439 370 400 L330 400 Q330 439 326.5 462 Q323 485 316.5 497 Q310 509 300.5 512.5 Q291 516 279 516 L210 516 L210 400 L171 400 L171 668 L290 668 Z M210 545 L281 545 Q310 545 321 559.5 Q332 574 332 594 Q332 614 322 625.5 Q312 637 281 637 L210 637 L210 545 Z " />
<glyph glyph-name="trademark" unicode="&#x2122;" horiz-adv-x="796" d="M429 735 L535 459 L640 735 L716 735 L716 387 L666 387 L666 675 L556 387 L513 387 L402 675 L402 387 L353 387 L353 693 L220 693 L220 387 L168 387 L168 693 L45 693 L45 735 L429 735 Z " />
<glyph glyph-name="ampersand" unicode="&#x26;" horiz-adv-x="756" d="M752 -9 Q702 -9 638.5 16.5 Q575 42 508 87 Q463 43 406 17 Q349 -9 278 -9 Q220 -9 176 9 Q132 27 103 57.5 Q74 88 59 127 Q44 166 44 208 Q44 243 54 276 Q64 309 83.5 337 Q103 365 132.5 386 Q162 407 201 419 Q188 448 181 477 Q174 506 174 534 Q174 571 186.5 606.5 Q199 642 225 669.5 Q251 697 291.5 713.5 Q332 730 389 730 Q438 730 477.5 717.5 Q517 705 545 682.5 Q573 660 589.5 630 Q606 600 609 566 L531 566 Q524 606 490 634.5 Q456 663 387 663 Q351 663 324.5 652 Q298 641 281.5 623 Q265 605 257 582.5 Q249 560 249 537 Q249 495 270.5 448 Q292 401 327.5 353 Q363 305 409 259.5 Q455 214 505 176 Q527 207 543 242.5 Q559 278 570 314 Q581 350 587 384.5 Q593 419 596 449 L680 449 Q674 413 663.5 373 Q653 333 637.5 293 Q622 253 601.5 214 Q581 175 555 140 Q610 104 661.5 82.5 Q713 61 752 61 L752 -9 Z M289 56 Q342 56 383.5 74 Q425 92 458 122 Q387 175 325 240 Q263 305 224 374 Q197 365 177.5 349.5 Q158 334 145.5 314 Q133 294 126.5 271 Q120 248 120 224 Q120 191 130.5 161 Q141 131 162 107.5 Q183 84 214.5 70 Q246 56 289 56 Z " />
<glyph glyph-name="at" unicode="&#x40;" horiz-adv-x="881" d="M457 440 Q414 440 381.5 418.5 Q349 397 327 363 Q305 329 293.5 286.5 Q282 244 282 203 Q282 151 307.5 121 Q333 91 384 91 Q429 91 463 112.5 Q497 134 519.5 168 Q542 202 553 243.5 Q564 285 564 325 Q564 388 535.5 414 Q507 440 457 440 Z M500 638 Q581 638 641 615.5 Q701 593 741 553 Q781 513 801 457.5 Q821 402 821 337 Q821 275 805 220.5 Q789 166 761 125 Q733 84 693.5 60 Q654 36 608 36 Q578 36 557.5 50 Q537 64 537 106 Q537 117 537.5 127.5 Q538 138 542 155 Q519 103 472 71 Q425 39 362 39 Q294 39 254 81 Q214 123 214 193 Q214 244 229 297.5 Q244 351 273.5 394.5 Q303 438 347 466 Q391 494 449 494 Q483 494 507 484 Q531 474 547.5 457.5 Q564 441 572.5 419.5 Q581 398 583 374 L606 479 L663 479 L602 188 Q598 171 597 157.5 Q596 144 596 133 Q596 110 604 100.5 Q612 91 628 91 Q654 91 678 110.5 Q702 130 720.5 163.5 Q739 197 750 241 Q761 285 761 334 Q761 391 745 438 Q729 485 696.5 518 Q664 551 614.5 569.5 Q565 588 498 588 Q412 588 342.5 556.5 Q273 525 223.5 471.5 Q174 418 147.5 347 Q121 276 121 197 Q121 72 191.5 4 Q262 -64 383 -64 Q422 -64 463.5 -53.5 Q505 -43 530 -31 L534 -83 Q503 -98 464 -108 Q425 -118 374 -118 Q303 -118 245 -96 Q187 -74 146 -33 Q105 8 82 66.5 Q59 125 59 199 Q59 289 91 368.5 Q123 448 181.5 508 Q240 568 321 603 Q402 638 500 638 Z " />
<glyph glyph-name="acute" unicode="&#xb4;" horiz-adv-x="289" d="M242 740 L101 588 L47 588 L161 751 L242 740 Z " />
<glyph glyph-name="grave" unicode="&#x60;" horiz-adv-x="289" d="M129 751 L242 588 L188 588 L47 740 L129 751 Z " />
<glyph glyph-name="caron" unicode="&#x2c7;" horiz-adv-x="407" d="M101 748 L203 639 L305 748 L358 736 L240 588 L168 588 L48 736 L101 748 Z " />
<glyph glyph-name="circumflex" unicode="&#x2c6;" horiz-adv-x="407" d="M240 744 L358 597 L305 586 L204 694 L101 586 L48 597 L168 744 L240 744 Z " />
<glyph glyph-name="breve" unicode="&#x2d8;" horiz-adv-x="337" d="M92 723 Q92 687 111 667 Q130 647 168 647 Q210 647 227.5 669 Q245 691 246 723 L293 717 Q292 661 258 629.5 Q224 598 168 598 Q113 598 79 629.5 Q45 661 44 717 L92 723 Z " />
<glyph glyph-name="dieresis" unicode="&#xa8;" horiz-adv-x="341" d="M59 629 L59 694 L119 694 L119 629 L59 629 Z M221 629 L221 694 L282 694 L282 629 L221 629 Z " />
<glyph glyph-name="dotaccent" unicode="&#x2d9;" horiz-adv-x="179" d="M51 629 L51 703 L128 703 L128 629 L51 629 Z " />
<glyph glyph-name="hungarumlaut" unicode="&#x2dd;" horiz-adv-x="419" d="M217 740 L96 592 L52 592 L153 751 L217 740 Z M366 740 L246 592 L202 592 L303 751 L366 740 Z " />
<glyph glyph-name="macron" unicode="&#xaf;" horiz-adv-x="360" d="M52 619 L52 671 L308 671 L308 619 L52 619 Z " />
<glyph glyph-name="ring" unicode="&#x2da;" horiz-adv-x="333" d="M165 764 Q213 764 246 738.5 Q279 713 279 668 Q279 623 246 598 Q213 573 165 573 Q117 573 83 598 Q49 623 49 668 Q49 713 83 738.5 Q117 764 165 764 Z M165 725 Q133 725 116 708 Q99 691 99 668 Q99 641 118 625.5 Q137 610 165 610 Q196 610 212.5 625.5 Q229 641 229 667 Q229 695 210 710 Q191 725 165 725 Z " />
<glyph glyph-name="tilde" unicode="&#x2dc;" horiz-adv-x="428" d="M146 717 Q170 717 188.5 707 Q207 697 223 685.5 Q239 674 253 664 Q267 654 282 654 Q302 654 314.5 664.5 Q327 675 332 701 L367 695 Q361 650 339 627.5 Q317 605 284 605 Q261 605 243.5 615 Q226 625 210 637.5 Q194 650 178.5 660 Q163 670 144 670 Q101 670 95 619 L61 628 Q65 671 87.5 694 Q110 717 146 717 Z " />
<glyph glyph-name="ogonek" unicode="&#x2db;" horiz-adv-x="256" d="M177 0 Q148 -22 131 -53 Q114 -84 114 -116 Q114 -145 131 -160 Q148 -175 177 -175 Q191 -175 203 -172 L203 -222 Q187 -226 165 -226 Q116 -226 84 -201.5 Q52 -177 52 -132 Q52 -94 74 -60 Q96 -26 134 0 L177 0 Z " />
<glyph glyph-name="cedilla" unicode="&#xb8;" horiz-adv-x="349" d="M191 0 L154 -61 Q167 -58 186 -58 Q205 -58 224.5 -62.5 Q244 -67 259 -77 Q274 -87 283.5 -103 Q293 -119 293 -142 Q293 -183 258.5 -208 Q224 -233 164 -233 Q132 -233 101.5 -223.5 Q71 -214 51 -196 L75 -168 Q86 -181 110 -188.5 Q134 -196 160 -196 Q199 -196 215.5 -182 Q232 -168 232 -148 Q232 -113 206 -100.5 Q180 -88 145 -88 Q118 -88 90 -93 L138 0 L191 0 Z " />
<glyph glyph-name="commaaccent" unicode="&#xf6c3;" horiz-adv-x="197" d="M144 -53 L144 -103 Q144 -145 123.5 -175 Q103 -205 70 -226 L57 -200 Q104 -169 104 -113 L70 -113 L70 -53 L144 -53 Z " />
<glyph glyph-name="arrowleft" unicode="&#x2190;" horiz-adv-x="690" d="M306 565 L352 518 L177 344 L638 344 L638 278 L177 278 L352 104 L306 58 L52 311 L306 565 Z " />
<glyph glyph-name="arrowright" unicode="&#x2192;" horiz-adv-x="690" d="M638 311 L384 58 L338 104 L512 278 L52 278 L52 344 L513 344 L338 518 L384 565 L638 311 Z " />
<glyph glyph-name="arrowup" unicode="&#x2191;" horiz-adv-x="612" d="M560 332 L514 285 L339 459 L339 0 L273 0 L273 460 L98 285 L52 332 L306 585 L560 332 Z " />
<glyph glyph-name="arrowdown" unicode="&#x2193;" horiz-adv-x="612" d="M339 557 L339 97 L514 272 L560 226 L306 -28 L52 226 L98 272 L273 97 L273 557 L339 557 Z " />
<glyph glyph-name="arrowupleft" unicode="&#x2196;" horiz-adv-x="560" d="M70 525 L430 525 L430 459 L183 459 L507 134 L461 88 L136 413 L136 165 L70 165 L70 525 Z " />
<glyph glyph-name="arrowupright" unicode="&#x2197;" horiz-adv-x="560" d="M489 165 L423 165 L423 413 L98 88 L52 134 L377 459 L130 459 L130 525 L489 525 L489 165 Z " />
<glyph glyph-name="arrowdownleft" unicode="&#x2199;" horiz-adv-x="560" d="M70 359 L136 359 L136 111 L461 437 L507 391 L183 65 L430 65 L430 0 L70 0 L70 359 Z " />
<glyph glyph-name="arrowdownright" unicode="&#x2198;" horiz-adv-x="560" d="M489 0 L130 0 L130 65 L377 65 L52 391 L98 437 L423 111 L423 359 L489 359 L489 0 Z " />
<glyph glyph-name="Aacute" unicode="&#xc1;" horiz-adv-x="644" d="M382 720 L642 0 L550 0 L475 213 L163 213 L88 0 L1 0 L262 720 L382 720 Z M319 670 Q313 644 304.5 616.5 Q296 589 289 567 L182 276 L456 276 L350 567 Q342 590 334 617 Q326 644 319 670 Z M466 907 L322 761 L271 761 L392 917 L466 907 Z " />
<glyph glyph-name="Abreve" unicode="&#x102;" horiz-adv-x="644" d="M382 720 L642 0 L550 0 L475 213 L163 213 L88 0 L1 0 L262 720 L382 720 Z M319 670 Q313 644 304.5 616.5 Q296 589 289 567 L182 276 L456 276 L350 567 Q342 590 334 617 Q326 644 319 670 Z M244 881 Q245 849 264.5 829.5 Q284 810 322 810 Q364 810 382.5 830.5 Q401 851 402 881 L444 876 Q443 825 410.5 794.5 Q378 764 322 764 Q267 764 234.5 794.5 Q202 825 201 876 L244 881 Z " />
<glyph glyph-name="Acircumflex" unicode="&#xc2;" horiz-adv-x="644" d="M382 720 L642 0 L550 0 L475 213 L163 213 L88 0 L1 0 L262 720 L382 720 Z M319 670 Q313 644 304.5 616.5 Q296 589 289 567 L182 276 L456 276 L350 567 Q342 590 334 617 Q326 644 319 670 Z M428 761 L323 868 L217 761 L167 771 L290 917 L355 917 L477 771 L428 761 Z " />
<glyph glyph-name="Adieresis" unicode="&#xc4;" horiz-adv-x="644" d="M382 720 L642 0 L550 0 L475 213 L163 213 L88 0 L1 0 L262 720 L382 720 Z M319 670 Q313 644 304.5 616.5 Q296 589 289 567 L182 276 L456 276 L350 567 Q342 590 334 617 Q326 644 319 670 Z M208 797 L208 858 L268 858 L268 797 L208 797 Z M377 797 L377 858 L437 858 L437 797 L377 797 Z " />
<glyph glyph-name="Agrave" unicode="&#xc0;" horiz-adv-x="644" d="M382 720 L642 0 L550 0 L475 213 L163 213 L88 0 L1 0 L262 720 L382 720 Z M319 670 Q313 644 304.5 616.5 Q296 589 289 567 L182 276 L456 276 L350 567 Q342 590 334 617 Q326 644 319 670 Z M269 917 L390 761 L339 761 L195 907 L269 917 Z " />
<glyph glyph-name="Amacron" unicode="&#x100;" horiz-adv-x="644" d="M382 720 L642 0 L550 0 L475 213 L163 213 L88 0 L1 0 L262 720 L382 720 Z M319 670 Q313 644 304.5 616.5 Q296 589 289 567 L182 276 L456 276 L350 567 Q342 590 334 617 Q326 644 319 670 Z M194 787 L194 834 L450 834 L450 787 L194 787 Z " />
<glyph glyph-name="Aogonek" unicode="&#x104;" horiz-adv-x="644" d="M550 0 L475 213 L163 213 L88 0 L1 0 L262 720 L382 720 L642 0 L619 0 Q590 -22 573 -53 Q556 -84 556 -116 Q556 -145 573 -160 Q590 -175 619 -175 Q633 -175 645 -172 L645 -222 Q629 -226 607 -226 Q558 -226 526 -201.5 Q494 -177 494 -132 Q494 -94 516 -60 Q538 -26 576 0 L550 0 Z M319 670 Q313 644 304.5 616.5 Q296 589 289 567 L182 276 L456 276 L350 567 Q342 590 334 617 Q326 644 319 670 Z " />
<glyph glyph-name="Aring" unicode="&#xc5;" horiz-adv-x="644" d="M382 720 L642 0 L550 0 L475 213 L163 213 L88 0 L1 0 L262 720 L382 720 Z M319 670 Q313 644 304.5 616.5 Q296 589 289 567 L182 276 L456 276 L350 567 Q342 590 334 617 Q326 644 319 670 Z M322 908 Q371 908 403.5 887.5 Q436 867 436 827 Q436 788 403.5 768 Q371 748 322 748 Q274 748 241 768 Q208 788 208 827 Q208 867 241 887.5 Q274 908 322 908 Z M322 876 Q289 876 271 862.5 Q253 849 253 827 Q253 802 273 790.5 Q293 779 322 779 Q354 779 372.5 790.5 Q391 802 391 827 Q391 853 370 864.5 Q349 876 322 876 Z " />
<glyph glyph-name="Atilde" unicode="&#xc3;" horiz-adv-x="644" d="M382 720 L642 0 L550 0 L475 213 L163 213 L88 0 L1 0 L262 720 L382 720 Z M319 670 Q313 644 304.5 616.5 Q296 589 289 567 L182 276 L456 276 L350 567 Q342 590 334 617 Q326 644 319 670 Z M254 881 Q278 881 296.5 871.5 Q315 862 331 850 Q347 838 361 828.5 Q375 819 390 819 Q410 819 422.5 829 Q435 839 440 865 L475 859 Q469 817 447 795 Q425 773 392 773 Q369 773 351.5 783 Q334 793 318 805 Q302 817 286.5 827 Q271 837 252 837 Q209 837 203 788 L169 796 Q173 837 195.5 859 Q218 881 254 881 Z " />
<glyph glyph-name="Cacute" unicode="&#x106;" horiz-adv-x="710" d="M679 206 Q670 158 645 118 Q620 78 582.5 49.5 Q545 21 496 5 Q447 -11 389 -11 Q310 -11 248.5 18.5 Q187 48 144.5 98 Q102 148 79.5 215.5 Q57 283 57 360 Q57 436 79.5 503.5 Q102 571 144.5 621 Q187 671 248.5 700.5 Q310 730 389 730 Q447 730 496 714 Q545 698 582.5 669.5 Q620 641 645 601.5 Q670 562 679 514 L593 514 Q577 580 524 619 Q471 658 389 658 Q329 658 284 636 Q239 614 208.5 574 Q178 534 162.5 479.5 Q147 425 147 360 Q147 295 162.5 240.5 Q178 186 208.5 146 Q239 106 284 84 Q329 62 389 62 Q471 62 524 101.5 Q577 141 593 206 L679 206 Z M521 907 L377 761 L326 761 L447 917 L521 907 Z " />
<glyph glyph-name="Ccaron" unicode="&#x10c;" horiz-adv-x="710" d="M679 206 Q670 158 645 118 Q620 78 582.5 49.5 Q545 21 496 5 Q447 -11 389 -11 Q310 -11 248.5 18.5 Q187 48 144.5 98 Q102 148 79.5 215.5 Q57 283 57 360 Q57 436 79.5 503.5 Q102 571 144.5 621 Q187 671 248.5 700.5 Q310 730 389 730 Q447 730 496 714 Q545 698 582.5 669.5 Q620 641 645 601.5 Q670 562 679 514 L593 514 Q577 580 524 619 Q471 658 389 658 Q329 658 284 636 Q239 614 208.5 574 Q178 534 162.5 479.5 Q147 425 147 360 Q147 295 162.5 240.5 Q178 186 208.5 146 Q239 106 284 84 Q329 62 389 62 Q471 62 524 101.5 Q577 141 593 206 L679 206 Z M288 917 L393 810 L499 917 L548 907 L426 761 L361 761 L238 907 L288 917 Z " />
<glyph glyph-name="Ccircumflex" unicode="&#x108;" horiz-adv-x="710" d="M679 206 Q670 158 645 118 Q620 78 582.5 49.5 Q545 21 496 5 Q447 -11 389 -11 Q310 -11 248.5 18.5 Q187 48 144.5 98 Q102 148 79.5 215.5 Q57 283 57 360 Q57 436 79.5 503.5 Q102 571 144.5 621 Q187 671 248.5 700.5 Q310 730 389 730 Q447 730 496 714 Q545 698 582.5 669.5 Q620 641 645 601.5 Q670 562 679 514 L593 514 Q577 580 524 619 Q471 658 389 658 Q329 658 284 636 Q239 614 208.5 574 Q178 534 162.5 479.5 Q147 425 147 360 Q147 295 162.5 240.5 Q178 186 208.5 146 Q239 106 284 84 Q329 62 389 62 Q471 62 524 101.5 Q577 141 593 206 L679 206 Z M500 761 L395 868 L289 761 L239 771 L362 917 L427 917 L549 771 L500 761 Z " />
<glyph glyph-name="Cdotaccent" unicode="&#x10a;" horiz-adv-x="710" d="M679 206 Q670 158 645 118 Q620 78 582.5 49.5 Q545 21 496 5 Q447 -11 389 -11 Q310 -11 248.5 18.5 Q187 48 144.5 98 Q102 148 79.5 215.5 Q57 283 57 360 Q57 436 79.5 503.5 Q102 571 144.5 621 Q187 671 248.5 700.5 Q310 730 389 730 Q447 730 496 714 Q545 698 582.5 669.5 Q620 641 645 601.5 Q670 562 679 514 L593 514 Q577 580 524 619 Q471 658 389 658 Q329 658 284 636 Q239 614 208.5 574 Q178 534 162.5 479.5 Q147 425 147 360 Q147 295 162.5 240.5 Q178 186 208.5 146 Q239 106 284 84 Q329 62 389 62 Q471 62 524 101.5 Q577 141 593 206 L679 206 Z M357 797 L357 861 L431 861 L431 797 L357 797 Z " />
<glyph glyph-name="Ccedilla" unicode="&#xc7;" horiz-adv-x="710" d="M679 206 Q670 159 646.5 120 Q623 81 587 52.5 Q551 24 504.5 7.5 Q458 -9 403 -11 L373 -61 Q386 -58 405 -58 Q424 -58 443.5 -62.5 Q463 -67 478 -77 Q493 -87 502.5 -103 Q512 -119 512 -142 Q512 -183 477.5 -208 Q443 -233 383 -233 Q351 -233 320.5 -223.5 Q290 -214 270 -196 L294 -168 Q305 -181 329 -188.5 Q353 -196 379 -196 Q418 -196 434.5 -182 Q451 -168 451 -148 Q451 -113 425 -100.5 Q399 -88 364 -88 Q337 -88 309 -93 L352 -9 Q281 -2 226.5 29.5 Q172 61 134 110.5 Q96 160 76.5 224 Q57 288 57 360 Q57 436 79.5 503.5 Q102 571 144.5 621 Q187 671 248.5 700.5 Q310 730 389 730 Q447 730 496 714 Q545 698 582.5 669.5 Q620 641 645 601.5 Q670 562 679 514 L593 514 Q577 580 524 619 Q471 658 389 658 Q329 658 284 636 Q239 614 208.5 574 Q178 534 162.5 479.5 Q147 425 147 360 Q147 295 162.5 240.5 Q178 186 208.5 146 Q239 106 284 84 Q329 62 389 62 Q471 62 524 101.5 Q577 141 593 206 L679 206 Z " />
<glyph glyph-name="Dcroat" unicode="&#x110;" horiz-adv-x="741" d="M91 0 L91 361 L29 361 L29 413 L91 413 L91 720 L375 720 Q446 720 503 695 Q560 670 600 623.5 Q640 577 661.5 511 Q683 445 683 364 Q683 283 662.5 216 Q642 149 603 101 Q564 53 507.5 26.5 Q451 0 379 0 L91 0 Z M364 66 Q478 66 537 146 Q596 226 596 364 Q596 503 536 579 Q476 655 361 655 L174 655 L174 413 L285 413 L285 361 L174 361 L174 66 L364 66 Z " />
<glyph glyph-name="Dcaron" unicode="&#x10e;" horiz-adv-x="741" d="M91 0 L91 720 L375 720 Q446 720 503 695 Q560 670 600 623.5 Q640 577 661.5 511 Q683 445 683 364 Q683 283 662.5 216 Q642 149 603 101 Q564 53 507.5 26.5 Q451 0 379 0 L91 0 Z M364 66 Q478 66 537 146 Q596 226 596 364 Q596 503 536 579 Q476 655 361 655 L174 655 L174 66 L364 66 Z M238 917 L343 810 L449 917 L498 907 L376 761 L311 761 L188 907 L238 917 Z " />
<glyph glyph-name="Eacute" unicode="&#xc9;" horiz-adv-x="620" d="M91 0 L91 720 L564 720 L564 655 L174 655 L174 406 L505 406 L505 341 L174 341 L174 66 L570 66 L570 0 L91 0 Z M480 907 L336 761 L285 761 L406 917 L480 907 Z " />
<glyph glyph-name="Ebreve" unicode="&#x114;" horiz-adv-x="620" d="M91 0 L91 720 L564 720 L564 655 L174 655 L174 406 L505 406 L505 341 L174 341 L174 66 L570 66 L570 0 L91 0 Z M265 881 Q266 849 285.5 829.5 Q305 810 343 810 Q385 810 403.5 830.5 Q422 851 423 881 L465 876 Q464 825 431.5 794.5 Q399 764 343 764 Q288 764 255.5 794.5 Q223 825 222 876 L265 881 Z " />
<glyph glyph-name="Ecaron" unicode="&#x11a;" horiz-adv-x="620" d="M91 0 L91 720 L564 720 L564 655 L174 655 L174 406 L505 406 L505 341 L174 341 L174 66 L570 66 L570 0 L91 0 Z M239 917 L344 810 L450 917 L499 907 L377 761 L312 761 L189 907 L239 917 Z " />
<glyph glyph-name="Ecircumflex" unicode="&#xca;" horiz-adv-x="620" d="M91 0 L91 720 L564 720 L564 655 L174 655 L174 406 L505 406 L505 341 L174 341 L174 66 L570 66 L570 0 L91 0 Z M447 761 L342 868 L236 761 L186 771 L309 917 L374 917 L496 771 L447 761 Z " />
<glyph glyph-name="Edieresis" unicode="&#xcb;" horiz-adv-x="620" d="M91 0 L91 720 L564 720 L564 655 L174 655 L174 406 L505 406 L505 341 L174 341 L174 66 L570 66 L570 0 L91 0 Z M227 797 L227 858 L287 858 L287 797 L227 797 Z M396 797 L396 858 L456 858 L456 797 L396 797 Z " />
<glyph glyph-name="Edotaccent" unicode="&#x116;" horiz-adv-x="620" d="M91 0 L91 720 L564 720 L564 655 L174 655 L174 406 L505 406 L505 341 L174 341 L174 66 L570 66 L570 0 L91 0 Z M304 797 L304 861 L378 861 L378 797 L304 797 Z " />
<glyph glyph-name="Egrave" unicode="&#xc8;" horiz-adv-x="620" d="M91 0 L91 720 L564 720 L564 655 L174 655 L174 406 L505 406 L505 341 L174 341 L174 66 L570 66 L570 0 L91 0 Z M276 917 L397 761 L346 761 L202 907 L276 917 Z " />
<glyph glyph-name="Emacron" unicode="&#x112;" horiz-adv-x="620" d="M91 0 L91 720 L564 720 L564 655 L174 655 L174 406 L505 406 L505 341 L174 341 L174 66 L570 66 L570 0 L91 0 Z M214 787 L214 834 L470 834 L470 787 L214 787 Z " />
<glyph glyph-name="Eogonek" unicode="&#x118;" horiz-adv-x="620" d="M91 0 L91 720 L564 720 L564 655 L174 655 L174 406 L505 406 L505 341 L174 341 L174 66 L570 66 L570 0 L540 0 Q511 -22 494 -53 Q477 -84 477 -116 Q477 -145 494 -160 Q511 -175 540 -175 Q554 -175 566 -172 L566 -222 Q550 -226 528 -226 Q479 -226 447 -201.5 Q415 -177 415 -132 Q415 -94 437 -60 Q459 -26 497 0 L91 0 Z " />
<glyph glyph-name="Gbreve" unicode="&#x11e;" horiz-adv-x="773" d="M390 730 Q448 730 497 714.5 Q546 699 583.5 670.5 Q621 642 645.5 602 Q670 562 679 514 L593 514 Q577 580 524 619 Q471 658 389 658 Q329 658 284 636 Q239 614 208.5 574 Q178 534 162.5 479.5 Q147 425 147 360 Q147 294 162.5 239 Q178 184 208 144.5 Q238 105 283 83 Q328 61 387 61 Q431 61 470 76.5 Q509 92 538 123 Q567 154 583.5 201.5 Q600 249 600 313 L380 313 L380 374 L682 374 L682 0 L604 0 L604 172 Q595 138 577.5 105 Q560 72 532 46.5 Q504 21 464.5 5 Q425 -11 371 -11 Q304 -11 246.5 15.5 Q189 42 147 91 Q105 140 81.5 208 Q58 276 58 360 Q58 436 80.5 503.5 Q103 571 145.5 621 Q188 671 250 700.5 Q312 730 390 730 Z M317 881 Q318 849 337.5 829.5 Q357 810 395 810 Q437 810 455.5 830.5 Q474 851 475 881 L517 876 Q516 825 483.5 794.5 Q451 764 395 764 Q340 764 307.5 794.5 Q275 825 274 876 L317 881 Z " />
<glyph glyph-name="Gcircumflex" unicode="&#x11c;" horiz-adv-x="773" d="M390 730 Q448 730 497 714.5 Q546 699 583.5 670.5 Q621 642 645.5 602 Q670 562 679 514 L593 514 Q577 580 524 619 Q471 658 389 658 Q329 658 284 636 Q239 614 208.5 574 Q178 534 162.5 479.5 Q147 425 147 360 Q147 294 162.5 239 Q178 184 208 144.5 Q238 105 283 83 Q328 61 387 61 Q431 61 470 76.5 Q509 92 538 123 Q567 154 583.5 201.5 Q600 249 600 313 L380 313 L380 374 L682 374 L682 0 L604 0 L604 172 Q595 138 577.5 105 Q560 72 532 46.5 Q504 21 464.5 5 Q425 -11 371 -11 Q304 -11 246.5 15.5 Q189 42 147 91 Q105 140 81.5 208 Q58 276 58 360 Q58 436 80.5 503.5 Q103 571 145.5 621 Q188 671 250 700.5 Q312 730 390 730 Z M501 761 L396 868 L290 761 L240 771 L363 917 L428 917 L550 771 L501 761 Z " />
<glyph glyph-name="Gcommaaccent" unicode="&#x122;" horiz-adv-x="773" d="M390 730 Q448 730 497 714.5 Q546 699 583.5 670.5 Q621 642 645.5 602 Q670 562 679 514 L593 514 Q577 580 524 619 Q471 658 389 658 Q329 658 284 636 Q239 614 208.5 574 Q178 534 162.5 479.5 Q147 425 147 360 Q147 294 162.5 239 Q178 184 208 144.5 Q238 105 283 83 Q328 61 387 61 Q431 61 470 76.5 Q509 92 538 123 Q567 154 583.5 201.5 Q600 249 600 313 L380 313 L380 374 L682 374 L682 0 L604 0 L604 172 Q595 138 577.5 105 Q560 72 532 46.5 Q504 21 464.5 5 Q425 -11 371 -11 Q304 -11 246.5 15.5 Q189 42 147 91 Q105 140 81.5 208 Q58 276 58 360 Q58 436 80.5 503.5 Q103 571 145.5 621 Q188 671 250 700.5 Q312 730 390 730 Z M427 -53 L427 -103 Q427 -145 406.5 -175 Q386 -205 353 -226 L340 -200 Q387 -169 387 -113 L353 -113 L353 -53 L427 -53 Z " />
<glyph glyph-name="Gdotaccent" unicode="&#x120;" horiz-adv-x="773" d="M390 730 Q448 730 497 714.5 Q546 699 583.5 670.5 Q621 642 645.5 602 Q670 562 679 514 L593 514 Q577 580 524 619 Q471 658 389 658 Q329 658 284 636 Q239 614 208.5 574 Q178 534 162.5 479.5 Q147 425 147 360 Q147 294 162.5 239 Q178 184 208 144.5 Q238 105 283 83 Q328 61 387 61 Q431 61 470 76.5 Q509 92 538 123 Q567 154 583.5 201.5 Q600 249 600 313 L380 313 L380 374 L682 374 L682 0 L604 0 L604 172 Q595 138 577.5 105 Q560 72 532 46.5 Q504 21 464.5 5 Q425 -11 371 -11 Q304 -11 246.5 15.5 Q189 42 147 91 Q105 140 81.5 208 Q58 276 58 360 Q58 436 80.5 503.5 Q103 571 145.5 621 Q188 671 250 700.5 Q312 730 390 730 Z M352 797 L352 861 L426 861 L426 797 L352 797 Z " />
<glyph glyph-name="Hcircumflex" unicode="&#x124;" horiz-adv-x="710" d="M534 0 L534 341 L174 341 L174 0 L91 0 L91 720 L174 720 L174 406 L534 406 L534 720 L617 720 L617 0 L534 0 Z M461 761 L356 868 L250 761 L200 771 L323 917 L388 917 L510 771 L461 761 Z " />
<glyph glyph-name="Hbar" unicode="&#x126;" horiz-adv-x="710" d="M534 0 L534 341 L174 341 L174 0 L91 0 L91 564 L31 564 L31 614 L91 614 L91 720 L174 720 L174 614 L534 614 L534 720 L617 720 L617 614 L681 614 L681 564 L617 564 L617 0 L534 0 Z M534 406 L534 564 L174 564 L174 406 L534 406 Z " />
<glyph glyph-name="Iacute" unicode="&#xcd;" horiz-adv-x="266" d="M91 0 L91 720 L174 720 L174 0 L91 0 Z M279 907 L135 761 L84 761 L205 917 L279 907 Z " />
<glyph glyph-name="Ibreve" unicode="&#x12c;" horiz-adv-x="266" d="M91 0 L91 720 L174 720 L174 0 L91 0 Z M55 881 Q56 849 75.5 829.5 Q95 810 133 810 Q175 810 193.5 830.5 Q212 851 213 881 L255 876 Q254 825 221.5 794.5 Q189 764 133 764 Q78 764 45.5 794.5 Q13 825 12 876 L55 881 Z " />
<glyph glyph-name="Icircumflex" unicode="&#xce;" horiz-adv-x="266" d="M91 0 L91 720 L174 720 L174 0 L91 0 Z M239 761 L134 868 L28 761 L-22 771 L101 917 L166 917 L288 771 L239 761 Z " />
<glyph glyph-name="Idieresis" unicode="&#xcf;" horiz-adv-x="266" d="M91 0 L91 720 L174 720 L174 0 L91 0 Z M19 797 L19 858 L79 858 L79 797 L19 797 Z M188 797 L188 858 L248 858 L248 797 L188 797 Z " />
<glyph glyph-name="Idotaccent" unicode="&#x130;" horiz-adv-x="266" d="M91 0 L91 720 L174 720 L174 0 L91 0 Z M96 797 L96 861 L170 861 L170 797 L96 797 Z " />
<glyph glyph-name="Igrave" unicode="&#xcc;" horiz-adv-x="266" d="M91 0 L91 720 L174 720 L174 0 L91 0 Z M62 917 L183 761 L132 761 L-12 907 L62 917 Z " />
<glyph glyph-name="Imacron" unicode="&#x12a;" horiz-adv-x="266" d="M91 0 L91 720 L174 720 L174 0 L91 0 Z M5 787 L5 834 L261 834 L261 787 L5 787 Z " />
<glyph glyph-name="Iogonek" unicode="&#x12e;" horiz-adv-x="266" d="M91 0 L91 720 L174 720 L174 0 L170 0 Q141 -22 124 -53 Q107 -84 107 -116 Q107 -145 124 -160 Q141 -175 170 -175 Q184 -175 196 -172 L196 -222 Q180 -226 158 -226 Q109 -226 77 -201.5 Q45 -177 45 -132 Q45 -94 67 -60 Q89 -26 127 0 L91 0 Z " />
<glyph glyph-name="Itilde" unicode="&#x128;" horiz-adv-x="266" d="M91 0 L91 720 L174 720 L174 0 L91 0 Z M65 881 Q89 881 107.5 871.5 Q126 862 142 850 Q158 838 172 828.5 Q186 819 201 819 Q221 819 233.5 829 Q246 839 251 865 L286 859 Q280 817 258 795 Q236 773 203 773 Q180 773 162.5 783 Q145 793 129 805 Q113 817 97.5 827 Q82 837 63 837 Q20 837 14 788 L-20 796 Q-16 837 6.5 859 Q29 881 65 881 Z " />
<glyph glyph-name="Jcircumflex" unicode="&#x134;" horiz-adv-x="542" d="M452 720 L452 190 Q452 98 392.5 43.5 Q333 -11 227 -11 Q182 -11 144.5 2 Q107 15 79.5 38.5 Q52 62 35 94.5 Q18 127 13 166 L99 166 Q104 123 136 91.5 Q168 60 229 60 Q303 60 335.5 96 Q368 132 368 188 L368 720 L452 720 Z M517 761 L412 868 L306 761 L256 771 L379 917 L444 917 L566 771 L517 761 Z " />
<glyph glyph-name="Kcommaaccent" unicode="&#x136;" horiz-adv-x="630" d="M91 0 L91 720 L174 720 L174 0 L91 0 Z M519 0 L184 376 L498 720 L598 720 L282 381 L621 0 L519 0 Z M368 -53 L368 -103 Q368 -145 347.5 -175 Q327 -205 294 -226 L281 -200 Q328 -169 328 -113 L294 -113 L294 -53 L368 -53 Z " />
<glyph glyph-name="Lacute" unicode="&#x139;" horiz-adv-x="554" d="M91 0 L91 720 L174 720 L174 66 L543 66 L543 0 L91 0 Z M305 907 L161 761 L110 761 L231 917 L305 907 Z " />
<glyph glyph-name="Lcaron" unicode="&#x13d;" horiz-adv-x="554" d="M91 0 L91 720 L174 720 L174 66 L543 66 L543 0 L91 0 Z M329 745 L294 588 L255 588 L258 745 L329 745 Z " />
<glyph glyph-name="Lcommaaccent" unicode="&#x13b;" horiz-adv-x="554" d="M91 0 L91 720 L174 720 L174 66 L543 66 L543 0 L91 0 Z M361 -53 L361 -103 Q361 -145 340.5 -175 Q320 -205 287 -226 L274 -200 Q321 -169 321 -113 L287 -113 L287 -53 L361 -53 Z " />
<glyph glyph-name="Lslash" unicode="&#x141;" horiz-adv-x="554" d="M91 0 L91 236 L41 186 L2 226 L91 315 L91 720 L174 720 L174 398 L297 521 L337 483 L174 319 L174 66 L543 66 L543 0 L91 0 Z " />
<glyph glyph-name="Nacute" unicode="&#x143;" horiz-adv-x="712" d="M209 720 L514 167 Q521 153 529 133 Q537 113 544 93 Q542 110 541 134.5 Q540 159 540 176 L540 720 L622 720 L622 0 L515 0 L202 576 Q194 592 185.5 612.5 Q177 633 172 650 Q173 634 173.5 611.5 Q174 589 174 573 L174 0 L91 0 L91 720 L209 720 Z M498 907 L354 761 L303 761 L424 917 L498 907 Z " />
<glyph glyph-name="Ncaron" unicode="&#x147;" horiz-adv-x="712" d="M209 720 L514 167 Q521 153 529 133 Q537 113 544 93 Q542 110 541 134.5 Q540 159 540 176 L540 720 L622 720 L622 0 L515 0 L202 576 Q194 592 185.5 612.5 Q177 633 172 650 Q173 634 173.5 611.5 Q174 589 174 573 L174 0 L91 0 L91 720 L209 720 Z M251 917 L356 810 L462 917 L511 907 L389 761 L324 761 L201 907 L251 917 Z " />
<glyph glyph-name="Ncommaaccent" unicode="&#x145;" horiz-adv-x="712" d="M209 720 L514 167 Q521 153 529 133 Q537 113 544 93 Q542 110 541 134.5 Q540 159 540 176 L540 720 L622 720 L622 0 L515 0 L202 576 Q194 592 185.5 612.5 Q177 633 172 650 Q173 634 173.5 611.5 Q174 589 174 573 L174 0 L91 0 L91 720 L209 720 Z M402 -53 L402 -103 Q402 -145 381.5 -175 Q361 -205 328 -226 L315 -200 Q362 -169 362 -113 L328 -113 L328 -53 L402 -53 Z " />
<glyph glyph-name="Ntilde" unicode="&#xd1;" horiz-adv-x="712" d="M209 720 L514 167 Q521 153 529 133 Q537 113 544 93 Q542 110 541 134.5 Q540 159 540 176 L540 720 L622 720 L622 0 L515 0 L202 576 Q194 592 185.5 612.5 Q177 633 172 650 Q173 634 173.5 611.5 Q174 589 174 573 L174 0 L91 0 L91 720 L209 720 Z M288 881 Q312 881 330.5 871.5 Q349 862 365 850 Q381 838 395 828.5 Q409 819 424 819 Q444 819 456.5 829 Q469 839 474 865 L509 859 Q503 817 481 795 Q459 773 426 773 Q403 773 385.5 783 Q368 793 352 805 Q336 817 320.5 827 Q305 837 286 837 Q243 837 237 788 L203 796 Q207 837 229.5 859 Q252 881 288 881 Z " />
<glyph glyph-name="Oacute" unicode="&#xd3;" horiz-adv-x="773" d="M387 658 Q327 658 282 636 Q237 614 207 574 Q177 534 162 479.5 Q147 425 147 360 Q147 295 162 240.5 Q177 186 207 146 Q237 106 282 84 Q327 62 387 62 Q447 62 491.5 84 Q536 106 566 146 Q596 186 611 240.5 Q626 295 626 360 Q626 425 611 479.5 Q596 534 566 574 Q536 614 491.5 636 Q447 658 387 658 Z M387 730 Q465 730 526 700.5 Q587 671 629 621 Q671 571 693 503.5 Q715 436 715 360 Q715 283 693 215.5 Q671 148 629 98 Q587 48 526 18.5 Q465 -11 387 -11 Q309 -11 247.5 18.5 Q186 48 143.5 98 Q101 148 79 215.5 Q57 283 57 360 Q57 436 79 503.5 Q101 571 143.5 621 Q186 671 247.5 700.5 Q309 730 387 730 Z M514 907 L370 761 L319 761 L440 917 L514 907 Z " />
<glyph glyph-name="Obreve" unicode="&#x14e;" horiz-adv-x="773" d="M387 658 Q327 658 282 636 Q237 614 207 574 Q177 534 162 479.5 Q147 425 147 360 Q147 295 162 240.5 Q177 186 207 146 Q237 106 282 84 Q327 62 387 62 Q447 62 491.5 84 Q536 106 566 146 Q596 186 611 240.5 Q626 295 626 360 Q626 425 611 479.5 Q596 534 566 574 Q536 614 491.5 636 Q447 658 387 658 Z M387 730 Q465 730 526 700.5 Q587 671 629 621 Q671 571 693 503.5 Q715 436 715 360 Q715 283 693 215.5 Q671 148 629 98 Q587 48 526 18.5 Q465 -11 387 -11 Q309 -11 247.5 18.5 Q186 48 143.5 98 Q101 148 79 215.5 Q57 283 57 360 Q57 436 79 503.5 Q101 571 143.5 621 Q186 671 247.5 700.5 Q309 730 387 730 Z M308 881 Q309 849 328.5 829.5 Q348 810 386 810 Q428 810 446.5 830.5 Q465 851 466 881 L508 876 Q507 825 474.5 794.5 Q442 764 386 764 Q331 764 298.5 794.5 Q266 825 265 876 L308 881 Z " />
<glyph glyph-name="Ocircumflex" unicode="&#xd4;" horiz-adv-x="773" d="M387 658 Q327 658 282 636 Q237 614 207 574 Q177 534 162 479.5 Q147 425 147 360 Q147 295 162 240.5 Q177 186 207 146 Q237 106 282 84 Q327 62 387 62 Q447 62 491.5 84 Q536 106 566 146 Q596 186 611 240.5 Q626 295 626 360 Q626 425 611 479.5 Q596 534 566 574 Q536 614 491.5 636 Q447 658 387 658 Z M387 730 Q465 730 526 700.5 Q587 671 629 621 Q671 571 693 503.5 Q715 436 715 360 Q715 283 693 215.5 Q671 148 629 98 Q587 48 526 18.5 Q465 -11 387 -11 Q309 -11 247.5 18.5 Q186 48 143.5 98 Q101 148 79 215.5 Q57 283 57 360 Q57 436 79 503.5 Q101 571 143.5 621 Q186 671 247.5 700.5 Q309 730 387 730 Z M492 761 L387 868 L281 761 L231 771 L354 917 L419 917 L541 771 L492 761 Z " />
<glyph glyph-name="Odieresis" unicode="&#xd6;" horiz-adv-x="773" d="M387 658 Q327 658 282 636 Q237 614 207 574 Q177 534 162 479.5 Q147 425 147 360 Q147 295 162 240.5 Q177 186 207 146 Q237 106 282 84 Q327 62 387 62 Q447 62 491.5 84 Q536 106 566 146 Q596 186 611 240.5 Q626 295 626 360 Q626 425 611 479.5 Q596 534 566 574 Q536 614 491.5 636 Q447 658 387 658 Z M387 730 Q465 730 526 700.5 Q587 671 629 621 Q671 571 693 503.5 Q715 436 715 360 Q715 283 693 215.5 Q671 148 629 98 Q587 48 526 18.5 Q465 -11 387 -11 Q309 -11 247.5 18.5 Q186 48 143.5 98 Q101 148 79 215.5 Q57 283 57 360 Q57 436 79 503.5 Q101 571 143.5 621 Q186 671 247.5 700.5 Q309 730 387 730 Z M272 797 L272 858 L332 858 L332 797 L272 797 Z M441 797 L441 858 L501 858 L501 797 L441 797 Z " />
<glyph glyph-name="Ograve" unicode="&#xd2;" horiz-adv-x="773" d="M387 658 Q327 658 282 636 Q237 614 207 574 Q177 534 162 479.5 Q147 425 147 360 Q147 295 162 240.5 Q177 186 207 146 Q237 106 282 84 Q327 62 387 62 Q447 62 491.5 84 Q536 106 566 146 Q596 186 611 240.5 Q626 295 626 360 Q626 425 611 479.5 Q596 534 566 574 Q536 614 491.5 636 Q447 658 387 658 Z M387 730 Q465 730 526 700.5 Q587 671 629 621 Q671 571 693 503.5 Q715 436 715 360 Q715 283 693 215.5 Q671 148 629 98 Q587 48 526 18.5 Q465 -11 387 -11 Q309 -11 247.5 18.5 Q186 48 143.5 98 Q101 148 79 215.5 Q57 283 57 360 Q57 436 79 503.5 Q101 571 143.5 621 Q186 671 247.5 700.5 Q309 730 387 730 Z M344 917 L465 761 L414 761 L270 907 L344 917 Z " />
<glyph glyph-name="Ohungarumlaut" unicode="&#x150;" horiz-adv-x="773" d="M387 658 Q327 658 282 636 Q237 614 207 574 Q177 534 162 479.5 Q147 425 147 360 Q147 295 162 240.5 Q177 186 207 146 Q237 106 282 84 Q327 62 387 62 Q447 62 491.5 84 Q536 106 566 146 Q596 186 611 240.5 Q626 295 626 360 Q626 425 611 479.5 Q596 534 566 574 Q536 614 491.5 636 Q447 658 387 658 Z M387 730 Q465 730 526 700.5 Q587 671 629 621 Q671 571 693 503.5 Q715 436 715 360 Q715 283 693 215.5 Q671 148 629 98 Q587 48 526 18.5 Q465 -11 387 -11 Q309 -11 247.5 18.5 Q186 48 143.5 98 Q101 148 79 215.5 Q57 283 57 360 Q57 436 79 503.5 Q101 571 143.5 621 Q186 671 247.5 700.5 Q309 730 387 730 Z M427 907 L307 764 L262 764 L363 917 L427 907 Z M584 907 L463 764 L419 764 L521 917 L584 907 Z " />
<glyph glyph-name="Omacron" unicode="&#x14c;" horiz-adv-x="773" d="M387 658 Q327 658 282 636 Q237 614 207 574 Q177 534 162 479.5 Q147 425 147 360 Q147 295 162 240.5 Q177 186 207 146 Q237 106 282 84 Q327 62 387 62 Q447 62 491.5 84 Q536 106 566 146 Q596 186 611 240.5 Q626 295 626 360 Q626 425 611 479.5 Q596 534 566 574 Q536 614 491.5 636 Q447 658 387 658 Z M387 730 Q465 730 526 700.5 Q587 671 629 621 Q671 571 693 503.5 Q715 436 715 360 Q715 283 693 215.5 Q671 148 629 98 Q587 48 526 18.5 Q465 -11 387 -11 Q309 -11 247.5 18.5 Q186 48 143.5 98 Q101 148 79 215.5 Q57 283 57 360 Q57 436 79 503.5 Q101 571 143.5 621 Q186 671 247.5 700.5 Q309 730 387 730 Z M258 787 L258 834 L514 834 L514 787 L258 787 Z " />
<glyph glyph-name="Otilde" unicode="&#xd5;" horiz-adv-x="773" d="M387 658 Q327 658 282 636 Q237 614 207 574 Q177 534 162 479.5 Q147 425 147 360 Q147 295 162 240.5 Q177 186 207 146 Q237 106 282 84 Q327 62 387 62 Q447 62 491.5 84 Q536 106 566 146 Q596 186 611 240.5 Q626 295 626 360 Q626 425 611 479.5 Q596 534 566 574 Q536 614 491.5 636 Q447 658 387 658 Z M387 730 Q465 730 526 700.5 Q587 671 629 621 Q671 571 693 503.5 Q715 436 715 360 Q715 283 693 215.5 Q671 148 629 98 Q587 48 526 18.5 Q465 -11 387 -11 Q309 -11 247.5 18.5 Q186 48 143.5 98 Q101 148 79 215.5 Q57 283 57 360 Q57 436 79 503.5 Q101 571 143.5 621 Q186 671 247.5 700.5 Q309 730 387 730 Z M318 881 Q342 881 360.5 871.5 Q379 862 395 850 Q411 838 425 828.5 Q439 819 454 819 Q474 819 486.5 829 Q499 839 504 865 L539 859 Q533 817 511 795 Q489 773 456 773 Q433 773 415.5 783 Q398 793 382 805 Q366 817 350.5 827 Q335 837 316 837 Q273 837 267 788 L233 796 Q237 837 259.5 859 Q282 881 318 881 Z " />
<glyph glyph-name="Racute" unicode="&#x154;" horiz-adv-x="681" d="M528 0 Q528 101 516 163 Q504 225 483 259 Q462 293 433 304.5 Q404 316 371 316 L174 316 L174 0 L91 0 L91 720 L406 720 Q461 720 500 705 Q539 690 564 664 Q589 638 600.5 604 Q612 570 612 531 Q612 455 573.5 406.5 Q535 358 455 347 Q485 341 513.5 324.5 Q542 308 563.5 269.5 Q585 231 598.5 166.5 Q612 102 612 0 L528 0 Z M386 379 Q425 379 451.5 390 Q478 401 494.5 420 Q511 439 518 464.5 Q525 490 525 520 Q525 549 518 574 Q511 599 494.5 617 Q478 635 451.5 645 Q425 655 386 655 L174 655 L174 379 L386 379 Z M468 907 L324 761 L273 761 L394 917 L468 907 Z " />
<glyph glyph-name="Rcaron" unicode="&#x158;" horiz-adv-x="681" d="M528 0 Q528 101 516 163 Q504 225 483 259 Q462 293 433 304.5 Q404 316 371 316 L174 316 L174 0 L91 0 L91 720 L406 720 Q461 720 500 705 Q539 690 564 664 Q589 638 600.5 604 Q612 570 612 531 Q612 455 573.5 406.5 Q535 358 455 347 Q485 341 513.5 324.5 Q542 308 563.5 269.5 Q585 231 598.5 166.5 Q612 102 612 0 L528 0 Z M386 379 Q425 379 451.5 390 Q478 401 494.5 420 Q511 439 518 464.5 Q525 490 525 520 Q525 549 518 574 Q511 599 494.5 617 Q478 635 451.5 645 Q425 655 386 655 L174 655 L174 379 L386 379 Z M239 917 L344 810 L450 917 L499 907 L377 761 L312 761 L189 907 L239 917 Z " />
<glyph glyph-name="Rcommaaccent" unicode="&#x156;" horiz-adv-x="681" d="M528 0 Q528 101 516 163 Q504 225 483 259 Q462 293 433 304.5 Q404 316 371 316 L174 316 L174 0 L91 0 L91 720 L406 720 Q461 720 500 705 Q539 690 564 664 Q589 638 600.5 604 Q612 570 612 531 Q612 455 573.5 406.5 Q535 358 455 347 Q485 341 513.5 324.5 Q542 308 563.5 269.5 Q585 231 598.5 166.5 Q612 102 612 0 L528 0 Z M386 379 Q425 379 451.5 390 Q478 401 494.5 420 Q511 439 518 464.5 Q525 490 525 520 Q525 549 518 574 Q511 599 494.5 617 Q478 635 451.5 645 Q425 655 386 655 L174 655 L174 379 L386 379 Z M390 -53 L390 -103 Q390 -145 369.5 -175 Q349 -205 316 -226 L303 -200 Q350 -169 350 -113 L316 -113 L316 -53 L390 -53 Z " />
<glyph glyph-name="Sacute" unicode="&#x15a;" horiz-adv-x="658" d="M329 730 Q389 730 436 715.5 Q483 701 517 676.5 Q551 652 571.5 618 Q592 584 597 545 L511 545 Q506 570 493.5 591.5 Q481 613 459 629 Q437 645 404.5 654.5 Q372 664 327 664 Q280 664 247 653.5 Q214 643 193.5 625 Q173 607 163.5 584 Q154 561 154 537 Q154 502 167.5 479.5 Q181 457 205 443.5 Q229 430 261 422.5 Q293 415 331 410 Q386 403 435.5 390.5 Q485 378 522.5 355 Q560 332 581.5 296 Q603 260 603 207 Q603 162 585 122.5 Q567 83 532 53.5 Q497 24 445.5 6.5 Q394 -11 327 -11 Q268 -11 220 3.5 Q172 18 137 43 Q102 68 81 102.5 Q60 137 55 176 L141 176 Q145 151 158.5 129 Q172 107 195 90.5 Q218 74 251.5 64.5 Q285 55 329 55 Q376 55 410.5 67 Q445 79 467.5 98.5 Q490 118 501 143.5 Q512 169 512 196 Q512 234 496.5 258 Q481 282 454.5 297 Q428 312 392 320.5 Q356 329 314 335 Q259 342 213.5 354 Q168 366 135 388 Q102 410 84 444 Q66 478 66 530 Q66 569 82 605.5 Q98 642 131 669.5 Q164 697 213.5 713.5 Q263 730 329 730 Z M457 907 L313 761 L262 761 L383 917 L457 907 Z " />
<glyph glyph-name="Scaron" unicode="&#x160;" horiz-adv-x="658" d="M329 730 Q389 730 436 715.5 Q483 701 517 676.5 Q551 652 571.5 618 Q592 584 597 545 L511 545 Q506 570 493.5 591.5 Q481 613 459 629 Q437 645 404.5 654.5 Q372 664 327 664 Q280 664 247 653.5 Q214 643 193.5 625 Q173 607 163.5 584 Q154 561 154 537 Q154 502 167.5 479.5 Q181 457 205 443.5 Q229 430 261 422.5 Q293 415 331 410 Q386 403 435.5 390.5 Q485 378 522.5 355 Q560 332 581.5 296 Q603 260 603 207 Q603 162 585 122.5 Q567 83 532 53.5 Q497 24 445.5 6.5 Q394 -11 327 -11 Q268 -11 220 3.5 Q172 18 137 43 Q102 68 81 102.5 Q60 137 55 176 L141 176 Q145 151 158.5 129 Q172 107 195 90.5 Q218 74 251.5 64.5 Q285 55 329 55 Q376 55 410.5 67 Q445 79 467.5 98.5 Q490 118 501 143.5 Q512 169 512 196 Q512 234 496.5 258 Q481 282 454.5 297 Q428 312 392 320.5 Q356 329 314 335 Q259 342 213.5 354 Q168 366 135 388 Q102 410 84 444 Q66 478 66 530 Q66 569 82 605.5 Q98 642 131 669.5 Q164 697 213.5 713.5 Q263 730 329 730 Z M229 917 L334 810 L440 917 L489 907 L367 761 L302 761 L179 907 L229 917 Z " />
<glyph glyph-name="Scedilla" unicode="&#x15e;" horiz-adv-x="658" d="M329 730 Q389 730 436 715.5 Q483 701 517 676.5 Q551 652 571.5 618 Q592 584 597 545 L511 545 Q506 570 493.5 591.5 Q481 613 459 629 Q437 645 404.5 654.5 Q372 664 327 664 Q280 664 247 653.5 Q214 643 193.5 625 Q173 607 163.5 584 Q154 561 154 537 Q154 502 167.5 479.5 Q181 457 205 443.5 Q229 430 261 422.5 Q293 415 331 410 Q386 403 435.5 390.5 Q485 378 522.5 355 Q560 332 581.5 296 Q603 260 603 207 Q603 164 586 125.5 Q569 87 536.5 57.5 Q504 28 456 10 Q408 -8 345 -11 L315 -61 Q328 -58 347 -58 Q366 -58 385.5 -62.5 Q405 -67 420 -77 Q435 -87 444.5 -103 Q454 -119 454 -142 Q454 -183 419.5 -208 Q385 -233 325 -233 Q293 -233 262.5 -223.5 Q232 -214 212 -196 L236 -168 Q247 -181 271 -188.5 Q295 -196 321 -196 Q360 -196 376.5 -182 Q393 -168 393 -148 Q393 -113 367 -100.5 Q341 -88 306 -88 Q279 -88 251 -93 L294 -9 Q242 -5 200 10.5 Q158 26 127 50.5 Q96 75 77.5 107 Q59 139 55 176 L141 176 Q145 151 158.5 129 Q172 107 195 90.5 Q218 74 251.5 64.5 Q285 55 329 55 Q376 55 410.5 67 Q445 79 467.5 98.5 Q490 118 501 143.5 Q512 169 512 196 Q512 234 496.5 258 Q481 282 454.5 297 Q428 312 392 320.5 Q356 329 314 335 Q259 342 213.5 354 Q168 366 135 388 Q102 410 84 444 Q66 478 66 530 Q66 569 82 605.5 Q98 642 131 669.5 Q164 697 213.5 713.5 Q263 730 329 730 Z " />
<glyph glyph-name="Scircumflex" unicode="&#x15c;" horiz-adv-x="658" d="M329 730 Q389 730 436 715.5 Q483 701 517 676.5 Q551 652 571.5 618 Q592 584 597 545 L511 545 Q506 570 493.5 591.5 Q481 613 459 629 Q437 645 404.5 654.5 Q372 664 327 664 Q280 664 247 653.5 Q214 643 193.5 625 Q173 607 163.5 584 Q154 561 154 537 Q154 502 167.5 479.5 Q181 457 205 443.5 Q229 430 261 422.5 Q293 415 331 410 Q386 403 435.5 390.5 Q485 378 522.5 355 Q560 332 581.5 296 Q603 260 603 207 Q603 162 585 122.5 Q567 83 532 53.5 Q497 24 445.5 6.5 Q394 -11 327 -11 Q268 -11 220 3.5 Q172 18 137 43 Q102 68 81 102.5 Q60 137 55 176 L141 176 Q145 151 158.5 129 Q172 107 195 90.5 Q218 74 251.5 64.5 Q285 55 329 55 Q376 55 410.5 67 Q445 79 467.5 98.5 Q490 118 501 143.5 Q512 169 512 196 Q512 234 496.5 258 Q481 282 454.5 297 Q428 312 392 320.5 Q356 329 314 335 Q259 342 213.5 354 Q168 366 135 388 Q102 410 84 444 Q66 478 66 530 Q66 569 82 605.5 Q98 642 131 669.5 Q164 697 213.5 713.5 Q263 730 329 730 Z M440 761 L335 868 L229 761 L179 771 L302 917 L367 917 L489 771 L440 761 Z " />
<glyph glyph-name="Scommaaccent" unicode="&#x218;" horiz-adv-x="658" d="M329 730 Q389 730 436 715.5 Q483 701 517 676.5 Q551 652 571.5 618 Q592 584 597 545 L511 545 Q506 570 493.5 591.5 Q481 613 459 629 Q437 645 404.5 654.5 Q372 664 327 664 Q280 664 247 653.5 Q214 643 193.5 625 Q173 607 163.5 584 Q154 561 154 537 Q154 502 167.5 479.5 Q181 457 205 443.5 Q229 430 261 422.5 Q293 415 331 410 Q386 403 435.5 390.5 Q485 378 522.5 355 Q560 332 581.5 296 Q603 260 603 207 Q603 162 585 122.5 Q567 83 532 53.5 Q497 24 445.5 6.5 Q394 -11 327 -11 Q268 -11 220 3.5 Q172 18 137 43 Q102 68 81 102.5 Q60 137 55 176 L141 176 Q145 151 158.5 129 Q172 107 195 90.5 Q218 74 251.5 64.5 Q285 55 329 55 Q376 55 410.5 67 Q445 79 467.5 98.5 Q490 118 501 143.5 Q512 169 512 196 Q512 234 496.5 258 Q481 282 454.5 297 Q428 312 392 320.5 Q356 329 314 335 Q259 342 213.5 354 Q168 366 135 388 Q102 410 84 444 Q66 478 66 530 Q66 569 82 605.5 Q98 642 131 669.5 Q164 697 213.5 713.5 Q263 730 329 730 Z M376 -53 L376 -103 Q376 -145 355.5 -175 Q335 -205 302 -226 L289 -200 Q336 -169 336 -113 L302 -113 L302 -53 L376 -53 Z " />
<glyph glyph-name="Tbar" unicode="&#x166;" horiz-adv-x="594" d="M256 0 L256 345 L147 345 L147 397 L256 397 L256 655 L12 655 L12 720 L584 720 L584 655 L339 655 L339 397 L443 397 L443 345 L339 345 L339 0 L256 0 Z " />
<glyph glyph-name="Tcaron" unicode="&#x164;" horiz-adv-x="594" d="M256 0 L256 655 L12 655 L12 720 L584 720 L584 655 L339 655 L339 0 L256 0 Z M198 917 L303 810 L409 917 L458 907 L336 761 L271 761 L148 907 L198 917 Z " />
<glyph glyph-name="Tcommaaccent" unicode="&#x162;" horiz-adv-x="594" d="M256 0 L256 655 L12 655 L12 720 L584 720 L584 655 L339 655 L339 0 L256 0 Z M343 -53 L343 -103 Q343 -145 322.5 -175 Q302 -205 269 -226 L256 -200 Q303 -169 303 -113 L269 -113 L269 -53 L343 -53 Z " />
<glyph glyph-name="Uacute" unicode="&#xda;" horiz-adv-x="711" d="M540 720 L624 720 L624 193 Q624 143 602.5 105 Q581 67 544.5 41 Q508 15 458.5 2 Q409 -11 354 -11 Q299 -11 250.5 2 Q202 15 166 41 Q130 67 109 105 Q88 143 88 193 L88 720 L172 720 L172 210 Q172 135 220.5 97 Q269 59 356 59 Q443 59 491.5 97 Q540 135 540 210 L540 720 Z M492 907 L348 761 L297 761 L418 917 L492 907 Z " />
<glyph glyph-name="Ubreve" unicode="&#x16c;" horiz-adv-x="711" d="M540 720 L624 720 L624 193 Q624 143 602.5 105 Q581 67 544.5 41 Q508 15 458.5 2 Q409 -11 354 -11 Q299 -11 250.5 2 Q202 15 166 41 Q130 67 109 105 Q88 143 88 193 L88 720 L172 720 L172 210 Q172 135 220.5 97 Q269 59 356 59 Q443 59 491.5 97 Q540 135 540 210 L540 720 Z M277 881 Q278 849 297.5 829.5 Q317 810 355 810 Q397 810 415.5 830.5 Q434 851 435 881 L477 876 Q476 825 443.5 794.5 Q411 764 355 764 Q300 764 267.5 794.5 Q235 825 234 876 L277 881 Z " />
<glyph glyph-name="Ucircumflex" unicode="&#xdb;" horiz-adv-x="711" d="M540 720 L624 720 L624 193 Q624 143 602.5 105 Q581 67 544.5 41 Q508 15 458.5 2 Q409 -11 354 -11 Q299 -11 250.5 2 Q202 15 166 41 Q130 67 109 105 Q88 143 88 193 L88 720 L172 720 L172 210 Q172 135 220.5 97 Q269 59 356 59 Q443 59 491.5 97 Q540 135 540 210 L540 720 Z M461 761 L356 868 L250 761 L200 771 L323 917 L388 917 L510 771 L461 761 Z " />
<glyph glyph-name="Udieresis" unicode="&#xdc;" horiz-adv-x="711" d="M540 720 L624 720 L624 193 Q624 143 602.5 105 Q581 67 544.5 41 Q508 15 458.5 2 Q409 -11 354 -11 Q299 -11 250.5 2 Q202 15 166 41 Q130 67 109 105 Q88 143 88 193 L88 720 L172 720 L172 210 Q172 135 220.5 97 Q269 59 356 59 Q443 59 491.5 97 Q540 135 540 210 L540 720 Z M241 797 L241 858 L301 858 L301 797 L241 797 Z M410 797 L410 858 L470 858 L470 797 L410 797 Z " />
<glyph glyph-name="Ugrave" unicode="&#xd9;" horiz-adv-x="711" d="M540 720 L624 720 L624 193 Q624 143 602.5 105 Q581 67 544.5 41 Q508 15 458.5 2 Q409 -11 354 -11 Q299 -11 250.5 2 Q202 15 166 41 Q130 67 109 105 Q88 143 88 193 L88 720 L172 720 L172 210 Q172 135 220.5 97 Q269 59 356 59 Q443 59 491.5 97 Q540 135 540 210 L540 720 Z M317 917 L438 761 L387 761 L243 907 L317 917 Z " />
<glyph glyph-name="Uhungarumlaut" unicode="&#x170;" horiz-adv-x="711" d="M540 720 L624 720 L624 193 Q624 143 602.5 105 Q581 67 544.5 41 Q508 15 458.5 2 Q409 -11 354 -11 Q299 -11 250.5 2 Q202 15 166 41 Q130 67 109 105 Q88 143 88 193 L88 720 L172 720 L172 210 Q172 135 220.5 97 Q269 59 356 59 Q443 59 491.5 97 Q540 135 540 210 L540 720 Z M399 907 L279 764 L234 764 L335 917 L399 907 Z M556 907 L435 764 L391 764 L493 917 L556 907 Z " />
<glyph glyph-name="Umacron" unicode="&#x16a;" horiz-adv-x="711" d="M540 720 L624 720 L624 193 Q624 143 602.5 105 Q581 67 544.5 41 Q508 15 458.5 2 Q409 -11 354 -11 Q299 -11 250.5 2 Q202 15 166 41 Q130 67 109 105 Q88 143 88 193 L88 720 L172 720 L172 210 Q172 135 220.5 97 Q269 59 356 59 Q443 59 491.5 97 Q540 135 540 210 L540 720 Z M235 787 L235 834 L491 834 L491 787 L235 787 Z " />
<glyph glyph-name="Uogonek" unicode="&#x172;" horiz-adv-x="711" d="M540 720 L624 720 L624 193 Q624 148 606.5 112.5 Q589 77 558.5 51.5 Q528 26 486.5 10.5 Q445 -5 397 -9 Q373 -31 359 -59 Q345 -87 345 -116 Q345 -145 362 -160 Q379 -175 408 -175 Q422 -175 434 -172 L434 -222 Q418 -226 396 -226 Q347 -226 315 -201.5 Q283 -177 283 -132 Q283 -98 300.5 -67 Q318 -36 350 -11 Q296 -10 248 3.5 Q200 17 164.5 42.5 Q129 68 108.5 105.5 Q88 143 88 193 L88 720 L172 720 L172 210 Q172 135 220.5 97 Q269 59 356 59 Q443 59 491.5 97 Q540 135 540 210 L540 720 Z " />
<glyph glyph-name="Uring" unicode="&#x16e;" horiz-adv-x="711" d="M540 720 L624 720 L624 193 Q624 143 602.5 105 Q581 67 544.5 41 Q508 15 458.5 2 Q409 -11 354 -11 Q299 -11 250.5 2 Q202 15 166 41 Q130 67 109 105 Q88 143 88 193 L88 720 L172 720 L172 210 Q172 135 220.5 97 Q269 59 356 59 Q443 59 491.5 97 Q540 135 540 210 L540 720 Z M355 908 Q404 908 436.5 887.5 Q469 867 469 827 Q469 788 436.5 768 Q404 748 355 748 Q307 748 274 768 Q241 788 241 827 Q241 867 274 887.5 Q307 908 355 908 Z M355 876 Q322 876 304 862.5 Q286 849 286 827 Q286 802 306 790.5 Q326 779 355 779 Q387 779 405.5 790.5 Q424 802 424 827 Q424 853 403 864.5 Q382 876 355 876 Z " />
<glyph glyph-name="Utilde" unicode="&#x168;" horiz-adv-x="711" d="M540 720 L624 720 L624 193 Q624 143 602.5 105 Q581 67 544.5 41 Q508 15 458.5 2 Q409 -11 354 -11 Q299 -11 250.5 2 Q202 15 166 41 Q130 67 109 105 Q88 143 88 193 L88 720 L172 720 L172 210 Q172 135 220.5 97 Q269 59 356 59 Q443 59 491.5 97 Q540 135 540 210 L540 720 Z M287 881 Q311 881 329.5 871.5 Q348 862 364 850 Q380 838 394 828.5 Q408 819 423 819 Q443 819 455.5 829 Q468 839 473 865 L508 859 Q502 817 480 795 Q458 773 425 773 Q402 773 384.5 783 Q367 793 351 805 Q335 817 319.5 827 Q304 837 285 837 Q242 837 236 788 L202 796 Q206 837 228.5 859 Q251 881 287 881 Z " />
<glyph glyph-name="Wcircumflex" unicode="&#x174;" horiz-adv-x="971" d="M109 720 L260 161 Q265 144 270 121.5 Q275 99 277 79 Q281 99 286 121 Q291 143 296 161 L448 720 L525 720 L677 161 Q682 144 687 122 Q692 100 696 79 Q699 100 703.5 122 Q708 144 713 161 L867 720 L950 720 L748 0 L646 0 L503 518 Q498 536 493.5 560 Q489 584 486 603 Q483 584 478.5 561 Q474 538 469 518 L325 0 L224 0 L22 720 L109 720 Z M591 761 L486 868 L380 761 L330 771 L453 917 L518 917 L640 771 L591 761 Z " />
<glyph glyph-name="Wacute" unicode="&#x1e82;" horiz-adv-x="971" d="M109 720 L260 161 Q265 144 270 121.5 Q275 99 277 79 Q281 99 286 121 Q291 143 296 161 L448 720 L525 720 L677 161 Q682 144 687 122 Q692 100 696 79 Q699 100 703.5 122 Q708 144 713 161 L867 720 L950 720 L748 0 L646 0 L503 518 Q498 536 493.5 560 Q489 584 486 603 Q483 584 478.5 561 Q474 538 469 518 L325 0 L224 0 L22 720 L109 720 Z M631 907 L487 761 L436 761 L557 917 L631 907 Z " />
<glyph glyph-name="Wgrave" unicode="&#x1e80;" horiz-adv-x="971" d="M109 720 L260 161 Q265 144 270 121.5 Q275 99 277 79 Q281 99 286 121 Q291 143 296 161 L448 720 L525 720 L677 161 Q682 144 687 122 Q692 100 696 79 Q699 100 703.5 122 Q708 144 713 161 L867 720 L950 720 L748 0 L646 0 L503 518 Q498 536 493.5 560 Q489 584 486 603 Q483 584 478.5 561 Q474 538 469 518 L325 0 L224 0 L22 720 L109 720 Z M434 917 L555 761 L504 761 L360 907 L434 917 Z " />
<glyph glyph-name="Wdieresis" unicode="&#x1e84;" horiz-adv-x="971" d="M109 720 L260 161 Q265 144 270 121.5 Q275 99 277 79 Q281 99 286 121 Q291 143 296 161 L448 720 L525 720 L677 161 Q682 144 687 122 Q692 100 696 79 Q699 100 703.5 122 Q708 144 713 161 L867 720 L950 720 L748 0 L646 0 L503 518 Q498 536 493.5 560 Q489 584 486 603 Q483 584 478.5 561 Q474 538 469 518 L325 0 L224 0 L22 720 L109 720 Z M371 797 L371 858 L431 858 L431 797 L371 797 Z M540 797 L540 858 L600 858 L600 797 L540 797 Z " />
<glyph glyph-name="Yacute" unicode="&#xdd;" horiz-adv-x="631" d="M273 0 L273 329 L-1 720 L98 720 L318 400 L540 720 L632 720 L357 329 L357 0 L273 0 Z M457 907 L313 761 L262 761 L383 917 L457 907 Z " />
<glyph glyph-name="Ycircumflex" unicode="&#x176;" horiz-adv-x="631" d="M273 0 L273 329 L-1 720 L98 720 L318 400 L540 720 L632 720 L357 329 L357 0 L273 0 Z M421 761 L316 868 L210 761 L160 771 L283 917 L348 917 L470 771 L421 761 Z " />
<glyph glyph-name="Ydieresis" unicode="&#x178;" horiz-adv-x="631" d="M273 0 L273 329 L-1 720 L98 720 L318 400 L540 720 L632 720 L357 329 L357 0 L273 0 Z M201 797 L201 858 L261 858 L261 797 L201 797 Z M370 797 L370 858 L430 858 L430 797 L370 797 Z " />
<glyph glyph-name="Ygrave" unicode="&#x1ef2;" horiz-adv-x="631" d="M273 0 L273 329 L-1 720 L98 720 L318 400 L540 720 L632 720 L357 329 L357 0 L273 0 Z M274 917 L395 761 L344 761 L200 907 L274 917 Z " />
<glyph glyph-name="Zacute" unicode="&#x179;" horiz-adv-x="638" d="M42 0 L42 67 L493 655 L53 655 L53 720 L589 720 L589 653 L141 66 L601 66 L601 0 L42 0 Z M461 907 L317 761 L266 761 L387 917 L461 907 Z " />
<glyph glyph-name="Zcaron" unicode="&#x17d;" horiz-adv-x="638" d="M42 0 L42 67 L493 655 L53 655 L53 720 L589 720 L589 653 L141 66 L601 66 L601 0 L42 0 Z M222 917 L327 810 L433 917 L482 907 L360 761 L295 761 L172 907 L222 917 Z " />
<glyph glyph-name="Zdotaccent" unicode="&#x17b;" horiz-adv-x="638" d="M42 0 L42 67 L493 655 L53 655 L53 720 L589 720 L589 653 L141 66 L601 66 L601 0 L42 0 Z M287 797 L287 861 L361 861 L361 797 L287 797 Z " />
<glyph glyph-name="AEacute" unicode="&#x1fc;" horiz-adv-x="984" d="M454 0 L454 213 L158 213 L11 0 L-84 0 L420 720 L928 720 L928 655 L538 655 L538 406 L867 406 L867 341 L538 341 L538 66 L933 66 L933 0 L454 0 Z M454 276 L454 642 L198 276 L454 276 Z M750 907 L606 761 L555 761 L676 917 L750 907 Z " />
<glyph glyph-name="Oslashacute" unicode="&#x1fe;" horiz-adv-x="773" d="M675 720 L616 636 Q665 585 690 513.5 Q715 442 715 360 Q715 283 693 215.5 Q671 148 629 98 Q587 48 526 18.5 Q465 -11 387 -11 Q333 -11 287 3 Q241 17 204 43 L174 0 L97 0 L156 84 Q108 135 82.5 206.5 Q57 278 57 360 Q57 436 79 503.5 Q101 571 143.5 621 Q186 671 247.5 700.5 Q309 730 387 730 Q441 730 486 716 Q531 702 568 676 L599 720 L675 720 Z M626 360 Q626 423 612 476 Q598 529 570 569 L247 105 Q304 62 387 62 Q447 62 491.5 84 Q536 106 566 146 Q596 186 611 240.5 Q626 295 626 360 Z M387 658 Q327 658 282 636 Q237 614 207 574 Q177 534 162 479.5 Q147 425 147 360 Q147 297 160.5 244 Q174 191 203 151 L526 615 Q498 635 463.5 646.5 Q429 658 387 658 Z M517 907 L373 761 L322 761 L443 917 L517 907 Z " />
<glyph glyph-name="aacute" unicode="&#xe1;" horiz-adv-x="564" d="M286 535 Q340 535 377 523 Q414 511 436.5 490 Q459 469 469 440 Q479 411 479 377 L479 0 L401 0 L401 103 Q378 49 331 20 Q284 -9 213 -9 Q140 -9 98 28 Q56 65 56 131 Q56 219 124 265.5 Q192 312 340 312 Q357 312 372.5 312 Q388 312 401 311 L401 377 Q401 398 395.5 416.5 Q390 435 376 448.5 Q362 462 339 469.5 Q316 477 282 477 Q219 477 183 451 Q147 425 144 379 L71 379 Q78 451 130.5 493 Q183 535 286 535 Z M343 261 Q237 261 186.5 232.5 Q136 204 136 142 Q136 98 162 74 Q188 50 236 50 Q267 50 296.5 60 Q326 70 349.5 90 Q373 110 387 139 Q401 168 401 207 L401 259 Q388 260 373.5 260.5 Q359 261 343 261 Z M408 740 L267 588 L213 588 L327 751 L408 740 Z " />
<glyph glyph-name="abreve" unicode="&#x103;" horiz-adv-x="564" d="M286 535 Q340 535 377 523 Q414 511 436.5 490 Q459 469 469 440 Q479 411 479 377 L479 0 L401 0 L401 103 Q378 49 331 20 Q284 -9 213 -9 Q140 -9 98 28 Q56 65 56 131 Q56 219 124 265.5 Q192 312 340 312 Q357 312 372.5 312 Q388 312 401 311 L401 377 Q401 398 395.5 416.5 Q390 435 376 448.5 Q362 462 339 469.5 Q316 477 282 477 Q219 477 183 451 Q147 425 144 379 L71 379 Q78 451 130.5 493 Q183 535 286 535 Z M343 261 Q237 261 186.5 232.5 Q136 204 136 142 Q136 98 162 74 Q188 50 236 50 Q267 50 296.5 60 Q326 70 349.5 90 Q373 110 387 139 Q401 168 401 207 L401 259 Q388 260 373.5 260.5 Q359 261 343 261 Z M205 723 Q205 687 224 667 Q243 647 281 647 Q323 647 340.5 669 Q358 691 359 723 L406 717 Q405 661 371 629.5 Q337 598 281 598 Q226 598 192 629.5 Q158 661 157 717 L205 723 Z " />
<glyph glyph-name="acircumflex" unicode="&#xe2;" horiz-adv-x="564" d="M286 535 Q340 535 377 523 Q414 511 436.5 490 Q459 469 469 440 Q479 411 479 377 L479 0 L401 0 L401 103 Q378 49 331 20 Q284 -9 213 -9 Q140 -9 98 28 Q56 65 56 131 Q56 219 124 265.5 Q192 312 340 312 Q357 312 372.5 312 Q388 312 401 311 L401 377 Q401 398 395.5 416.5 Q390 435 376 448.5 Q362 462 339 469.5 Q316 477 282 477 Q219 477 183 451 Q147 425 144 379 L71 379 Q78 451 130.5 493 Q183 535 286 535 Z M343 261 Q237 261 186.5 232.5 Q136 204 136 142 Q136 98 162 74 Q188 50 236 50 Q267 50 296.5 60 Q326 70 349.5 90 Q373 110 387 139 Q401 168 401 207 L401 259 Q388 260 373.5 260.5 Q359 261 343 261 Z M318 744 L436 597 L383 586 L282 694 L179 586 L126 597 L246 744 L318 744 Z " />
<glyph glyph-name="adieresis" unicode="&#xe4;" horiz-adv-x="564" d="M286 535 Q340 535 377 523 Q414 511 436.5 490 Q459 469 469 440 Q479 411 479 377 L479 0 L401 0 L401 103 Q378 49 331 20 Q284 -9 213 -9 Q140 -9 98 28 Q56 65 56 131 Q56 219 124 265.5 Q192 312 340 312 Q357 312 372.5 312 Q388 312 401 311 L401 377 Q401 398 395.5 416.5 Q390 435 376 448.5 Q362 462 339 469.5 Q316 477 282 477 Q219 477 183 451 Q147 425 144 379 L71 379 Q78 451 130.5 493 Q183 535 286 535 Z M343 261 Q237 261 186.5 232.5 Q136 204 136 142 Q136 98 162 74 Q188 50 236 50 Q267 50 296.5 60 Q326 70 349.5 90 Q373 110 387 139 Q401 168 401 207 L401 259 Q388 260 373.5 260.5 Q359 261 343 261 Z M169 629 L169 694 L229 694 L229 629 L169 629 Z M331 629 L331 694 L392 694 L392 629 L331 629 Z " />
<glyph glyph-name="agrave" unicode="&#xe0;" horiz-adv-x="564" d="M286 535 Q340 535 377 523 Q414 511 436.5 490 Q459 469 469 440 Q479 411 479 377 L479 0 L401 0 L401 103 Q378 49 331 20 Q284 -9 213 -9 Q140 -9 98 28 Q56 65 56 131 Q56 219 124 265.5 Q192 312 340 312 Q357 312 372.5 312 Q388 312 401 311 L401 377 Q401 398 395.5 416.5 Q390 435 376 448.5 Q362 462 339 469.5 Q316 477 282 477 Q219 477 183 451 Q147 425 144 379 L71 379 Q78 451 130.5 493 Q183 535 286 535 Z M343 261 Q237 261 186.5 232.5 Q136 204 136 142 Q136 98 162 74 Q188 50 236 50 Q267 50 296.5 60 Q326 70 349.5 90 Q373 110 387 139 Q401 168 401 207 L401 259 Q388 260 373.5 260.5 Q359 261 343 261 Z M246 751 L359 588 L305 588 L164 740 L246 751 Z " />
<glyph glyph-name="amacron" unicode="&#x101;" horiz-adv-x="564" d="M286 535 Q340 535 377 523 Q414 511 436.5 490 Q459 469 469 440 Q479 411 479 377 L479 0 L401 0 L401 103 Q378 49 331 20 Q284 -9 213 -9 Q140 -9 98 28 Q56 65 56 131 Q56 219 124 265.5 Q192 312 340 312 Q357 312 372.5 312 Q388 312 401 311 L401 377 Q401 398 395.5 416.5 Q390 435 376 448.5 Q362 462 339 469.5 Q316 477 282 477 Q219 477 183 451 Q147 425 144 379 L71 379 Q78 451 130.5 493 Q183 535 286 535 Z M343 261 Q237 261 186.5 232.5 Q136 204 136 142 Q136 98 162 74 Q188 50 236 50 Q267 50 296.5 60 Q326 70 349.5 90 Q373 110 387 139 Q401 168 401 207 L401 259 Q388 260 373.5 260.5 Q359 261 343 261 Z M156 619 L156 671 L412 671 L412 619 L156 619 Z " />
<glyph glyph-name="aogonek" unicode="&#x105;" horiz-adv-x="564" d="M401 0 L401 103 Q378 49 331 20 Q284 -9 213 -9 Q140 -9 98 28 Q56 65 56 131 Q56 219 124 265.5 Q192 312 340 312 Q357 312 372.5 312 Q388 312 401 311 L401 377 Q401 398 395.5 416.5 Q390 435 376 448.5 Q362 462 339 469.5 Q316 477 282 477 Q219 477 183 451 Q147 425 144 379 L71 379 Q78 451 130.5 493 Q183 535 286 535 Q340 535 377 523 Q414 511 436.5 490 Q459 469 469 440 Q479 411 479 377 L479 0 L465 0 Q436 -22 419 -53 Q402 -84 402 -116 Q402 -145 419 -160 Q436 -175 465 -175 Q479 -175 491 -172 L491 -222 Q475 -226 453 -226 Q404 -226 372 -201.5 Q340 -177 340 -132 Q340 -94 362 -60 Q384 -26 422 0 L401 0 Z M343 261 Q237 261 186.5 232.5 Q136 204 136 142 Q136 98 162 74 Q188 50 236 50 Q267 50 296.5 60 Q326 70 349.5 90 Q373 110 387 139 Q401 168 401 207 L401 259 Q388 260 373.5 260.5 Q359 261 343 261 Z " />
<glyph glyph-name="aring" unicode="&#xe5;" horiz-adv-x="564" d="M286 535 Q340 535 377 523 Q414 511 436.5 490 Q459 469 469 440 Q479 411 479 377 L479 0 L401 0 L401 103 Q378 49 331 20 Q284 -9 213 -9 Q140 -9 98 28 Q56 65 56 131 Q56 219 124 265.5 Q192 312 340 312 Q357 312 372.5 312 Q388 312 401 311 L401 377 Q401 398 395.5 416.5 Q390 435 376 448.5 Q362 462 339 469.5 Q316 477 282 477 Q219 477 183 451 Q147 425 144 379 L71 379 Q78 451 130.5 493 Q183 535 286 535 Z M343 261 Q237 261 186.5 232.5 Q136 204 136 142 Q136 98 162 74 Q188 50 236 50 Q267 50 296.5 60 Q326 70 349.5 90 Q373 110 387 139 Q401 168 401 207 L401 259 Q388 260 373.5 260.5 Q359 261 343 261 Z M280 764 Q328 764 361 738.5 Q394 713 394 668 Q394 623 361 598 Q328 573 280 573 Q232 573 198 598 Q164 623 164 668 Q164 713 198 738.5 Q232 764 280 764 Z M280 725 Q248 725 231 708 Q214 691 214 668 Q214 641 233 625.5 Q252 610 280 610 Q311 610 327.5 625.5 Q344 641 344 667 Q344 695 325 710 Q306 725 280 725 Z " />
<glyph glyph-name="atilde" unicode="&#xe3;" horiz-adv-x="564" d="M286 535 Q340 535 377 523 Q414 511 436.5 490 Q459 469 469 440 Q479 411 479 377 L479 0 L401 0 L401 103 Q378 49 331 20 Q284 -9 213 -9 Q140 -9 98 28 Q56 65 56 131 Q56 219 124 265.5 Q192 312 340 312 Q357 312 372.5 312 Q388 312 401 311 L401 377 Q401 398 395.5 416.5 Q390 435 376 448.5 Q362 462 339 469.5 Q316 477 282 477 Q219 477 183 451 Q147 425 144 379 L71 379 Q78 451 130.5 493 Q183 535 286 535 Z M343 261 Q237 261 186.5 232.5 Q136 204 136 142 Q136 98 162 74 Q188 50 236 50 Q267 50 296.5 60 Q326 70 349.5 90 Q373 110 387 139 Q401 168 401 207 L401 259 Q388 260 373.5 260.5 Q359 261 343 261 Z M212 717 Q236 717 254.5 707 Q273 697 289 685.5 Q305 674 319 664 Q333 654 348 654 Q368 654 380.5 664.5 Q393 675 398 701 L433 695 Q427 650 405 627.5 Q383 605 350 605 Q327 605 309.5 615 Q292 625 276 637.5 Q260 650 244.5 660 Q229 670 210 670 Q167 670 161 619 L127 628 Q131 671 153.5 694 Q176 717 212 717 Z " />
<glyph glyph-name="ccedilla" unicode="&#xe7;" horiz-adv-x="535" d="M290 535 Q332 535 369.5 523 Q407 511 436 487.5 Q465 464 484 431 Q503 398 507 356 L428 356 Q421 409 383.5 440 Q346 471 287 471 Q249 471 219 456 Q189 441 168 413.5 Q147 386 136 347.5 Q125 309 125 262 Q125 215 136 177 Q147 139 168 111 Q189 83 219 68 Q249 53 287 53 Q346 53 383.5 84 Q421 115 428 169 L507 169 Q503 128 485 96 Q467 64 439.5 40.5 Q412 17 376.5 4 Q341 -9 301 -11 L271 -61 Q284 -58 303 -58 Q322 -58 341.5 -62.5 Q361 -67 376 -77 Q391 -87 400.5 -103 Q410 -119 410 -142 Q410 -183 375.5 -208 Q341 -233 281 -233 Q249 -233 218.5 -223.5 Q188 -214 168 -196 L192 -168 Q203 -181 227 -188.5 Q251 -196 277 -196 Q316 -196 332.5 -182 Q349 -168 349 -148 Q349 -113 323 -100.5 Q297 -88 262 -88 Q235 -88 207 -93 L251 -8 Q203 -2 165 20.5 Q127 43 100.5 78 Q74 113 60.5 159.5 Q47 206 47 262 Q47 323 63.5 373 Q80 423 111.5 459 Q143 495 188 515 Q233 535 290 535 Z " />
<glyph glyph-name="cacute" unicode="&#x107;" horiz-adv-x="535" d="M290 535 Q332 535 369.5 523 Q407 511 436 487.5 Q465 464 484 431 Q503 398 507 356 L428 356 Q421 409 383.5 440 Q346 471 287 471 Q249 471 219 456 Q189 441 168 413.5 Q147 386 136 347.5 Q125 309 125 262 Q125 215 136 177 Q147 139 168 111 Q189 83 219 68 Q249 53 287 53 Q346 53 383.5 84 Q421 115 428 169 L507 169 Q503 127 484 93.5 Q465 60 436 37 Q407 14 369.5 1.5 Q332 -11 290 -11 Q233 -11 188 9 Q143 29 111.5 65 Q80 101 63.5 151 Q47 201 47 262 Q47 323 63.5 373 Q80 423 111.5 459 Q143 495 188 515 Q233 535 290 535 Z M416 740 L275 588 L221 588 L335 751 L416 740 Z " />
<glyph glyph-name="ccaron" unicode="&#x10d;" horiz-adv-x="535" d="M290 535 Q332 535 369.5 523 Q407 511 436 487.5 Q465 464 484 431 Q503 398 507 356 L428 356 Q421 409 383.5 440 Q346 471 287 471 Q249 471 219 456 Q189 441 168 413.5 Q147 386 136 347.5 Q125 309 125 262 Q125 215 136 177 Q147 139 168 111 Q189 83 219 68 Q249 53 287 53 Q346 53 383.5 84 Q421 115 428 169 L507 169 Q503 127 484 93.5 Q465 60 436 37 Q407 14 369.5 1.5 Q332 -11 290 -11 Q233 -11 188 9 Q143 29 111.5 65 Q80 101 63.5 151 Q47 201 47 262 Q47 323 63.5 373 Q80 423 111.5 459 Q143 495 188 515 Q233 535 290 535 Z M190 748 L292 639 L394 748 L447 736 L329 588 L257 588 L137 736 L190 748 Z " />
<glyph glyph-name="ccircumflex" unicode="&#x109;" horiz-adv-x="535" d="M290 535 Q332 535 369.5 523 Q407 511 436 487.5 Q465 464 484 431 Q503 398 507 356 L428 356 Q421 409 383.5 440 Q346 471 287 471 Q249 471 219 456 Q189 441 168 413.5 Q147 386 136 347.5 Q125 309 125 262 Q125 215 136 177 Q147 139 168 111 Q189 83 219 68 Q249 53 287 53 Q346 53 383.5 84 Q421 115 428 169 L507 169 Q503 127 484 93.5 Q465 60 436 37 Q407 14 369.5 1.5 Q332 -11 290 -11 Q233 -11 188 9 Q143 29 111.5 65 Q80 101 63.5 151 Q47 201 47 262 Q47 323 63.5 373 Q80 423 111.5 459 Q143 495 188 515 Q233 535 290 535 Z M327 744 L445 597 L392 586 L291 694 L188 586 L135 597 L255 744 L327 744 Z " />
<glyph glyph-name="cdotaccent" unicode="&#x10b;" horiz-adv-x="535" d="M290 535 Q332 535 369.5 523 Q407 511 436 487.5 Q465 464 484 431 Q503 398 507 356 L428 356 Q421 409 383.5 440 Q346 471 287 471 Q249 471 219 456 Q189 441 168 413.5 Q147 386 136 347.5 Q125 309 125 262 Q125 215 136 177 Q147 139 168 111 Q189 83 219 68 Q249 53 287 53 Q346 53 383.5 84 Q421 115 428 169 L507 169 Q503 127 484 93.5 Q465 60 436 37 Q407 14 369.5 1.5 Q332 -11 290 -11 Q233 -11 188 9 Q143 29 111.5 65 Q80 101 63.5 151 Q47 201 47 262 Q47 323 63.5 373 Q80 423 111.5 459 Q143 495 188 515 Q233 535 290 535 Z M250 629 L250 703 L327 703 L327 629 L250 629 Z " />
<glyph glyph-name="dcroat" unicode="&#x111;" horiz-adv-x="603" d="M267 535 Q303 535 332 524 Q361 513 382.5 494 Q404 475 419 450.5 Q434 426 442 398 L442 604 L343 604 L343 651 L442 651 L442 735 L520 735 L520 651 L593 651 L593 604 L520 604 L520 0 L442 0 L442 124 Q434 98 418 73.5 Q402 49 380 30 Q358 11 329.5 0 Q301 -11 267 -11 Q216 -11 175 9 Q134 29 105.5 65 Q77 101 62 151.5 Q47 202 47 262 Q47 323 62 373 Q77 423 105.5 459 Q134 495 175 515 Q216 535 267 535 Z M283 471 Q207 471 168 414 Q129 357 129 262 Q129 167 168 110.5 Q207 54 283 54 Q324 54 354 70.5 Q384 87 403.5 115 Q423 143 432.5 179.5 Q442 216 442 256 Q442 366 398 418.5 Q354 471 283 471 Z " />
<glyph glyph-name="dcaron" unicode="&#x10f;" horiz-adv-x="603" d="M267 535 Q303 535 332 524 Q361 513 382.5 494 Q404 475 419 450.5 Q434 426 442 398 L442 735 L520 735 L520 0 L442 0 L442 124 Q434 98 418 73.5 Q402 49 380 30 Q358 11 329.5 0 Q301 -11 267 -11 Q216 -11 175 9 Q134 29 105.5 65 Q77 101 62 151.5 Q47 202 47 262 Q47 323 62 373 Q77 423 105.5 459 Q134 495 175 515 Q216 535 267 535 Z M283 471 Q207 471 168 414 Q129 357 129 262 Q129 167 168 110.5 Q207 54 283 54 Q324 54 354 70.5 Q384 87 403.5 115 Q423 143 432.5 179.5 Q442 216 442 256 Q442 366 398 418.5 Q354 471 283 471 Z M642 745 L607 588 L568 588 L571 745 L642 745 Z " />
<glyph glyph-name="eacute" unicode="&#xe9;" horiz-adv-x="561" d="M289 535 Q346 535 389 513.5 Q432 492 460.5 454.5 Q489 417 502.5 366 Q516 315 515 257 L124 257 Q125 160 167 105.5 Q209 51 287 51 Q341 51 380 78.5 Q419 106 427 158 L505 158 Q500 118 481 86.5 Q462 55 432.5 33.5 Q403 12 366 0.5 Q329 -11 288 -11 Q232 -11 187.5 9 Q143 29 111.5 65 Q80 101 63 151 Q46 201 46 262 Q46 323 63 373 Q80 423 111.5 459 Q143 495 188 515 Q233 535 289 535 Z M286 477 Q216 477 176 433 Q136 389 126 311 L434 311 Q433 346 423 376.5 Q413 407 394 429.5 Q375 452 347.5 464.5 Q320 477 286 477 Z M419 740 L278 588 L224 588 L338 751 L419 740 Z " />
<glyph glyph-name="ebreve" unicode="&#x115;" horiz-adv-x="561" d="M289 535 Q346 535 389 513.5 Q432 492 460.5 454.5 Q489 417 502.5 366 Q516 315 515 257 L124 257 Q125 160 167 105.5 Q209 51 287 51 Q341 51 380 78.5 Q419 106 427 158 L505 158 Q500 118 481 86.5 Q462 55 432.5 33.5 Q403 12 366 0.5 Q329 -11 288 -11 Q232 -11 187.5 9 Q143 29 111.5 65 Q80 101 63 151 Q46 201 46 262 Q46 323 63 373 Q80 423 111.5 459 Q143 495 188 515 Q233 535 289 535 Z M286 477 Q216 477 176 433 Q136 389 126 311 L434 311 Q433 346 423 376.5 Q413 407 394 429.5 Q375 452 347.5 464.5 Q320 477 286 477 Z M210 723 Q210 687 229 667 Q248 647 286 647 Q328 647 345.5 669 Q363 691 364 723 L411 717 Q410 661 376 629.5 Q342 598 286 598 Q231 598 197 629.5 Q163 661 162 717 L210 723 Z " />
<glyph glyph-name="ecaron" unicode="&#x11b;" horiz-adv-x="561" d="M289 535 Q346 535 389 513.5 Q432 492 460.5 454.5 Q489 417 502.5 366 Q516 315 515 257 L124 257 Q125 160 167 105.5 Q209 51 287 51 Q341 51 380 78.5 Q419 106 427 158 L505 158 Q500 118 481 86.5 Q462 55 432.5 33.5 Q403 12 366 0.5 Q329 -11 288 -11 Q232 -11 187.5 9 Q143 29 111.5 65 Q80 101 63 151 Q46 201 46 262 Q46 323 63 373 Q80 423 111.5 459 Q143 495 188 515 Q233 535 289 535 Z M286 477 Q216 477 176 433 Q136 389 126 311 L434 311 Q433 346 423 376.5 Q413 407 394 429.5 Q375 452 347.5 464.5 Q320 477 286 477 Z M185 748 L287 639 L389 748 L442 736 L324 588 L252 588 L132 736 L185 748 Z " />
<glyph glyph-name="ecircumflex" unicode="&#xea;" horiz-adv-x="561" d="M289 535 Q346 535 389 513.5 Q432 492 460.5 454.5 Q489 417 502.5 366 Q516 315 515 257 L124 257 Q125 160 167 105.5 Q209 51 287 51 Q341 51 380 78.5 Q419 106 427 158 L505 158 Q500 118 481 86.5 Q462 55 432.5 33.5 Q403 12 366 0.5 Q329 -11 288 -11 Q232 -11 187.5 9 Q143 29 111.5 65 Q80 101 63 151 Q46 201 46 262 Q46 323 63 373 Q80 423 111.5 459 Q143 495 188 515 Q233 535 289 535 Z M286 477 Q216 477 176 433 Q136 389 126 311 L434 311 Q433 346 423 376.5 Q413 407 394 429.5 Q375 452 347.5 464.5 Q320 477 286 477 Z M325 744 L443 597 L390 586 L289 694 L186 586 L133 597 L253 744 L325 744 Z " />
<glyph glyph-name="edieresis" unicode="&#xeb;" horiz-adv-x="561" d="M289 535 Q346 535 389 513.5 Q432 492 460.5 454.5 Q489 417 502.5 366 Q516 315 515 257 L124 257 Q125 160 167 105.5 Q209 51 287 51 Q341 51 380 78.5 Q419 106 427 158 L505 158 Q500 118 481 86.5 Q462 55 432.5 33.5 Q403 12 366 0.5 Q329 -11 288 -11 Q232 -11 187.5 9 Q143 29 111.5 65 Q80 101 63 151 Q46 201 46 262 Q46 323 63 373 Q80 423 111.5 459 Q143 495 188 515 Q233 535 289 535 Z M286 477 Q216 477 176 433 Q136 389 126 311 L434 311 Q433 346 423 376.5 Q413 407 394 429.5 Q375 452 347.5 464.5 Q320 477 286 477 Z M339 629 L339 694 L400 694 L400 629 L339 629 Z M177 629 L177 694 L237 694 L237 629 L177 629 Z " />
<glyph glyph-name="edotaccent" unicode="&#x117;" horiz-adv-x="561" d="M289 535 Q346 535 389 513.5 Q432 492 460.5 454.5 Q489 417 502.5 366 Q516 315 515 257 L124 257 Q125 160 167 105.5 Q209 51 287 51 Q341 51 380 78.5 Q419 106 427 158 L505 158 Q500 118 481 86.5 Q462 55 432.5 33.5 Q403 12 366 0.5 Q329 -11 288 -11 Q232 -11 187.5 9 Q143 29 111.5 65 Q80 101 63 151 Q46 201 46 262 Q46 323 63 373 Q80 423 111.5 459 Q143 495 188 515 Q233 535 289 535 Z M286 477 Q216 477 176 433 Q136 389 126 311 L434 311 Q433 346 423 376.5 Q413 407 394 429.5 Q375 452 347.5 464.5 Q320 477 286 477 Z M248 629 L248 703 L325 703 L325 629 L248 629 Z " />
<glyph glyph-name="egrave" unicode="&#xe8;" horiz-adv-x="561" d="M289 535 Q346 535 389 513.5 Q432 492 460.5 454.5 Q489 417 502.5 366 Q516 315 515 257 L124 257 Q125 160 167 105.5 Q209 51 287 51 Q341 51 380 78.5 Q419 106 427 158 L505 158 Q500 118 481 86.5 Q462 55 432.5 33.5 Q403 12 366 0.5 Q329 -11 288 -11 Q232 -11 187.5 9 Q143 29 111.5 65 Q80 101 63 151 Q46 201 46 262 Q46 323 63 373 Q80 423 111.5 459 Q143 495 188 515 Q233 535 289 535 Z M286 477 Q216 477 176 433 Q136 389 126 311 L434 311 Q433 346 423 376.5 Q413 407 394 429.5 Q375 452 347.5 464.5 Q320 477 286 477 Z M238 751 L351 588 L297 588 L156 740 L238 751 Z " />
<glyph glyph-name="emacron" unicode="&#x113;" horiz-adv-x="561" d="M289 535 Q346 535 389 513.5 Q432 492 460.5 454.5 Q489 417 502.5 366 Q516 315 515 257 L124 257 Q125 160 167 105.5 Q209 51 287 51 Q341 51 380 78.5 Q419 106 427 158 L505 158 Q500 118 481 86.5 Q462 55 432.5 33.5 Q403 12 366 0.5 Q329 -11 288 -11 Q232 -11 187.5 9 Q143 29 111.5 65 Q80 101 63 151 Q46 201 46 262 Q46 323 63 373 Q80 423 111.5 459 Q143 495 188 515 Q233 535 289 535 Z M286 477 Q216 477 176 433 Q136 389 126 311 L434 311 Q433 346 423 376.5 Q413 407 394 429.5 Q375 452 347.5 464.5 Q320 477 286 477 Z M160 619 L160 671 L416 671 L416 619 L160 619 Z " />
<glyph glyph-name="eogonek" unicode="&#x119;" horiz-adv-x="561" d="M289 535 Q346 535 389 513.5 Q432 492 460.5 454.5 Q489 417 502.5 366 Q516 315 515 257 L124 257 Q125 160 167 105.5 Q209 51 287 51 Q341 51 380 78.5 Q419 106 427 158 L505 158 Q496 91 450 48.5 Q404 6 339 -6 Q313 -28 298.5 -57.5 Q284 -87 284 -116 Q284 -145 301 -160 Q318 -175 347 -175 Q361 -175 373 -172 L373 -222 Q357 -226 335 -226 Q286 -226 254 -201.5 Q222 -177 222 -132 Q222 -98 239.5 -67 Q257 -36 289 -11 L288 -11 Q232 -11 187.5 9 Q143 29 111.5 65 Q80 101 63 151 Q46 201 46 262 Q46 323 63 373 Q80 423 111.5 459 Q143 495 188 515 Q233 535 289 535 Z M286 477 Q216 477 176 433 Q136 389 126 311 L434 311 Q433 346 423 376.5 Q413 407 394 429.5 Q375 452 347.5 464.5 Q320 477 286 477 Z " />
<glyph glyph-name="gacute" unicode="&#x1f5;" horiz-adv-x="573" d="M282 535 Q317 535 356.5 533.5 Q396 532 434 530 Q472 528 505.5 526.5 Q539 525 562 525 L562 465 Q547 465 528 466 Q509 467 488.5 468.5 Q468 470 448 471.5 Q428 473 411 475 Q452 461 473 425.5 Q494 390 494 346 Q494 307 480 275 Q466 243 439 220 Q412 197 372 184 Q332 171 280 171 Q223 171 175 191 Q159 181 149.5 167.5 Q140 154 140 137 Q140 107 160.5 93 Q181 79 214 79 L379 79 Q542 79 542 -46 Q542 -83 526.5 -115 Q511 -147 478.5 -170.5 Q446 -194 396 -207.5 Q346 -221 277 -221 Q158 -221 105 -186.5 Q52 -152 52 -87 Q52 -45 74 -17 Q96 11 136 28 Q107 38 88 60 Q69 82 69 119 Q69 151 89 176 Q109 201 135 213 Q104 236 86.5 270.5 Q69 305 69 350 Q69 390 83 424 Q97 458 124.5 483 Q152 508 191.5 521.5 Q231 535 282 535 Z M417 350 Q417 406 385.5 442.5 Q354 479 282 479 Q216 479 182.5 443 Q149 407 149 350 Q149 296 182.5 261 Q216 226 282 226 Q349 226 383 260 Q417 294 417 350 Z M218 19 Q211 19 203 19.5 Q195 20 188 21 Q160 6 144.5 -14.5 Q129 -35 129 -67 Q129 -114 163.5 -140.5 Q198 -167 279 -167 Q376 -167 418.5 -134.5 Q461 -102 461 -53 Q461 -16 437 1.5 Q413 19 360 19 L218 19 Z M424 740 L283 588 L229 588 L343 751 L424 740 Z " />
<glyph glyph-name="gbreve" unicode="&#x11f;" horiz-adv-x="573" d="M282 535 Q317 535 356.5 533.5 Q396 532 434 530 Q472 528 505.5 526.5 Q539 525 562 525 L562 465 Q547 465 528 466 Q509 467 488.5 468.5 Q468 470 448 471.5 Q428 473 411 475 Q452 461 473 425.5 Q494 390 494 346 Q494 307 480 275 Q466 243 439 220 Q412 197 372 184 Q332 171 280 171 Q223 171 175 191 Q159 181 149.5 167.5 Q140 154 140 137 Q140 107 160.5 93 Q181 79 214 79 L379 79 Q542 79 542 -46 Q542 -83 526.5 -115 Q511 -147 478.5 -170.5 Q446 -194 396 -207.5 Q346 -221 277 -221 Q158 -221 105 -186.5 Q52 -152 52 -87 Q52 -45 74 -17 Q96 11 136 28 Q107 38 88 60 Q69 82 69 119 Q69 151 89 176 Q109 201 135 213 Q104 236 86.5 270.5 Q69 305 69 350 Q69 390 83 424 Q97 458 124.5 483 Q152 508 191.5 521.5 Q231 535 282 535 Z M417 350 Q417 406 385.5 442.5 Q354 479 282 479 Q216 479 182.5 443 Q149 407 149 350 Q149 296 182.5 261 Q216 226 282 226 Q349 226 383 260 Q417 294 417 350 Z M218 19 Q211 19 203 19.5 Q195 20 188 21 Q160 6 144.5 -14.5 Q129 -35 129 -67 Q129 -114 163.5 -140.5 Q198 -167 279 -167 Q376 -167 418.5 -134.5 Q461 -102 461 -53 Q461 -16 437 1.5 Q413 19 360 19 L218 19 Z M213 723 Q213 687 232 667 Q251 647 289 647 Q331 647 348.5 669 Q366 691 367 723 L414 717 Q413 661 379 629.5 Q345 598 289 598 Q234 598 200 629.5 Q166 661 165 717 L213 723 Z " />
<glyph glyph-name="gcircumflex" unicode="&#x11d;" horiz-adv-x="573" d="M282 535 Q317 535 356.5 533.5 Q396 532 434 530 Q472 528 505.5 526.5 Q539 525 562 525 L562 465 Q547 465 528 466 Q509 467 488.5 468.5 Q468 470 448 471.5 Q428 473 411 475 Q452 461 473 425.5 Q494 390 494 346 Q494 307 480 275 Q466 243 439 220 Q412 197 372 184 Q332 171 280 171 Q223 171 175 191 Q159 181 149.5 167.5 Q140 154 140 137 Q140 107 160.5 93 Q181 79 214 79 L379 79 Q542 79 542 -46 Q542 -83 526.5 -115 Q511 -147 478.5 -170.5 Q446 -194 396 -207.5 Q346 -221 277 -221 Q158 -221 105 -186.5 Q52 -152 52 -87 Q52 -45 74 -17 Q96 11 136 28 Q107 38 88 60 Q69 82 69 119 Q69 151 89 176 Q109 201 135 213 Q104 236 86.5 270.5 Q69 305 69 350 Q69 390 83 424 Q97 458 124.5 483 Q152 508 191.5 521.5 Q231 535 282 535 Z M417 350 Q417 406 385.5 442.5 Q354 479 282 479 Q216 479 182.5 443 Q149 407 149 350 Q149 296 182.5 261 Q216 226 282 226 Q349 226 383 260 Q417 294 417 350 Z M218 19 Q211 19 203 19.5 Q195 20 188 21 Q160 6 144.5 -14.5 Q129 -35 129 -67 Q129 -114 163.5 -140.5 Q198 -167 279 -167 Q376 -167 418.5 -134.5 Q461 -102 461 -53 Q461 -16 437 1.5 Q413 19 360 19 L218 19 Z M325 744 L443 597 L390 586 L289 694 L186 586 L133 597 L253 744 L325 744 Z " />
<glyph glyph-name="gcommaaccent" unicode="&#x123;" horiz-adv-x="573" d="M282 535 Q317 535 356.5 533.5 Q396 532 434 530 Q472 528 505.5 526.5 Q539 525 562 525 L562 465 Q547 465 528 466 Q509 467 488.5 468.5 Q468 470 448 471.5 Q428 473 411 475 Q452 461 473 425.5 Q494 390 494 346 Q494 307 480 275 Q466 243 439 220 Q412 197 372 184 Q332 171 280 171 Q223 171 175 191 Q159 181 149.5 167.5 Q140 154 140 137 Q140 107 160.5 93 Q181 79 214 79 L379 79 Q542 79 542 -46 Q542 -83 526.5 -115 Q511 -147 478.5 -170.5 Q446 -194 396 -207.5 Q346 -221 277 -221 Q158 -221 105 -186.5 Q52 -152 52 -87 Q52 -45 74 -17 Q96 11 136 28 Q107 38 88 60 Q69 82 69 119 Q69 151 89 176 Q109 201 135 213 Q104 236 86.5 270.5 Q69 305 69 350 Q69 390 83 424 Q97 458 124.5 483 Q152 508 191.5 521.5 Q231 535 282 535 Z M417 350 Q417 406 385.5 442.5 Q354 479 282 479 Q216 479 182.5 443 Q149 407 149 350 Q149 296 182.5 261 Q216 226 282 226 Q349 226 383 260 Q417 294 417 350 Z M218 19 Q211 19 203 19.5 Q195 20 188 21 Q160 6 144.5 -14.5 Q129 -35 129 -67 Q129 -114 163.5 -140.5 Q198 -167 279 -167 Q376 -167 418.5 -134.5 Q461 -102 461 -53 Q461 -16 437 1.5 Q413 19 360 19 L218 19 Z M311 562 L233 562 L309 750 L355 750 L311 562 Z " />
<glyph glyph-name="gdotaccent" unicode="&#x121;" horiz-adv-x="573" d="M282 535 Q317 535 356.5 533.5 Q396 532 434 530 Q472 528 505.5 526.5 Q539 525 562 525 L562 465 Q547 465 528 466 Q509 467 488.5 468.5 Q468 470 448 471.5 Q428 473 411 475 Q452 461 473 425.5 Q494 390 494 346 Q494 307 480 275 Q466 243 439 220 Q412 197 372 184 Q332 171 280 171 Q223 171 175 191 Q159 181 149.5 167.5 Q140 154 140 137 Q140 107 160.5 93 Q181 79 214 79 L379 79 Q542 79 542 -46 Q542 -83 526.5 -115 Q511 -147 478.5 -170.5 Q446 -194 396 -207.5 Q346 -221 277 -221 Q158 -221 105 -186.5 Q52 -152 52 -87 Q52 -45 74 -17 Q96 11 136 28 Q107 38 88 60 Q69 82 69 119 Q69 151 89 176 Q109 201 135 213 Q104 236 86.5 270.5 Q69 305 69 350 Q69 390 83 424 Q97 458 124.5 483 Q152 508 191.5 521.5 Q231 535 282 535 Z M417 350 Q417 406 385.5 442.5 Q354 479 282 479 Q216 479 182.5 443 Q149 407 149 350 Q149 296 182.5 261 Q216 226 282 226 Q349 226 383 260 Q417 294 417 350 Z M218 19 Q211 19 203 19.5 Q195 20 188 21 Q160 6 144.5 -14.5 Q129 -35 129 -67 Q129 -114 163.5 -140.5 Q198 -167 279 -167 Q376 -167 418.5 -134.5 Q461 -102 461 -53 Q461 -16 437 1.5 Q413 19 360 19 L218 19 Z M250 629 L250 703 L327 703 L327 629 L250 629 Z " />
<glyph glyph-name="hcircumflex" unicode="&#x125;" horiz-adv-x="597" d="M165 735 L165 415 Q185 467 230 501 Q275 535 344 535 Q429 535 470.5 483 Q512 431 512 339 L512 0 L434 0 L434 324 Q434 391 408 430 Q382 469 319 469 Q290 469 262.5 458.5 Q235 448 213 425.5 Q191 403 178 368.5 Q165 334 165 285 L165 0 L87 0 L87 735 L165 735 Z M308 761 L203 868 L97 761 L47 771 L170 917 L235 917 L357 771 L308 761 Z " />
<glyph glyph-name="hbar" unicode="&#x127;" horiz-adv-x="597" d="M165 735 L165 651 L273 651 L273 604 L165 604 L165 415 Q185 467 230 501 Q275 535 344 535 Q429 535 470.5 483 Q512 431 512 339 L512 0 L434 0 L434 324 Q434 391 408 430 Q382 469 319 469 Q290 469 262.5 458.5 Q235 448 213 425.5 Q191 403 178 368.5 Q165 334 165 285 L165 0 L87 0 L87 604 L22 604 L22 651 L87 651 L87 735 L165 735 Z " />
<glyph glyph-name="iacute" unicode="&#xed;" horiz-adv-x="252" d="M264 740 L123 588 L69 588 L183 751 L264 740 Z M86 0 L86 525 L164 525 L164 0 L86 0 Z " />
<glyph glyph-name="ibreve" unicode="&#x12d;" horiz-adv-x="252" d="M50 723 Q50 687 69 667 Q88 647 126 647 Q168 647 185.5 669 Q203 691 204 723 L251 717 Q250 661 216 629.5 Q182 598 126 598 Q71 598 37 629.5 Q3 661 2 717 L50 723 Z M86 0 L86 525 L164 525 L164 0 L86 0 Z " />
<glyph glyph-name="icircumflex" unicode="&#xee;" horiz-adv-x="252" d="M86 0 L86 525 L164 525 L164 0 L86 0 Z M163 744 L281 597 L228 586 L127 694 L24 586 L-29 597 L91 744 L163 744 Z " />
<glyph glyph-name="idieresis" unicode="&#xef;" horiz-adv-x="252" d="M15 629 L15 694 L75 694 L75 629 L15 629 Z M177 629 L177 694 L238 694 L238 629 L177 629 Z M86 0 L86 525 L164 525 L164 0 L86 0 Z " />
<glyph glyph-name="igrave" unicode="&#xec;" horiz-adv-x="252" d="M66 751 L179 588 L125 588 L-16 740 L66 751 Z M86 0 L86 525 L164 525 L164 0 L86 0 Z " />
<glyph glyph-name="imacron" unicode="&#x12b;" horiz-adv-x="252" d="M-2 619 L-2 671 L254 671 L254 619 L-2 619 Z M86 0 L86 525 L164 525 L164 0 L86 0 Z " />
<glyph glyph-name="iogonek" unicode="&#x12f;" horiz-adv-x="250" d="M86 0 L86 525 L164 525 L164 0 L155 0 Q126 -22 109 -53 Q92 -84 92 -116 Q92 -145 109 -160 Q126 -175 155 -175 Q169 -175 181 -172 L181 -222 Q165 -226 143 -226 Q94 -226 62 -201.5 Q30 -177 30 -132 Q30 -94 52 -60 Q74 -26 112 0 L86 0 Z M165 687 L165 613 L85 613 L85 687 L165 687 Z " />
<glyph glyph-name="itilde" unicode="&#x129;" horiz-adv-x="252" d="M59 717 Q83 717 101.5 707 Q120 697 136 685.5 Q152 674 166 664 Q180 654 195 654 Q215 654 227.5 664.5 Q240 675 245 701 L280 695 Q274 650 252 627.5 Q230 605 197 605 Q174 605 156.5 615 Q139 625 123 637.5 Q107 650 91.5 660 Q76 670 57 670 Q14 670 8 619 L-26 628 Q-22 671 0.5 694 Q23 717 59 717 Z M86 0 L86 525 L164 525 L164 0 L86 0 Z " />
<glyph glyph-name="dotlessi" unicode="&#x131;" horiz-adv-x="252" d="M86 0 L86 525 L164 525 L164 0 L86 0 Z " />
<glyph glyph-name="dotlessj" unicode="&#x237;" horiz-adv-x="248" d="M160 525 L160 -61 Q160 -102 147 -132 Q134 -162 112 -181.5 Q90 -201 61.5 -210.5 Q33 -220 2 -221 L2 -158 Q42 -158 64 -137 Q86 -116 86 -57 L86 525 L160 525 Z " />
<glyph glyph-name="jcircumflex" unicode="&#x135;" horiz-adv-x="248" d="M160 525 L160 -61 Q160 -102 147 -132 Q134 -162 112 -181.5 Q90 -201 61.5 -210.5 Q33 -220 2 -221 L2 -158 Q42 -158 64 -137 Q86 -116 86 -57 L86 525 L160 525 Z M160 744 L278 597 L225 586 L124 694 L21 586 L-32 597 L88 744 L160 744 Z " />
<glyph glyph-name="kcommaaccent" unicode="&#x137;" horiz-adv-x="505" d="M86 0 L86 735 L164 735 L164 0 L86 0 Z M407 0 L173 284 L391 525 L484 525 L263 287 L502 0 L407 0 Z M311 -53 L311 -103 Q311 -145 290.5 -175 Q270 -205 237 -226 L224 -200 Q271 -169 271 -113 L237 -113 L237 -53 L311 -53 Z " />
<glyph glyph-name="lacute" unicode="&#x13a;" horiz-adv-x="250" d="M86 0 L86 735 L164 735 L164 0 L86 0 Z M263 907 L119 761 L68 761 L189 917 L263 907 Z " />
<glyph glyph-name="lcaron" unicode="&#x13e;" horiz-adv-x="250" d="M86 0 L86 735 L164 735 L164 0 L86 0 Z M287 745 L252 588 L213 588 L216 745 L287 745 Z " />
<glyph glyph-name="lcommaaccent" unicode="&#x13c;" horiz-adv-x="250" d="M86 0 L86 735 L164 735 L164 0 L86 0 Z M160 -53 L160 -103 Q160 -145 139.5 -175 Q119 -205 86 -226 L73 -200 Q120 -169 120 -113 L86 -113 L86 -53 L160 -53 Z " />
<glyph glyph-name="lslash" unicode="&#x142;" horiz-adv-x="250" d="M86 0 L86 408 L32 354 L-3 391 L86 480 L86 735 L164 735 L164 559 L219 614 L256 578 L164 486 L164 0 L86 0 Z " />
<glyph glyph-name="nacute" unicode="&#x144;" horiz-adv-x="595" d="M166 525 L166 415 Q186 467 229 501 Q272 535 342 535 Q427 535 469.5 483 Q512 431 512 339 L512 0 L434 0 L434 324 Q434 391 408 430 Q382 469 319 469 Q290 469 262.5 458.5 Q235 448 213.5 425.5 Q192 403 179 368.5 Q166 334 166 285 L166 0 L88 0 L88 525 L166 525 Z M429 740 L288 588 L234 588 L348 751 L429 740 Z " />
<glyph glyph-name="napostrophe" unicode="&#x149;" horiz-adv-x="595" d="M166 525 L166 415 Q186 467 229 501 Q272 535 342 535 Q427 535 469.5 483 Q512 431 512 339 L512 0 L434 0 L434 324 Q434 391 408 430 Q382 469 319 469 Q290 469 262.5 458.5 Q235 448 213.5 425.5 Q192 403 179 368.5 Q166 334 166 285 L166 0 L88 0 L88 525 L166 525 Z M165 744 L165 694 Q165 652 144.5 622 Q124 592 91 571 L78 597 Q125 628 125 684 L91 684 L91 744 L165 744 Z " />
<glyph glyph-name="ncaron" unicode="&#x148;" horiz-adv-x="595" d="M166 525 L166 415 Q186 467 229 501 Q272 535 342 535 Q427 535 469.5 483 Q512 431 512 339 L512 0 L434 0 L434 324 Q434 391 408 430 Q382 469 319 469 Q290 469 262.5 458.5 Q235 448 213.5 425.5 Q192 403 179 368.5 Q166 334 166 285 L166 0 L88 0 L88 525 L166 525 Z M197 748 L299 639 L401 748 L454 736 L336 588 L264 588 L144 736 L197 748 Z " />
<glyph glyph-name="ncommaaccent" unicode="&#x146;" horiz-adv-x="595" d="M166 525 L166 415 Q186 467 229 501 Q272 535 342 535 Q427 535 469.5 483 Q512 431 512 339 L512 0 L434 0 L434 324 Q434 391 408 430 Q382 469 319 469 Q290 469 262.5 458.5 Q235 448 213.5 425.5 Q192 403 179 368.5 Q166 334 166 285 L166 0 L88 0 L88 525 L166 525 Z M335 -53 L335 -103 Q335 -145 314.5 -175 Q294 -205 261 -226 L248 -200 Q295 -169 295 -113 L261 -113 L261 -53 L335 -53 Z " />
<glyph glyph-name="ntilde" unicode="&#xf1;" horiz-adv-x="595" d="M166 525 L166 415 Q186 467 229 501 Q272 535 342 535 Q427 535 469.5 483 Q512 431 512 339 L512 0 L434 0 L434 324 Q434 391 408 430 Q382 469 319 469 Q290 469 262.5 458.5 Q235 448 213.5 425.5 Q192 403 179 368.5 Q166 334 166 285 L166 0 L88 0 L88 525 L166 525 Z M233 717 Q257 717 275.5 707 Q294 697 310 685.5 Q326 674 340 664 Q354 654 369 654 Q389 654 401.5 664.5 Q414 675 419 701 L454 695 Q448 650 426 627.5 Q404 605 371 605 Q348 605 330.5 615 Q313 625 297 637.5 Q281 650 265.5 660 Q250 670 231 670 Q188 670 182 619 L148 628 Q152 671 174.5 694 Q197 717 233 717 Z " />
<glyph glyph-name="oacute" unicode="&#xf3;" horiz-adv-x="571" d="M286 471 Q210 471 168 415 Q126 359 126 262 Q126 165 168 109 Q210 53 286 53 Q361 53 403 109.5 Q445 166 445 262 Q445 358 403 414.5 Q361 471 286 471 Z M286 535 Q340 535 384 515.5 Q428 496 459.5 460.5 Q491 425 508 374.5 Q525 324 525 262 Q525 199 508 148.5 Q491 98 459.5 62.5 Q428 27 384 8 Q340 -11 286 -11 Q232 -11 188 8 Q144 27 112.5 62.5 Q81 98 64 148.5 Q47 199 47 262 Q47 324 64 374.5 Q81 425 112.5 460.5 Q144 496 188 515.5 Q232 535 286 535 Z M405 740 L264 588 L210 588 L324 751 L405 740 Z " />
<glyph glyph-name="obreve" unicode="&#x14f;" horiz-adv-x="571" d="M286 471 Q210 471 168 415 Q126 359 126 262 Q126 165 168 109 Q210 53 286 53 Q361 53 403 109.5 Q445 166 445 262 Q445 358 403 414.5 Q361 471 286 471 Z M286 535 Q340 535 384 515.5 Q428 496 459.5 460.5 Q491 425 508 374.5 Q525 324 525 262 Q525 199 508 148.5 Q491 98 459.5 62.5 Q428 27 384 8 Q340 -11 286 -11 Q232 -11 188 8 Q144 27 112.5 62.5 Q81 98 64 148.5 Q47 199 47 262 Q47 324 64 374.5 Q81 425 112.5 460.5 Q144 496 188 515.5 Q232 535 286 535 Z M209 723 Q209 687 228 667 Q247 647 285 647 Q327 647 344.5 669 Q362 691 363 723 L410 717 Q409 661 375 629.5 Q341 598 285 598 Q230 598 196 629.5 Q162 661 161 717 L209 723 Z " />
<glyph glyph-name="ocircumflex" unicode="&#xf4;" horiz-adv-x="571" d="M286 471 Q210 471 168 415 Q126 359 126 262 Q126 165 168 109 Q210 53 286 53 Q361 53 403 109.5 Q445 166 445 262 Q445 358 403 414.5 Q361 471 286 471 Z M286 535 Q340 535 384 515.5 Q428 496 459.5 460.5 Q491 425 508 374.5 Q525 324 525 262 Q525 199 508 148.5 Q491 98 459.5 62.5 Q428 27 384 8 Q340 -11 286 -11 Q232 -11 188 8 Q144 27 112.5 62.5 Q81 98 64 148.5 Q47 199 47 262 Q47 324 64 374.5 Q81 425 112.5 460.5 Q144 496 188 515.5 Q232 535 286 535 Z M322 744 L440 597 L387 586 L286 694 L183 586 L130 597 L250 744 L322 744 Z " />
<glyph glyph-name="odieresis" unicode="&#xf6;" horiz-adv-x="571" d="M286 471 Q210 471 168 415 Q126 359 126 262 Q126 165 168 109 Q210 53 286 53 Q361 53 403 109.5 Q445 166 445 262 Q445 358 403 414.5 Q361 471 286 471 Z M286 535 Q340 535 384 515.5 Q428 496 459.5 460.5 Q491 425 508 374.5 Q525 324 525 262 Q525 199 508 148.5 Q491 98 459.5 62.5 Q428 27 384 8 Q340 -11 286 -11 Q232 -11 188 8 Q144 27 112.5 62.5 Q81 98 64 148.5 Q47 199 47 262 Q47 324 64 374.5 Q81 425 112.5 460.5 Q144 496 188 515.5 Q232 535 286 535 Z M173 629 L173 694 L233 694 L233 629 L173 629 Z M335 629 L335 694 L396 694 L396 629 L335 629 Z " />
<glyph glyph-name="ograve" unicode="&#xf2;" horiz-adv-x="571" d="M286 471 Q210 471 168 415 Q126 359 126 262 Q126 165 168 109 Q210 53 286 53 Q361 53 403 109.5 Q445 166 445 262 Q445 358 403 414.5 Q361 471 286 471 Z M286 535 Q340 535 384 515.5 Q428 496 459.5 460.5 Q491 425 508 374.5 Q525 324 525 262 Q525 199 508 148.5 Q491 98 459.5 62.5 Q428 27 384 8 Q340 -11 286 -11 Q232 -11 188 8 Q144 27 112.5 62.5 Q81 98 64 148.5 Q47 199 47 262 Q47 324 64 374.5 Q81 425 112.5 460.5 Q144 496 188 515.5 Q232 535 286 535 Z M246 751 L359 588 L305 588 L164 740 L246 751 Z " />
<glyph glyph-name="ohungarumlaut" unicode="&#x151;" horiz-adv-x="571" d="M286 471 Q210 471 168 415 Q126 359 126 262 Q126 165 168 109 Q210 53 286 53 Q361 53 403 109.5 Q445 166 445 262 Q445 358 403 414.5 Q361 471 286 471 Z M286 535 Q340 535 384 515.5 Q428 496 459.5 460.5 Q491 425 508 374.5 Q525 324 525 262 Q525 199 508 148.5 Q491 98 459.5 62.5 Q428 27 384 8 Q340 -11 286 -11 Q232 -11 188 8 Q144 27 112.5 62.5 Q81 98 64 148.5 Q47 199 47 262 Q47 324 64 374.5 Q81 425 112.5 460.5 Q144 496 188 515.5 Q232 535 286 535 Z M327 740 L206 592 L162 592 L263 751 L327 740 Z M476 740 L356 592 L312 592 L413 751 L476 740 Z " />
<glyph glyph-name="omacron" unicode="&#x14d;" horiz-adv-x="571" d="M286 471 Q210 471 168 415 Q126 359 126 262 Q126 165 168 109 Q210 53 286 53 Q361 53 403 109.5 Q445 166 445 262 Q445 358 403 414.5 Q361 471 286 471 Z M286 535 Q340 535 384 515.5 Q428 496 459.5 460.5 Q491 425 508 374.5 Q525 324 525 262 Q525 199 508 148.5 Q491 98 459.5 62.5 Q428 27 384 8 Q340 -11 286 -11 Q232 -11 188 8 Q144 27 112.5 62.5 Q81 98 64 148.5 Q47 199 47 262 Q47 324 64 374.5 Q81 425 112.5 460.5 Q144 496 188 515.5 Q232 535 286 535 Z M157 619 L157 671 L413 671 L413 619 L157 619 Z " />
<glyph glyph-name="otilde" unicode="&#xf5;" horiz-adv-x="571" d="M286 471 Q210 471 168 415 Q126 359 126 262 Q126 165 168 109 Q210 53 286 53 Q361 53 403 109.5 Q445 166 445 262 Q445 358 403 414.5 Q361 471 286 471 Z M286 535 Q340 535 384 515.5 Q428 496 459.5 460.5 Q491 425 508 374.5 Q525 324 525 262 Q525 199 508 148.5 Q491 98 459.5 62.5 Q428 27 384 8 Q340 -11 286 -11 Q232 -11 188 8 Q144 27 112.5 62.5 Q81 98 64 148.5 Q47 199 47 262 Q47 324 64 374.5 Q81 425 112.5 460.5 Q144 496 188 515.5 Q232 535 286 535 Z M217 717 Q241 717 259.5 707 Q278 697 294 685.5 Q310 674 324 664 Q338 654 353 654 Q373 654 385.5 664.5 Q398 675 403 701 L438 695 Q432 650 410 627.5 Q388 605 355 605 Q332 605 314.5 615 Q297 625 281 637.5 Q265 650 249.5 660 Q234 670 215 670 Q172 670 166 619 L132 628 Q136 671 158.5 694 Q181 717 217 717 Z " />
<glyph glyph-name="racute" unicode="&#x155;" horiz-adv-x="357" d="M164 525 L164 397 Q172 427 187.5 452 Q203 477 225.5 495.5 Q248 514 277 524.5 Q306 535 341 535 L341 461 Q338 462 332.5 462 Q327 462 322 462 Q295 462 266.5 450.5 Q238 439 215.5 415 Q193 391 178.5 353.5 Q164 316 164 265 L164 0 L86 0 L86 525 L164 525 Z M354 740 L213 588 L159 588 L273 751 L354 740 Z " />
<glyph glyph-name="rcaron" unicode="&#x159;" horiz-adv-x="357" d="M164 525 L164 397 Q172 427 187.5 452 Q203 477 225.5 495.5 Q248 514 277 524.5 Q306 535 341 535 L341 461 Q338 462 332.5 462 Q327 462 322 462 Q295 462 266.5 450.5 Q238 439 215.5 415 Q193 391 178.5 353.5 Q164 316 164 265 L164 0 L86 0 L86 525 L164 525 Z M113 748 L215 639 L317 748 L370 736 L252 588 L180 588 L60 736 L113 748 Z " />
<glyph glyph-name="rcommaaccent" unicode="&#x157;" horiz-adv-x="357" d="M164 525 L164 397 Q172 427 187.5 452 Q203 477 225.5 495.5 Q248 514 277 524.5 Q306 535 341 535 L341 461 Q338 462 332.5 462 Q327 462 322 462 Q295 462 266.5 450.5 Q238 439 215.5 415 Q193 391 178.5 353.5 Q164 316 164 265 L164 0 L86 0 L86 525 L164 525 Z M163 -53 L163 -103 Q163 -145 142.5 -175 Q122 -205 89 -226 L76 -200 Q123 -169 123 -113 L89 -113 L89 -53 L163 -53 Z " />
<glyph glyph-name="sacute" unicode="&#x15b;" horiz-adv-x="515" d="M260 535 Q354 535 408.5 494 Q463 453 465 384 L392 384 Q390 429 353.5 453.5 Q317 478 263 478 Q229 478 205 470.5 Q181 463 165.5 450.5 Q150 438 143 422 Q136 406 136 390 Q136 367 146.5 352 Q157 337 174.5 327.5 Q192 318 215.5 312.5 Q239 307 265 303 Q301 298 337.5 289.5 Q374 281 404 264.5 Q434 248 452.5 220.5 Q471 193 471 148 Q471 116 458.5 87.5 Q446 59 420 37 Q394 15 353.5 2 Q313 -11 257 -11 Q210 -11 172 0 Q134 11 106.5 31 Q79 51 63 79 Q47 107 46 142 L120 142 Q121 120 132 102.5 Q143 85 161.5 72.5 Q180 60 205 53.5 Q230 47 259 47 Q296 47 322 55.5 Q348 64 364 77 Q380 90 387 106.5 Q394 123 394 140 Q394 166 383 182.5 Q372 199 353 209.5 Q334 220 310 225.5 Q286 231 259 236 Q222 242 186.5 249.5 Q151 257 123 272.5 Q95 288 78 314 Q61 340 61 384 Q61 414 74 441 Q87 468 112.5 489 Q138 510 175 522.5 Q212 535 260 535 Z M391 740 L250 588 L196 588 L310 751 L391 740 Z " />
<glyph glyph-name="scaron" unicode="&#x161;" horiz-adv-x="515" d="M260 535 Q354 535 408.5 494 Q463 453 465 384 L392 384 Q390 429 353.5 453.5 Q317 478 263 478 Q229 478 205 470.5 Q181 463 165.5 450.5 Q150 438 143 422 Q136 406 136 390 Q136 367 146.5 352 Q157 337 174.5 327.5 Q192 318 215.5 312.5 Q239 307 265 303 Q301 298 337.5 289.5 Q374 281 404 264.5 Q434 248 452.5 220.5 Q471 193 471 148 Q471 116 458.5 87.5 Q446 59 420 37 Q394 15 353.5 2 Q313 -11 257 -11 Q210 -11 172 0 Q134 11 106.5 31 Q79 51 63 79 Q47 107 46 142 L120 142 Q121 120 132 102.5 Q143 85 161.5 72.5 Q180 60 205 53.5 Q230 47 259 47 Q296 47 322 55.5 Q348 64 364 77 Q380 90 387 106.5 Q394 123 394 140 Q394 166 383 182.5 Q372 199 353 209.5 Q334 220 310 225.5 Q286 231 259 236 Q222 242 186.5 249.5 Q151 257 123 272.5 Q95 288 78 314 Q61 340 61 384 Q61 414 74 441 Q87 468 112.5 489 Q138 510 175 522.5 Q212 535 260 535 Z M160 748 L262 639 L364 748 L417 736 L299 588 L227 588 L107 736 L160 748 Z " />
<glyph glyph-name="scedilla" unicode="&#x15f;" horiz-adv-x="515" d="M260 535 Q354 535 408.5 494 Q463 453 465 384 L392 384 Q390 429 353.5 453.5 Q317 478 263 478 Q229 478 205 470.5 Q181 463 165.5 450.5 Q150 438 143 422 Q136 406 136 390 Q136 367 146.5 352 Q157 337 174.5 327.5 Q192 318 215.5 312.5 Q239 307 265 303 Q301 298 337.5 289.5 Q374 281 404 264.5 Q434 248 452.5 220.5 Q471 193 471 148 Q471 117 459 89 Q447 61 422 39 Q397 17 358.5 3.5 Q320 -10 266 -11 L236 -61 Q249 -58 268 -58 Q287 -58 306.5 -62.5 Q326 -67 341 -77 Q356 -87 365.5 -103 Q375 -119 375 -142 Q375 -183 340.5 -208 Q306 -233 246 -233 Q214 -233 183.5 -223.5 Q153 -214 133 -196 L157 -168 Q168 -181 192 -188.5 Q216 -196 242 -196 Q281 -196 297.5 -182 Q314 -168 314 -148 Q314 -113 288 -100.5 Q262 -88 227 -88 Q200 -88 172 -93 L215 -8 Q140 0 94 40 Q48 80 46 142 L120 142 Q121 120 132 102.5 Q143 85 161.5 72.5 Q180 60 205 53.5 Q230 47 259 47 Q296 47 322 55.5 Q348 64 364 77 Q380 90 387 106.5 Q394 123 394 140 Q394 166 383 182.5 Q372 199 353 209.5 Q334 220 310 225.5 Q286 231 259 236 Q222 242 186.5 249.5 Q151 257 123 272.5 Q95 288 78 314 Q61 340 61 384 Q61 414 74 441 Q87 468 112.5 489 Q138 510 175 522.5 Q212 535 260 535 Z " />
<glyph glyph-name="scircumflex" unicode="&#x15d;" horiz-adv-x="515" d="M260 535 Q354 535 408.5 494 Q463 453 465 384 L392 384 Q390 429 353.5 453.5 Q317 478 263 478 Q229 478 205 470.5 Q181 463 165.5 450.5 Q150 438 143 422 Q136 406 136 390 Q136 367 146.5 352 Q157 337 174.5 327.5 Q192 318 215.5 312.5 Q239 307 265 303 Q301 298 337.5 289.5 Q374 281 404 264.5 Q434 248 452.5 220.5 Q471 193 471 148 Q471 116 458.5 87.5 Q446 59 420 37 Q394 15 353.5 2 Q313 -11 257 -11 Q210 -11 172 0 Q134 11 106.5 31 Q79 51 63 79 Q47 107 46 142 L120 142 Q121 120 132 102.5 Q143 85 161.5 72.5 Q180 60 205 53.5 Q230 47 259 47 Q296 47 322 55.5 Q348 64 364 77 Q380 90 387 106.5 Q394 123 394 140 Q394 166 383 182.5 Q372 199 353 209.5 Q334 220 310 225.5 Q286 231 259 236 Q222 242 186.5 249.5 Q151 257 123 272.5 Q95 288 78 314 Q61 340 61 384 Q61 414 74 441 Q87 468 112.5 489 Q138 510 175 522.5 Q212 535 260 535 Z M303 744 L421 597 L368 586 L267 694 L164 586 L111 597 L231 744 L303 744 Z " />
<glyph glyph-name="scommaaccent" unicode="&#x219;" horiz-adv-x="515" d="M260 535 Q354 535 408.5 494 Q463 453 465 384 L392 384 Q390 429 353.5 453.5 Q317 478 263 478 Q229 478 205 470.5 Q181 463 165.5 450.5 Q150 438 143 422 Q136 406 136 390 Q136 367 146.5 352 Q157 337 174.5 327.5 Q192 318 215.5 312.5 Q239 307 265 303 Q301 298 337.5 289.5 Q374 281 404 264.5 Q434 248 452.5 220.5 Q471 193 471 148 Q471 116 458.5 87.5 Q446 59 420 37 Q394 15 353.5 2 Q313 -11 257 -11 Q210 -11 172 0 Q134 11 106.5 31 Q79 51 63 79 Q47 107 46 142 L120 142 Q121 120 132 102.5 Q143 85 161.5 72.5 Q180 60 205 53.5 Q230 47 259 47 Q296 47 322 55.5 Q348 64 364 77 Q380 90 387 106.5 Q394 123 394 140 Q394 166 383 182.5 Q372 199 353 209.5 Q334 220 310 225.5 Q286 231 259 236 Q222 242 186.5 249.5 Q151 257 123 272.5 Q95 288 78 314 Q61 340 61 384 Q61 414 74 441 Q87 468 112.5 489 Q138 510 175 522.5 Q212 535 260 535 Z M294 -53 L294 -103 Q294 -145 273.5 -175 Q253 -205 220 -226 L207 -200 Q254 -169 254 -113 L220 -113 L220 -53 L294 -53 Z " />
<glyph glyph-name="tbar" unicode="&#x167;" horiz-adv-x="341" d="M177 644 L177 525 L334 525 L334 465 L177 465 L177 315 L291 315 L291 268 L177 268 L177 160 Q177 53 272 53 Q298 53 334 62 L334 -2 Q293 -11 260 -11 Q185 -11 142.5 28 Q100 67 100 151 L100 268 L39 268 L39 315 L100 315 L100 465 L17 465 L17 525 L100 525 L100 644 L177 644 Z " />
<glyph glyph-name="tcaron" unicode="&#x165;" horiz-adv-x="341" d="M177 644 L177 525 L334 525 L334 465 L177 465 L177 160 Q177 53 272 53 Q298 53 334 62 L334 -2 Q293 -11 260 -11 Q185 -11 142.5 28 Q100 67 100 151 L100 465 L17 465 L17 525 L100 525 L100 644 L177 644 Z M327 745 L292 588 L253 588 L256 745 L327 745 Z " />
<glyph glyph-name="tcommaaccent" unicode="&#x163;" horiz-adv-x="341" d="M177 644 L177 525 L334 525 L334 465 L177 465 L177 160 Q177 53 272 53 Q298 53 334 62 L334 -2 Q293 -11 260 -11 Q185 -11 142.5 28 Q100 67 100 151 L100 465 L17 465 L17 525 L100 525 L100 644 L177 644 Z M247 -53 L247 -103 Q247 -145 226.5 -175 Q206 -205 173 -226 L160 -200 Q207 -169 207 -113 L173 -113 L173 -53 L247 -53 Z " />
<glyph glyph-name="uacute" unicode="&#xfa;" horiz-adv-x="599" d="M163 525 L163 201 Q163 133 189 94.5 Q215 56 278 56 Q307 56 335 66.5 Q363 77 384.5 99 Q406 121 419 155.5 Q432 190 432 239 L432 525 L509 525 L509 0 L432 0 L432 110 Q412 57 368.5 23 Q325 -11 255 -11 Q170 -11 127.5 41 Q85 93 85 186 L85 525 L163 525 Z M434 740 L293 588 L239 588 L353 751 L434 740 Z " />
<glyph glyph-name="ubreve" unicode="&#x16d;" horiz-adv-x="599" d="M163 525 L163 201 Q163 133 189 94.5 Q215 56 278 56 Q307 56 335 66.5 Q363 77 384.5 99 Q406 121 419 155.5 Q432 190 432 239 L432 525 L509 525 L509 0 L432 0 L432 110 Q412 57 368.5 23 Q325 -11 255 -11 Q170 -11 127.5 41 Q85 93 85 186 L85 525 L163 525 Z M222 723 Q222 687 241 667 Q260 647 298 647 Q340 647 357.5 669 Q375 691 376 723 L423 717 Q422 661 388 629.5 Q354 598 298 598 Q243 598 209 629.5 Q175 661 174 717 L222 723 Z " />
<glyph glyph-name="ucircumflex" unicode="&#xfb;" horiz-adv-x="599" d="M163 525 L163 201 Q163 133 189 94.5 Q215 56 278 56 Q307 56 335 66.5 Q363 77 384.5 99 Q406 121 419 155.5 Q432 190 432 239 L432 525 L509 525 L509 0 L432 0 L432 110 Q412 57 368.5 23 Q325 -11 255 -11 Q170 -11 127.5 41 Q85 93 85 186 L85 525 L163 525 Z M337 744 L455 597 L402 586 L301 694 L198 586 L145 597 L265 744 L337 744 Z " />
<glyph glyph-name="udieresis" unicode="&#xfc;" horiz-adv-x="599" d="M163 525 L163 201 Q163 133 189 94.5 Q215 56 278 56 Q307 56 335 66.5 Q363 77 384.5 99 Q406 121 419 155.5 Q432 190 432 239 L432 525 L509 525 L509 0 L432 0 L432 110 Q412 57 368.5 23 Q325 -11 255 -11 Q170 -11 127.5 41 Q85 93 85 186 L85 525 L163 525 Z M187 629 L187 694 L247 694 L247 629 L187 629 Z M349 629 L349 694 L410 694 L410 629 L349 629 Z " />
<glyph glyph-name="ugrave" unicode="&#xf9;" horiz-adv-x="599" d="M163 525 L163 201 Q163 133 189 94.5 Q215 56 278 56 Q307 56 335 66.5 Q363 77 384.5 99 Q406 121 419 155.5 Q432 190 432 239 L432 525 L509 525 L509 0 L432 0 L432 110 Q412 57 368.5 23 Q325 -11 255 -11 Q170 -11 127.5 41 Q85 93 85 186 L85 525 L163 525 Z M254 751 L367 588 L313 588 L172 740 L254 751 Z " />
<glyph glyph-name="uhungarumlaut" unicode="&#x171;" horiz-adv-x="599" d="M163 525 L163 201 Q163 133 189 94.5 Q215 56 278 56 Q307 56 335 66.5 Q363 77 384.5 99 Q406 121 419 155.5 Q432 190 432 239 L432 525 L509 525 L509 0 L432 0 L432 110 Q412 57 368.5 23 Q325 -11 255 -11 Q170 -11 127.5 41 Q85 93 85 186 L85 525 L163 525 Z M346 740 L225 592 L181 592 L282 751 L346 740 Z M495 740 L375 592 L331 592 L432 751 L495 740 Z " />
<glyph glyph-name="umacron" unicode="&#x16b;" horiz-adv-x="599" d="M163 525 L163 201 Q163 133 189 94.5 Q215 56 278 56 Q307 56 335 66.5 Q363 77 384.5 99 Q406 121 419 155.5 Q432 190 432 239 L432 525 L509 525 L509 0 L432 0 L432 110 Q412 57 368.5 23 Q325 -11 255 -11 Q170 -11 127.5 41 Q85 93 85 186 L85 525 L163 525 Z M170 619 L170 671 L426 671 L426 619 L170 619 Z " />
<glyph glyph-name="uogonek" unicode="&#x173;" horiz-adv-x="599" d="M432 0 L432 110 Q412 57 368.5 23 Q325 -11 255 -11 Q170 -11 127.5 41 Q85 93 85 186 L85 525 L163 525 L163 201 Q163 133 189 94.5 Q215 56 278 56 Q307 56 335 66.5 Q363 77 384.5 99 Q406 121 419 155.5 Q432 190 432 239 L432 525 L509 525 L509 0 L491 0 Q462 -22 445 -53 Q428 -84 428 -116 Q428 -145 445 -160 Q462 -175 491 -175 Q505 -175 517 -172 L517 -222 Q501 -226 479 -226 Q430 -226 398 -201.5 Q366 -177 366 -132 Q366 -94 388 -60 Q410 -26 448 0 L432 0 Z " />
<glyph glyph-name="uring" unicode="&#x16f;" horiz-adv-x="599" d="M163 525 L163 201 Q163 133 189 94.5 Q215 56 278 56 Q307 56 335 66.5 Q363 77 384.5 99 Q406 121 419 155.5 Q432 190 432 239 L432 525 L509 525 L509 0 L432 0 L432 110 Q412 57 368.5 23 Q325 -11 255 -11 Q170 -11 127.5 41 Q85 93 85 186 L85 525 L163 525 Z M299 764 Q347 764 380 738.5 Q413 713 413 668 Q413 623 380 598 Q347 573 299 573 Q251 573 217 598 Q183 623 183 668 Q183 713 217 738.5 Q251 764 299 764 Z M299 725 Q267 725 250 708 Q233 691 233 668 Q233 641 252 625.5 Q271 610 299 610 Q330 610 346.5 625.5 Q363 641 363 667 Q363 695 344 710 Q325 725 299 725 Z " />
<glyph glyph-name="utilde" unicode="&#x169;" horiz-adv-x="599" d="M163 525 L163 201 Q163 133 189 94.5 Q215 56 278 56 Q307 56 335 66.5 Q363 77 384.5 99 Q406 121 419 155.5 Q432 190 432 239 L432 525 L509 525 L509 0 L432 0 L432 110 Q412 57 368.5 23 Q325 -11 255 -11 Q170 -11 127.5 41 Q85 93 85 186 L85 525 L163 525 Z M230 717 Q254 717 272.5 707 Q291 697 307 685.5 Q323 674 337 664 Q351 654 366 654 Q386 654 398.5 664.5 Q411 675 416 701 L451 695 Q445 650 423 627.5 Q401 605 368 605 Q345 605 327.5 615 Q310 625 294 637.5 Q278 650 262.5 660 Q247 670 228 670 Q185 670 179 619 L145 628 Q149 671 171.5 694 Q194 717 230 717 Z " />
<glyph glyph-name="wcircumflex" unicode="&#x175;" horiz-adv-x="787" d="M92 525 L207 136 Q212 119 216 101.5 Q220 84 223 64 Q226 83 230 101 Q234 119 239 136 L356 525 L433 525 L549 136 Q555 119 558.5 101 Q562 83 566 64 Q569 83 573 101 Q577 119 582 136 L697 525 L773 525 L612 0 L517 0 L411 356 Q406 375 401 397.5 Q396 420 393 440 Q390 420 384.5 397.5 Q379 375 374 356 L265 0 L173 0 L13 525 L92 525 Z M430 744 L548 597 L495 586 L394 694 L291 586 L238 597 L358 744 L430 744 Z " />
<glyph glyph-name="wacute" unicode="&#x1e83;" horiz-adv-x="787" d="M92 525 L207 136 Q212 119 216 101.5 Q220 84 223 64 Q226 83 230 101 Q234 119 239 136 L356 525 L433 525 L549 136 Q555 119 558.5 101 Q562 83 566 64 Q569 83 573 101 Q577 119 582 136 L697 525 L773 525 L612 0 L517 0 L411 356 Q406 375 401 397.5 Q396 420 393 440 Q390 420 384.5 397.5 Q379 375 374 356 L265 0 L173 0 L13 525 L92 525 Z M532 740 L391 588 L337 588 L451 751 L532 740 Z " />
<glyph glyph-name="wgrave" unicode="&#x1e81;" horiz-adv-x="787" d="M92 525 L207 136 Q212 119 216 101.5 Q220 84 223 64 Q226 83 230 101 Q234 119 239 136 L356 525 L433 525 L549 136 Q555 119 558.5 101 Q562 83 566 64 Q569 83 573 101 Q577 119 582 136 L697 525 L773 525 L612 0 L517 0 L411 356 Q406 375 401 397.5 Q396 420 393 440 Q390 420 384.5 397.5 Q379 375 374 356 L265 0 L173 0 L13 525 L92 525 Z M340 751 L453 588 L399 588 L258 740 L340 751 Z " />
<glyph glyph-name="wdieresis" unicode="&#x1e85;" horiz-adv-x="787" d="M92 525 L207 136 Q212 119 216 101.5 Q220 84 223 64 Q226 83 230 101 Q234 119 239 136 L356 525 L433 525 L549 136 Q555 119 558.5 101 Q562 83 566 64 Q569 83 573 101 Q577 119 582 136 L697 525 L773 525 L612 0 L517 0 L411 356 Q406 375 401 397.5 Q396 420 393 440 Q390 420 384.5 397.5 Q379 375 374 356 L265 0 L173 0 L13 525 L92 525 Z M282 629 L282 694 L342 694 L342 629 L282 629 Z M444 629 L444 694 L505 694 L505 629 L444 629 Z " />
<glyph glyph-name="yacute" unicode="&#xfd;" horiz-adv-x="491" d="M87 525 L226 140 Q231 123 236 103 Q241 83 245 66 Q248 82 253 102 Q258 122 265 140 L409 525 L486 525 L266 -58 Q248 -109 226.5 -140.5 Q205 -172 178.5 -189.5 Q152 -207 120.5 -213.5 Q89 -220 50 -221 L50 -151 Q96 -151 125.5 -134 Q155 -117 175 -72 L201 -9 L3 525 L87 525 Z M390 740 L249 588 L195 588 L309 751 L390 740 Z " />
<glyph glyph-name="ycircumflex" unicode="&#x177;" horiz-adv-x="491" d="M87 525 L226 140 Q231 123 236 103 Q241 83 245 66 Q248 82 253 102 Q258 122 265 140 L409 525 L486 525 L266 -58 Q248 -109 226.5 -140.5 Q205 -172 178.5 -189.5 Q152 -207 120.5 -213.5 Q89 -220 50 -221 L50 -151 Q96 -151 125.5 -134 Q155 -117 175 -72 L201 -9 L3 525 L87 525 Z M283 744 L401 597 L348 586 L247 694 L144 586 L91 597 L211 744 L283 744 Z " />
<glyph glyph-name="ydieresis" unicode="&#xff;" horiz-adv-x="491" d="M87 525 L226 140 Q231 123 236 103 Q241 83 245 66 Q248 82 253 102 Q258 122 265 140 L409 525 L486 525 L266 -58 Q248 -109 226.5 -140.5 Q205 -172 178.5 -189.5 Q152 -207 120.5 -213.5 Q89 -220 50 -221 L50 -151 Q96 -151 125.5 -134 Q155 -117 175 -72 L201 -9 L3 525 L87 525 Z M135 629 L135 694 L195 694 L195 629 L135 629 Z M297 629 L297 694 L358 694 L358 629 L297 629 Z " />
<glyph glyph-name="ygrave" unicode="&#x1ef3;" horiz-adv-x="491" d="M87 525 L226 140 Q231 123 236 103 Q241 83 245 66 Q248 82 253 102 Q258 122 265 140 L409 525 L486 525 L266 -58 Q248 -109 226.5 -140.5 Q205 -172 178.5 -189.5 Q152 -207 120.5 -213.5 Q89 -220 50 -221 L50 -151 Q96 -151 125.5 -134 Q155 -117 175 -72 L201 -9 L3 525 L87 525 Z M209 751 L322 588 L268 588 L127 740 L209 751 Z " />
<glyph glyph-name="zacute" unicode="&#x17a;" horiz-adv-x="485" d="M33 0 L33 60 L351 465 L47 465 L47 525 L443 525 L443 465 L125 60 L456 60 L456 0 L33 0 Z M381 740 L240 588 L186 588 L300 751 L381 740 Z " />
<glyph glyph-name="zcaron" unicode="&#x17e;" horiz-adv-x="485" d="M33 0 L33 60 L351 465 L47 465 L47 525 L443 525 L443 465 L125 60 L456 60 L456 0 L33 0 Z M142 748 L244 639 L346 748 L399 736 L281 588 L209 588 L89 736 L142 748 Z " />
<glyph glyph-name="zdotaccent" unicode="&#x17c;" horiz-adv-x="485" d="M33 0 L33 60 L351 465 L47 465 L47 525 L443 525 L443 465 L125 60 L456 60 L456 0 L33 0 Z M206 629 L206 703 L283 703 L283 629 L206 629 Z " />
<glyph glyph-name="aeacute" unicode="&#x1fd;" horiz-adv-x="916" d="M286 535 Q361 535 402.5 514 Q444 493 461 448 Q492 489 537.5 512 Q583 535 643 535 Q698 535 740.5 514.5 Q783 494 812.5 458 Q842 422 856.5 372 Q871 322 870 263 L476 263 L476 259 Q476 162 518.5 106.5 Q561 51 639 51 Q692 51 731.5 80 Q771 109 781 158 L858 158 Q852 117 832.5 85.5 Q813 54 784 32.5 Q755 11 718 0 Q681 -11 641 -11 Q562 -11 507.5 26.5 Q453 64 427 131 Q416 104 398.5 79 Q381 54 355 34.5 Q329 15 293.5 3 Q258 -9 212 -9 Q139 -9 98 28 Q57 65 57 131 Q57 219 124.5 266 Q192 313 340 313 L401 313 L401 377 Q401 420 373.5 448 Q346 476 278 476 Q219 476 182 451.5 Q145 427 142 379 L71 379 Q77 451 129 493 Q181 535 286 535 Z M233 50 Q264 50 294.5 60 Q325 70 348.5 90 Q372 110 386.5 139.5 Q401 169 401 208 L401 263 L342 263 Q133 263 133 142 Q133 98 159.5 74 Q186 50 233 50 Z M639 477 Q574 477 532 433.5 Q490 390 479 313 L794 313 Q792 348 780.5 378 Q769 408 749.5 430 Q730 452 702 464.5 Q674 477 639 477 Z M600 740 L459 588 L405 588 L519 751 L600 740 Z " />
<glyph glyph-name="oslashacute" unicode="&#x1ff;" horiz-adv-x="569" d="M286 535 Q365 535 422 495 L443 525 L505 525 L460 462 Q492 426 508.5 375.5 Q525 325 525 262 Q525 199 508.5 148.5 Q492 98 461 62.5 Q430 27 385.5 8 Q341 -11 286 -11 Q245 -11 211 -1 Q177 9 149 28 L129 0 L65 0 L110 63 Q47 135 47 262 Q47 324 63.5 374.5 Q80 425 111 460.5 Q142 496 186 515.5 Q230 535 286 535 Z M448 262 Q448 344 414 398 L191 86 Q230 55 286 55 Q323 55 353 69.5 Q383 84 404 111 Q425 138 436.5 176.5 Q448 215 448 262 Z M286 469 Q210 469 166.5 412.5 Q123 356 123 262 Q123 178 156 126 L380 437 Q340 469 286 469 Z M425 740 L284 588 L230 588 L344 751 L425 740 Z " />
<glyph glyph-name="f_f" unicode="&#xfb00;" horiz-adv-x="644" d="M263 745 Q299 745 337 738 L337 674 Q319 679 303.5 680.5 Q288 682 272 682 Q181 682 181 581 L181 525 L407 525 L407 580 Q407 664 450 704.5 Q493 745 568 745 Q585 745 603.5 743.5 Q622 742 642 738 L642 674 Q623 679 608 680.5 Q593 682 578 682 Q486 682 486 581 L486 525 L642 525 L642 465 L486 465 L486 0 L407 0 L407 465 L181 465 L181 0 L103 0 L103 465 L21 465 L21 525 L103 525 L103 580 Q103 664 145.5 704.5 Q188 745 263 745 Z " />
<glyph glyph-name="f_i" unicode="&#xfb01;" horiz-adv-x="570" d="M263 745 Q277 745 292.5 744 Q308 743 324 740 L324 676 Q310 679 296 680.5 Q282 682 271 682 Q181 682 181 581 L181 525 L482 525 L482 0 L404 0 L404 465 L181 465 L181 0 L103 0 L103 465 L21 465 L21 525 L103 525 L103 580 Q103 664 145.5 704.5 Q188 745 263 745 Z M484 692 L484 618 L403 618 L403 692 L484 692 Z " />
<glyph glyph-name="f_l" unicode="&#xfb02;" horiz-adv-x="569" d="M311 745 Q355 745 397.5 740.5 Q440 736 482 729 L482 0 L404 0 L404 672 Q385 677 361.5 679.5 Q338 682 308 682 Q181 682 181 581 L181 525 L328 525 L328 465 L181 465 L181 0 L103 0 L103 465 L21 465 L21 525 L103 525 L103 580 Q103 663 160 704 Q217 745 311 745 Z " />
<glyph glyph-name="f_f_i" unicode="&#xfb03;" horiz-adv-x="874" d="M263 745 Q299 745 337 738 L337 674 Q319 679 303.5 680.5 Q288 682 272 682 Q181 682 181 581 L181 525 L407 525 L407 580 Q407 664 450 704.5 Q493 745 568 745 Q582 745 597.5 744 Q613 743 629 740 L629 676 Q615 679 601 680.5 Q587 682 576 682 Q529 682 507.5 656.5 Q486 631 486 581 L486 525 L787 525 L787 0 L709 0 L709 465 L486 465 L486 0 L407 0 L407 465 L181 465 L181 0 L103 0 L103 465 L21 465 L21 525 L103 525 L103 580 Q103 664 145.5 704.5 Q188 745 263 745 Z M708 618 L708 692 L788 692 L788 618 L708 618 Z " />
<glyph glyph-name="f_f_l" unicode="&#xfb04;" horiz-adv-x="874" d="M263 745 Q299 745 337 738 L337 674 Q319 679 303.5 680.5 Q288 682 272 682 Q181 682 181 581 L181 525 L407 525 L407 580 Q407 663 464 704 Q521 745 615 745 Q660 745 703 740.5 Q746 736 787 729 L787 0 L709 0 L709 672 Q690 677 667 679.5 Q644 682 614 682 Q551 682 518.5 656.5 Q486 631 486 581 L486 525 L633 525 L633 465 L486 465 L486 0 L407 0 L407 465 L181 465 L181 0 L103 0 L103 465 L21 465 L21 525 L103 525 L103 580 Q103 664 145.5 704.5 Q188 745 263 745 Z " />
<glyph glyph-name="s_t" unicode="&#xfb06;" horiz-adv-x="836" d="M262 535 Q302 535 340.5 533.5 Q379 532 418.5 530 Q458 528 501 526.5 Q544 525 592 525 L592 644 L671 644 L671 525 L830 525 L830 465 L671 465 L671 161 Q671 53 767 53 Q795 53 830 62 L830 -2 Q789 -11 756 -11 Q681 -11 636.5 30 Q592 71 592 154 L592 467 Q502 468 415.5 473 Q329 478 265 478 Q231 478 207 470.5 Q183 463 168 450.5 Q153 438 146 422 Q139 406 139 390 Q139 367 149.5 352 Q160 337 177.5 327.5 Q195 318 218 312.5 Q241 307 267 303 Q301 297 337.5 289 Q374 281 403.5 264.5 Q433 248 452 220.5 Q471 193 471 148 Q471 116 458.5 87.5 Q446 59 420 37 Q394 15 353.5 2 Q313 -11 257 -11 Q210 -11 172.5 0 Q135 11 107.5 31 Q80 51 64.5 79 Q49 107 46 142 L119 142 Q122 98 162 72.5 Q202 47 259 47 Q296 47 322 55.5 Q348 64 364 77.5 Q380 91 387 108 Q394 125 394 142 Q394 167 383 183.5 Q372 200 353.5 210 Q335 220 311 225.5 Q287 231 260 236 Q227 241 192.5 248.5 Q158 256 129 271.5 Q100 287 81.5 313.5 Q63 340 63 384 Q63 414 76 441 Q89 468 114.5 489 Q140 510 177 522.5 Q214 535 262 535 Z " />
<glyph glyph-name="C" unicode="C" horiz-adv-x="710" d="M679 206 Q670 158 645 118 Q620 78 582.5 49.5 Q545 21 496 5 Q447 -11 389 -11 Q310 -11 248.5 18.5 Q187 48 144.5 98 Q102 148 79.5 215.5 Q57 283 57 360 Q57 436 79.5 503.5 Q102 571 144.5 621 Q187 671 248.5 700.5 Q310 730 389 730 Q447 730 496 714 Q545 698 582.5 669.5 Q620 641 645 601.5 Q670 562 679 514 L593 514 Q577 580 524 619 Q471 658 389 658 Q329 658 284 636 Q239 614 208.5 574 Q178 534 162.5 479.5 Q147 425 147 360 Q147 295 162.5 240.5 Q178 186 208.5 146 Q239 106 284 84 Q329 62 389 62 Q471 62 524 101.5 Q577 141 593 206 L679 206 Z " />
<glyph glyph-name="nbspace" unicode="&#xa0;" horiz-adv-x="239" d="" />
<glyph glyph-name="A" unicode="A" horiz-adv-x="644" d="M382 720 L642 0 L550 0 L475 213 L163 213 L88 0 L1 0 L262 720 L382 720 Z M319 670 Q313 644 304.5 616.5 Q296 589 289 567 L182 276 L456 276 L350 567 Q342 590 334 617 Q326 644 319 670 Z " />
<glyph glyph-name="B" unicode="B" horiz-adv-x="687" d="M374 403 Q413 403 440 414.5 Q467 426 483 444 Q499 462 506 485.5 Q513 509 513 533 Q513 557 506 579 Q499 601 482.5 618 Q466 635 439.5 645 Q413 655 374 655 L174 655 L174 403 L374 403 Z M91 0 L91 720 L394 720 Q448 720 486.5 706 Q525 692 550 668 Q575 644 587 613 Q599 582 599 549 Q599 518 591 489.5 Q583 461 565.5 438.5 Q548 416 521 400 Q494 384 455 378 Q497 373 529 357 Q561 341 582.5 316 Q604 291 615 260 Q626 229 626 194 Q626 155 612.5 120 Q599 85 572 58 Q545 31 504.5 15.5 Q464 0 410 0 L91 0 Z M387 66 Q429 66 458.5 77 Q488 88 506.5 106.5 Q525 125 533.5 150 Q542 175 542 203 Q542 231 533 256.5 Q524 282 504.5 301.5 Q485 321 455.5 332.5 Q426 344 386 344 L174 344 L174 66 L387 66 Z " />
</font>
</svg>
