<?xml version="1.0" encoding="UTF-8"?>
<svg xmlns="http://www.w3.org/2000/svg" xmlns:xlink="http://www.w3.org/1999/xlink" version="1.2" >
<font id="TriviaSeznam-Bold">
<font-face  font-family="Trivia Seznam" units-per-em="1000" ascent="923" descent="-210" font-style="normal" font-weight="700" font-stretch="normal" cap-height="735" x-height="525" underline-position="-125" underline-thickness="50" />
<missing-glyph  horiz-adv-x="227" d="" />
<glyph glyph-name="NULL" d="" />
<glyph glyph-name="nonmarkingreturn" unicode="&#xd;" horiz-adv-x="227" d="" />
<glyph glyph-name="space" unicode="&#x20;" horiz-adv-x="227" d="" />
<glyph glyph-name="D" unicode="D" horiz-adv-x="758" d="M82 0 L82 720 L393 720 Q465 720 522 695.5 Q579 671 619.5 625 Q660 579 681.5 513 Q703 447 703 363 Q703 279 682 212 Q661 145 622 98 Q583 51 527 25.5 Q471 0 400 0 L82 0 Z M368 113 Q462 113 507.5 172.5 Q553 232 553 361 Q553 490 505.5 549 Q458 608 364 608 L225 608 L225 113 L368 113 Z " />
<glyph glyph-name="E" unicode="E" horiz-adv-x="623" d="M82 0 L82 720 L574 720 L574 608 L225 608 L225 427 L512 427 L512 318 L225 318 L225 113 L581 113 L581 0 L82 0 Z " />
<glyph glyph-name="F" unicode="F" horiz-adv-x="584" d="M575 720 L575 608 L225 608 L225 405 L513 405 L513 295 L225 295 L225 0 L82 0 L82 720 L575 720 Z " />
<glyph glyph-name="G" unicode="G" horiz-adv-x="789" d="M400 730 Q464 730 517.5 712.5 Q571 695 610 663.5 Q649 632 673 587.5 Q697 543 702 489 L556 489 Q547 544 507 574.5 Q467 605 398 605 Q350 605 314.5 587 Q279 569 255.5 537 Q232 505 221 459.5 Q210 414 210 360 Q210 244 254.5 179 Q299 114 394 114 Q472 114 517.5 158 Q563 202 564 288 L386 288 L386 394 L708 394 L708 0 L571 0 L571 131 Q561 102 545 76.5 Q529 51 504.5 31.5 Q480 12 446 0.5 Q412 -11 365 -11 Q307 -11 251.5 12.5 Q196 36 152.5 82.5 Q109 129 82.5 198.5 Q56 268 56 360 Q56 438 80 506 Q104 574 148.5 623.5 Q193 673 256.5 701.5 Q320 730 400 730 Z " />
<glyph glyph-name="H" unicode="H" horiz-adv-x="729" d="M504 0 L504 317 L225 317 L225 0 L82 0 L82 720 L225 720 L225 428 L504 428 L504 720 L646 720 L646 0 L504 0 Z " />
<glyph glyph-name="I" unicode="I" horiz-adv-x="308" d="M82 0 L82 720 L225 720 L225 0 L82 0 Z " />
<glyph glyph-name="J" unicode="J" horiz-adv-x="585" d="M506 720 L506 221 Q506 167 487.5 124 Q469 81 434.5 51 Q400 21 351 5 Q302 -11 242 -11 Q136 -11 72.5 47.5 Q9 106 -4 203 L144 203 Q145 185 151 169 Q157 153 169 140 Q181 127 200.5 119.5 Q220 112 247 112 Q309 112 336 138.5 Q363 165 363 219 L363 720 L506 720 Z " />
<glyph glyph-name="K" unicode="K" horiz-adv-x="693" d="M82 0 L82 720 L225 720 L225 0 L82 0 Z M515 0 L232 378 L499 720 L665 720 L398 387 L687 0 L515 0 Z " />
<glyph glyph-name="L" unicode="L" horiz-adv-x="562" d="M82 0 L82 720 L225 720 L225 113 L552 113 L552 0 L82 0 Z " />
<glyph glyph-name="M" unicode="M" horiz-adv-x="927" d="M306 720 L448 271 Q453 252 458.5 223 Q464 194 466 171 Q467 182 469 196 Q471 210 473.5 223.5 Q476 237 478.5 249.5 Q481 262 484 271 L623 720 L845 720 L845 0 L703 0 L703 503 Q703 513 703 527 Q703 541 703.5 556 Q704 571 704.5 584.5 Q705 598 706 609 Q702 586 696.5 558.5 Q691 531 684 511 L522 0 L406 0 L243 511 Q237 531 232 557.5 Q227 584 222 609 Q224 587 224.5 555.5 Q225 524 225 504 L225 0 L82 0 L82 720 L306 720 Z " />
<glyph glyph-name="N" unicode="N" horiz-adv-x="746" d="M284 720 L500 251 Q507 235 515 209.5 Q523 184 528 161 Q527 169 526 182 Q525 195 524.5 209.5 Q524 224 523.5 237 Q523 250 523 259 L523 720 L663 720 L663 0 L478 0 L248 507 Q241 523 233.5 549.5 Q226 576 221 596 Q222 588 222.5 575.5 Q223 563 223.5 550 Q224 537 224.5 524.5 Q225 512 225 505 L225 0 L82 0 L82 720 L284 720 Z " />
<glyph glyph-name="O" unicode="O" horiz-adv-x="793" d="M397 605 Q349 605 313.5 587 Q278 569 255 537 Q232 505 221 459.5 Q210 414 210 360 Q210 306 221 261 Q232 216 255 184 Q278 152 313.5 134 Q349 116 397 116 Q445 116 480 134 Q515 152 538 184 Q561 216 572 261 Q583 306 583 360 Q583 414 572 459.5 Q561 505 538 537 Q515 569 480 587 Q445 605 397 605 Z M397 730 Q476 730 539 701.5 Q602 673 646 623.5 Q690 574 713.5 506 Q737 438 737 360 Q737 281 713.5 213.5 Q690 146 646 96 Q602 46 539 17.5 Q476 -11 397 -11 Q317 -11 254 17.5 Q191 46 147 96 Q103 146 79.5 213.5 Q56 281 56 360 Q56 438 79.5 506 Q103 574 147 623.5 Q191 673 254 701.5 Q317 730 397 730 Z " />
<glyph glyph-name="P" unicode="P" horiz-adv-x="666" d="M415 720 Q470 720 511.5 702 Q553 684 581 652.5 Q609 621 623 579.5 Q637 538 637 492 Q637 444 623 401.5 Q609 359 580.5 327.5 Q552 296 508.5 277.5 Q465 259 407 259 L225 259 L225 0 L82 0 L82 720 L415 720 Z M225 608 L225 362 L378 362 Q439 362 464.5 397.5 Q490 433 490 488 Q490 541 465 574.5 Q440 608 378 608 L225 608 Z " />
<glyph glyph-name="Q" unicode="Q" horiz-adv-x="793" d="M397 730 Q476 730 539 701.5 Q602 673 646 623.5 Q690 574 713.5 506 Q737 438 737 360 Q737 265 704 187 Q671 109 608 59 L738 -112 L586 -112 L501 3 Q451 -11 397 -11 Q317 -11 254 17.5 Q191 46 147 96 Q103 146 79.5 213.5 Q56 281 56 360 Q56 438 79.5 506 Q103 574 147 623.5 Q191 673 254 701.5 Q317 730 397 730 Z M480 229 L525 168 Q554 200 568.5 249.5 Q583 299 583 360 Q583 414 572 459.5 Q561 505 538 537 Q515 569 480 587 Q445 605 397 605 Q349 605 313.5 587 Q278 569 255 537 Q232 505 221 459.5 Q210 414 210 360 Q210 306 221 261 Q232 216 255 184 Q278 152 313.5 134 Q349 116 397 116 Q402 116 408 116 Q414 116 419 117 L337 229 L480 229 Z " />
<glyph glyph-name="R" unicode="R" horiz-adv-x="701" d="M502 0 Q502 90 492.5 146 Q483 202 465.5 233 Q448 264 423 275 Q398 286 366 286 L225 286 L225 0 L82 0 L82 720 L421 720 Q478 720 519.5 704.5 Q561 689 588 662.5 Q615 636 628 600.5 Q641 565 641 524 Q641 446 598.5 398 Q556 350 472 342 Q508 337 539.5 320.5 Q571 304 594.5 266 Q618 228 631.5 164 Q645 100 645 0 L502 0 Z M383 397 Q444 397 467.5 425.5 Q491 454 491 505 Q491 553 467.5 580.5 Q444 608 383 608 L225 608 L225 397 L383 397 Z " />
<glyph glyph-name="S" unicode="S" horiz-adv-x="688" d="M347 730 Q413 730 464.5 713.5 Q516 697 553 668 Q590 639 610.5 598.5 Q631 558 634 510 L486 510 Q483 534 475.5 553.5 Q468 573 451.5 587 Q435 601 408.5 608.5 Q382 616 343 616 Q306 616 281.5 608.5 Q257 601 242 588 Q227 575 220.5 558 Q214 541 214 523 Q214 476 250.5 457.5 Q287 439 358 430 Q421 424 472.5 410 Q524 396 560.5 372 Q597 348 617.5 311.5 Q638 275 638 224 Q638 173 618 130 Q598 87 560 55.5 Q522 24 466.5 6.5 Q411 -11 340 -11 Q274 -11 222 5.5 Q170 22 133 52 Q96 82 74.5 123 Q53 164 50 213 L199 213 Q203 164 235.5 133 Q268 102 346 102 Q383 102 408.5 110.5 Q434 119 450 133 Q466 147 473.5 165 Q481 183 481 203 Q481 229 471.5 246 Q462 263 442.5 274 Q423 285 394 291.5 Q365 298 326 303 Q261 311 211 325 Q161 339 127.5 363 Q94 387 77 423.5 Q60 460 60 512 Q60 557 78.5 596.5 Q97 636 133 666 Q169 696 222.5 713 Q276 730 347 730 Z " />
<glyph glyph-name="T" unicode="T" horiz-adv-x="629" d="M244 0 L244 608 L11 608 L11 720 L619 720 L619 608 L386 608 L386 0 L244 0 Z " />
<glyph glyph-name="U" unicode="U" horiz-adv-x="741" d="M522 720 L666 720 L666 221 Q666 162 641 118.5 Q616 75 574 46 Q532 17 478.5 3 Q425 -11 368 -11 Q310 -11 257 3 Q204 17 163.5 46 Q123 75 98.5 118.5 Q74 162 74 221 L74 720 L219 720 L219 248 Q219 175 256.5 142.5 Q294 110 370 110 Q448 110 485 143 Q522 176 522 248 L522 720 Z " />
<glyph glyph-name="V" unicode="V" horiz-adv-x="666" d="M145 720 L318 191 Q322 176 326.5 159 Q331 142 335 124 Q341 157 352 191 L525 720 L677 720 L431 0 L234 0 L-11 720 L145 720 Z " />
<glyph glyph-name="W" unicode="W" horiz-adv-x="1002" d="M166 720 L286 230 Q291 215 295.5 191 Q300 167 302 146 Q304 166 308.5 190 Q313 214 318 230 L437 720 L567 720 L690 230 Q694 215 698.5 190.5 Q703 166 706 144 Q708 166 712 190.5 Q716 215 720 230 L845 720 L987 720 L795 0 L619 0 L515 417 Q511 435 507.5 458.5 Q504 482 502 502 Q500 482 496.5 458.5 Q493 435 488 417 L385 0 L209 0 L15 720 L166 720 Z " />
<glyph glyph-name="X" unicode="X" horiz-adv-x="706" d="M183 720 L321 520 Q343 489 357 451 Q364 469 373.5 487.5 Q383 506 394 521 L531 720 L698 720 L441 366 L706 0 L526 0 L382 207 Q371 223 362 241.5 Q353 260 346 277 Q339 259 329.5 241 Q320 223 309 206 L166 0 L0 0 L262 363 L4 720 L183 720 Z " />
<glyph glyph-name="Y" unicode="Y" horiz-adv-x="676" d="M267 0 L267 311 L-10 720 L159 720 L343 432 L529 720 L685 720 L410 311 L410 0 L267 0 Z " />
<glyph glyph-name="Z" unicode="Z" horiz-adv-x="647" d="M41 0 L41 113 L434 608 L50 608 L50 720 L605 720 L605 607 L212 113 L610 113 L610 0 L41 0 Z " />
<glyph glyph-name="AE" unicode="&#xc6;" horiz-adv-x="974" d="M433 0 L433 185 L179 185 L60 0 L-100 0 L372 720 L925 720 L925 608 L577 608 L577 427 L862 427 L862 318 L577 318 L577 113 L933 113 L933 0 L433 0 Z M433 295 L433 587 L245 295 L433 295 Z " />
<glyph glyph-name="Eng" unicode="&#x14a;" horiz-adv-x="746" d="M284 720 L500 251 Q507 235 515 209.5 Q523 184 528 161 Q527 169 526 182 Q525 195 524.5 209.5 Q524 224 523.5 237 Q523 250 523 259 L523 720 L663 720 L663 -31 Q663 -81 644 -117 Q625 -153 594.5 -177 Q564 -201 526 -212.5 Q488 -224 451 -224 L451 -114 Q470 -114 485 -110.5 Q500 -107 510.5 -97.5 Q521 -88 526.5 -70.5 Q532 -53 532 -24 L532 0 L478 0 L248 507 Q241 523 233.5 549.5 Q226 576 221 596 Q222 588 222.5 575.5 Q223 563 223.5 550 Q224 537 224.5 524.5 Q225 512 225 505 L225 0 L82 0 L82 720 L284 720 Z " />
<glyph glyph-name="Eth" unicode="&#xd0;" horiz-adv-x="758" d="M82 0 L82 319 L22 319 L22 421 L82 421 L82 720 L393 720 Q465 720 522 695.5 Q579 671 619.5 625 Q660 579 681.5 513 Q703 447 703 363 Q703 279 682 212 Q661 145 622 98 Q583 51 527 25.5 Q471 0 400 0 L82 0 Z M368 113 Q462 113 507.5 172.5 Q553 232 553 361 Q553 490 505.5 549 Q458 608 364 608 L225 608 L225 421 L319 421 L319 319 L225 319 L225 113 L368 113 Z " />
<glyph glyph-name="IJ" unicode="&#x132;" horiz-adv-x="871" d="M82 0 L82 720 L225 720 L225 0 L82 0 Z M648 720 L792 720 L792 221 Q792 167 773 124 Q754 81 719.5 51 Q685 21 636 5 Q587 -11 527 -11 Q421 -11 358 47.5 Q295 106 281 203 L430 203 Q431 185 437 169 Q443 153 455 140 Q467 127 486.5 119.5 Q506 112 533 112 Q595 112 621.5 138.5 Q648 165 648 219 L648 720 Z " />
<glyph glyph-name="OE" unicode="&#x152;" horiz-adv-x="1083" d="M397 730 Q420 730 442 727.5 Q464 725 484 720 L1033 720 L1033 608 L643 608 Q681 577 702.5 530.5 Q724 484 730 427 L970 427 L970 318 L733 318 Q730 252 707.5 199 Q685 146 643 113 L1042 113 L1042 0 L484 0 Q464 -5 442 -8 Q420 -11 397 -11 Q317 -11 254 17.5 Q191 46 147 96 Q103 146 79.5 213.5 Q56 281 56 360 Q56 438 79.5 506 Q103 574 147 623.5 Q191 673 254 701.5 Q317 730 397 730 Z M397 605 Q349 605 313.5 587 Q278 569 255 537 Q232 505 221 459.5 Q210 414 210 360 Q210 306 221 261 Q232 216 255 184 Q278 152 313.5 134 Q349 116 397 116 Q445 116 480 134 Q515 152 538 184 Q561 216 572 261 Q583 306 583 360 Q583 414 572 459.5 Q561 505 538 537 Q515 569 480 587 Q445 605 397 605 Z " />
<glyph glyph-name="Oslash" unicode="&#xd8;" horiz-adv-x="793" d="M716 720 L647 622 Q691 572 714 505 Q737 438 737 360 Q737 281 713.5 213.5 Q690 146 646 96 Q602 46 539 17.5 Q476 -11 397 -11 Q348 -11 305.5 0 Q263 11 227 31 L205 0 L74 0 L144 99 Q101 149 78.5 215.5 Q56 282 56 360 Q56 438 79.5 506 Q103 574 147 623.5 Q191 673 254 701.5 Q317 730 397 730 Q445 730 487 719.5 Q529 709 565 689 L587 720 L716 720 Z M583 360 Q583 441 559 498 L303 139 Q343 116 397 116 Q445 116 480 134 Q515 152 538 184 Q561 216 572 261 Q583 306 583 360 Z M397 605 Q349 605 313.5 587 Q278 569 255 537 Q232 505 221 459.5 Q210 414 210 360 Q210 282 233 224 L489 582 Q451 605 397 605 Z " />
<glyph glyph-name="Thorn" unicode="&#xde;" horiz-adv-x="666" d="M82 0 L82 720 L225 720 L225 606 L415 606 Q470 606 511.5 588 Q553 570 581 538.5 Q609 507 623 465 Q637 423 637 376 Q637 328 623 286 Q609 244 580.5 212.5 Q552 181 508.5 162.5 Q465 144 407 144 L225 144 L225 0 L82 0 Z M225 247 L378 247 Q439 247 464.5 282.5 Q490 318 490 373 Q490 399 484 421 Q478 443 465 458.5 Q452 474 430.5 483 Q409 492 378 492 L225 492 L225 247 Z " />
<glyph glyph-name="a" unicode="a" horiz-adv-x="566" d="M290 535 Q350 535 389.5 522 Q429 509 453 486.5 Q477 464 487 432.5 Q497 401 497 365 L497 0 L363 0 L363 84 Q341 38 302.5 15 Q264 -8 201 -8 Q126 -8 83 31 Q40 70 40 137 Q40 226 104.5 274 Q169 322 315 322 Q326 322 339 321.5 Q352 321 363 320 L363 365 Q363 397 346 415.5 Q329 434 282 434 Q233 434 209 417.5 Q185 401 180 367 L55 367 Q65 448 125 491.5 Q185 535 290 535 Z M319 237 Q250 237 214 219 Q178 201 178 158 Q178 95 245 95 Q296 95 329.5 125.5 Q363 156 363 208 L363 236 Q352 237 341 237 Q330 237 319 237 Z " />
<glyph glyph-name="b" unicode="b" horiz-adv-x="601" d="M197 735 L197 428 Q217 473 253 504 Q289 535 349 535 Q398 535 437.5 515.5 Q477 496 505 460 Q533 424 548.5 373.5 Q564 323 564 262 Q564 201 548.5 150.5 Q533 100 505 64 Q477 28 437.5 8.5 Q398 -11 349 -11 Q292 -11 254.5 20.5 Q217 52 197 95 L197 0 L63 0 L63 735 L197 735 Z M316 422 Q259 422 228 380.5 Q197 339 197 259 Q197 227 204 198.5 Q211 170 225.5 149 Q240 128 262.5 115.5 Q285 103 316 103 Q373 103 399 144.5 Q425 186 425 262 Q425 339 399 380.5 Q373 422 316 422 Z " />
<glyph glyph-name="c" unicode="c" horiz-adv-x="541" d="M287 535 Q333 535 373.5 520.5 Q414 506 445 479.5 Q476 453 494.5 415.5 Q513 378 515 332 L379 332 Q377 371 352 397 Q327 423 281 423 Q222 423 195.5 380 Q169 337 169 262 Q169 187 195.5 144 Q222 101 281 101 Q327 101 352 127.5 Q377 154 379 193 L515 193 Q513 147 494.5 109.5 Q476 72 445 45 Q414 18 373.5 3.5 Q333 -11 287 -11 Q227 -11 180 8.5 Q133 28 100.5 64 Q68 100 51.5 150 Q35 200 35 262 Q35 323 51.5 373.5 Q68 424 100.5 460 Q133 496 180 515.5 Q227 535 287 535 Z " />
<glyph glyph-name="d" unicode="d" horiz-adv-x="601" d="M251 535 Q311 535 346.5 504 Q382 473 402 428 L402 735 L536 735 L536 0 L402 0 L402 95 Q382 52 345 20.5 Q308 -11 251 -11 Q203 -11 163 8.5 Q123 28 94.5 64 Q66 100 50.5 150.5 Q35 201 35 262 Q35 323 50.5 373.5 Q66 424 94.5 460 Q123 496 163 515.5 Q203 535 251 535 Z M285 422 Q228 422 201 380.5 Q174 339 174 262 Q174 186 201 144.5 Q228 103 285 103 Q316 103 338 115.5 Q360 128 374 149 Q388 170 395 198.5 Q402 227 402 259 Q402 339 371.5 380.5 Q341 422 285 422 Z " />
<glyph glyph-name="e" unicode="e" horiz-adv-x="554" d="M289 535 Q353 535 398.5 510.5 Q444 486 472 445 Q500 404 512 350 Q524 296 520 237 L168 237 Q172 166 199 132 Q226 98 283 98 Q322 98 346.5 114 Q371 130 378 162 L512 162 Q507 124 487.5 92 Q468 60 438 37 Q408 14 369 1.5 Q330 -11 284 -11 Q226 -11 180 8.5 Q134 28 101.5 64 Q69 100 51.5 150.5 Q34 201 34 264 Q34 324 51.5 374 Q69 424 102 460 Q135 496 182.5 515.5 Q230 535 289 535 Z M284 434 Q235 434 208 407.5 Q181 381 172 324 L383 324 Q381 372 357 403 Q333 434 284 434 Z " />
<glyph glyph-name="f" unicode="f" horiz-adv-x="365" d="M280 745 Q315 745 361 737 L361 627 Q341 632 327.5 633.5 Q314 635 298 635 Q262 635 246 617 Q230 599 230 564 L230 525 L361 525 L361 422 L230 422 L230 0 L95 0 L95 422 L20 422 L20 525 L95 525 L95 562 Q95 609 108.5 643.5 Q122 678 146.5 700.5 Q171 723 205 734 Q239 745 280 745 Z " />
<glyph glyph-name="g" unicode="g" horiz-adv-x="582" d="M283 535 Q320 535 360.5 533.5 Q401 532 439.5 530 Q478 528 512.5 526.5 Q547 525 574 525 L574 422 Q552 422 518.5 425 Q485 428 456 432 Q481 419 494 393 Q507 367 507 336 Q507 260 450 214 Q393 168 279 168 Q239 168 207 175 Q194 169 186 156.5 Q178 144 178 130 Q178 110 191.5 102 Q205 94 231 94 L383 94 Q475 94 515 57.5 Q555 21 555 -45 Q555 -123 489 -172 Q423 -221 284 -221 Q219 -221 174 -213 Q129 -205 100.5 -189.5 Q72 -174 59 -151 Q46 -128 46 -98 Q46 -59 68.5 -32 Q91 -5 126 10 Q95 21 77 41.5 Q59 62 59 99 Q59 132 80 162 Q101 192 132 206 Q98 228 78.5 262.5 Q59 297 59 345 Q59 430 115.5 482.5 Q172 535 283 535 Z M376 345 Q376 388 355.5 414 Q335 440 284 440 Q236 440 215 415 Q194 390 194 345 Q194 307 215.5 282 Q237 257 284 257 Q332 257 354 280.5 Q376 304 376 345 Z M237 -3 Q231 -3 224 -2.5 Q217 -2 211 -2 Q177 -25 177 -63 Q177 -97 201.5 -112 Q226 -127 288 -127 Q360 -127 389 -108 Q418 -89 418 -54 Q418 -29 401 -16 Q384 -3 346 -3 L237 -3 Z " />
<glyph glyph-name="h" unicode="h" horiz-adv-x="593" d="M204 735 L204 445 Q225 486 263.5 510.5 Q302 535 362 535 Q441 535 483 487 Q525 439 525 352 L525 0 L390 0 L390 323 Q390 371 373.5 395 Q357 419 314 419 Q269 419 236.5 387 Q204 355 204 287 L204 0 L70 0 L70 735 L204 735 Z " />
<glyph glyph-name="i" unicode="i" horiz-adv-x="274" d="M204 525 L204 0 L70 0 L70 525 L204 525 Z M205 713 L205 596 L70 596 L70 713 L205 713 Z " />
<glyph glyph-name="j" unicode="j" horiz-adv-x="274" d="M204 525 L204 -24 Q204 -75 184.5 -112 Q165 -149 134 -173 Q103 -197 64 -209 Q25 -221 -13 -221 L-13 -108 Q26 -108 48 -91.5 Q70 -75 70 -23 L70 525 L204 525 Z M205 713 L205 596 L70 596 L70 713 L205 713 Z " />
<glyph glyph-name="k" unicode="k" horiz-adv-x="558" d="M70 0 L70 735 L204 735 L204 0 L70 0 Z M407 0 L211 286 L394 525 L551 525 L361 291 L567 0 L407 0 Z " />
<glyph glyph-name="l" unicode="l" horiz-adv-x="274" d="M70 0 L70 735 L204 735 L204 0 L70 0 Z " />
<glyph glyph-name="m" unicode="m" horiz-adv-x="898" d="M204 525 L204 441 Q227 486 265.5 510.5 Q304 535 362 535 Q417 535 452 503 Q487 471 499 422 Q528 484 573 509.5 Q618 535 671 535 Q747 535 788.5 487 Q830 439 830 352 L830 0 L695 0 L695 321 Q695 369 679 394 Q663 419 621 419 Q601 419 582 411.5 Q563 404 549 388 Q535 372 526 347 Q517 322 517 287 L517 0 L383 0 L383 321 Q383 369 366.5 394 Q350 419 309 419 Q267 419 235.5 386.5 Q204 354 204 282 L204 0 L70 0 L70 525 L204 525 Z " />
<glyph glyph-name="n" unicode="n" horiz-adv-x="593" d="M204 525 L204 445 Q225 486 261.5 510.5 Q298 535 358 535 Q437 535 481 487 Q525 439 525 352 L525 0 L390 0 L390 323 Q390 371 373.5 395 Q357 419 313 419 Q268 419 236 387 Q204 355 204 287 L204 0 L70 0 L70 525 L204 525 Z " />
<glyph glyph-name="o" unicode="o" horiz-adv-x="560" d="M280 423 Q224 423 197 382 Q170 341 170 264 Q170 184 197 142.5 Q224 101 280 101 Q335 101 362.5 142.5 Q390 184 390 264 Q390 341 362.5 382 Q335 423 280 423 Z M280 535 Q334 535 379.5 516.5 Q425 498 457 463 Q489 428 507 378 Q525 328 525 264 Q525 199 507 148 Q489 97 457 61.5 Q425 26 379.5 7.5 Q334 -11 280 -11 Q225 -11 180 7.5 Q135 26 102.5 61.5 Q70 97 52.5 148 Q35 199 35 264 Q35 328 52.5 378 Q70 428 102.5 463 Q135 498 180 516.5 Q225 535 280 535 Z " />
<glyph glyph-name="p" unicode="p" horiz-adv-x="601" d="M351 535 Q399 535 438.5 515.5 Q478 496 506 460 Q534 424 549 373.5 Q564 323 564 262 Q564 201 549 150.5 Q534 100 506 64 Q478 28 438.5 8.5 Q399 -11 351 -11 Q294 -11 255.5 19.5 Q217 50 197 95 L197 -210 L63 -210 L63 525 L197 525 L197 428 Q217 473 254 504 Q291 535 351 535 Z M315 422 Q258 422 227.5 380.5 Q197 339 197 259 Q197 227 204 198.5 Q211 170 225 149 Q239 128 261.5 115.5 Q284 103 315 103 Q372 103 398.5 144.5 Q425 186 425 262 Q425 339 398.5 380.5 Q372 422 315 422 Z " />
<glyph glyph-name="q" unicode="q" horiz-adv-x="601" d="M248 535 Q308 535 345 504 Q382 473 402 428 L402 525 L536 525 L536 -210 L402 -210 L402 95 Q382 50 343.5 19.5 Q305 -11 248 -11 Q200 -11 160.5 8.5 Q121 28 93.5 64 Q66 100 50.5 150.5 Q35 201 35 262 Q35 323 50.5 373.5 Q66 424 93.5 460 Q121 496 160.5 515.5 Q200 535 248 535 Z M280 422 Q223 422 198.5 380.5 Q174 339 174 262 Q174 186 198.5 144.5 Q223 103 280 103 Q311 103 334 115.5 Q357 128 372 149 Q387 170 394.5 198.5 Q402 227 402 259 Q402 339 369.5 380.5 Q337 422 280 422 Z " />
<glyph glyph-name="r" unicode="r" horiz-adv-x="377" d="M204 525 L204 413 Q218 468 256.5 501.5 Q295 535 369 535 L369 405 Q365 407 356.5 408 Q348 409 339 409 Q313 409 288.5 399.5 Q264 390 245.5 370.5 Q227 351 215.5 320.5 Q204 290 204 249 L204 0 L70 0 L70 525 L204 525 Z " />
<glyph glyph-name="s" unicode="s" horiz-adv-x="525" d="M262 535 Q317 535 358.5 522.5 Q400 510 428 488 Q456 466 470.5 435.5 Q485 405 486 368 L361 368 Q360 400 334.5 419 Q309 438 267 438 Q242 438 225 433 Q208 428 197.5 420 Q187 412 182.5 401.5 Q178 391 178 380 Q178 350 204.5 339 Q231 328 271 322 Q308 318 347 310.5 Q386 303 418.5 286.5 Q451 270 471.5 240.5 Q492 211 492 163 Q492 126 479.5 94.5 Q467 63 439.5 39.5 Q412 16 368 2.5 Q324 -11 262 -11 Q207 -11 165.5 1.5 Q124 14 96 36.5 Q68 59 53 90 Q38 121 37 158 L163 158 Q164 127 191 108 Q218 89 266 89 Q321 89 341 106.5 Q361 124 361 147 Q361 180 334 191.5 Q307 203 268 208 Q226 213 186.5 220.5 Q147 228 116 244.5 Q85 261 66 290 Q47 319 47 368 Q47 402 61.5 432.5 Q76 463 104 485.5 Q132 508 171.5 521.5 Q211 535 262 535 Z " />
<glyph glyph-name="longs" unicode="&#x17f;" horiz-adv-x="294" d="M253 745 Q272 745 292 743 Q312 741 333 737 L333 627 Q313 632 300 633.5 Q287 635 270 635 Q234 635 218 617 Q202 599 202 564 L202 0 L68 0 L68 562 Q68 609 81.5 643.5 Q95 678 119.5 700.5 Q144 723 178 734 Q212 745 253 745 Z " />
<glyph glyph-name="germandbls" unicode="&#xdf;" horiz-adv-x="600" d="M306 745 Q354 745 396.5 733 Q439 721 470 698 Q501 675 519 641 Q537 607 537 562 Q537 486 496.5 444.5 Q456 403 379 393 Q467 380 516 335.5 Q565 291 565 207 Q565 164 547 125.5 Q529 87 495 58 Q461 29 412 12 Q363 -5 300 -5 Q286 -5 275.5 -4 Q265 -3 250 -1 L250 111 Q263 109 271.5 107.5 Q280 106 294 106 Q327 106 350.5 114.5 Q374 123 389 138 Q404 153 410.5 173.5 Q417 194 417 217 Q417 274 383 301 Q349 328 262 328 L262 432 Q302 432 328 439 Q354 446 369 459.5 Q384 473 390 492.5 Q396 512 396 538 Q396 579 374.5 606.5 Q353 634 301 634 Q249 634 226.5 610.5 Q204 587 204 542 L204 0 L70 0 L70 544 Q70 592 88.5 629.5 Q107 667 139.5 692.5 Q172 718 215 731.5 Q258 745 306 745 Z " />
<glyph glyph-name="t" unicode="t" horiz-adv-x="368" d="M228 647 L228 525 L359 525 L359 422 L228 422 L228 185 Q228 140 245.5 120.5 Q263 101 301 101 Q326 101 359 111 L359 -2 Q337 -6 317.5 -8.5 Q298 -11 279 -11 Q237 -11 203 -1 Q169 9 145 30.5 Q121 52 107.5 85.5 Q94 119 94 166 L94 422 L18 422 L18 525 L94 525 L94 647 L228 647 Z " />
<glyph glyph-name="u" unicode="u" horiz-adv-x="593" d="M203 525 L203 201 Q203 154 219.5 130 Q236 106 279 106 Q325 106 356.5 138 Q388 170 388 238 L388 525 L523 525 L523 0 L388 0 L388 79 Q367 38 331 13.5 Q295 -11 235 -11 Q156 -11 112 37.5 Q68 86 68 173 L68 525 L203 525 Z " />
<glyph glyph-name="v" unicode="v" horiz-adv-x="514" d="M138 525 L241 203 Q244 193 246.5 181 Q249 169 251.5 156.5 Q254 144 255.5 132.5 Q257 121 258 112 Q261 129 266 156 Q271 183 277 203 L385 525 L517 525 L336 0 L175 0 L-3 525 L138 525 Z " />
<glyph glyph-name="w" unicode="w" horiz-adv-x="806" d="M137 525 L223 201 Q228 181 232 159 Q236 137 239 117 Q241 137 244.5 159 Q248 181 253 201 L340 525 L468 525 L557 201 Q562 181 565.5 159 Q569 137 572 117 Q574 137 577.5 159 Q581 181 586 201 L673 525 L804 525 L649 0 L491 0 L418 274 Q413 297 408 323 Q403 349 401 373 Q398 349 393.5 322.5 Q389 296 383 274 L308 0 L155 0 L1 525 L137 525 Z " />
<glyph glyph-name="x" unicode="x" horiz-adv-x="554" d="M166 525 L254 401 Q261 391 266.5 379.5 Q272 368 276 358 Q281 368 287 379.5 Q293 391 300 401 L387 525 L529 525 L348 273 L549 0 L389 0 L297 131 Q282 152 272 177 Q267 166 261 153.5 Q255 141 247 130 L155 0 L4 0 L200 267 L16 525 L166 525 Z " />
<glyph glyph-name="y" unicode="y" horiz-adv-x="514" d="M138 525 L241 209 Q246 189 251 162 Q256 135 258 119 Q259 126 261.5 137.5 Q264 149 266 161.5 Q268 174 271 186.5 Q274 199 277 209 L385 525 L517 525 L324 -24 Q301 -92 274.5 -131 Q248 -170 214.5 -190 Q181 -210 139.5 -215.5 Q98 -221 45 -221 L45 -104 Q95 -103 123.5 -91.5 Q152 -80 166 -49 L183 -11 L-3 525 L138 525 Z " />
<glyph glyph-name="z" unicode="z" horiz-adv-x="484" d="M29 0 L29 104 L293 422 L44 422 L44 525 L450 525 L450 422 L187 104 L456 104 L456 0 L29 0 Z " />
<glyph glyph-name="ae" unicode="&#xe6;" horiz-adv-x="885" d="M288 535 Q353 535 393 520.5 Q433 506 456 478 Q487 505 527.5 520 Q568 535 619 535 Q678 535 722.5 511.5 Q767 488 796.5 448 Q826 408 839.5 354 Q853 300 849 239 L495 239 Q499 169 526 133.5 Q553 98 610 98 Q652 98 678.5 118.5 Q705 139 711 171 L841 171 Q838 130 819 96.5 Q800 63 769 39 Q738 15 698 2 Q658 -11 615 -11 Q541 -11 487.5 18.5 Q434 48 404 105 Q375 51 325.5 21 Q276 -9 198 -9 Q123 -9 82 30.5 Q41 70 41 137 Q41 226 105 274.5 Q169 323 315 323 L365 323 L365 365 Q365 397 343 415.5 Q321 434 277 434 Q235 434 206 415.5 Q177 397 176 357 L56 357 Q59 442 118.5 488.5 Q178 535 288 535 Z M241 95 Q266 95 289 103.5 Q312 112 328.5 127 Q345 142 355 163 Q365 184 365 210 L365 239 L317 239 Q249 239 210.5 220 Q172 201 172 158 Q172 127 190.5 111 Q209 95 241 95 Z M612 435 Q520 435 500 323 L718 323 Q715 371 689 403 Q663 435 612 435 Z " />
<glyph glyph-name="eng" unicode="&#x14b;" horiz-adv-x="594" d="M205 525 L205 445 Q226 486 264.5 510.5 Q303 535 363 535 Q442 535 484 487 Q526 439 526 352 L526 -13 Q526 -64 506.5 -101 Q487 -138 456 -162.5 Q425 -187 386 -199 Q347 -211 309 -211 L309 -97 Q327 -97 342 -94 Q357 -91 368 -82.5 Q379 -74 385 -58 Q391 -42 391 -15 L391 323 Q391 371 374.5 395 Q358 419 314 419 Q269 419 237 387 Q205 355 205 287 L205 0 L71 0 L71 525 L205 525 Z " />
<glyph glyph-name="eth" unicode="&#xf0;" horiz-adv-x="634" d="M251 745 Q299 745 342.5 733.5 Q386 722 423 700 L474 752 L527 702 L481 656 Q534 605 563.5 530 Q593 455 593 361 Q593 181 519.5 85 Q446 -11 308 -11 Q241 -11 190.5 10 Q140 31 106.5 66.5 Q73 102 56.5 148.5 Q40 195 40 247 Q40 292 54 336 Q68 380 96.5 414.5 Q125 449 169 470.5 Q213 492 273 492 Q332 492 376.5 468 Q421 444 450 406 Q445 509 396 569 L337 508 L285 558 L340 615 Q292 640 226 640 L251 745 Z M303 389 Q268 389 244 377 Q220 365 205.5 345 Q191 325 184.5 299 Q178 273 178 244 Q178 181 208 144 Q238 107 301 107 Q374 107 408.5 159.5 Q443 212 448 309 Q421 346 384.5 367.5 Q348 389 303 389 Z " />
<glyph glyph-name="ij" unicode="&#x133;" horiz-adv-x="550" d="M204 525 L204 0 L70 0 L70 525 L204 525 Z M205 713 L205 596 L70 596 L70 713 L205 713 Z M478 525 L478 -24 Q478 -75 458.5 -112 Q439 -149 408 -173 Q377 -197 338 -209 Q299 -221 261 -221 L261 -108 Q300 -108 322 -91.5 Q344 -75 344 -23 L344 525 L478 525 Z M479 713 L479 596 L344 596 L344 713 L479 713 Z " />
<glyph glyph-name="oe" unicode="&#x153;" horiz-adv-x="913" d="M647 535 Q708 535 753.5 510 Q799 485 828 443 Q857 401 870 346.5 Q883 292 879 233 L524 233 Q529 164 556.5 132.5 Q584 101 641 101 Q679 101 704 120.5 Q729 140 737 172 L870 172 Q851 84 790.5 36.5 Q730 -11 642 -11 Q584 -11 538 8.5 Q492 28 460 63 Q397 -11 280 -11 Q165 -11 100 60 Q35 131 35 264 Q35 394 100 464.5 Q165 535 280 535 Q339 535 384.5 515.5 Q430 496 461 460 Q493 495 540 515 Q587 535 647 535 Z M280 421 Q224 421 196.5 379 Q169 337 169 264 Q169 188 196.5 146.5 Q224 105 280 105 Q335 105 363 146.5 Q391 188 391 264 Q391 337 363 379 Q335 421 280 421 Z M640 433 Q545 433 527 322 L744 322 Q742 369 715.5 401 Q689 433 640 433 Z " />
<glyph glyph-name="oslash" unicode="&#xf8;" horiz-adv-x="558" d="M280 535 Q352 535 405 506 L419 525 L521 525 L469 453 Q496 418 510.5 371 Q525 324 525 264 Q525 131 460 60 Q395 -11 280 -11 Q209 -11 155 17 L143 0 L39 0 L91 71 Q64 106 49.5 154 Q35 202 35 264 Q35 394 100 464.5 Q165 535 280 535 Z M280 419 Q224 419 195 378 Q166 337 166 264 Q166 221 175 188 L333 406 Q309 419 280 419 Z M395 264 Q395 284 392.5 302 Q390 320 385 336 L228 118 Q250 106 280 106 Q335 106 365 147 Q395 188 395 264 Z " />
<glyph glyph-name="thorn" unicode="&#xfe;" horiz-adv-x="602" d="M352 535 Q400 535 439.5 515.5 Q479 496 507 460 Q535 424 550 373.5 Q565 323 565 262 Q565 201 550 150.5 Q535 100 507 64 Q479 28 439.5 8.5 Q400 -11 352 -11 Q295 -11 256 19.5 Q217 50 198 95 L198 -214 L64 -214 L64 735 L198 735 L198 428 Q217 473 254.5 504 Q292 535 352 535 Z M316 422 Q259 422 228.5 380.5 Q198 339 198 259 Q198 227 204.5 198.5 Q211 170 225.5 149 Q240 128 262 115.5 Q284 103 316 103 Q373 103 399 144.5 Q425 186 425 262 Q425 339 399 380.5 Q373 422 316 422 Z " />
<glyph glyph-name="zero" unicode="0" horiz-adv-x="621" d="M310 602 Q274 602 249.5 585.5 Q225 569 209.5 537.5 Q194 506 187 461.5 Q180 417 180 360 Q180 247 209.5 182.5 Q239 118 310 118 Q346 118 371 134.5 Q396 151 411.5 182.5 Q427 214 434 259 Q441 304 441 360 Q441 474 411.5 538 Q382 602 310 602 Z M310 730 Q368 730 418.5 707.5 Q469 685 506 639.5 Q543 594 564.5 524 Q586 454 586 360 Q586 265 564.5 195.5 Q543 126 506 80 Q469 34 418.5 11.5 Q368 -11 310 -11 Q252 -11 202 11.5 Q152 34 115 80 Q78 126 56.5 195.5 Q35 265 35 360 Q35 454 56.5 524 Q78 594 115 639.5 Q152 685 202 707.5 Q252 730 310 730 Z " />
<glyph glyph-name="one" unicode="1" horiz-adv-x="621" d="M166 0 L166 113 L303 113 L303 589 L146 490 L90 589 L303 720 L439 720 L439 113 L553 113 L553 0 L166 0 Z " />
<glyph glyph-name="two" unicode="2" horiz-adv-x="621" d="M57 0 L57 109 Q171 184 242.5 241 Q314 298 354.5 343 Q395 388 409.5 425.5 Q424 463 424 500 Q424 549 398 581.5 Q372 614 311 614 Q246 614 217.5 585.5 Q189 557 182 498 L57 498 Q58 553 78.5 596.5 Q99 640 134.5 669.5 Q170 699 217 714.5 Q264 730 320 730 Q381 730 427 713 Q473 696 504 666.5 Q535 637 550.5 597.5 Q566 558 566 512 Q566 458 547.5 411 Q529 364 488 317.5 Q447 271 382 221.5 Q317 172 225 113 L566 113 L566 0 L57 0 Z " />
<glyph glyph-name="three" unicode="3" horiz-adv-x="621" d="M262 419 Q309 419 339.5 426 Q370 433 388 447 Q406 461 413 481 Q420 501 420 527 Q420 571 395.5 597.5 Q371 624 307 624 Q242 624 214.5 598.5 Q187 573 180 519 L53 519 Q55 569 75.5 608.5 Q96 648 131 675 Q166 702 212.5 716 Q259 730 314 730 Q374 730 420.5 716 Q467 702 499 677.5 Q531 653 547.5 618.5 Q564 584 564 543 Q564 465 519 423 Q474 381 388 369 Q479 363 526.5 320 Q574 277 574 199 Q574 152 554.5 113 Q535 74 500 46.5 Q465 19 416 4 Q367 -11 307 -11 Q252 -11 205 4 Q158 19 123.5 46.5 Q89 74 68.5 113.5 Q48 153 46 202 L175 202 Q183 147 214 121.5 Q245 96 310 96 Q370 96 400.5 125.5 Q431 155 431 203 Q431 230 423.5 251.5 Q416 273 396.5 288 Q377 303 344.5 310.5 Q312 318 262 318 L262 419 Z " />
<glyph glyph-name="four" unicode="4" horiz-adv-x="621" d="M353 0 L353 186 L39 186 L39 299 L323 720 L489 720 L489 298 L588 298 L588 186 L489 186 L489 0 L353 0 Z M353 582 L160 298 L353 298 L353 582 Z " />
<glyph glyph-name="five" unicode="5" horiz-adv-x="621" d="M528 720 L528 608 L213 608 L205 460 Q231 465 261 468 Q291 471 324 471 Q378 471 424 455.5 Q470 440 504 411 Q538 382 557.5 339 Q577 296 577 242 Q577 185 556.5 138.5 Q536 92 499.5 59 Q463 26 412.5 7.5 Q362 -11 301 -11 Q247 -11 202 3 Q157 17 124 44.5 Q91 72 72.5 112 Q54 152 52 204 L175 204 Q180 148 211 121.5 Q242 95 306 95 Q366 95 401 132.5 Q436 170 436 231 Q436 295 401 330 Q366 365 283 365 Q236 365 180.5 361 Q125 357 73 347 L98 720 L528 720 Z " />
<glyph glyph-name="six" unicode="6" horiz-adv-x="621" d="M336 730 Q386 730 429 715 Q472 700 504 673.5 Q536 647 555 610 Q574 573 576 529 L449 529 Q441 579 411.5 602.5 Q382 626 334 626 Q259 626 221.5 565 Q184 504 179 393 Q208 428 251.5 450 Q295 472 353 472 Q412 472 455 453 Q498 434 526 402.5 Q554 371 567.5 331 Q581 291 581 248 Q581 199 564.5 152.5 Q548 106 515.5 69.5 Q483 33 434 11 Q385 -11 319 -11 Q252 -11 200 13.5 Q148 38 112 84.5 Q76 131 57.5 198 Q39 265 39 350 Q39 435 58.5 505 Q78 575 116 625 Q154 675 209 702.5 Q264 730 336 730 Z M181 301 Q186 210 220 157.5 Q254 105 325 105 Q388 105 417 142 Q446 179 446 238 Q446 265 439.5 289 Q433 313 419 331.5 Q405 350 381 360.5 Q357 371 323 371 Q279 371 243 352.5 Q207 334 181 301 Z " />
<glyph glyph-name="seven" unicode="7" horiz-adv-x="621" d="M159 0 L426 608 L57 608 L57 720 L563 720 L563 608 L309 0 L159 0 Z " />
<glyph glyph-name="eight" unicode="8" horiz-adv-x="621" d="M310 619 Q251 619 224.5 592 Q198 565 198 523 Q198 469 228.5 444.5 Q259 420 310 420 Q361 420 391 444.5 Q421 469 421 523 Q421 565 394.5 592 Q368 619 310 619 Z M310 319 Q283 319 260 313.5 Q237 308 219.5 295 Q202 282 192 261.5 Q182 241 182 211 Q182 163 213 133 Q244 103 310 103 Q376 103 407.5 133 Q439 163 439 211 Q439 241 429 261.5 Q419 282 401.5 295 Q384 308 360.5 313.5 Q337 319 310 319 Z M310 730 Q371 730 417.5 715 Q464 700 495 673.5 Q526 647 541.5 612 Q557 577 557 537 Q557 475 519.5 431 Q482 387 407 374 Q482 367 527 317 Q572 267 572 190 Q572 98 506 43.5 Q440 -11 310 -11 Q180 -11 113.5 43.5 Q47 98 47 190 Q47 228 59 260 Q71 292 93 315.5 Q115 339 145.5 353 Q176 367 214 370 Q144 384 103.5 429.5 Q63 475 63 538 Q63 578 78.5 613 Q94 648 125 674 Q156 700 202 715 Q248 730 310 730 Z " />
<glyph glyph-name="nine" unicode="9" horiz-adv-x="621" d="M302 730 Q369 730 421 705.5 Q473 681 508.5 635 Q544 589 562.5 521.5 Q581 454 581 369 Q581 284 561.5 214 Q542 144 504 94 Q466 44 410.5 16.5 Q355 -11 284 -11 Q234 -11 191 2.5 Q148 16 116 42 Q84 68 65 105.5 Q46 143 44 191 L170 191 Q174 141 205.5 117.5 Q237 94 285 94 Q361 94 398.5 155 Q436 216 441 326 Q412 291 368.5 269.5 Q325 248 268 248 Q209 248 165.5 267 Q122 286 94 317 Q66 348 52.5 388.5 Q39 429 39 471 Q39 520 55.5 567 Q72 614 104.5 650 Q137 686 186.5 708 Q236 730 302 730 Z M295 615 Q233 615 203.5 578 Q174 541 174 481 Q174 454 180.5 430 Q187 406 201.5 388 Q216 370 239.5 359.5 Q263 349 297 349 Q341 349 377 367.5 Q413 386 439 419 Q434 509 400 562 Q366 615 295 615 Z " />
<glyph glyph-name="onequarter" unicode="&#xbc;" horiz-adv-x="869" d="M89 362 L89 444 L172 444 L172 642 L78 582 L39 652 L175 737 L281 737 L281 444 L348 444 L348 362 L89 362 Z M753 373 L753 163 L809 163 L809 82 L753 82 L753 0 L652 0 L652 82 L472 82 L472 158 L634 373 L753 373 Z M563 163 L652 163 L652 283 L563 163 Z M104 0 L681 735 L814 735 L236 0 L104 0 Z " />
<glyph glyph-name="onehalf" unicode="&#xbd;" horiz-adv-x="869" d="M87 362 L87 444 L170 444 L170 642 L76 582 L37 652 L173 737 L279 737 L279 444 L346 444 L346 362 L87 362 Z M677 380 Q753 380 790.5 347 Q828 314 828 265 Q828 241 820.5 219 Q813 197 794.5 175.5 Q776 154 745 131 Q714 108 667 82 L829 82 L829 0 L506 0 L506 70 Q568 104 607.5 130.5 Q647 157 670 177.5 Q693 198 702 214.5 Q711 231 711 247 Q711 268 700 282 Q689 296 663 296 Q635 296 621.5 281.5 Q608 267 604 238 L505 238 Q510 301 554 340.5 Q598 380 677 380 Z M102 0 L679 735 L812 735 L234 0 L102 0 Z " />
<glyph glyph-name="threequarters" unicode="&#xbe;" horiz-adv-x="869" d="M730 373 L730 163 L786 163 L786 82 L730 82 L730 0 L629 0 L629 82 L449 82 L449 158 L611 373 L730 373 Z M540 163 L629 163 L629 283 L540 163 Z M227 742 Q302 742 339 714.5 Q376 687 376 642 Q376 606 354.5 584 Q333 562 292 553 Q336 546 359.5 523 Q383 500 383 463 Q383 413 341 384 Q299 355 222 355 Q151 355 108 388.5 Q65 422 63 479 L166 479 Q170 452 183.5 440.5 Q197 429 224 429 Q251 429 262.5 441 Q274 453 274 472 Q274 495 258 506.5 Q242 518 199 518 L199 584 Q239 584 254 594 Q269 604 269 627 Q269 647 258.5 657.5 Q248 668 223 668 Q197 668 185 657.5 Q173 647 170 621 L68 621 Q70 677 113 709.5 Q156 742 227 742 Z M93 0 L670 735 L803 735 L225 0 L93 0 Z " />
<glyph glyph-name="onethird" unicode="&#x2153;" horiz-adv-x="869" d="M77 362 L77 444 L160 444 L160 642 L66 582 L27 652 L163 737 L269 737 L269 444 L336 444 L336 362 L77 362 Z M671 380 Q746 380 783 352.5 Q820 325 820 280 Q820 244 798.5 222 Q777 200 736 191 Q780 184 803.5 161 Q827 138 827 101 Q827 51 785 22 Q743 -7 666 -7 Q595 -7 552 26.5 Q509 60 507 117 L610 117 Q614 90 627.5 78.5 Q641 67 668 67 Q695 67 706.5 79 Q718 91 718 110 Q718 133 702 144.5 Q686 156 643 156 L643 222 Q683 222 698 232 Q713 242 713 265 Q713 285 702.5 295.5 Q692 306 667 306 Q641 306 629 295.5 Q617 285 614 259 L512 259 Q514 315 557 347.5 Q600 380 671 380 Z M98 0 L675 735 L808 735 L230 0 L98 0 Z " />
<glyph glyph-name="rupee" unicode="&#x20a8;" horiz-adv-x="621" d="M570 720 L570 633 L435 633 Q459 615 472 585 Q485 555 487 523 L570 523 L570 436 L476 436 Q463 379 424.5 344.5 Q386 310 320 302 Q356 297 387 286.5 Q418 276 441 245.5 Q464 215 477.5 157.5 Q491 100 491 0 L349 0 Q349 77 339.5 124 Q330 171 312.5 196.5 Q295 222 270 230 Q245 238 213 238 L51 238 L51 348 L229 348 Q279 348 302.5 373 Q326 398 331 436 L51 436 L51 523 L333 523 Q328 558 304 583.5 Q280 609 232 609 L51 609 L51 720 L570 720 Z " />
<glyph glyph-name="dollar" unicode="&#x24;" horiz-adv-x="628" d="M273 -94 L273 -9 Q217 -5 173.5 13.5 Q130 32 99 61 Q68 90 50.5 129 Q33 168 30 213 L165 213 Q170 171 194.5 142 Q219 113 273 105 L273 310 Q231 318 189 329 Q147 340 113.5 361.5 Q80 383 59.5 418 Q39 453 39 509 Q39 551 54 588 Q69 625 98 654.5 Q127 684 171 703 Q215 722 273 728 L273 807 L352 807 L352 728 Q407 723 449.5 705 Q492 687 522 658.5 Q552 630 570 592 Q588 554 593 510 L460 510 Q453 551 429.5 578 Q406 605 352 613 L352 421 Q395 413 439 402 Q483 391 518.5 370 Q554 349 576 314 Q598 279 598 224 Q598 178 581.5 137.5 Q565 97 533.5 66.5 Q502 36 456.5 16 Q411 -4 352 -9 L352 -94 L273 -94 Z M462 202 Q462 244 430.5 264 Q399 284 352 295 L352 104 Q413 112 437.5 140 Q462 168 462 202 Z M172 520 Q172 483 200.5 465.5 Q229 448 273 437 L273 613 Q243 609 223.5 600 Q204 591 192.5 578.5 Q181 566 176.5 551 Q172 536 172 520 Z " />
<glyph glyph-name="cent" unicode="&#xa2;" horiz-adv-x="612" d="M280 7 L280 105 Q179 118 124.5 188 Q70 258 70 376 Q70 434 85 481 Q100 528 127 562.5 Q154 597 193 618.5 Q232 640 280 646 L280 729 L347 729 L347 648 Q430 640 484.5 588.5 Q539 537 551 447 L426 447 Q420 478 401 504 Q382 530 347 538 L347 212 Q382 221 400.5 247.5 Q419 274 426 306 L551 306 Q539 215 484.5 163 Q430 111 347 104 L347 7 L280 7 Z M194 376 Q194 313 214.5 270 Q235 227 280 214 L280 537 Q233 524 213.5 481.5 Q194 439 194 376 Z " />
<glyph glyph-name="sterling" unicode="&#xa3;" horiz-adv-x="628" d="M236 298 Q241 251 233.5 203 Q226 155 193 102 L554 102 L554 0 L60 0 L60 102 Q97 158 102 205.5 Q107 253 98 298 L25 298 L25 368 L81 368 Q73 397 67 429 Q61 461 61 496 Q61 541 77 583 Q93 625 126 658 Q159 691 209.5 710.5 Q260 730 329 730 Q387 730 432.5 715 Q478 700 510.5 672.5 Q543 645 561.5 607 Q580 569 585 523 L451 523 Q446 566 418.5 591 Q391 616 326 616 Q289 616 266 605.5 Q243 595 230 579 Q217 563 212 543.5 Q207 524 207 505 Q207 469 212.5 435 Q218 401 225 368 L429 368 L429 298 L236 298 Z " />
<glyph glyph-name="yen" unicode="&#xa5;" horiz-adv-x="615" d="M379 304 L379 213 L484 213 L484 141 L379 141 L379 0 L236 0 L236 141 L132 141 L132 213 L236 213 L236 304 L67 304 L67 376 L196 376 L-15 720 L152 720 L313 440 L475 720 L630 720 L419 376 L550 376 L550 304 L379 304 Z " />
<glyph glyph-name="florin" unicode="&#x192;" horiz-adv-x="527" d="M378 743 Q397 743 417 741 Q437 739 458 735 L458 624 Q439 629 423 631.5 Q407 634 394 634 Q320 634 320 562 L320 525 L458 525 L458 422 L320 422 L320 -38 Q320 -85 305.5 -119.5 Q291 -154 265.5 -177 Q240 -200 205 -211 Q170 -222 128 -222 Q110 -222 90 -219.5 Q70 -217 47 -212 L47 -102 Q86 -111 112 -111 Q185 -111 185 -38 L185 422 L111 422 L111 525 L185 525 L185 560 Q185 607 199.5 641.5 Q214 676 240 698.5 Q266 721 301.5 732 Q337 743 378 743 Z " />
<glyph glyph-name="Euro" unicode="&#x20ac;" horiz-adv-x="648" d="M193 405 Q192 394 192 382.5 Q192 371 192 359 Q192 344 192.5 330 Q193 316 194 303 L383 303 L358 231 L208 231 Q225 173 264 140.5 Q303 108 368 108 Q436 108 473 138.5 Q510 169 523 223 L657 223 Q649 169 626.5 126 Q604 83 568 52 Q532 21 482.5 4.5 Q433 -12 370 -12 Q310 -12 260.5 5.5 Q211 23 172.5 55.5 Q134 88 107.5 132.5 Q81 177 67 231 L-11 231 L14 303 L55 303 Q52 330 52 359 Q52 370 52.5 382 Q53 394 54 405 L-11 405 L14 476 L65 476 Q78 532 104.5 578.5 Q131 625 169.5 658.5 Q208 692 258 710.5 Q308 729 370 729 Q495 729 568 665.5 Q641 602 657 494 L523 494 Q510 548 473 579 Q436 610 368 610 Q300 610 261 574.5 Q222 539 205 476 L451 476 L426 405 L193 405 Z " />
<glyph glyph-name="numbersign" unicode="&#x23;" horiz-adv-x="716" d="M163 0 L163 188 L68 188 L68 286 L163 286 L163 447 L68 447 L68 546 L163 546 L163 735 L288 735 L288 546 L429 546 L429 735 L554 735 L554 546 L648 546 L648 447 L554 447 L554 286 L648 286 L648 188 L554 188 L554 0 L429 0 L429 188 L288 188 L288 0 L163 0 Z M288 286 L429 286 L429 447 L288 447 L288 286 Z " />
<glyph glyph-name="currency" unicode="&#xa4;" horiz-adv-x="760" d="M380 631 Q423 631 458 619 Q493 607 520 585 L649 714 L728 635 L592 498 Q618 441 618 366 Q618 290 593 232 L728 96 L649 16 L521 143 Q493 122 458.5 110.5 Q424 99 380 99 Q294 99 238 144 L111 16 L31 97 L166 231 Q141 288 141 366 Q141 404 147 437 Q153 470 166 498 L31 634 L111 714 L238 586 Q265 607 300.5 619 Q336 631 380 631 Z M380 515 Q324 515 298 474 Q272 433 272 366 Q272 297 298 256.5 Q324 216 380 216 Q435 216 461 256.5 Q487 297 487 366 Q487 433 461 474 Q435 515 380 515 Z " />
<glyph glyph-name="percent" unicode="&#x25;" horiz-adv-x="921" d="M227 646 Q191 646 171 620 Q151 594 151 539 Q151 485 171.5 458 Q192 431 227 431 Q305 431 305 538 Q305 592 284 619 Q263 646 227 646 Z M227 745 Q269 745 303 730 Q337 715 361 688 Q385 661 398 623 Q411 585 411 539 Q411 493 398.5 454.5 Q386 416 362 388.5 Q338 361 304.5 345.5 Q271 330 229 330 Q187 330 153 345 Q119 360 95 387 Q71 414 58 452 Q45 490 45 536 Q45 582 58 620 Q71 658 94.5 686 Q118 714 151.5 729.5 Q185 745 227 745 Z M822 735 L246 0 L99 0 L674 735 L822 735 Z M692 306 Q655 306 635 279.5 Q615 253 615 198 Q615 144 636 117 Q657 90 692 90 Q769 90 769 197 Q769 251 748.5 278.5 Q728 306 692 306 Z M692 404 Q734 404 768 389 Q802 374 825.5 347 Q849 320 862 282 Q875 244 875 198 Q875 152 862.5 113.5 Q850 75 826 47.5 Q802 20 768.5 4.5 Q735 -11 693 -11 Q651 -11 617 4 Q583 19 559 46 Q535 73 522 111 Q509 149 509 196 Q509 242 522 280 Q535 318 558.5 345.5 Q582 373 616 388.5 Q650 404 692 404 Z " />
<glyph glyph-name="perthousand" unicode="&#x2030;" horiz-adv-x="1321" d="M227 646 Q191 646 171 620 Q151 594 151 539 Q151 485 171.5 458 Q192 431 227 431 Q305 431 305 538 Q305 592 284 619 Q263 646 227 646 Z M227 745 Q269 745 303 730 Q337 715 361 688 Q385 661 398 623 Q411 585 411 539 Q411 493 398.5 454.5 Q386 416 362 388.5 Q338 361 304.5 345.5 Q271 330 229 330 Q187 330 153 345 Q119 360 95 387 Q71 414 58 452 Q45 490 45 536 Q45 582 58 620 Q71 658 94.5 686 Q118 714 151.5 729.5 Q185 745 227 745 Z M822 735 L246 0 L99 0 L674 735 L822 735 Z M692 306 Q655 306 635 279.5 Q615 253 615 198 Q615 144 636 117 Q657 90 692 90 Q769 90 769 197 Q769 251 748.5 278.5 Q728 306 692 306 Z M692 404 Q734 404 768 389 Q802 374 825.5 347 Q849 320 862 282 Q875 244 875 198 Q875 152 862.5 113.5 Q850 75 826 47.5 Q802 20 768.5 4.5 Q735 -11 693 -11 Q651 -11 617 4 Q583 19 559 46 Q535 73 522 111 Q509 149 509 196 Q509 242 522 280 Q535 318 558.5 345.5 Q582 373 616 388.5 Q650 404 692 404 Z M1092 306 Q1055 306 1035 279.5 Q1015 253 1015 198 Q1015 144 1036 117 Q1057 90 1092 90 Q1170 90 1170 197 Q1170 251 1149 278.5 Q1128 306 1092 306 Z M1092 404 Q1134 404 1168 389 Q1202 374 1226 347 Q1250 320 1263 282 Q1276 244 1276 198 Q1276 152 1263.5 113.5 Q1251 75 1227 47.5 Q1203 20 1169.5 4.5 Q1136 -11 1094 -11 Q1052 -11 1017.5 4 Q983 19 959 46 Q935 73 922 111 Q909 149 909 196 Q909 242 922 280 Q935 318 959 345.5 Q983 373 1016.5 388.5 Q1050 404 1092 404 Z " />
<glyph glyph-name="fraction" unicode="&#x2044;" horiz-adv-x="710" d="M0 0 L577 735 L710 735 L132 0 L0 0 Z " />
<glyph glyph-name="asciicircum" unicode="&#x5e;" horiz-adv-x="634" d="M580 481 L501 401 L316 587 L132 402 L52 482 L316 746 L580 481 Z " />
<glyph glyph-name="asciitilde" unicode="&#x7e;" horiz-adv-x="634" d="M211 667 Q250 667 280 655 Q310 643 334.5 628 Q359 613 380.5 601 Q402 589 423 589 Q450 589 465 602 Q480 615 488 650 L571 605 Q557 533 516 501 Q475 469 421 469 Q385 469 358 481 Q331 493 307 508 Q283 523 260 535 Q237 547 209 547 Q183 547 167.5 533.5 Q152 520 144 485 L62 531 Q76 603 117 635 Q158 667 211 667 Z " />
<glyph glyph-name="periodcentered" unicode="&#xb7;" horiz-adv-x="619" d="M376 404 L376 270 L242 270 L242 404 L376 404 Z " />
<glyph glyph-name="plus" unicode="&#x2b;" horiz-adv-x="634" d="M372 387 L585 387 L585 275 L372 275 L372 63 L260 63 L260 275 L48 275 L48 387 L260 387 L260 599 L372 599 L372 387 Z " />
<glyph glyph-name="multiply" unicode="&#xd7;" horiz-adv-x="634" d="M316 410 L501 596 L580 516 L395 331 L580 146 L501 66 L316 251 L132 67 L52 146 L236 330 L52 515 L132 595 L316 410 Z " />
<glyph glyph-name="plusminus" unicode="&#xb1;" horiz-adv-x="634" d="M372 512 L585 512 L585 400 L372 400 L372 188 L260 188 L260 400 L48 400 L48 512 L260 512 L260 724 L372 724 L372 512 Z M48 24 L48 136 L585 136 L585 24 L48 24 Z " />
<glyph glyph-name="less" unicode="&#x3c;" horiz-adv-x="634" d="M204 333 L574 131 L520 33 L59 290 L59 377 L520 634 L574 536 L204 333 Z " />
<glyph glyph-name="equal" unicode="&#x3d;" horiz-adv-x="634" d="M48 149 L48 261 L585 261 L585 149 L48 149 Z M48 401 L48 514 L585 514 L585 401 L48 401 Z " />
<glyph glyph-name="greater" unicode="&#x3e;" horiz-adv-x="619" d="M428 334 L59 536 L113 634 L574 377 L574 290 L113 33 L59 131 L428 334 Z " />
<glyph glyph-name="approxequal" unicode="&#x2248;" horiz-adv-x="619" d="M211 559 Q250 559 280 547 Q310 535 334.5 520 Q359 505 380.5 493 Q402 481 423 481 Q450 481 465 494.5 Q480 508 488 543 L571 496 Q557 424 516 392.5 Q475 361 421 361 Q385 361 358 373 Q331 385 307 400 Q283 415 260 427 Q237 439 209 439 Q183 439 167.5 425 Q152 411 144 377 L62 423 Q76 495 117 527 Q158 559 211 559 Z M211 291 Q250 291 280 279 Q310 267 334.5 252 Q359 237 380.5 225 Q402 213 423 213 Q450 213 465 226 Q480 239 488 274 L571 229 Q557 156 516 124.5 Q475 93 421 93 Q385 93 358 105 Q331 117 307 132 Q283 147 260 159 Q237 171 209 171 Q183 171 167.5 157 Q152 143 144 108 L62 154 Q76 226 117 258.5 Q158 291 211 291 Z " />
<glyph glyph-name="notequal" unicode="&#x2260;" horiz-adv-x="634" d="M285 149 L226 37 L107 37 L166 149 L48 149 L48 261 L225 261 L299 401 L48 401 L48 514 L359 514 L414 617 L533 617 L478 514 L585 514 L585 401 L418 401 L344 261 L585 261 L585 149 L285 149 Z " />
<glyph glyph-name="lessequal" unicode="&#x2264;" horiz-adv-x="634" d="M216 459 L565 272 L511 172 L71 416 L71 503 L511 746 L565 648 L216 459 Z M48 13 L48 125 L585 125 L585 13 L48 13 Z " />
<glyph glyph-name="greaterequal" unicode="&#x2265;" horiz-adv-x="619" d="M420 459 L71 648 L125 746 L565 503 L565 416 L125 172 L71 272 L420 459 Z M48 13 L48 125 L585 125 L585 13 L48 13 Z " />
<glyph glyph-name="divide" unicode="&#xf7;" horiz-adv-x="634" d="M48 275 L48 387 L585 387 L585 275 L48 275 Z M383 181 L383 42 L249 42 L249 181 L383 181 Z M383 633 L383 494 L249 494 L249 633 L383 633 Z " />
<glyph glyph-name="minus" unicode="&#x2212;" horiz-adv-x="634" d="M48 275 L48 387 L585 387 L585 275 L48 275 Z " />
<glyph glyph-name="partialdiff" unicode="&#x2202;" horiz-adv-x="634" d="M251 745 Q326 745 389 717.5 Q452 690 497.5 639.5 Q543 589 568 518.5 Q593 448 593 361 Q593 181 519.5 85 Q446 -11 308 -11 Q241 -11 190.5 10 Q140 31 106.5 66.5 Q73 102 56.5 148.5 Q40 195 40 247 Q40 292 54 336 Q68 380 96.5 414.5 Q125 449 169 470.5 Q213 492 273 492 Q332 492 376.5 468 Q421 444 450 406 Q445 518 388 579 Q331 640 226 640 L251 745 Z M303 389 Q268 389 244 377 Q220 365 205.5 345 Q191 325 184.5 299 Q178 273 178 244 Q178 181 208 144 Q238 107 301 107 Q374 107 408.5 159.5 Q443 212 448 309 Q421 346 384.5 367.5 Q348 389 303 389 Z " />
<glyph glyph-name="product" unicode="&#x220f;" horiz-adv-x="697" d="M482 0 L482 608 L214 608 L214 0 L77 0 L77 720 L618 720 L618 0 L482 0 Z " />
<glyph glyph-name="summation" unicode="&#x2211;" horiz-adv-x="620" d="M583 720 L583 608 L212 608 L403 376 L203 113 L590 113 L590 0 L39 0 L39 113 L239 376 L48 607 L48 720 L583 720 Z " />
<glyph glyph-name="radical" unicode="&#x221a;" horiz-adv-x="697" d="M283 0 L141 412 L14 412 L14 525 L239 525 L366 143 L571 735 L697 735 L444 0 L283 0 Z " />
<glyph glyph-name="infinity" unicode="&#x221e;" horiz-adv-x="834" d="M587 480 Q546 480 521 452.5 Q496 425 477 388 Q487 361 497.5 337.5 Q508 314 521.5 296.5 Q535 279 552.5 269 Q570 259 593 259 Q632 259 654 286 Q676 313 676 370 Q676 425 652.5 452.5 Q629 480 587 480 Z M251 617 Q287 617 315 606.5 Q343 596 365 578 Q387 560 404 535.5 Q421 511 435 483 Q464 542 504 579.5 Q544 617 604 617 Q686 617 733.5 554 Q781 491 781 370 Q781 309 765.5 262 Q750 215 723 183.5 Q696 152 660 135.5 Q624 119 584 119 Q548 119 519.5 129.5 Q491 140 469 159 Q447 178 430 202.5 Q413 227 399 256 Q385 227 368 202 Q351 177 330.5 158.5 Q310 140 285 129.5 Q260 119 230 119 Q148 119 100 182 Q52 245 52 367 Q52 428 67.5 474.5 Q83 521 110 552.5 Q137 584 173.5 600.5 Q210 617 251 617 Z M240 477 Q201 477 179.5 450 Q158 423 158 367 Q158 311 181.5 284 Q205 257 247 257 Q268 257 284 264.5 Q300 272 313 284.5 Q326 297 336.5 313.5 Q347 330 357 348 Q347 375 336 398.5 Q325 422 311.5 439.5 Q298 457 281 467 Q264 477 240 477 Z " />
<glyph glyph-name="integral" unicode="&#x222b;" horiz-adv-x="631" d="M250 556 Q250 655 310 703.5 Q370 752 489 738 L489 622 Q439 630 408 614.5 Q377 599 377 551 L377 -36 Q377 -134 317 -183 Q257 -232 139 -217 L139 -102 Q188 -110 219 -96.5 Q250 -83 250 -36 L250 556 Z " />
<glyph glyph-name="lozenge" unicode="&#x25ca;" horiz-adv-x="514" d="M336 -222 L175 -222 L12 256 L178 735 L339 735 L501 257 L336 -222 Z M258 -79 L372 244 L256 592 L142 268 L258 -79 Z " />
<glyph glyph-name="logicalnot" unicode="&#xac;" horiz-adv-x="634" d="M445 0 L445 275 L48 275 L48 387 L585 387 L585 0 L445 0 Z " />
<glyph glyph-name="estimated" unicode="&#x212e;" horiz-adv-x="756" d="M396 730 Q472 730 531 705.5 Q590 681 630.5 634.5 Q671 588 693 520.5 Q715 453 717 368 L207 368 L207 360 Q207 306 218 261 Q229 216 252.5 184 Q276 152 311.5 134 Q347 116 395 116 Q464 116 501 146.5 Q538 177 553 231 L700 231 Q691 177 667 132.5 Q643 88 604.5 56 Q566 24 513.5 6.5 Q461 -11 396 -11 Q317 -11 253.5 17.5 Q190 46 145.5 96 Q101 146 77 213.5 Q53 281 53 360 Q53 438 77 506 Q101 574 145.5 623.5 Q190 673 253.5 701.5 Q317 730 396 730 Z M390 612 Q321 612 280.5 575.5 Q240 539 222 478 L547 478 Q540 536 501 574 Q462 612 390 612 Z " />
<glyph glyph-name="litre" unicode="&#x2113;" horiz-adv-x="454" d="M285 744 Q324 744 350.5 734 Q377 724 393.5 707.5 Q410 691 417 670 Q424 649 424 628 Q424 592 410 556 Q396 520 371 486 Q346 452 311 419.5 Q276 387 234 358 L234 126 Q234 107 241.5 99.5 Q249 92 263 92 Q281 92 295.5 109 Q310 126 312 161 L425 161 Q407 72 362.5 30.5 Q318 -11 243 -11 Q204 -11 178 -1 Q152 9 136.5 27.5 Q121 46 114 71 Q107 96 107 126 L107 286 Q93 279 80.5 273 Q68 267 54 262 L22 340 Q45 350 66 360 Q87 370 107 381 L107 560 Q107 604 120.5 638.5 Q134 673 158 696.5 Q182 720 214.5 732 Q247 744 285 744 Z M234 472 Q273 511 290 545.5 Q307 580 307 605 Q307 624 299 632.5 Q291 641 277 641 Q234 641 234 569 L234 472 Z " />
<glyph glyph-name="bar" unicode="&#x7c;" horiz-adv-x="363" d="M111 -222 L111 735 L251 735 L251 -222 L111 -222 Z " />
<glyph glyph-name="brokenbar" unicode="&#xa6;" horiz-adv-x="363" d="M111 397 L111 735 L251 735 L251 397 L111 397 Z M111 -222 L111 117 L251 117 L251 -222 L111 -222 Z " />
<glyph glyph-name="degree" unicode="&#xb0;" horiz-adv-x="457" d="M227 646 Q191 646 171 620 Q151 594 151 539 Q151 485 171.5 458 Q192 431 227 431 Q305 431 305 538 Q305 592 284 619 Q263 646 227 646 Z M227 745 Q269 745 303 730 Q337 715 361 688 Q385 661 398 623 Q411 585 411 539 Q411 493 398.5 454.5 Q386 416 362 388.5 Q338 361 304.5 345.5 Q271 330 229 330 Q187 330 153 345 Q119 360 95 387 Q71 414 58 452 Q45 490 45 536 Q45 582 58 620 Q71 658 94.5 686 Q118 714 151.5 729.5 Q185 745 227 745 Z " />
<glyph glyph-name="minute" unicode="&#x2032;" horiz-adv-x="216" d="M71 503 L38 759 L177 759 L145 503 L71 503 Z " />
<glyph glyph-name="second" unicode="&#x2033;" horiz-adv-x="400" d="M71 503 L38 759 L177 759 L145 503 L71 503 Z M256 503 L222 759 L361 759 L330 503 L256 503 Z " />
<glyph glyph-name="ordfeminine" unicode="&#xaa;" horiz-adv-x="566" d="M290 756 Q350 756 389.5 743 Q429 730 453 707.5 Q477 685 487 653.5 Q497 622 497 586 L497 221 L363 221 L363 305 Q341 259 302.5 236 Q264 213 201 213 Q126 213 83 252 Q40 291 40 358 Q40 447 104.5 495 Q169 543 315 543 Q326 543 339 542.5 Q352 542 363 541 L363 586 Q363 618 346 636.5 Q329 655 282 655 Q233 655 209 638.5 Q185 622 180 588 L55 588 Q65 669 125 712.5 Q185 756 290 756 Z M319 458 Q250 458 214 440 Q178 422 178 379 Q178 316 245 316 Q296 316 329.5 346.5 Q363 377 363 429 L363 457 Q352 458 341 458 Q330 458 319 458 Z " />
<glyph glyph-name="ordmasculine" unicode="&#xba;" horiz-adv-x="543" d="M280 644 Q224 644 197 603 Q170 562 170 485 Q170 405 197 363.5 Q224 322 280 322 Q335 322 362.5 363.5 Q390 405 390 485 Q390 562 362.5 603 Q335 644 280 644 Z M280 756 Q334 756 379.5 737.5 Q425 719 457 684 Q489 649 507 599 Q525 549 525 485 Q525 420 507 369 Q489 318 457 282.5 Q425 247 379.5 228.5 Q334 210 280 210 Q225 210 180 228.5 Q135 247 102.5 282.5 Q70 318 52.5 369 Q35 420 35 485 Q35 549 52.5 599 Q70 649 102.5 684 Q135 719 180 737.5 Q225 756 280 756 Z " />
<glyph glyph-name="underscore" unicode="&#x5f;" horiz-adv-x="634" d="M39 -174 L39 -61 L594 -61 L594 -174 L39 -174 Z " />
<glyph glyph-name="emdash" unicode="&#x2014;" horiz-adv-x="1038" d="M54 274 L54 387 L984 387 L984 274 L54 274 Z " />
<glyph glyph-name="endash" unicode="&#x2013;" horiz-adv-x="663" d="M54 274 L54 387 L610 387 L610 274 L54 274 Z " />
<glyph glyph-name="hyphen" unicode="&#x2d;" horiz-adv-x="367" d="M52 274 L52 387 L314 387 L314 274 L52 274 Z " />
<glyph glyph-name="guillemotleft" unicode="&#xab;" horiz-adv-x="651" d="M334 472 L172 289 L334 105 L277 47 L52 242 L52 335 L277 530 L334 472 Z M599 472 L436 289 L599 105 L542 47 L316 242 L316 335 L542 530 L599 472 Z " />
<glyph glyph-name="guilsinglleft" unicode="&#x2039;" horiz-adv-x="387" d="M334 472 L172 289 L334 105 L277 47 L52 242 L52 335 L277 530 L334 472 Z " />
<glyph glyph-name="guilsinglright" unicode="&#x203a;" horiz-adv-x="387" d="M334 335 L334 242 L110 47 L52 105 L216 289 L52 472 L110 530 L334 335 Z " />
<glyph glyph-name="guillemotright" unicode="&#xbb;" horiz-adv-x="651" d="M599 335 L599 242 L374 47 L316 105 L479 289 L316 472 L374 530 L599 335 Z M334 335 L334 242 L110 47 L52 105 L216 289 L52 472 L110 530 L334 335 Z " />
<glyph glyph-name="quotesingle" unicode="&#x27;" horiz-adv-x="216" d="M71 503 L38 759 L177 759 L145 503 L71 503 Z " />
<glyph glyph-name="quotedbl" unicode="&#x22;" horiz-adv-x="400" d="M71 503 L38 759 L177 759 L145 503 L71 503 Z M256 503 L222 759 L361 759 L330 503 L256 503 Z " />
<glyph glyph-name="quotedblleft" unicode="&#x201c;" horiz-adv-x="426" d="M165 507 L37 507 L130 762 L210 762 L165 507 Z M342 507 L214 507 L308 762 L388 762 L342 507 Z " />
<glyph glyph-name="quotesinglbase" unicode="&#x201a;" horiz-adv-x="248" d="M82 123 L210 123 L117 -131 L37 -131 L82 123 Z " />
<glyph glyph-name="quotedblbase" unicode="&#x201e;" horiz-adv-x="426" d="M82 123 L210 123 L117 -131 L37 -131 L82 123 Z M259 123 L388 123 L294 -131 L214 -131 L259 123 Z " />
<glyph glyph-name="quotedblright" unicode="&#x201d;" horiz-adv-x="426" d="M82 759 L210 759 L117 503 L37 503 L82 759 Z M259 759 L388 759 L294 503 L214 503 L259 759 Z " />
<glyph glyph-name="quoteright" unicode="&#x2019;" horiz-adv-x="245" d="M82 759 L210 759 L117 503 L37 503 L82 759 Z " />
<glyph glyph-name="quoteleft" unicode="&#x2018;" horiz-adv-x="248" d="M166 507 L38 507 L132 762 L212 762 L166 507 Z " />
<glyph glyph-name="comma" unicode="&#x2c;" horiz-adv-x="265" d="M85 143 L226 143 L125 -152 L37 -152 L85 143 Z " />
<glyph glyph-name="period" unicode="&#x2e;" horiz-adv-x="261" d="M197 139 L197 0 L63 0 L63 139 L197 139 Z " />
<glyph glyph-name="colon" unicode="&#x3a;" horiz-adv-x="261" d="M197 139 L197 0 L63 0 L63 139 L197 139 Z M197 525 L197 385 L63 385 L63 525 L197 525 Z " />
<glyph glyph-name="semicolon" unicode="&#x3b;" horiz-adv-x="266" d="M197 525 L197 385 L63 385 L63 525 L197 525 Z M85 143 L226 143 L125 -152 L37 -152 L85 143 Z " />
<glyph glyph-name="ellipsis" unicode="&#x2026;" horiz-adv-x="981" d="M862 139 L862 0 L728 0 L728 139 L862 139 Z M253 139 L253 0 L119 0 L119 139 L253 139 Z M557 139 L557 0 L423 0 L423 139 L557 139 Z " />
<glyph glyph-name="question" unicode="&#x3f;" horiz-adv-x="584" d="M298 730 Q357 730 401 714.5 Q445 699 474 672 Q503 645 517.5 609.5 Q532 574 532 534 Q532 488 516 453.5 Q500 419 476.5 391.5 Q453 364 425.5 341 Q398 318 374.5 295 Q351 272 335 247 Q319 222 319 191 L194 191 Q194 236 209 270 Q224 304 247 332 Q270 360 296.5 383.5 Q323 407 346 430 Q369 453 384 478 Q399 503 399 534 Q399 550 393.5 565 Q388 580 375.5 591.5 Q363 603 343 610 Q323 617 295 617 Q237 617 213 591 Q189 565 182 516 L51 516 Q57 564 74.5 603.5 Q92 643 122.5 671 Q153 699 197 714.5 Q241 730 298 730 Z M320 128 L320 0 L191 0 L191 128 L320 128 Z " />
<glyph glyph-name="questiondown" unicode="&#xbf;" horiz-adv-x="584" d="M390 322 Q390 277 374.5 243 Q359 209 336.5 181.5 Q314 154 287 130.5 Q260 107 237.5 84 Q215 61 199.5 36 Q184 11 184 -20 Q184 -36 190 -51 Q196 -66 208.5 -78 Q221 -90 241 -97 Q261 -104 289 -104 Q318 -104 338 -97 Q358 -90 371 -77.5 Q384 -65 391 -46 Q398 -27 401 -3 L532 -3 Q527 -51 509 -90 Q491 -129 460.5 -157.5 Q430 -186 386.5 -201.5 Q343 -217 286 -217 Q227 -217 182.5 -201.5 Q138 -186 109 -159 Q80 -132 65.5 -96 Q51 -60 51 -20 Q51 26 67 60.5 Q83 95 107 122.5 Q131 150 158.5 173 Q186 196 210 219 Q234 242 250 266.5 Q266 291 266 322 L390 322 Z M392 514 L392 385 L263 385 L263 514 L392 514 Z " />
<glyph glyph-name="exclam" unicode="&#x21;" horiz-adv-x="343" d="M250 720 L233 198 L109 198 L92 720 L250 720 Z M236 128 L236 0 L107 0 L107 128 L236 128 Z " />
<glyph glyph-name="exclamdown" unicode="&#xa1;" horiz-adv-x="343" d="M233 316 L250 -206 L92 -206 L109 316 L233 316 Z M236 514 L236 385 L107 385 L107 514 L236 514 Z " />
<glyph glyph-name="parenleft" unicode="&#x28;" horiz-adv-x="386" d="M372 696 Q300 689 261 582.5 Q222 476 222 281 Q222 87 261 -19.5 Q300 -126 372 -132 L372 -222 Q309 -219 254.5 -182.5 Q200 -146 160 -81 Q120 -16 97 75.5 Q74 167 74 281 Q74 395 97 487 Q120 579 160 644 Q200 709 254.5 745.5 Q309 782 372 785 L372 696 Z " />
<glyph glyph-name="parenright" unicode="&#x29;" horiz-adv-x="386" d="M14 785 Q77 782 131.5 745.5 Q186 709 226 644 Q266 579 289 488 Q312 397 312 283 Q312 169 289 77 Q266 -15 226 -80.5 Q186 -146 131.5 -182.5 Q77 -219 14 -222 L14 -132 Q85 -126 124 -19 Q163 88 163 283 Q163 477 124 583 Q85 689 14 696 L14 785 L14 785 Z " />
<glyph glyph-name="bracketleft" unicode="&#x5b;" horiz-adv-x="375" d="M90 -222 L90 775 L351 775 L351 695 L218 695 L218 -142 L351 -142 L351 -222 L90 -222 Z " />
<glyph glyph-name="bracketright" unicode="&#x5d;" horiz-adv-x="375" d="M285 775 L285 -222 L24 -222 L24 -142 L157 -142 L157 695 L24 695 L24 775 L285 775 Z " />
<glyph glyph-name="braceleft" unicode="&#x7b;" horiz-adv-x="420" d="M389 696 Q353 696 331.5 686.5 Q310 677 298.5 660.5 Q287 644 283 621.5 Q279 599 279 573 Q279 535 285 488.5 Q291 442 291 404 Q291 352 268 322.5 Q245 293 203 285 Q246 276 269.5 244 Q293 212 293 157 Q293 119 287.5 74 Q282 29 282 -8 Q282 -35 285.5 -57.5 Q289 -80 300.5 -97 Q312 -114 333 -123.5 Q354 -133 389 -133 L382 -222 Q316 -222 272 -205.5 Q228 -189 201 -162 Q174 -135 162.5 -100 Q151 -65 151 -28 Q151 -12 152 8.5 Q153 29 154.5 51 Q156 73 157 93 Q158 113 158 127 Q158 175 143.5 202 Q129 229 92 229 L60 229 L60 335 L92 335 Q128 335 142.5 361.5 Q157 388 157 436 Q157 451 156 471 Q155 491 154 513 Q153 535 152 556 Q151 577 151 593 Q151 629 162.5 663.5 Q174 698 200.5 725 Q227 752 271.5 768.5 Q316 785 382 785 L389 696 Z " />
<glyph glyph-name="braceright" unicode="&#x7d;" horiz-adv-x="420" d="M39 785 Q104 785 148 768.5 Q192 752 218.5 725 Q245 698 256.5 663 Q268 628 268 591 Q268 575 267 554.5 Q266 534 265 512.5 Q264 491 263 471 Q262 451 262 436 Q262 388 276.5 361 Q291 334 328 334 L361 334 L361 228 L328 228 Q292 228 277.5 201.5 Q263 175 263 127 Q263 112 264 92 Q265 72 265.5 50 Q266 28 267 7.5 Q268 -13 268 -29 Q268 -66 257 -100.5 Q246 -135 219.5 -162 Q193 -189 149 -205.5 Q105 -222 39 -222 L31 -133 Q67 -133 88.5 -123.5 Q110 -114 121.5 -97.5 Q133 -81 137 -58.5 Q141 -36 141 -10 Q141 28 134.5 74 Q128 120 128 158 Q128 211 151.5 241 Q175 271 217 278 Q174 287 150.5 319 Q127 351 127 406 Q127 424 128.5 445.5 Q130 467 132.5 489 Q135 511 136.5 532 Q138 553 138 571 Q138 598 134.5 620.5 Q131 643 119.5 660 Q108 677 87 686.5 Q66 696 31 696 L39 785 Z " />
<glyph glyph-name="slash" unicode="&#x2f;" horiz-adv-x="528" d="M515 735 L153 0 L14 0 L375 735 L515 735 Z " />
<glyph glyph-name="backslash" unicode="&#x5c;" horiz-adv-x="496" d="M153 735 L515 0 L374 0 L14 735 L153 735 Z " />
<glyph glyph-name="asterisk" unicode="&#x2a;" horiz-adv-x="514" d="M309 735 L301 603 L430 650 L462 550 L330 518 L415 406 L330 344 L259 460 L183 344 L99 406 L189 518 L52 550 L85 650 L212 603 L202 735 L309 735 Z " />
<glyph glyph-name="bullet" unicode="&#x2022;" horiz-adv-x="415" d="M207 133 Q175 133 147.5 145 Q120 157 100 177.5 Q80 198 68 225.5 Q56 253 56 285 Q56 317 68 344.5 Q80 372 100 392.5 Q120 413 147.5 425 Q175 437 207 437 Q238 437 266 425 Q294 413 314 392.5 Q334 372 346 344.5 Q358 317 358 285 Q358 253 346 225.5 Q334 198 314 177.5 Q294 157 266 145 Q238 133 207 133 Z " />
<glyph glyph-name="section" unicode="&#xa7;" horiz-adv-x="630" d="M313 730 Q376 730 425.5 713.5 Q475 697 509.5 668 Q544 639 564.5 598.5 Q585 558 590 510 L451 510 Q445 558 413 587.5 Q381 617 312 617 Q281 617 260.5 611.5 Q240 606 227.5 596 Q215 586 210 572 Q205 558 205 542 Q205 512 234.5 496.5 Q264 481 308 469 Q352 457 403.5 444 Q455 431 499 407.5 Q543 384 572.5 344.5 Q602 305 602 241 Q602 196 582.5 159.5 Q563 123 532 97 Q551 77 561.5 51 Q572 25 572 -10 Q572 -51 556.5 -85.5 Q541 -120 510.5 -145 Q480 -170 435 -184.5 Q390 -199 331 -199 Q268 -199 218.5 -182.5 Q169 -166 134 -136.5 Q99 -107 79 -66.5 Q59 -26 53 23 L193 23 Q198 -26 230.5 -56 Q263 -86 331 -86 Q363 -86 384 -80.5 Q405 -75 417 -64.5 Q429 -54 434 -40.5 Q439 -27 439 -10 Q439 20 409 35.5 Q379 51 334.5 63 Q290 75 237.5 87.5 Q185 100 140.5 124 Q96 148 66 187 Q36 226 36 291 Q36 337 56 374.5 Q76 412 108 437 Q91 457 81.5 482.5 Q72 508 72 542 Q72 582 87.5 616.5 Q103 651 133.5 676 Q164 701 209 715.5 Q254 730 313 730 Z M479 221 Q479 262 449.5 285 Q420 308 376 323 Q332 338 280 350.5 Q228 363 183 384 Q172 369 165 350 Q158 331 158 311 Q158 270 187 247 Q216 224 260 209 Q304 194 356 181.5 Q408 169 454 149 Q465 163 472 181.5 Q479 200 479 221 Z " />
<glyph glyph-name="dagger" unicode="&#x2020;" horiz-adv-x="494" d="M328 735 L308 571 L473 591 L473 459 L308 478 L328 314 L196 314 L216 478 L52 459 L52 591 L216 571 L196 735 L328 735 Z " />
<glyph glyph-name="daggerdbl" unicode="&#x2021;" horiz-adv-x="526" d="M328 735 L308 571 L473 591 L473 459 L308 478 L308 257 L473 276 L473 145 L308 164 L328 0 L196 0 L216 164 L52 145 L52 276 L216 257 L216 478 L52 459 L52 591 L216 571 L196 735 L328 735 Z " />
<glyph glyph-name="paragraph" unicode="&#xb6;" horiz-adv-x="583" d="M519 525 L519 -32 Q519 -82 500 -119 Q481 -156 450.5 -180.5 Q420 -205 381.5 -217 Q343 -229 305 -229 L305 -122 Q323 -122 338.5 -118.5 Q354 -115 366 -106 Q378 -97 384.5 -81 Q391 -65 391 -38 L391 0 L269 0 Q212 0 168.5 22 Q125 44 95.5 81 Q66 118 50.5 166 Q35 214 35 266 Q35 317 50 364 Q65 411 93.5 447 Q122 483 164.5 504 Q207 525 262 525 L519 525 Z " />
<glyph glyph-name="copyright" unicode="&#xa9;" horiz-adv-x="865" d="M430 660 Q366 660 315.5 638.5 Q265 617 229.5 578 Q194 539 175.5 485 Q157 431 157 367 Q157 303 175.5 249.5 Q194 196 229.5 157 Q265 118 315.5 96.5 Q366 75 430 75 Q496 75 547.5 96.5 Q599 118 634 157 Q669 196 687 249.5 Q705 303 705 367 Q705 431 687 484.5 Q669 538 634 577 Q599 616 547.5 638 Q496 660 430 660 Z M430 745 Q511 745 582 718 Q653 691 706.5 641.5 Q760 592 790.5 522 Q821 452 821 367 Q821 280 790 210 Q759 140 705.5 91 Q652 42 581 15.5 Q510 -11 430 -11 Q352 -11 282 15.5 Q212 42 159 91 Q106 140 75 210 Q44 280 44 367 Q44 455 75.5 525 Q107 595 160 644 Q213 693 283 719 Q353 745 430 745 Z M439 605 Q521 605 575 558.5 Q629 512 640 427 L517 427 Q512 460 491 483 Q470 506 435 506 Q383 506 361 468.5 Q339 431 339 365 Q339 300 361 263 Q383 226 435 226 Q470 226 490.5 248 Q511 270 517 305 L640 305 Q629 220 575 173 Q521 126 439 126 Q333 126 276 188.5 Q219 251 219 365 Q219 480 276 542.5 Q333 605 439 605 Z " />
<glyph glyph-name="registered" unicode="&#xae;" horiz-adv-x="541" d="M264 695 Q196 695 153 652 Q110 609 110 531 Q110 458 151 413 Q192 368 264 368 Q338 368 378 413.5 Q418 459 418 531 Q418 605 378 650 Q338 695 264 695 Z M264 745 Q310 745 350.5 730 Q391 715 421 687 Q451 659 468 619.5 Q485 580 485 531 Q485 481 467.5 442 Q450 403 420 375 Q390 347 350 332.5 Q310 318 264 318 Q219 318 179 332.5 Q139 347 109 374.5 Q79 402 61.5 441.5 Q44 481 44 531 Q44 580 61.5 620 Q79 660 109 687.5 Q139 715 179 730 Q219 745 264 745 Z M290 655 Q332 655 351.5 636.5 Q371 618 371 590 Q371 566 357.5 549 Q344 532 318 527 Q330 525 338.5 519.5 Q347 514 353 501 Q359 488 362 466.5 Q365 445 365 411 L305 411 Q305 443 303 462 Q301 481 296.5 491 Q292 501 285.5 504 Q279 507 270 507 L231 507 L231 411 L170 411 L170 655 L290 655 Z M231 549 L273 549 Q293 549 300 557.5 Q307 566 307 580 Q307 594 300 600.5 Q293 607 273 607 L231 607 L231 549 Z " />
<glyph glyph-name="trademark" unicode="&#x2122;" horiz-adv-x="824" d="M487 735 L560 506 L633 735 L757 735 L757 388 L674 388 L674 632 L596 388 L524 388 L445 632 L445 388 L363 388 L363 666 L238 666 L238 388 L152 388 L152 666 L38 666 L38 735 L487 735 Z " />
<glyph glyph-name="ampersand" unicode="&#x26;" horiz-adv-x="753" d="M746 -9 Q693 -9 630 14.5 Q567 38 501 78 Q453 38 396.5 14.5 Q340 -9 274 -9 Q215 -9 170.5 8.5 Q126 26 96.5 55.5 Q67 85 52 124 Q37 163 37 205 Q37 240 46.5 273.5 Q56 307 74.5 335.5 Q93 364 121 386 Q149 408 185 420 Q163 475 163 523 Q163 565 176 603 Q189 641 217 669 Q245 697 289.5 713.5 Q334 730 396 730 Q449 730 491.5 715 Q534 700 564.5 674 Q595 648 611.5 612.5 Q628 577 630 536 L499 536 Q496 552 489 566 Q482 580 469.5 590.5 Q457 601 437.5 607 Q418 613 391 613 Q338 613 314 587 Q290 561 290 527 Q290 495 306.5 457.5 Q323 420 351.5 380.5 Q380 341 418 302.5 Q456 264 498 230 Q527 277 542 330.5 Q557 384 559 435 L705 435 Q693 370 663 300.5 Q633 231 586 169 Q630 143 670.5 128 Q711 113 746 113 L746 -9 Z M294 106 Q328 106 357.5 115 Q387 124 412 141 Q356 186 308 237 Q260 288 225 343 Q196 326 181.5 297 Q167 268 167 236 Q167 210 174.5 186.5 Q182 163 198 145 Q214 127 238 116.5 Q262 106 294 106 Z " />
<glyph glyph-name="at" unicode="&#x40;" horiz-adv-x="903" d="M460 396 Q427 396 403.5 379 Q380 362 364 335 Q348 308 340.5 276 Q333 244 333 214 Q333 134 406 134 Q439 134 464 150 Q489 166 506 191.5 Q523 217 531.5 248 Q540 279 540 309 Q540 354 519.5 375 Q499 396 460 396 Z M508 639 Q596 639 660 615 Q724 591 765.5 550.5 Q807 510 827 456 Q847 402 847 341 Q847 281 829.5 226 Q812 171 780 129 Q748 87 702.5 62 Q657 37 601 37 Q566 37 541.5 52 Q517 67 517 106 Q517 114 517.5 121 Q518 128 520 139 Q497 91 455.5 68.5 Q414 46 363 46 Q300 46 259 86 Q218 126 218 196 Q218 245 233 296.5 Q248 348 276.5 390 Q305 432 347.5 459 Q390 486 446 486 Q498 486 527 460 Q556 434 564 397 L579 467 L675 467 L620 197 Q617 186 616 177 Q615 168 615 161 Q615 145 621 139 Q627 133 640 133 Q660 133 679 149.5 Q698 166 712.5 194 Q727 222 735.5 259 Q744 296 744 337 Q744 382 731 422 Q718 462 689 491 Q660 520 614.5 537 Q569 554 505 554 Q420 554 355.5 523.5 Q291 493 248 443.5 Q205 394 183.5 331 Q162 268 162 202 Q162 151 176.5 109 Q191 67 220 37 Q249 7 292 -9.5 Q335 -26 392 -26 Q418 -26 446 -19.5 Q474 -13 494 -6 L496 -97 Q470 -106 440 -112 Q410 -118 375 -118 Q298 -118 238.5 -93.5 Q179 -69 138.5 -25.5 Q98 18 77 77.5 Q56 137 56 206 Q56 288 86.5 366 Q117 444 175 505 Q233 566 317 602.5 Q401 639 508 639 Z " />
<glyph glyph-name="acute" unicode="&#xb4;" horiz-adv-x="332" d="M290 737 L134 582 L41 582 L151 753 L290 737 Z " />
<glyph glyph-name="grave" unicode="&#x60;" horiz-adv-x="332" d="M181 753 L290 582 L199 582 L42 737 L181 753 Z " />
<glyph glyph-name="caron" unicode="&#x2c7;" horiz-adv-x="463" d="M138 747 L231 663 L324 747 L418 731 L293 582 L170 582 L45 731 L138 747 Z " />
<glyph glyph-name="circumflex" unicode="&#x2c6;" horiz-adv-x="463" d="M293 741 L418 594 L324 577 L232 661 L138 577 L45 594 L170 741 L293 741 Z " />
<glyph glyph-name="breve" unicode="&#x2d8;" horiz-adv-x="373" d="M117 734 Q118 700 135 681 Q152 662 186 662 Q224 662 239.5 683.5 Q255 705 255 734 L337 725 Q337 691 325 664.5 Q313 638 292 619.5 Q271 601 243.5 591.5 Q216 582 186 582 Q156 582 129 591.5 Q102 601 81 619.5 Q60 638 48 664.5 Q36 691 36 725 L117 734 Z " />
<glyph glyph-name="dieresis" unicode="&#xa8;" horiz-adv-x="429" d="M66 606 L66 709 L166 709 L166 606 L66 606 Z M263 606 L263 709 L362 709 L362 606 L263 606 Z " />
<glyph glyph-name="dotaccent" unicode="&#x2d9;" horiz-adv-x="232" d="M51 606 L51 724 L180 724 L180 606 L51 606 Z " />
<glyph glyph-name="hungarumlaut" unicode="&#x2dd;" horiz-adv-x="479" d="M252 737 L125 591 L52 591 L146 753 L252 737 Z M426 737 L299 591 L226 591 L320 753 L426 737 Z " />
<glyph glyph-name="macron" unicode="&#xaf;" horiz-adv-x="383" d="M52 601 L52 687 L330 687 L330 601 L52 601 Z " />
<glyph glyph-name="ring" unicode="&#x2da;" horiz-adv-x="362" d="M180 777 Q207 777 231 770 Q255 763 273 749.5 Q291 736 301.5 716.5 Q312 697 312 671 Q312 645 301.5 625.5 Q291 606 273 592.5 Q255 579 231 572.5 Q207 566 180 566 Q153 566 129 572.5 Q105 579 87 592.5 Q69 606 58.5 625.5 Q48 645 48 671 Q48 697 58.5 716.5 Q69 736 87 749.5 Q105 763 129 770 Q153 777 180 777 Z M180 713 Q155 713 142 701 Q129 689 129 672 Q129 650 143.5 639.5 Q158 629 180 629 Q203 629 216.5 639.5 Q230 650 230 670 Q230 691 215 702 Q200 713 180 713 Z " />
<glyph glyph-name="tilde" unicode="&#x2dc;" horiz-adv-x="455" d="M156 730 Q183 730 203.5 721 Q224 712 241 700.5 Q258 689 272.5 680 Q287 671 301 671 Q315 671 326 679 Q337 687 340 713 L398 704 Q393 649 369 617.5 Q345 586 303 586 Q279 586 259.5 595.5 Q240 605 222 617 Q204 629 187 638.5 Q170 648 152 648 Q135 648 125 636.5 Q115 625 113 600 L57 613 Q60 667 84 698.5 Q108 730 156 730 Z " />
<glyph glyph-name="ogonek" unicode="&#x2db;" horiz-adv-x="281" d="M208 0 Q183 -19 168.5 -45.5 Q154 -72 154 -97 Q154 -119 167.5 -131 Q181 -143 204 -143 Q210 -143 216 -142.5 Q222 -142 228 -141 L228 -225 Q205 -230 181 -230 Q121 -230 86.5 -201.5 Q52 -173 52 -128 Q52 -93 73.5 -59.5 Q95 -26 137 0 L208 0 Z " />
<glyph glyph-name="cedilla" unicode="&#xb8;" horiz-adv-x="372" d="M222 0 L182 -57 Q190 -55 198 -54 Q206 -53 214 -53 Q233 -53 252 -58 Q271 -63 286 -73.5 Q301 -84 310 -100 Q319 -116 319 -139 Q319 -164 307.5 -184 Q296 -204 275.5 -217.5 Q255 -231 228 -238 Q201 -245 171 -245 Q136 -245 104.5 -235.5 Q73 -226 52 -206 L91 -161 Q99 -172 119.5 -179 Q140 -186 162 -186 Q190 -186 204.5 -175.5 Q219 -165 219 -147 Q219 -120 196 -109.5 Q173 -99 136 -99 Q124 -99 110 -100 Q96 -101 82 -103 L140 0 L222 0 Z " />
<glyph glyph-name="commaaccent" unicode="&#xf6c3;" horiz-adv-x="244" d="M191 -43 L191 -109 Q191 -137 182.5 -159.5 Q174 -182 159 -200 Q144 -218 123.5 -232 Q103 -246 79 -257 L61 -212 Q95 -200 109.5 -180 Q124 -160 124 -131 L74 -131 L74 -43 L191 -43 Z " />
<glyph glyph-name="arrowleft" unicode="&#x2190;" horiz-adv-x="737" d="M338 617 L418 537 L268 387 L684 387 L684 275 L267 275 L418 125 L338 45 L52 330 L338 617 Z " />
<glyph glyph-name="arrowright" unicode="&#x2192;" horiz-adv-x="737" d="M684 330 L399 45 L319 125 L469 274 L52 274 L52 387 L469 387 L319 537 L399 617 L684 330 Z " />
<glyph glyph-name="arrowup" unicode="&#x2191;" horiz-adv-x="676" d="M624 347 L544 267 L395 416 L395 0 L282 0 L282 416 L132 267 L52 347 L338 632 L624 347 Z " />
<glyph glyph-name="arrowdown" unicode="&#x2193;" horiz-adv-x="676" d="M394 588 L394 171 L544 322 L624 242 L338 -44 L52 242 L132 322 L282 172 L282 588 L394 588 Z " />
<glyph glyph-name="arrowupleft" unicode="&#x2196;" horiz-adv-x="626" d="M88 525 L491 525 L491 412 L279 412 L573 117 L495 38 L200 333 L200 121 L88 121 L88 525 Z " />
<glyph glyph-name="arrowupright" unicode="&#x2197;" horiz-adv-x="626" d="M538 121 L425 121 L425 333 L131 38 L52 117 L347 412 L134 412 L134 525 L538 525 L538 121 Z " />
<glyph glyph-name="arrowdownleft" unicode="&#x2199;" horiz-adv-x="626" d="M88 404 L200 404 L200 192 L495 487 L573 407 L279 112 L491 112 L491 0 L88 0 L88 404 Z " />
<glyph glyph-name="arrowdownright" unicode="&#x2198;" horiz-adv-x="626" d="M538 0 L134 0 L134 112 L347 112 L52 407 L131 487 L425 192 L425 404 L538 404 L538 0 Z " />
<glyph glyph-name="afii00208" unicode="&#x2015;" horiz-adv-x="1038" d="M54 274 L54 387 L984 387 L984 274 L54 274 Z " />
<glyph glyph-name="Aacute" unicode="&#xc1;" horiz-adv-x="676" d="M443 720 L687 0 L529 0 L469 185 L200 185 L140 0 L-11 0 L235 720 L443 720 Z M335 627 Q330 604 322.5 573 Q315 542 307 519 L233 295 L436 295 L363 521 Q355 544 347.5 574 Q340 604 335 627 Z M506 908 L343 759 L257 759 L381 922 L506 908 Z " />
<glyph glyph-name="Abreve" unicode="&#x102;" horiz-adv-x="676" d="M443 720 L687 0 L529 0 L469 185 L200 185 L140 0 L-11 0 L235 720 L443 720 Z M335 627 Q330 604 322.5 573 Q315 542 307 519 L233 295 L436 295 L363 521 Q355 544 347.5 574 Q340 604 335 627 Z M267 900 Q267 869 285.5 853 Q304 837 338 837 Q376 837 393 854.5 Q410 872 410 900 L481 892 Q480 831 439.5 797 Q399 763 338 763 Q308 763 282 772 Q256 781 237 797.5 Q218 814 207 838 Q196 862 196 892 L267 900 Z " />
<glyph glyph-name="Acircumflex" unicode="&#xc2;" horiz-adv-x="676" d="M443 720 L687 0 L529 0 L469 185 L200 185 L140 0 L-11 0 L235 720 L443 720 Z M335 627 Q330 604 322.5 573 Q315 542 307 519 L233 295 L436 295 L363 521 Q355 544 347.5 574 Q340 604 335 627 Z M435 759 L336 844 L236 759 L149 774 L280 922 L389 922 L522 774 L435 759 Z " />
<glyph glyph-name="Adieresis" unicode="&#xc4;" horiz-adv-x="676" d="M443 720 L687 0 L529 0 L469 185 L200 185 L140 0 L-11 0 L235 720 L443 720 Z M335 627 Q330 604 322.5 573 Q315 542 307 519 L233 295 L436 295 L363 521 Q355 544 347.5 574 Q340 604 335 627 Z M180 785 L180 883 L278 883 L278 785 L180 785 Z M390 785 L390 883 L490 883 L490 785 L390 785 Z " />
<glyph glyph-name="Agrave" unicode="&#xc0;" horiz-adv-x="676" d="M443 720 L687 0 L529 0 L469 185 L200 185 L140 0 L-11 0 L235 720 L443 720 Z M335 627 Q330 604 322.5 573 Q315 542 307 519 L233 295 L436 295 L363 521 Q355 544 347.5 574 Q340 604 335 627 Z M301 922 L424 759 L339 759 L175 908 L301 922 Z " />
<glyph glyph-name="Amacron" unicode="&#x100;" horiz-adv-x="676" d="M443 720 L687 0 L529 0 L469 185 L200 185 L140 0 L-11 0 L235 720 L443 720 Z M335 627 Q330 604 322.5 573 Q315 542 307 519 L233 295 L436 295 L363 521 Q355 544 347.5 574 Q340 604 335 627 Z M199 779 L199 857 L477 857 L477 779 L199 779 Z " />
<glyph glyph-name="Aogonek" unicode="&#x104;" horiz-adv-x="676" d="M529 0 L469 185 L200 185 L140 0 L-11 0 L235 720 L443 720 L687 0 L648 0 Q623 -19 608.5 -45.5 Q594 -72 594 -97 Q594 -119 607.5 -131 Q621 -143 644 -143 Q650 -143 656 -142.5 Q662 -142 668 -141 L668 -225 Q645 -230 621 -230 Q561 -230 526.5 -201.5 Q492 -173 492 -128 Q492 -93 513.5 -59.5 Q535 -26 577 0 L529 0 Z M335 627 Q330 604 322.5 573 Q315 542 307 519 L233 295 L436 295 L363 521 Q355 544 347.5 574 Q340 604 335 627 Z " />
<glyph glyph-name="Aring" unicode="&#xc5;" horiz-adv-x="676" d="M443 720 L687 0 L529 0 L469 185 L200 185 L140 0 L-11 0 L235 720 L443 720 Z M335 627 Q330 604 322.5 573 Q315 542 307 519 L233 295 L436 295 L363 521 Q355 544 347.5 574 Q340 604 335 627 Z M337 930 Q364 930 387 924 Q410 918 427.5 906.5 Q445 895 455 877.5 Q465 860 465 837 Q465 814 455 796.5 Q445 779 427.5 768 Q410 757 387 751.5 Q364 746 337 746 Q310 746 286.5 751.5 Q263 757 245.5 768 Q228 779 218 796.5 Q208 814 208 837 Q208 860 218 877.5 Q228 895 245.5 906.5 Q263 918 286.5 924 Q310 930 337 930 Z M336 876 Q310 876 295.5 865 Q281 854 281 837 Q281 814 297 805.5 Q313 797 336 797 Q362 797 376.5 807 Q391 817 391 837 Q391 857 374.5 866.5 Q358 876 336 876 Z " />
<glyph glyph-name="Atilde" unicode="&#xc3;" horiz-adv-x="676" d="M443 720 L687 0 L529 0 L469 185 L200 185 L140 0 L-11 0 L235 720 L443 720 Z M335 627 Q330 604 322.5 573 Q315 542 307 519 L233 295 L436 295 L363 521 Q355 544 347.5 574 Q340 604 335 627 Z M266 897 Q293 897 313.5 888.5 Q334 880 351 870 Q368 860 382.5 851.5 Q397 843 411 843 Q425 843 436 850.5 Q447 858 450 883 L508 874 Q503 823 479 794.5 Q455 766 413 766 Q389 766 369.5 775 Q350 784 332 795 Q314 806 297 815 Q280 824 262 824 Q245 824 235 813.5 Q225 803 223 779 L167 792 Q170 840 194 868.5 Q218 897 266 897 Z " />
<glyph glyph-name="Cacute" unicode="&#x106;" horiz-adv-x="733" d="M702 231 Q696 177 672.5 132.5 Q649 88 609.5 56 Q570 24 516 6.5 Q462 -11 397 -11 Q318 -11 255 17.5 Q192 46 147.5 96 Q103 146 79.5 213.5 Q56 281 56 360 Q56 438 79.5 506 Q103 574 147.5 623.5 Q192 673 255 701.5 Q318 730 397 730 Q462 730 516 712.5 Q570 695 609.5 663 Q649 631 672.5 586.5 Q696 542 702 488 L556 488 Q546 543 506 574 Q466 605 397 605 Q349 605 314 587 Q279 569 255.5 537 Q232 505 221 459.5 Q210 414 210 360 Q210 306 221 261 Q232 216 255.5 184 Q279 152 314 134 Q349 116 397 116 Q466 116 506 146.5 Q546 177 556 231 L702 231 Z M551 908 L388 759 L302 759 L426 922 L551 908 Z " />
<glyph glyph-name="Ccaron" unicode="&#x10c;" horiz-adv-x="733" d="M702 231 Q696 177 672.5 132.5 Q649 88 609.5 56 Q570 24 516 6.5 Q462 -11 397 -11 Q318 -11 255 17.5 Q192 46 147.5 96 Q103 146 79.5 213.5 Q56 281 56 360 Q56 438 79.5 506 Q103 574 147.5 623.5 Q192 673 255 701.5 Q318 730 397 730 Q462 730 516 712.5 Q570 695 609.5 663 Q649 631 672.5 586.5 Q696 542 702 488 L556 488 Q546 543 506 574 Q466 605 397 605 Q349 605 314 587 Q279 569 255.5 537 Q232 505 221 459.5 Q210 414 210 360 Q210 306 221 261 Q232 216 255.5 184 Q279 152 314 134 Q349 116 397 116 Q466 116 506 146.5 Q546 177 556 231 L702 231 Z M302 922 L401 839 L501 922 L588 908 L455 759 L346 759 L215 908 L302 922 Z " />
<glyph glyph-name="Ccircumflex" unicode="&#x108;" horiz-adv-x="733" d="M702 231 Q696 177 672.5 132.5 Q649 88 609.5 56 Q570 24 516 6.5 Q462 -11 397 -11 Q318 -11 255 17.5 Q192 46 147.5 96 Q103 146 79.5 213.5 Q56 281 56 360 Q56 438 79.5 506 Q103 574 147.5 623.5 Q192 673 255 701.5 Q318 730 397 730 Q462 730 516 712.5 Q570 695 609.5 663 Q649 631 672.5 586.5 Q696 542 702 488 L556 488 Q546 543 506 574 Q466 605 397 605 Q349 605 314 587 Q279 569 255.5 537 Q232 505 221 459.5 Q210 414 210 360 Q210 306 221 261 Q232 216 255.5 184 Q279 152 314 134 Q349 116 397 116 Q466 116 506 146.5 Q546 177 556 231 L702 231 Z M497 759 L398 844 L298 759 L211 774 L342 922 L451 922 L584 774 L497 759 Z " />
<glyph glyph-name="Cdotaccent" unicode="&#x10a;" horiz-adv-x="733" d="M702 231 Q696 177 672.5 132.5 Q649 88 609.5 56 Q570 24 516 6.5 Q462 -11 397 -11 Q318 -11 255 17.5 Q192 46 147.5 96 Q103 146 79.5 213.5 Q56 281 56 360 Q56 438 79.5 506 Q103 574 147.5 623.5 Q192 673 255 701.5 Q318 730 397 730 Q462 730 516 712.5 Q570 695 609.5 663 Q649 631 672.5 586.5 Q696 542 702 488 L556 488 Q546 543 506 574 Q466 605 397 605 Q349 605 314 587 Q279 569 255.5 537 Q232 505 221 459.5 Q210 414 210 360 Q210 306 221 261 Q232 216 255.5 184 Q279 152 314 134 Q349 116 397 116 Q466 116 506 146.5 Q546 177 556 231 L702 231 Z M336 785 L336 890 L463 890 L463 785 L336 785 Z " />
<glyph glyph-name="Ccedilla" unicode="&#xc7;" horiz-adv-x="733" d="M702 231 Q697 180 675 137 Q653 94 617 62.5 Q581 31 532 12 Q483 -7 423 -10 L391 -57 Q399 -55 407 -54 Q415 -53 423 -53 Q442 -53 461 -58 Q480 -63 495 -73.5 Q510 -84 519 -100 Q528 -116 528 -139 Q528 -164 516.5 -184 Q505 -204 484.5 -217.5 Q464 -231 437 -238 Q410 -245 380 -245 Q345 -245 313.5 -235.5 Q282 -226 261 -206 L300 -161 Q308 -172 328.5 -179 Q349 -186 371 -186 Q399 -186 413.5 -175.5 Q428 -165 428 -147 Q428 -120 405 -109.5 Q382 -99 345 -99 Q333 -99 319 -100 Q305 -101 291 -103 L344 -7 Q276 2 223 33.5 Q170 65 132.5 113.5 Q95 162 75.5 225 Q56 288 56 360 Q56 438 79.5 506 Q103 574 147.5 623.5 Q192 673 255 701.5 Q318 730 397 730 Q462 730 516 712.5 Q570 695 609.5 663 Q649 631 672.5 586.5 Q696 542 702 488 L556 488 Q546 543 506 574 Q466 605 397 605 Q349 605 314 587 Q279 569 255.5 537 Q232 505 221 459.5 Q210 414 210 360 Q210 306 221 261 Q232 216 255.5 184 Q279 152 314 134 Q349 116 397 116 Q466 116 506 146.5 Q546 177 556 231 L702 231 Z " />
<glyph glyph-name="Dcroat" unicode="&#x110;" horiz-adv-x="758" d="M82 0 L82 343 L33 343 L33 429 L82 429 L82 720 L393 720 Q465 720 522 695.5 Q579 671 619.5 625 Q660 579 681.5 513 Q703 447 703 363 Q703 279 682 212 Q661 145 622 98 Q583 51 527 25.5 Q471 0 400 0 L82 0 Z M368 113 Q462 113 507.5 172.5 Q553 232 553 361 Q553 490 505.5 549 Q458 608 364 608 L225 608 L225 429 L311 429 L311 343 L225 343 L225 113 L368 113 Z " />
<glyph glyph-name="Dcaron" unicode="&#x10e;" horiz-adv-x="758" d="M82 0 L82 720 L393 720 Q465 720 522 695.5 Q579 671 619.5 625 Q660 579 681.5 513 Q703 447 703 363 Q703 279 682 212 Q661 145 622 98 Q583 51 527 25.5 Q471 0 400 0 L82 0 Z M368 113 Q462 113 507.5 172.5 Q553 232 553 361 Q553 490 505.5 549 Q458 608 364 608 L225 608 L225 113 L368 113 Z M249 922 L348 839 L448 922 L535 908 L402 759 L293 759 L162 908 L249 922 Z " />
<glyph glyph-name="Eacute" unicode="&#xc9;" horiz-adv-x="623" d="M82 0 L82 720 L574 720 L574 608 L225 608 L225 427 L512 427 L512 318 L225 318 L225 113 L581 113 L581 0 L82 0 Z M514 908 L351 759 L265 759 L389 922 L514 908 Z " />
<glyph glyph-name="Ebreve" unicode="&#x114;" horiz-adv-x="623" d="M82 0 L82 720 L574 720 L574 608 L225 608 L225 427 L512 427 L512 318 L225 318 L225 113 L581 113 L581 0 L82 0 Z M270 900 Q270 869 288.5 853 Q307 837 341 837 Q379 837 396 854.5 Q413 872 413 900 L484 892 Q483 831 442.5 797 Q402 763 341 763 Q311 763 285 772 Q259 781 240 797.5 Q221 814 210 838 Q199 862 199 892 L270 900 Z " />
<glyph glyph-name="Ecaron" unicode="&#x11a;" horiz-adv-x="623" d="M82 0 L82 720 L574 720 L574 608 L225 608 L225 427 L512 427 L512 318 L225 318 L225 113 L581 113 L581 0 L82 0 Z M244 922 L343 839 L443 922 L530 908 L397 759 L288 759 L157 908 L244 922 Z " />
<glyph glyph-name="Ecircumflex" unicode="&#xca;" horiz-adv-x="623" d="M82 0 L82 720 L574 720 L574 608 L225 608 L225 427 L512 427 L512 318 L225 318 L225 113 L581 113 L581 0 L82 0 Z M436 759 L337 844 L237 759 L150 774 L281 922 L390 922 L523 774 L436 759 Z " />
<glyph glyph-name="Edieresis" unicode="&#xcb;" horiz-adv-x="623" d="M82 0 L82 720 L574 720 L574 608 L225 608 L225 427 L512 427 L512 318 L225 318 L225 113 L581 113 L581 0 L82 0 Z M179 785 L179 883 L277 883 L277 785 L179 785 Z M389 785 L389 883 L489 883 L489 785 L389 785 Z " />
<glyph glyph-name="Edotaccent" unicode="&#x116;" horiz-adv-x="623" d="M82 0 L82 720 L574 720 L574 608 L225 608 L225 427 L512 427 L512 318 L225 318 L225 113 L581 113 L581 0 L82 0 Z M277 785 L277 890 L404 890 L404 785 L277 785 Z " />
<glyph glyph-name="Egrave" unicode="&#xc8;" horiz-adv-x="623" d="M82 0 L82 720 L574 720 L574 608 L225 608 L225 427 L512 427 L512 318 L225 318 L225 113 L581 113 L581 0 L82 0 Z M296 922 L419 759 L334 759 L170 908 L296 922 Z " />
<glyph glyph-name="Emacron" unicode="&#x112;" horiz-adv-x="623" d="M82 0 L82 720 L574 720 L574 608 L225 608 L225 427 L512 427 L512 318 L225 318 L225 113 L581 113 L581 0 L82 0 Z M199 779 L199 857 L477 857 L477 779 L199 779 Z " />
<glyph glyph-name="Eogonek" unicode="&#x118;" horiz-adv-x="623" d="M82 0 L82 720 L574 720 L574 608 L225 608 L225 427 L512 427 L512 318 L225 318 L225 113 L581 113 L581 0 L547 0 Q522 -19 507.5 -45.5 Q493 -72 493 -97 Q493 -119 506.5 -131 Q520 -143 543 -143 Q549 -143 555 -142.5 Q561 -142 567 -141 L567 -225 Q544 -230 520 -230 Q460 -230 425.5 -201.5 Q391 -173 391 -128 Q391 -93 412.5 -59.5 Q434 -26 476 0 L82 0 Z " />
<glyph glyph-name="Gbreve" unicode="&#x11e;" horiz-adv-x="789" d="M400 730 Q464 730 517.5 712.5 Q571 695 610 663.5 Q649 632 673 587.5 Q697 543 702 489 L556 489 Q547 544 507 574.5 Q467 605 398 605 Q350 605 314.5 587 Q279 569 255.5 537 Q232 505 221 459.5 Q210 414 210 360 Q210 244 254.5 179 Q299 114 394 114 Q472 114 517.5 158 Q563 202 564 288 L386 288 L386 394 L708 394 L708 0 L571 0 L571 131 Q561 102 545 76.5 Q529 51 504.5 31.5 Q480 12 446 0.5 Q412 -11 365 -11 Q307 -11 251.5 12.5 Q196 36 152.5 82.5 Q109 129 82.5 198.5 Q56 268 56 360 Q56 438 80 506 Q104 574 148.5 623.5 Q193 673 256.5 701.5 Q320 730 400 730 Z M330 900 Q330 869 348.5 853 Q367 837 401 837 Q439 837 456 854.5 Q473 872 473 900 L544 892 Q543 831 502.5 797 Q462 763 401 763 Q371 763 345 772 Q319 781 300 797.5 Q281 814 270 838 Q259 862 259 892 L330 900 Z " />
<glyph glyph-name="Gcircumflex" unicode="&#x11c;" horiz-adv-x="789" d="M400 730 Q464 730 517.5 712.5 Q571 695 610 663.5 Q649 632 673 587.5 Q697 543 702 489 L556 489 Q547 544 507 574.5 Q467 605 398 605 Q350 605 314.5 587 Q279 569 255.5 537 Q232 505 221 459.5 Q210 414 210 360 Q210 244 254.5 179 Q299 114 394 114 Q472 114 517.5 158 Q563 202 564 288 L386 288 L386 394 L708 394 L708 0 L571 0 L571 131 Q561 102 545 76.5 Q529 51 504.5 31.5 Q480 12 446 0.5 Q412 -11 365 -11 Q307 -11 251.5 12.5 Q196 36 152.5 82.5 Q109 129 82.5 198.5 Q56 268 56 360 Q56 438 80 506 Q104 574 148.5 623.5 Q193 673 256.5 701.5 Q320 730 400 730 Z M499 759 L400 844 L300 759 L213 774 L344 922 L453 922 L586 774 L499 759 Z " />
<glyph glyph-name="Gcommaaccent" unicode="&#x122;" horiz-adv-x="789" d="M400 730 Q464 730 517.5 712.5 Q571 695 610 663.5 Q649 632 673 587.5 Q697 543 702 489 L556 489 Q547 544 507 574.5 Q467 605 398 605 Q350 605 314.5 587 Q279 569 255.5 537 Q232 505 221 459.5 Q210 414 210 360 Q210 244 254.5 179 Q299 114 394 114 Q472 114 517.5 158 Q563 202 564 288 L386 288 L386 394 L708 394 L708 0 L571 0 L571 131 Q561 102 545 76.5 Q529 51 504.5 31.5 Q480 12 446 0.5 Q412 -11 365 -11 Q307 -11 251.5 12.5 Q196 36 152.5 82.5 Q109 129 82.5 198.5 Q56 268 56 360 Q56 438 80 506 Q104 574 148.5 623.5 Q193 673 256.5 701.5 Q320 730 400 730 Z M454 -43 L454 -109 Q454 -137 445.5 -159.5 Q437 -182 422 -200 Q407 -218 386.5 -232 Q366 -246 342 -257 L324 -212 Q358 -200 372.5 -180 Q387 -160 387 -131 L337 -131 L337 -43 L454 -43 Z " />
<glyph glyph-name="Gdotaccent" unicode="&#x120;" horiz-adv-x="789" d="M400 730 Q464 730 517.5 712.5 Q571 695 610 663.5 Q649 632 673 587.5 Q697 543 702 489 L556 489 Q547 544 507 574.5 Q467 605 398 605 Q350 605 314.5 587 Q279 569 255.5 537 Q232 505 221 459.5 Q210 414 210 360 Q210 244 254.5 179 Q299 114 394 114 Q472 114 517.5 158 Q563 202 564 288 L386 288 L386 394 L708 394 L708 0 L571 0 L571 131 Q561 102 545 76.5 Q529 51 504.5 31.5 Q480 12 446 0.5 Q412 -11 365 -11 Q307 -11 251.5 12.5 Q196 36 152.5 82.5 Q109 129 82.5 198.5 Q56 268 56 360 Q56 438 80 506 Q104 574 148.5 623.5 Q193 673 256.5 701.5 Q320 730 400 730 Z M337 785 L337 890 L464 890 L464 785 L337 785 Z " />
<glyph glyph-name="Hcircumflex" unicode="&#x124;" horiz-adv-x="729" d="M504 0 L504 317 L225 317 L225 0 L82 0 L82 720 L225 720 L225 428 L504 428 L504 720 L646 720 L646 0 L504 0 Z M464 759 L365 844 L265 759 L178 774 L309 922 L418 922 L551 774 L464 759 Z " />
<glyph glyph-name="Hbar" unicode="&#x126;" horiz-adv-x="729" d="M504 0 L504 317 L225 317 L225 0 L82 0 L82 550 L22 550 L22 634 L82 634 L82 720 L225 720 L225 634 L504 634 L504 720 L646 720 L646 634 L707 634 L707 550 L646 550 L646 0 L504 0 Z M504 428 L504 550 L225 550 L225 428 L504 428 Z " />
<glyph glyph-name="Iacute" unicode="&#xcd;" horiz-adv-x="308" d="M82 0 L82 720 L225 720 L225 0 L82 0 Z M331 908 L168 759 L82 759 L206 922 L331 908 Z " />
<glyph glyph-name="Ibreve" unicode="&#x12c;" horiz-adv-x="308" d="M82 0 L82 720 L225 720 L225 0 L82 0 Z M83 900 Q83 869 101.5 853 Q120 837 154 837 Q192 837 209 854.5 Q226 872 226 900 L297 892 Q296 831 255.5 797 Q215 763 154 763 Q124 763 98 772 Q72 781 53 797.5 Q34 814 23 838 Q12 862 12 892 L83 900 Z " />
<glyph glyph-name="Icircumflex" unicode="&#xce;" horiz-adv-x="308" d="M82 0 L82 720 L225 720 L225 0 L82 0 Z M254 759 L155 844 L55 759 L-32 774 L99 922 L208 922 L341 774 L254 759 Z " />
<glyph glyph-name="Idieresis" unicode="&#xcf;" horiz-adv-x="308" d="M82 0 L82 720 L225 720 L225 0 L82 0 Z M-1 785 L-1 883 L97 883 L97 785 L-1 785 Z M209 785 L209 883 L309 883 L309 785 L209 785 Z " />
<glyph glyph-name="Idotaccent" unicode="&#x130;" horiz-adv-x="308" d="M82 0 L82 720 L225 720 L225 0 L82 0 Z M91 785 L91 890 L218 890 L218 785 L91 785 Z " />
<glyph glyph-name="Igrave" unicode="&#xcc;" horiz-adv-x="308" d="M82 0 L82 720 L225 720 L225 0 L82 0 Z M105 922 L228 759 L143 759 L-21 908 L105 922 Z " />
<glyph glyph-name="Imacron" unicode="&#x12a;" horiz-adv-x="308" d="M82 0 L82 720 L225 720 L225 0 L82 0 Z M15 779 L15 857 L293 857 L293 779 L15 779 Z " />
<glyph glyph-name="Iogonek" unicode="&#x12e;" horiz-adv-x="308" d="M82 0 L82 720 L225 720 L225 0 L208 0 Q183 -19 168.5 -45.5 Q154 -72 154 -97 Q154 -119 167.5 -131 Q181 -143 204 -143 Q210 -143 216 -142.5 Q222 -142 228 -141 L228 -225 Q205 -230 181 -230 Q121 -230 86.5 -201.5 Q52 -173 52 -128 Q52 -93 73.5 -59.5 Q95 -26 137 0 L82 0 Z " />
<glyph glyph-name="Itilde" unicode="&#x128;" horiz-adv-x="308" d="M82 0 L82 720 L225 720 L225 0 L82 0 Z M83 897 Q110 897 130.5 888.5 Q151 880 168 870 Q185 860 199.5 851.5 Q214 843 228 843 Q242 843 253 850.5 Q264 858 267 883 L325 874 Q320 823 296 794.5 Q272 766 230 766 Q206 766 186.5 775 Q167 784 149 795 Q131 806 114 815 Q97 824 79 824 Q62 824 52 813.5 Q42 803 40 779 L-16 792 Q-13 840 11 868.5 Q35 897 83 897 Z " />
<glyph glyph-name="Jcircumflex" unicode="&#x134;" horiz-adv-x="585" d="M506 720 L506 221 Q506 167 487.5 124 Q469 81 434.5 51 Q400 21 351 5 Q302 -11 242 -11 Q136 -11 72.5 47.5 Q9 106 -4 203 L144 203 Q145 185 151 169 Q157 153 169 140 Q181 127 200.5 119.5 Q220 112 247 112 Q309 112 336 138.5 Q363 165 363 219 L363 720 L506 720 Z M529 759 L430 844 L330 759 L243 774 L374 922 L483 922 L616 774 L529 759 Z " />
<glyph glyph-name="Kcommaaccent" unicode="&#x136;" horiz-adv-x="693" d="M82 0 L82 720 L225 720 L225 0 L82 0 Z M515 0 L232 378 L499 720 L665 720 L398 387 L687 0 L515 0 Z M409 -43 L409 -109 Q409 -137 400.5 -159.5 Q392 -182 377 -200 Q362 -218 341.5 -232 Q321 -246 297 -257 L279 -212 Q313 -200 327.5 -180 Q342 -160 342 -131 L292 -131 L292 -43 L409 -43 Z " />
<glyph glyph-name="Lacute" unicode="&#x139;" horiz-adv-x="562" d="M82 0 L82 720 L225 720 L225 113 L552 113 L552 0 L82 0 Z M354 908 L191 759 L105 759 L229 922 L354 908 Z " />
<glyph glyph-name="Lcaron" unicode="&#x13d;" horiz-adv-x="562" d="M82 0 L82 720 L225 720 L225 113 L552 113 L552 0 L82 0 Z M412 745 L360 581 L294 581 L296 745 L412 745 Z " />
<glyph glyph-name="Lcommaaccent" unicode="&#x13b;" horiz-adv-x="562" d="M82 0 L82 720 L225 720 L225 113 L552 113 L552 0 L82 0 Z M382 -43 L382 -109 Q382 -137 373.5 -159.5 Q365 -182 350 -200 Q335 -218 314.5 -232 Q294 -246 270 -257 L252 -212 Q286 -200 300.5 -180 Q315 -160 315 -131 L265 -131 L265 -43 L382 -43 Z " />
<glyph glyph-name="Lslash" unicode="&#x141;" horiz-adv-x="562" d="M82 0 L82 200 L51 169 L-14 235 L82 331 L82 720 L225 720 L225 475 L312 562 L379 496 L225 342 L225 113 L552 113 L552 0 L82 0 Z " />
<glyph glyph-name="Nacute" unicode="&#x143;" horiz-adv-x="746" d="M284 720 L500 251 Q507 235 515 209.5 Q523 184 528 161 Q527 169 526 182 Q525 195 524.5 209.5 Q524 224 523.5 237 Q523 250 523 259 L523 720 L663 720 L663 0 L478 0 L248 507 Q241 523 233.5 549.5 Q226 576 221 596 Q222 588 222.5 575.5 Q223 563 223.5 550 Q224 537 224.5 524.5 Q225 512 225 505 L225 0 L82 0 L82 720 L284 720 Z M546 908 L383 759 L297 759 L421 922 L546 908 Z " />
<glyph glyph-name="Ncaron" unicode="&#x147;" horiz-adv-x="746" d="M284 720 L500 251 Q507 235 515 209.5 Q523 184 528 161 Q527 169 526 182 Q525 195 524.5 209.5 Q524 224 523.5 237 Q523 250 523 259 L523 720 L663 720 L663 0 L478 0 L248 507 Q241 523 233.5 549.5 Q226 576 221 596 Q222 588 222.5 575.5 Q223 563 223.5 550 Q224 537 224.5 524.5 Q225 512 225 505 L225 0 L82 0 L82 720 L284 720 Z M274 922 L373 839 L473 922 L560 908 L427 759 L318 759 L187 908 L274 922 Z " />
<glyph glyph-name="Ncommaaccent" unicode="&#x145;" horiz-adv-x="746" d="M284 720 L500 251 Q507 235 515 209.5 Q523 184 528 161 Q527 169 526 182 Q525 195 524.5 209.5 Q524 224 523.5 237 Q523 250 523 259 L523 720 L663 720 L663 0 L478 0 L248 507 Q241 523 233.5 549.5 Q226 576 221 596 Q222 588 222.5 575.5 Q223 563 223.5 550 Q224 537 224.5 524.5 Q225 512 225 505 L225 0 L82 0 L82 720 L284 720 Z M436 -43 L436 -109 Q436 -137 427.5 -159.5 Q419 -182 404 -200 Q389 -218 368.5 -232 Q348 -246 324 -257 L306 -212 Q340 -200 354.5 -180 Q369 -160 369 -131 L319 -131 L319 -43 L436 -43 Z " />
<glyph glyph-name="Ntilde" unicode="&#xd1;" horiz-adv-x="746" d="M284 720 L500 251 Q507 235 515 209.5 Q523 184 528 161 Q527 169 526 182 Q525 195 524.5 209.5 Q524 224 523.5 237 Q523 250 523 259 L523 720 L663 720 L663 0 L478 0 L248 507 Q241 523 233.5 549.5 Q226 576 221 596 Q222 588 222.5 575.5 Q223 563 223.5 550 Q224 537 224.5 524.5 Q225 512 225 505 L225 0 L82 0 L82 720 L284 720 Z M302 897 Q329 897 349.5 888.5 Q370 880 387 870 Q404 860 418.5 851.5 Q433 843 447 843 Q461 843 472 850.5 Q483 858 486 883 L544 874 Q539 823 515 794.5 Q491 766 449 766 Q425 766 405.5 775 Q386 784 368 795 Q350 806 333 815 Q316 824 298 824 Q281 824 271 813.5 Q261 803 259 779 L203 792 Q206 840 230 868.5 Q254 897 302 897 Z " />
<glyph glyph-name="Oacute" unicode="&#xd3;" horiz-adv-x="793" d="M397 605 Q349 605 313.5 587 Q278 569 255 537 Q232 505 221 459.5 Q210 414 210 360 Q210 306 221 261 Q232 216 255 184 Q278 152 313.5 134 Q349 116 397 116 Q445 116 480 134 Q515 152 538 184 Q561 216 572 261 Q583 306 583 360 Q583 414 572 459.5 Q561 505 538 537 Q515 569 480 587 Q445 605 397 605 Z M397 730 Q476 730 539 701.5 Q602 673 646 623.5 Q690 574 713.5 506 Q737 438 737 360 Q737 281 713.5 213.5 Q690 146 646 96 Q602 46 539 17.5 Q476 -11 397 -11 Q317 -11 254 17.5 Q191 46 147 96 Q103 146 79.5 213.5 Q56 281 56 360 Q56 438 79.5 506 Q103 574 147 623.5 Q191 673 254 701.5 Q317 730 397 730 Z M558 908 L395 759 L309 759 L433 922 L558 908 Z " />
<glyph glyph-name="Obreve" unicode="&#x14e;" horiz-adv-x="793" d="M397 605 Q349 605 313.5 587 Q278 569 255 537 Q232 505 221 459.5 Q210 414 210 360 Q210 306 221 261 Q232 216 255 184 Q278 152 313.5 134 Q349 116 397 116 Q445 116 480 134 Q515 152 538 184 Q561 216 572 261 Q583 306 583 360 Q583 414 572 459.5 Q561 505 538 537 Q515 569 480 587 Q445 605 397 605 Z M397 730 Q476 730 539 701.5 Q602 673 646 623.5 Q690 574 713.5 506 Q737 438 737 360 Q737 281 713.5 213.5 Q690 146 646 96 Q602 46 539 17.5 Q476 -11 397 -11 Q317 -11 254 17.5 Q191 46 147 96 Q103 146 79.5 213.5 Q56 281 56 360 Q56 438 79.5 506 Q103 574 147 623.5 Q191 673 254 701.5 Q317 730 397 730 Z M325 900 Q325 869 343.5 853 Q362 837 396 837 Q434 837 451 854.5 Q468 872 468 900 L539 892 Q538 831 497.5 797 Q457 763 396 763 Q366 763 340 772 Q314 781 295 797.5 Q276 814 265 838 Q254 862 254 892 L325 900 Z " />
<glyph glyph-name="Ocircumflex" unicode="&#xd4;" horiz-adv-x="793" d="M397 605 Q349 605 313.5 587 Q278 569 255 537 Q232 505 221 459.5 Q210 414 210 360 Q210 306 221 261 Q232 216 255 184 Q278 152 313.5 134 Q349 116 397 116 Q445 116 480 134 Q515 152 538 184 Q561 216 572 261 Q583 306 583 360 Q583 414 572 459.5 Q561 505 538 537 Q515 569 480 587 Q445 605 397 605 Z M397 730 Q476 730 539 701.5 Q602 673 646 623.5 Q690 574 713.5 506 Q737 438 737 360 Q737 281 713.5 213.5 Q690 146 646 96 Q602 46 539 17.5 Q476 -11 397 -11 Q317 -11 254 17.5 Q191 46 147 96 Q103 146 79.5 213.5 Q56 281 56 360 Q56 438 79.5 506 Q103 574 147 623.5 Q191 673 254 701.5 Q317 730 397 730 Z M496 759 L397 844 L297 759 L210 774 L341 922 L450 922 L583 774 L496 759 Z " />
<glyph glyph-name="Odieresis" unicode="&#xd6;" horiz-adv-x="793" d="M397 605 Q349 605 313.5 587 Q278 569 255 537 Q232 505 221 459.5 Q210 414 210 360 Q210 306 221 261 Q232 216 255 184 Q278 152 313.5 134 Q349 116 397 116 Q445 116 480 134 Q515 152 538 184 Q561 216 572 261 Q583 306 583 360 Q583 414 572 459.5 Q561 505 538 537 Q515 569 480 587 Q445 605 397 605 Z M397 730 Q476 730 539 701.5 Q602 673 646 623.5 Q690 574 713.5 506 Q737 438 737 360 Q737 281 713.5 213.5 Q690 146 646 96 Q602 46 539 17.5 Q476 -11 397 -11 Q317 -11 254 17.5 Q191 46 147 96 Q103 146 79.5 213.5 Q56 281 56 360 Q56 438 79.5 506 Q103 574 147 623.5 Q191 673 254 701.5 Q317 730 397 730 Z M241 785 L241 883 L339 883 L339 785 L241 785 Z M451 785 L451 883 L551 883 L551 785 L451 785 Z " />
<glyph glyph-name="Ograve" unicode="&#xd2;" horiz-adv-x="793" d="M397 605 Q349 605 313.5 587 Q278 569 255 537 Q232 505 221 459.5 Q210 414 210 360 Q210 306 221 261 Q232 216 255 184 Q278 152 313.5 134 Q349 116 397 116 Q445 116 480 134 Q515 152 538 184 Q561 216 572 261 Q583 306 583 360 Q583 414 572 459.5 Q561 505 538 537 Q515 569 480 587 Q445 605 397 605 Z M397 730 Q476 730 539 701.5 Q602 673 646 623.5 Q690 574 713.5 506 Q737 438 737 360 Q737 281 713.5 213.5 Q690 146 646 96 Q602 46 539 17.5 Q476 -11 397 -11 Q317 -11 254 17.5 Q191 46 147 96 Q103 146 79.5 213.5 Q56 281 56 360 Q56 438 79.5 506 Q103 574 147 623.5 Q191 673 254 701.5 Q317 730 397 730 Z M364 922 L487 759 L402 759 L238 908 L364 922 Z " />
<glyph glyph-name="Ohungarumlaut" unicode="&#x150;" horiz-adv-x="793" d="M397 605 Q349 605 313.5 587 Q278 569 255 537 Q232 505 221 459.5 Q210 414 210 360 Q210 306 221 261 Q232 216 255 184 Q278 152 313.5 134 Q349 116 397 116 Q445 116 480 134 Q515 152 538 184 Q561 216 572 261 Q583 306 583 360 Q583 414 572 459.5 Q561 505 538 537 Q515 569 480 587 Q445 605 397 605 Z M397 730 Q476 730 539 701.5 Q602 673 646 623.5 Q690 574 713.5 506 Q737 438 737 360 Q737 281 713.5 213.5 Q690 146 646 96 Q602 46 539 17.5 Q476 -11 397 -11 Q317 -11 254 17.5 Q191 46 147 96 Q103 146 79.5 213.5 Q56 281 56 360 Q56 438 79.5 506 Q103 574 147 623.5 Q191 673 254 701.5 Q317 730 397 730 Z M449 908 L322 767 L249 767 L343 922 L449 908 Z M638 908 L509 767 L438 767 L531 922 L638 908 Z " />
<glyph glyph-name="Omacron" unicode="&#x14c;" horiz-adv-x="793" d="M397 605 Q349 605 313.5 587 Q278 569 255 537 Q232 505 221 459.5 Q210 414 210 360 Q210 306 221 261 Q232 216 255 184 Q278 152 313.5 134 Q349 116 397 116 Q445 116 480 134 Q515 152 538 184 Q561 216 572 261 Q583 306 583 360 Q583 414 572 459.5 Q561 505 538 537 Q515 569 480 587 Q445 605 397 605 Z M397 730 Q476 730 539 701.5 Q602 673 646 623.5 Q690 574 713.5 506 Q737 438 737 360 Q737 281 713.5 213.5 Q690 146 646 96 Q602 46 539 17.5 Q476 -11 397 -11 Q317 -11 254 17.5 Q191 46 147 96 Q103 146 79.5 213.5 Q56 281 56 360 Q56 438 79.5 506 Q103 574 147 623.5 Q191 673 254 701.5 Q317 730 397 730 Z M257 779 L257 857 L535 857 L535 779 L257 779 Z " />
<glyph glyph-name="Otilde" unicode="&#xd5;" horiz-adv-x="793" d="M397 605 Q349 605 313.5 587 Q278 569 255 537 Q232 505 221 459.5 Q210 414 210 360 Q210 306 221 261 Q232 216 255 184 Q278 152 313.5 134 Q349 116 397 116 Q445 116 480 134 Q515 152 538 184 Q561 216 572 261 Q583 306 583 360 Q583 414 572 459.5 Q561 505 538 537 Q515 569 480 587 Q445 605 397 605 Z M397 730 Q476 730 539 701.5 Q602 673 646 623.5 Q690 574 713.5 506 Q737 438 737 360 Q737 281 713.5 213.5 Q690 146 646 96 Q602 46 539 17.5 Q476 -11 397 -11 Q317 -11 254 17.5 Q191 46 147 96 Q103 146 79.5 213.5 Q56 281 56 360 Q56 438 79.5 506 Q103 574 147 623.5 Q191 673 254 701.5 Q317 730 397 730 Z M325 897 Q352 897 372.5 888.5 Q393 880 410 870 Q427 860 441.5 851.5 Q456 843 470 843 Q484 843 495 850.5 Q506 858 509 883 L567 874 Q562 823 538 794.5 Q514 766 472 766 Q448 766 428.5 775 Q409 784 391 795 Q373 806 356 815 Q339 824 321 824 Q304 824 294 813.5 Q284 803 282 779 L226 792 Q229 840 253 868.5 Q277 897 325 897 Z " />
<glyph glyph-name="Racute" unicode="&#x154;" horiz-adv-x="701" d="M502 0 Q502 90 492.5 146 Q483 202 465.5 233 Q448 264 423 275 Q398 286 366 286 L225 286 L225 0 L82 0 L82 720 L421 720 Q478 720 519.5 704.5 Q561 689 588 662.5 Q615 636 628 600.5 Q641 565 641 524 Q641 446 598.5 398 Q556 350 472 342 Q508 337 539.5 320.5 Q571 304 594.5 266 Q618 228 631.5 164 Q645 100 645 0 L502 0 Z M383 397 Q444 397 467.5 425.5 Q491 454 491 505 Q491 553 467.5 580.5 Q444 608 383 608 L225 608 L225 397 L383 397 Z M517 908 L354 759 L268 759 L392 922 L517 908 Z " />
<glyph glyph-name="Rcaron" unicode="&#x158;" horiz-adv-x="701" d="M502 0 Q502 90 492.5 146 Q483 202 465.5 233 Q448 264 423 275 Q398 286 366 286 L225 286 L225 0 L82 0 L82 720 L421 720 Q478 720 519.5 704.5 Q561 689 588 662.5 Q615 636 628 600.5 Q641 565 641 524 Q641 446 598.5 398 Q556 350 472 342 Q508 337 539.5 320.5 Q571 304 594.5 266 Q618 228 631.5 164 Q645 100 645 0 L502 0 Z M383 397 Q444 397 467.5 425.5 Q491 454 491 505 Q491 553 467.5 580.5 Q444 608 383 608 L225 608 L225 397 L383 397 Z M248 922 L347 839 L447 922 L534 908 L401 759 L292 759 L161 908 L248 922 Z " />
<glyph glyph-name="Rcommaaccent" unicode="&#x156;" horiz-adv-x="701" d="M502 0 Q502 90 492.5 146 Q483 202 465.5 233 Q448 264 423 275 Q398 286 366 286 L225 286 L225 0 L82 0 L82 720 L421 720 Q478 720 519.5 704.5 Q561 689 588 662.5 Q615 636 628 600.5 Q641 565 641 524 Q641 446 598.5 398 Q556 350 472 342 Q508 337 539.5 320.5 Q571 304 594.5 266 Q618 228 631.5 164 Q645 100 645 0 L502 0 Z M383 397 Q444 397 467.5 425.5 Q491 454 491 505 Q491 553 467.5 580.5 Q444 608 383 608 L225 608 L225 397 L383 397 Z M415 -43 L415 -109 Q415 -137 406.5 -159.5 Q398 -182 383 -200 Q368 -218 347.5 -232 Q327 -246 303 -257 L285 -212 Q319 -200 333.5 -180 Q348 -160 348 -131 L298 -131 L298 -43 L415 -43 Z " />
<glyph glyph-name="Sacute" unicode="&#x15a;" horiz-adv-x="688" d="M347 730 Q413 730 464.5 713.5 Q516 697 553 668 Q590 639 610.5 598.5 Q631 558 634 510 L486 510 Q483 534 475.5 553.5 Q468 573 451.5 587 Q435 601 408.5 608.5 Q382 616 343 616 Q306 616 281.5 608.5 Q257 601 242 588 Q227 575 220.5 558 Q214 541 214 523 Q214 476 250.5 457.5 Q287 439 358 430 Q421 424 472.5 410 Q524 396 560.5 372 Q597 348 617.5 311.5 Q638 275 638 224 Q638 173 618 130 Q598 87 560 55.5 Q522 24 466.5 6.5 Q411 -11 340 -11 Q274 -11 222 5.5 Q170 22 133 52 Q96 82 74.5 123 Q53 164 50 213 L199 213 Q203 164 235.5 133 Q268 102 346 102 Q383 102 408.5 110.5 Q434 119 450 133 Q466 147 473.5 165 Q481 183 481 203 Q481 229 471.5 246 Q462 263 442.5 274 Q423 285 394 291.5 Q365 298 326 303 Q261 311 211 325 Q161 339 127.5 363 Q94 387 77 423.5 Q60 460 60 512 Q60 557 78.5 596.5 Q97 636 133 666 Q169 696 222.5 713 Q276 730 347 730 Z M511 908 L348 759 L262 759 L386 922 L511 908 Z " />
<glyph glyph-name="Scaron" unicode="&#x160;" horiz-adv-x="688" d="M347 730 Q413 730 464.5 713.5 Q516 697 553 668 Q590 639 610.5 598.5 Q631 558 634 510 L486 510 Q483 534 475.5 553.5 Q468 573 451.5 587 Q435 601 408.5 608.5 Q382 616 343 616 Q306 616 281.5 608.5 Q257 601 242 588 Q227 575 220.5 558 Q214 541 214 523 Q214 476 250.5 457.5 Q287 439 358 430 Q421 424 472.5 410 Q524 396 560.5 372 Q597 348 617.5 311.5 Q638 275 638 224 Q638 173 618 130 Q598 87 560 55.5 Q522 24 466.5 6.5 Q411 -11 340 -11 Q274 -11 222 5.5 Q170 22 133 52 Q96 82 74.5 123 Q53 164 50 213 L199 213 Q203 164 235.5 133 Q268 102 346 102 Q383 102 408.5 110.5 Q434 119 450 133 Q466 147 473.5 165 Q481 183 481 203 Q481 229 471.5 246 Q462 263 442.5 274 Q423 285 394 291.5 Q365 298 326 303 Q261 311 211 325 Q161 339 127.5 363 Q94 387 77 423.5 Q60 460 60 512 Q60 557 78.5 596.5 Q97 636 133 666 Q169 696 222.5 713 Q276 730 347 730 Z M250 922 L349 839 L449 922 L536 908 L403 759 L294 759 L163 908 L250 922 Z " />
<glyph glyph-name="Scedilla" unicode="&#x15e;" horiz-adv-x="688" d="M347 730 Q413 730 464.5 713.5 Q516 697 553 668 Q590 639 610.5 598.5 Q631 558 634 510 L486 510 Q483 534 475.5 553.5 Q468 573 451.5 587 Q435 601 408.5 608.5 Q382 616 343 616 Q306 616 281.5 608.5 Q257 601 242 588 Q227 575 220.5 558 Q214 541 214 523 Q214 476 250.5 457.5 Q287 439 358 430 Q421 424 472.5 410 Q524 396 560.5 372 Q597 348 617.5 311.5 Q638 275 638 224 Q638 175 620 133.5 Q602 92 567.5 61.5 Q533 31 482.5 12 Q432 -7 367 -10 L335 -57 Q343 -55 351 -54 Q359 -53 367 -53 Q386 -53 405 -58 Q424 -63 439 -73.5 Q454 -84 463 -100 Q472 -116 472 -139 Q472 -164 460.5 -184 Q449 -204 428.5 -217.5 Q408 -231 381 -238 Q354 -245 324 -245 Q289 -245 257.5 -235.5 Q226 -226 205 -206 L244 -161 Q252 -172 272.5 -179 Q293 -186 315 -186 Q343 -186 357.5 -175.5 Q372 -165 372 -147 Q372 -120 349 -109.5 Q326 -99 289 -99 Q277 -99 263 -100 Q249 -101 235 -103 L288 -8 Q234 -2 191 17 Q148 36 118 65 Q88 94 70.5 131.5 Q53 169 50 213 L199 213 Q203 164 235.5 133 Q268 102 346 102 Q383 102 408.5 110.5 Q434 119 450 133 Q466 147 473.5 165 Q481 183 481 203 Q481 229 471.5 246 Q462 263 442.5 274 Q423 285 394 291.5 Q365 298 326 303 Q261 311 211 325 Q161 339 127.5 363 Q94 387 77 423.5 Q60 460 60 512 Q60 557 78.5 596.5 Q97 636 133 666 Q169 696 222.5 713 Q276 730 347 730 Z " />
<glyph glyph-name="Scircumflex" unicode="&#x15c;" horiz-adv-x="688" d="M347 730 Q413 730 464.5 713.5 Q516 697 553 668 Q590 639 610.5 598.5 Q631 558 634 510 L486 510 Q483 534 475.5 553.5 Q468 573 451.5 587 Q435 601 408.5 608.5 Q382 616 343 616 Q306 616 281.5 608.5 Q257 601 242 588 Q227 575 220.5 558 Q214 541 214 523 Q214 476 250.5 457.5 Q287 439 358 430 Q421 424 472.5 410 Q524 396 560.5 372 Q597 348 617.5 311.5 Q638 275 638 224 Q638 173 618 130 Q598 87 560 55.5 Q522 24 466.5 6.5 Q411 -11 340 -11 Q274 -11 222 5.5 Q170 22 133 52 Q96 82 74.5 123 Q53 164 50 213 L199 213 Q203 164 235.5 133 Q268 102 346 102 Q383 102 408.5 110.5 Q434 119 450 133 Q466 147 473.5 165 Q481 183 481 203 Q481 229 471.5 246 Q462 263 442.5 274 Q423 285 394 291.5 Q365 298 326 303 Q261 311 211 325 Q161 339 127.5 363 Q94 387 77 423.5 Q60 460 60 512 Q60 557 78.5 596.5 Q97 636 133 666 Q169 696 222.5 713 Q276 730 347 730 Z M453 759 L354 844 L254 759 L167 774 L298 922 L407 922 L540 774 L453 759 Z " />
<glyph glyph-name="Scommaaccent" unicode="&#x218;" horiz-adv-x="688" d="M347 730 Q413 730 464.5 713.5 Q516 697 553 668 Q590 639 610.5 598.5 Q631 558 634 510 L486 510 Q483 534 475.5 553.5 Q468 573 451.5 587 Q435 601 408.5 608.5 Q382 616 343 616 Q306 616 281.5 608.5 Q257 601 242 588 Q227 575 220.5 558 Q214 541 214 523 Q214 476 250.5 457.5 Q287 439 358 430 Q421 424 472.5 410 Q524 396 560.5 372 Q597 348 617.5 311.5 Q638 275 638 224 Q638 173 618 130 Q598 87 560 55.5 Q522 24 466.5 6.5 Q411 -11 340 -11 Q274 -11 222 5.5 Q170 22 133 52 Q96 82 74.5 123 Q53 164 50 213 L199 213 Q203 164 235.5 133 Q268 102 346 102 Q383 102 408.5 110.5 Q434 119 450 133 Q466 147 473.5 165 Q481 183 481 203 Q481 229 471.5 246 Q462 263 442.5 274 Q423 285 394 291.5 Q365 298 326 303 Q261 311 211 325 Q161 339 127.5 363 Q94 387 77 423.5 Q60 460 60 512 Q60 557 78.5 596.5 Q97 636 133 666 Q169 696 222.5 713 Q276 730 347 730 Z M402 -43 L402 -109 Q402 -137 393.5 -159.5 Q385 -182 370 -200 Q355 -218 334.5 -232 Q314 -246 290 -257 L272 -212 Q306 -200 320.5 -180 Q335 -160 335 -131 L285 -131 L285 -43 L402 -43 Z " />
<glyph glyph-name="Tbar" unicode="&#x166;" horiz-adv-x="629" d="M244 0 L244 298 L147 298 L147 384 L244 384 L244 608 L11 608 L11 720 L619 720 L619 608 L386 608 L386 384 L482 384 L482 298 L386 298 L386 0 L244 0 Z " />
<glyph glyph-name="Tcaron" unicode="&#x164;" horiz-adv-x="629" d="M244 0 L244 608 L11 608 L11 720 L619 720 L619 608 L386 608 L386 0 L244 0 Z M215 922 L314 839 L414 922 L501 908 L368 759 L259 759 L128 908 L215 922 Z " />
<glyph glyph-name="Tcommaaccent" unicode="&#x162;" horiz-adv-x="629" d="M244 0 L244 608 L11 608 L11 720 L619 720 L619 608 L386 608 L386 0 L244 0 Z M372 -43 L372 -109 Q372 -137 363.5 -159.5 Q355 -182 340 -200 Q325 -218 304.5 -232 Q284 -246 260 -257 L242 -212 Q276 -200 290.5 -180 Q305 -160 305 -131 L255 -131 L255 -43 L372 -43 Z " />
<glyph glyph-name="Uacute" unicode="&#xda;" horiz-adv-x="741" d="M522 720 L666 720 L666 221 Q666 162 641 118.5 Q616 75 574 46 Q532 17 478.5 3 Q425 -11 368 -11 Q310 -11 257 3 Q204 17 163.5 46 Q123 75 98.5 118.5 Q74 162 74 221 L74 720 L219 720 L219 248 Q219 175 256.5 142.5 Q294 110 370 110 Q448 110 485 143 Q522 176 522 248 L522 720 Z M542 908 L379 759 L293 759 L417 922 L542 908 Z " />
<glyph glyph-name="Ubreve" unicode="&#x16c;" horiz-adv-x="741" d="M522 720 L666 720 L666 221 Q666 162 641 118.5 Q616 75 574 46 Q532 17 478.5 3 Q425 -11 368 -11 Q310 -11 257 3 Q204 17 163.5 46 Q123 75 98.5 118.5 Q74 162 74 221 L74 720 L219 720 L219 248 Q219 175 256.5 142.5 Q294 110 370 110 Q448 110 485 143 Q522 176 522 248 L522 720 Z M299 900 Q299 869 317.5 853 Q336 837 370 837 Q408 837 425 854.5 Q442 872 442 900 L513 892 Q512 831 471.5 797 Q431 763 370 763 Q340 763 314 772 Q288 781 269 797.5 Q250 814 239 838 Q228 862 228 892 L299 900 Z " />
<glyph glyph-name="Ucircumflex" unicode="&#xdb;" horiz-adv-x="741" d="M522 720 L666 720 L666 221 Q666 162 641 118.5 Q616 75 574 46 Q532 17 478.5 3 Q425 -11 368 -11 Q310 -11 257 3 Q204 17 163.5 46 Q123 75 98.5 118.5 Q74 162 74 221 L74 720 L219 720 L219 248 Q219 175 256.5 142.5 Q294 110 370 110 Q448 110 485 143 Q522 176 522 248 L522 720 Z M470 759 L371 844 L271 759 L184 774 L315 922 L424 922 L557 774 L470 759 Z " />
<glyph glyph-name="Udieresis" unicode="&#xdc;" horiz-adv-x="741" d="M522 720 L666 720 L666 221 Q666 162 641 118.5 Q616 75 574 46 Q532 17 478.5 3 Q425 -11 368 -11 Q310 -11 257 3 Q204 17 163.5 46 Q123 75 98.5 118.5 Q74 162 74 221 L74 720 L219 720 L219 248 Q219 175 256.5 142.5 Q294 110 370 110 Q448 110 485 143 Q522 176 522 248 L522 720 Z M215 785 L215 883 L313 883 L313 785 L215 785 Z M425 785 L425 883 L525 883 L525 785 L425 785 Z " />
<glyph glyph-name="Ugrave" unicode="&#xd9;" horiz-adv-x="741" d="M522 720 L666 720 L666 221 Q666 162 641 118.5 Q616 75 574 46 Q532 17 478.5 3 Q425 -11 368 -11 Q310 -11 257 3 Q204 17 163.5 46 Q123 75 98.5 118.5 Q74 162 74 221 L74 720 L219 720 L219 248 Q219 175 256.5 142.5 Q294 110 370 110 Q448 110 485 143 Q522 176 522 248 L522 720 Z M352 922 L475 759 L390 759 L226 908 L352 922 Z " />
<glyph glyph-name="Uhungarumlaut" unicode="&#x170;" horiz-adv-x="741" d="M522 720 L666 720 L666 221 Q666 162 641 118.5 Q616 75 574 46 Q532 17 478.5 3 Q425 -11 368 -11 Q310 -11 257 3 Q204 17 163.5 46 Q123 75 98.5 118.5 Q74 162 74 221 L74 720 L219 720 L219 248 Q219 175 256.5 142.5 Q294 110 370 110 Q448 110 485 143 Q522 176 522 248 L522 720 Z M434 908 L307 767 L234 767 L328 922 L434 908 Z M623 908 L494 767 L423 767 L516 922 L623 908 Z " />
<glyph glyph-name="Umacron" unicode="&#x16a;" horiz-adv-x="741" d="M522 720 L666 720 L666 221 Q666 162 641 118.5 Q616 75 574 46 Q532 17 478.5 3 Q425 -11 368 -11 Q310 -11 257 3 Q204 17 163.5 46 Q123 75 98.5 118.5 Q74 162 74 221 L74 720 L219 720 L219 248 Q219 175 256.5 142.5 Q294 110 370 110 Q448 110 485 143 Q522 176 522 248 L522 720 Z M231 779 L231 857 L509 857 L509 779 L231 779 Z " />
<glyph glyph-name="Uogonek" unicode="&#x172;" horiz-adv-x="741" d="M522 720 L666 720 L666 221 Q666 169 646.5 129 Q627 89 593.5 60.5 Q560 32 515.5 15.5 Q471 -1 422 -7 Q402 -26 390 -50 Q378 -74 378 -97 Q378 -119 391.5 -131 Q405 -143 428 -143 Q434 -143 440 -142.5 Q446 -142 452 -141 L452 -225 Q429 -230 405 -230 Q345 -230 310.5 -201.5 Q276 -173 276 -128 Q276 -61 345 -10 Q291 -7 241.5 8 Q192 23 155 51.5 Q118 80 96 122.5 Q74 165 74 221 L74 720 L219 720 L219 248 Q219 175 256.5 142.5 Q294 110 370 110 Q448 110 485 143 Q522 176 522 248 L522 720 Z " />
<glyph glyph-name="Uring" unicode="&#x16e;" horiz-adv-x="741" d="M522 720 L666 720 L666 221 Q666 162 641 118.5 Q616 75 574 46 Q532 17 478.5 3 Q425 -11 368 -11 Q310 -11 257 3 Q204 17 163.5 46 Q123 75 98.5 118.5 Q74 162 74 221 L74 720 L219 720 L219 248 Q219 175 256.5 142.5 Q294 110 370 110 Q448 110 485 143 Q522 176 522 248 L522 720 Z M371 930 Q398 930 421 924 Q444 918 461.5 906.5 Q479 895 489 877.5 Q499 860 499 837 Q499 814 489 796.5 Q479 779 461.5 768 Q444 757 421 751.5 Q398 746 371 746 Q344 746 320.5 751.5 Q297 757 279.5 768 Q262 779 252 796.5 Q242 814 242 837 Q242 860 252 877.5 Q262 895 279.5 906.5 Q297 918 320.5 924 Q344 930 371 930 Z M370 876 Q344 876 329.5 865 Q315 854 315 837 Q315 814 331 805.5 Q347 797 370 797 Q396 797 410.5 807 Q425 817 425 837 Q425 857 408.5 866.5 Q392 876 370 876 Z " />
<glyph glyph-name="Utilde" unicode="&#x168;" horiz-adv-x="741" d="M522 720 L666 720 L666 221 Q666 162 641 118.5 Q616 75 574 46 Q532 17 478.5 3 Q425 -11 368 -11 Q310 -11 257 3 Q204 17 163.5 46 Q123 75 98.5 118.5 Q74 162 74 221 L74 720 L219 720 L219 248 Q219 175 256.5 142.5 Q294 110 370 110 Q448 110 485 143 Q522 176 522 248 L522 720 Z M299 897 Q326 897 346.5 888.5 Q367 880 384 870 Q401 860 415.5 851.5 Q430 843 444 843 Q458 843 469 850.5 Q480 858 483 883 L541 874 Q536 823 512 794.5 Q488 766 446 766 Q422 766 402.5 775 Q383 784 365 795 Q347 806 330 815 Q313 824 295 824 Q278 824 268 813.5 Q258 803 256 779 L200 792 Q203 840 227 868.5 Q251 897 299 897 Z " />
<glyph glyph-name="Wcircumflex" unicode="&#x174;" horiz-adv-x="1002" d="M166 720 L286 230 Q291 215 295.5 191 Q300 167 302 146 Q304 166 308.5 190 Q313 214 318 230 L437 720 L567 720 L690 230 Q694 215 698.5 190.5 Q703 166 706 144 Q708 166 712 190.5 Q716 215 720 230 L845 720 L987 720 L795 0 L619 0 L515 417 Q511 435 507.5 458.5 Q504 482 502 502 Q500 482 496.5 458.5 Q493 435 488 417 L385 0 L209 0 L15 720 L166 720 Z M601 759 L502 844 L402 759 L315 774 L446 922 L555 922 L688 774 L601 759 Z " />
<glyph glyph-name="Wacute" unicode="&#x1e82;" horiz-adv-x="1002" d="M166 720 L286 230 Q291 215 295.5 190 Q300 165 302 144 Q304 165 308.5 189.5 Q313 214 318 230 L437 720 L567 720 L690 230 Q694 215 698.5 190.5 Q703 166 706 144 Q708 166 712 190.5 Q716 215 720 230 L845 720 L987 720 L795 0 L619 0 L515 417 Q511 435 507.5 458.5 Q504 482 502 502 Q500 482 496.5 458.5 Q493 435 488 417 L385 0 L209 0 L15 720 L166 720 Z M678 908 L515 759 L429 759 L553 922 L678 908 Z " />
<glyph glyph-name="Wgrave" unicode="&#x1e80;" horiz-adv-x="1002" d="M166 720 L286 230 Q291 215 295.5 190 Q300 165 302 144 Q304 165 308.5 189.5 Q313 214 318 230 L437 720 L567 720 L690 230 Q694 215 698.5 190.5 Q703 166 706 144 Q708 166 712 190.5 Q716 215 720 230 L845 720 L987 720 L795 0 L619 0 L515 417 Q511 435 507.5 458.5 Q504 482 502 502 Q500 482 496.5 458.5 Q493 435 488 417 L385 0 L209 0 L15 720 L166 720 Z M459 922 L582 759 L497 759 L333 908 L459 922 Z " />
<glyph glyph-name="Wdieresis" unicode="&#x1e84;" horiz-adv-x="1002" d="M166 720 L286 230 Q291 215 295.5 191 Q300 167 302 146 Q304 166 308.5 190 Q313 214 318 230 L437 720 L567 720 L690 230 Q694 215 698.5 190.5 Q703 166 706 144 Q708 166 712 190.5 Q716 215 720 230 L845 720 L987 720 L795 0 L619 0 L515 417 Q511 435 507.5 458.5 Q504 482 502 502 Q500 482 496.5 458.5 Q493 435 488 417 L385 0 L209 0 L15 720 L166 720 Z M556 785 L556 883 L656 883 L656 785 L556 785 Z M346 785 L346 883 L444 883 L444 785 L346 785 Z " />
<glyph glyph-name="Yacute" unicode="&#xdd;" horiz-adv-x="676" d="M267 0 L267 311 L-10 720 L159 720 L343 432 L529 720 L685 720 L410 311 L410 0 L267 0 Z M519 908 L356 759 L270 759 L394 922 L519 908 Z " />
<glyph glyph-name="Ycircumflex" unicode="&#x176;" horiz-adv-x="676" d="M267 0 L267 311 L-10 720 L159 720 L343 432 L529 720 L685 720 L410 311 L410 0 L267 0 Z M438 759 L339 844 L239 759 L152 774 L283 922 L392 922 L525 774 L438 759 Z " />
<glyph glyph-name="Ydieresis" unicode="&#x178;" horiz-adv-x="676" d="M267 0 L267 311 L-10 720 L159 720 L343 432 L529 720 L685 720 L410 311 L410 0 L267 0 Z M183 785 L183 883 L281 883 L281 785 L183 785 Z M393 785 L393 883 L493 883 L493 785 L393 785 Z " />
<glyph glyph-name="Ygrave" unicode="&#x1ef2;" horiz-adv-x="676" d="M267 0 L267 311 L-10 720 L159 720 L343 432 L529 720 L685 720 L410 311 L410 0 L267 0 Z M312 922 L435 759 L350 759 L186 908 L312 922 Z " />
<glyph glyph-name="Zacute" unicode="&#x179;" horiz-adv-x="647" d="M41 0 L41 113 L434 608 L50 608 L50 720 L605 720 L605 607 L212 113 L610 113 L610 0 L41 0 Z M501 908 L338 759 L252 759 L376 922 L501 908 Z " />
<glyph glyph-name="Zcaron" unicode="&#x17d;" horiz-adv-x="647" d="M41 0 L41 113 L434 608 L50 608 L50 720 L605 720 L605 607 L212 113 L610 113 L610 0 L41 0 Z M230 922 L329 839 L429 922 L516 908 L383 759 L274 759 L143 908 L230 922 Z " />
<glyph glyph-name="Zdotaccent" unicode="&#x17b;" horiz-adv-x="647" d="M41 0 L41 113 L434 608 L50 608 L50 720 L605 720 L605 607 L212 113 L610 113 L610 0 L41 0 Z M260 785 L260 890 L387 890 L387 785 L260 785 Z " />
<glyph glyph-name="AEacute" unicode="&#x1fc;" horiz-adv-x="974" d="M433 0 L433 185 L179 185 L60 0 L-100 0 L372 720 L925 720 L925 608 L577 608 L577 427 L862 427 L862 318 L577 318 L577 113 L933 113 L933 0 L433 0 Z M433 295 L433 587 L245 295 L433 295 Z M750 908 L587 759 L501 759 L625 922 L750 908 Z " />
<glyph glyph-name="Oslashacute" unicode="&#x1fe;" horiz-adv-x="793" d="M716 720 L647 622 Q691 572 714 505 Q737 438 737 360 Q737 281 713.5 213.5 Q690 146 646 96 Q602 46 539 17.5 Q476 -11 397 -11 Q348 -11 305.5 0 Q263 11 227 31 L205 0 L74 0 L144 99 Q101 149 78.5 215.5 Q56 282 56 360 Q56 438 79.5 506 Q103 574 147 623.5 Q191 673 254 701.5 Q317 730 397 730 Q445 730 487 719.5 Q529 709 565 689 L587 720 L716 720 Z M583 360 Q583 441 559 498 L303 139 Q343 116 397 116 Q445 116 480 134 Q515 152 538 184 Q561 216 572 261 Q583 306 583 360 Z M397 605 Q349 605 313.5 587 Q278 569 255 537 Q232 505 221 459.5 Q210 414 210 360 Q210 282 233 224 L489 582 Q451 605 397 605 Z M559 908 L396 759 L310 759 L434 922 L559 908 Z " />
<glyph glyph-name="aacute" unicode="&#xe1;" horiz-adv-x="566" d="M290 535 Q350 535 389.5 522 Q429 509 453 486.5 Q477 464 487 432.5 Q497 401 497 365 L497 0 L363 0 L363 84 Q341 38 302.5 15 Q264 -8 201 -8 Q126 -8 83 31 Q40 70 40 137 Q40 226 104.5 274 Q169 322 315 322 Q326 322 339 321.5 Q352 321 363 320 L363 365 Q363 397 346 415.5 Q329 434 282 434 Q233 434 209 417.5 Q185 401 180 367 L55 367 Q65 448 125 491.5 Q185 535 290 535 Z M319 237 Q250 237 214 219 Q178 201 178 158 Q178 95 245 95 Q296 95 329.5 125.5 Q363 156 363 208 L363 236 Q352 237 341 237 Q330 237 319 237 Z M443 737 L287 582 L194 582 L304 753 L443 737 Z " />
<glyph glyph-name="abreve" unicode="&#x103;" horiz-adv-x="566" d="M290 535 Q350 535 389.5 522 Q429 509 453 486.5 Q477 464 487 432.5 Q497 401 497 365 L497 0 L363 0 L363 84 Q341 38 302.5 15 Q264 -8 201 -8 Q126 -8 83 31 Q40 70 40 137 Q40 226 104.5 274 Q169 322 315 322 Q326 322 339 321.5 Q352 321 363 320 L363 365 Q363 397 346 415.5 Q329 434 282 434 Q233 434 209 417.5 Q185 401 180 367 L55 367 Q65 448 125 491.5 Q185 535 290 535 Z M319 237 Q250 237 214 219 Q178 201 178 158 Q178 95 245 95 Q296 95 329.5 125.5 Q363 156 363 208 L363 236 Q352 237 341 237 Q330 237 319 237 Z M213 734 Q214 700 231 681 Q248 662 282 662 Q320 662 335.5 683.5 Q351 705 351 734 L433 725 Q433 691 421 664.5 Q409 638 388 619.5 Q367 601 339.5 591.5 Q312 582 282 582 Q252 582 225 591.5 Q198 601 177 619.5 Q156 638 144 664.5 Q132 691 132 725 L213 734 Z " />
<glyph glyph-name="acircumflex" unicode="&#xe2;" horiz-adv-x="566" d="M290 535 Q350 535 389.5 522 Q429 509 453 486.5 Q477 464 487 432.5 Q497 401 497 365 L497 0 L363 0 L363 84 Q341 38 302.5 15 Q264 -8 201 -8 Q126 -8 83 31 Q40 70 40 137 Q40 226 104.5 274 Q169 322 315 322 Q326 322 339 321.5 Q352 321 363 320 L363 365 Q363 397 346 415.5 Q329 434 282 434 Q233 434 209 417.5 Q185 401 180 367 L55 367 Q65 448 125 491.5 Q185 535 290 535 Z M319 237 Q250 237 214 219 Q178 201 178 158 Q178 95 245 95 Q296 95 329.5 125.5 Q363 156 363 208 L363 236 Q352 237 341 237 Q330 237 319 237 Z M346 741 L471 594 L377 577 L285 661 L191 577 L98 594 L223 741 L346 741 Z " />
<glyph glyph-name="adieresis" unicode="&#xe4;" horiz-adv-x="566" d="M290 535 Q350 535 389.5 522 Q429 509 453 486.5 Q477 464 487 432.5 Q497 401 497 365 L497 0 L363 0 L363 84 Q341 38 302.5 15 Q264 -8 201 -8 Q126 -8 83 31 Q40 70 40 137 Q40 226 104.5 274 Q169 322 315 322 Q326 322 339 321.5 Q352 321 363 320 L363 365 Q363 397 346 415.5 Q329 434 282 434 Q233 434 209 417.5 Q185 401 180 367 L55 367 Q65 448 125 491.5 Q185 535 290 535 Z M319 237 Q250 237 214 219 Q178 201 178 158 Q178 95 245 95 Q296 95 329.5 125.5 Q363 156 363 208 L363 236 Q352 237 341 237 Q330 237 319 237 Z M135 606 L135 709 L235 709 L235 606 L135 606 Z M332 606 L332 709 L431 709 L431 606 L332 606 Z " />
<glyph glyph-name="agrave" unicode="&#xe0;" horiz-adv-x="566" d="M290 535 Q350 535 389.5 522 Q429 509 453 486.5 Q477 464 487 432.5 Q497 401 497 365 L497 0 L363 0 L363 84 Q341 38 302.5 15 Q264 -8 201 -8 Q126 -8 83 31 Q40 70 40 137 Q40 226 104.5 274 Q169 322 315 322 Q326 322 339 321.5 Q352 321 363 320 L363 365 Q363 397 346 415.5 Q329 434 282 434 Q233 434 209 417.5 Q185 401 180 367 L55 367 Q65 448 125 491.5 Q185 535 290 535 Z M319 237 Q250 237 214 219 Q178 201 178 158 Q178 95 245 95 Q296 95 329.5 125.5 Q363 156 363 208 L363 236 Q352 237 341 237 Q330 237 319 237 Z M268 753 L377 582 L286 582 L129 737 L268 753 Z " />
<glyph glyph-name="amacron" unicode="&#x101;" horiz-adv-x="566" d="M290 535 Q350 535 389.5 522 Q429 509 453 486.5 Q477 464 487 432.5 Q497 401 497 365 L497 0 L363 0 L363 84 Q341 38 302.5 15 Q264 -8 201 -8 Q126 -8 83 31 Q40 70 40 137 Q40 226 104.5 274 Q169 322 315 322 Q326 322 339 321.5 Q352 321 363 320 L363 365 Q363 397 346 415.5 Q329 434 282 434 Q233 434 209 417.5 Q185 401 180 367 L55 367 Q65 448 125 491.5 Q185 535 290 535 Z M319 237 Q250 237 214 219 Q178 201 178 158 Q178 95 245 95 Q296 95 329.5 125.5 Q363 156 363 208 L363 236 Q352 237 341 237 Q330 237 319 237 Z M146 601 L146 687 L424 687 L424 601 L146 601 Z " />
<glyph glyph-name="aogonek" unicode="&#x105;" horiz-adv-x="566" d="M363 0 L363 84 Q341 38 302.5 15 Q264 -8 201 -8 Q126 -8 83 31 Q40 70 40 137 Q40 226 104.5 274 Q169 322 315 322 Q326 322 339 321.5 Q352 321 363 320 L363 365 Q363 397 346 415.5 Q329 434 282 434 Q233 434 209 417.5 Q185 401 180 367 L55 367 Q65 448 125 491.5 Q185 535 290 535 Q350 535 389.5 522 Q429 509 453 486.5 Q477 464 487 432.5 Q497 401 497 365 L497 0 L475 0 Q450 -19 435.5 -45.5 Q421 -72 421 -97 Q421 -119 434.5 -131 Q448 -143 471 -143 Q477 -143 483 -142.5 Q489 -142 495 -141 L495 -225 Q472 -230 448 -230 Q388 -230 353.5 -201.5 Q319 -173 319 -128 Q319 -93 340.5 -59.5 Q362 -26 404 0 L363 0 Z M319 237 Q250 237 214 219 Q178 201 178 158 Q178 95 245 95 Q296 95 329.5 125.5 Q363 156 363 208 L363 236 Q352 237 341 237 Q330 237 319 237 Z " />
<glyph glyph-name="aring" unicode="&#xe5;" horiz-adv-x="566" d="M290 535 Q350 535 389.5 522 Q429 509 453 486.5 Q477 464 487 432.5 Q497 401 497 365 L497 0 L363 0 L363 84 Q341 38 302.5 15 Q264 -8 201 -8 Q126 -8 83 31 Q40 70 40 137 Q40 226 104.5 274 Q169 322 315 322 Q326 322 339 321.5 Q352 321 363 320 L363 365 Q363 397 346 415.5 Q329 434 282 434 Q233 434 209 417.5 Q185 401 180 367 L55 367 Q65 448 125 491.5 Q185 535 290 535 Z M319 237 Q250 237 214 219 Q178 201 178 158 Q178 95 245 95 Q296 95 329.5 125.5 Q363 156 363 208 L363 236 Q352 237 341 237 Q330 237 319 237 Z M281 777 Q308 777 332 770 Q356 763 374 749.5 Q392 736 402.5 716.5 Q413 697 413 671 Q413 645 402.5 625.5 Q392 606 374 592.5 Q356 579 332 572.5 Q308 566 281 566 Q254 566 230 572.5 Q206 579 188 592.5 Q170 606 159.5 625.5 Q149 645 149 671 Q149 697 159.5 716.5 Q170 736 188 749.5 Q206 763 230 770 Q254 777 281 777 Z M281 713 Q256 713 243 701 Q230 689 230 672 Q230 650 244.5 639.5 Q259 629 281 629 Q304 629 317.5 639.5 Q331 650 331 670 Q331 691 316 702 Q301 713 281 713 Z " />
<glyph glyph-name="atilde" unicode="&#xe3;" horiz-adv-x="566" d="M290 535 Q350 535 389.5 522 Q429 509 453 486.5 Q477 464 487 432.5 Q497 401 497 365 L497 0 L363 0 L363 84 Q341 38 302.5 15 Q264 -8 201 -8 Q126 -8 83 31 Q40 70 40 137 Q40 226 104.5 274 Q169 322 315 322 Q326 322 339 321.5 Q352 321 363 320 L363 365 Q363 397 346 415.5 Q329 434 282 434 Q233 434 209 417.5 Q185 401 180 367 L55 367 Q65 448 125 491.5 Q185 535 290 535 Z M319 237 Q250 237 214 219 Q178 201 178 158 Q178 95 245 95 Q296 95 329.5 125.5 Q363 156 363 208 L363 236 Q352 237 341 237 Q330 237 319 237 Z M209 730 Q236 730 256.5 721 Q277 712 294 700.5 Q311 689 325.5 680 Q340 671 354 671 Q368 671 379 679 Q390 687 393 713 L451 704 Q446 649 422 617.5 Q398 586 356 586 Q332 586 312.5 595.5 Q293 605 275 617 Q257 629 240 638.5 Q223 648 205 648 Q188 648 178 636.5 Q168 625 166 600 L110 613 Q113 667 137 698.5 Q161 730 209 730 Z " />
<glyph glyph-name="ccedilla" unicode="&#xe7;" horiz-adv-x="541" d="M287 535 Q333 535 373.5 520.5 Q414 506 445 479.5 Q476 453 494.5 415.5 Q513 378 515 332 L379 332 Q377 371 352 397 Q327 423 281 423 Q222 423 195.5 380 Q169 337 169 262 Q169 187 195.5 144 Q222 101 281 101 Q327 101 352 127.5 Q377 154 379 193 L515 193 Q513 151 496.5 115.5 Q480 80 453.5 53.5 Q427 27 391 11 Q355 -5 314 -9 L281 -57 Q289 -55 297 -54 Q305 -53 313 -53 Q332 -53 351 -58 Q370 -63 385 -73.5 Q400 -84 409 -100 Q418 -116 418 -139 Q418 -164 406.5 -184 Q395 -204 374.5 -217.5 Q354 -231 327 -238 Q300 -245 270 -245 Q235 -245 203.5 -235.5 Q172 -226 151 -206 L190 -161 Q198 -172 218.5 -179 Q239 -186 261 -186 Q289 -186 303.5 -175.5 Q318 -165 318 -147 Q318 -120 295 -109.5 Q272 -99 235 -99 Q223 -99 209 -100 Q195 -101 181 -103 L235 -7 Q138 9 86.5 80.5 Q35 152 35 262 Q35 323 51.5 373.5 Q68 424 100.5 460 Q133 496 180 515.5 Q227 535 287 535 Z " />
<glyph glyph-name="cacute" unicode="&#x107;" horiz-adv-x="541" d="M287 535 Q333 535 373.5 520.5 Q414 506 445 479.5 Q476 453 494.5 415.5 Q513 378 515 332 L379 332 Q377 371 352 397 Q327 423 281 423 Q222 423 195.5 380 Q169 337 169 262 Q169 187 195.5 144 Q222 101 281 101 Q327 101 352 127.5 Q377 154 379 193 L515 193 Q513 147 494.5 109.5 Q476 72 445 45 Q414 18 373.5 3.5 Q333 -11 287 -11 Q227 -11 180 8.5 Q133 28 100.5 64 Q68 100 51.5 150 Q35 200 35 262 Q35 323 51.5 373.5 Q68 424 100.5 460 Q133 496 180 515.5 Q227 535 287 535 Z M448 737 L292 582 L199 582 L309 753 L448 737 Z " />
<glyph glyph-name="ccaron" unicode="&#x10d;" horiz-adv-x="541" d="M287 535 Q333 535 373.5 520.5 Q414 506 445 479.5 Q476 453 494.5 415.5 Q513 378 515 332 L379 332 Q377 371 352 397 Q327 423 281 423 Q222 423 195.5 380 Q169 337 169 262 Q169 187 195.5 144 Q222 101 281 101 Q327 101 352 127.5 Q377 154 379 193 L515 193 Q513 147 494.5 109.5 Q476 72 445 45 Q414 18 373.5 3.5 Q333 -11 287 -11 Q227 -11 180 8.5 Q133 28 100.5 64 Q68 100 51.5 150 Q35 200 35 262 Q35 323 51.5 373.5 Q68 424 100.5 460 Q133 496 180 515.5 Q227 535 287 535 Z M196 747 L289 663 L382 747 L476 731 L351 582 L228 582 L103 731 L196 747 Z " />
<glyph glyph-name="ccircumflex" unicode="&#x109;" horiz-adv-x="541" d="M287 535 Q333 535 373.5 520.5 Q414 506 445 479.5 Q476 453 494.5 415.5 Q513 378 515 332 L379 332 Q377 371 352 397 Q327 423 281 423 Q222 423 195.5 380 Q169 337 169 262 Q169 187 195.5 144 Q222 101 281 101 Q327 101 352 127.5 Q377 154 379 193 L515 193 Q513 147 494.5 109.5 Q476 72 445 45 Q414 18 373.5 3.5 Q333 -11 287 -11 Q227 -11 180 8.5 Q133 28 100.5 64 Q68 100 51.5 150 Q35 200 35 262 Q35 323 51.5 373.5 Q68 424 100.5 460 Q133 496 180 515.5 Q227 535 287 535 Z M350 741 L475 594 L381 577 L289 661 L195 577 L102 594 L227 741 L350 741 Z " />
<glyph glyph-name="cdotaccent" unicode="&#x10b;" horiz-adv-x="541" d="M287 535 Q333 535 373.5 520.5 Q414 506 445 479.5 Q476 453 494.5 415.5 Q513 378 515 332 L379 332 Q377 371 352 397 Q327 423 281 423 Q222 423 195.5 380 Q169 337 169 262 Q169 187 195.5 144 Q222 101 281 101 Q327 101 352 127.5 Q377 154 379 193 L515 193 Q513 147 494.5 109.5 Q476 72 445 45 Q414 18 373.5 3.5 Q333 -11 287 -11 Q227 -11 180 8.5 Q133 28 100.5 64 Q68 100 51.5 150 Q35 200 35 262 Q35 323 51.5 373.5 Q68 424 100.5 460 Q133 496 180 515.5 Q227 535 287 535 Z M222 606 L222 724 L351 724 L351 606 L222 606 Z " />
<glyph glyph-name="dcroat" unicode="&#x111;" horiz-adv-x="601" d="M251 535 Q311 535 346.5 504 Q382 473 402 428 L402 585 L317 585 L317 663 L402 663 L402 735 L536 735 L536 663 L605 663 L605 585 L536 585 L536 0 L402 0 L402 95 Q382 52 345 20.5 Q308 -11 251 -11 Q203 -11 163 8.5 Q123 28 94.5 64 Q66 100 50.5 150.5 Q35 201 35 262 Q35 323 50.5 373.5 Q66 424 94.5 460 Q123 496 163 515.5 Q203 535 251 535 Z M285 422 Q228 422 201 380.5 Q174 339 174 262 Q174 186 201 144.5 Q228 103 285 103 Q316 103 338 115.5 Q360 128 374 149 Q388 170 395 198.5 Q402 227 402 259 Q402 339 371.5 380.5 Q341 422 285 422 Z " />
<glyph glyph-name="dcaron" unicode="&#x10f;" horiz-adv-x="601" d="M251 535 Q311 535 346.5 504 Q382 473 402 428 L402 735 L536 735 L536 0 L402 0 L402 95 Q382 52 345 20.5 Q308 -11 251 -11 Q203 -11 163 8.5 Q123 28 94.5 64 Q66 100 50.5 150.5 Q35 201 35 262 Q35 323 50.5 373.5 Q66 424 94.5 460 Q123 496 163 515.5 Q203 535 251 535 Z M285 422 Q228 422 201 380.5 Q174 339 174 262 Q174 186 201 144.5 Q228 103 285 103 Q316 103 338 115.5 Q360 128 374 149 Q388 170 395 198.5 Q402 227 402 259 Q402 339 371.5 380.5 Q341 422 285 422 Z M696 745 L644 581 L578 581 L580 745 L696 745 Z " />
<glyph glyph-name="eacute" unicode="&#xe9;" horiz-adv-x="554" d="M289 535 Q353 535 398.5 510.5 Q444 486 472 445 Q500 404 512 350 Q524 296 520 237 L168 237 Q172 166 199 132 Q226 98 283 98 Q322 98 346.5 114 Q371 130 378 162 L512 162 Q507 124 487.5 92 Q468 60 438 37 Q408 14 369 1.5 Q330 -11 284 -11 Q226 -11 180 8.5 Q134 28 101.5 64 Q69 100 51.5 150.5 Q34 201 34 264 Q34 324 51.5 374 Q69 424 102 460 Q135 496 182.5 515.5 Q230 535 289 535 Z M446 737 L290 582 L197 582 L307 753 L446 737 Z M284 434 Q235 434 208 407.5 Q181 381 172 324 L383 324 Q381 372 357 403 Q333 434 284 434 Z " />
<glyph glyph-name="ebreve" unicode="&#x115;" horiz-adv-x="554" d="M289 535 Q353 535 398.5 510.5 Q444 486 472 445 Q500 404 512 350 Q524 296 520 237 L168 237 Q172 166 199 132 Q226 98 283 98 Q322 98 346.5 114 Q371 130 378 162 L512 162 Q507 124 487.5 92 Q468 60 438 37 Q408 14 369 1.5 Q330 -11 284 -11 Q226 -11 180 8.5 Q134 28 101.5 64 Q69 100 51.5 150.5 Q34 201 34 264 Q34 324 51.5 374 Q69 424 102 460 Q135 496 182.5 515.5 Q230 535 289 535 Z M216 734 Q217 700 234 681 Q251 662 285 662 Q323 662 338.5 683.5 Q354 705 354 734 L436 725 Q436 691 424 664.5 Q412 638 391 619.5 Q370 601 342.5 591.5 Q315 582 285 582 Q255 582 228 591.5 Q201 601 180 619.5 Q159 638 147 664.5 Q135 691 135 725 L216 734 Z M284 434 Q235 434 208 407.5 Q181 381 172 324 L383 324 Q381 372 357 403 Q333 434 284 434 Z " />
<glyph glyph-name="ecaron" unicode="&#x11b;" horiz-adv-x="554" d="M289 535 Q353 535 398.5 510.5 Q444 486 472 445 Q500 404 512 350 Q524 296 520 237 L168 237 Q172 166 199 132 Q226 98 283 98 Q322 98 346.5 114 Q371 130 378 162 L512 162 Q507 124 487.5 92 Q468 60 438 37 Q408 14 369 1.5 Q330 -11 284 -11 Q226 -11 180 8.5 Q134 28 101.5 64 Q69 100 51.5 150.5 Q34 201 34 264 Q34 324 51.5 374 Q69 424 102 460 Q135 496 182.5 515.5 Q230 535 289 535 Z M192 747 L285 663 L378 747 L472 731 L347 582 L224 582 L99 731 L192 747 Z M284 434 Q235 434 208 407.5 Q181 381 172 324 L383 324 Q381 372 357 403 Q333 434 284 434 Z " />
<glyph glyph-name="ecircumflex" unicode="&#xea;" horiz-adv-x="554" d="M289 535 Q353 535 398.5 510.5 Q444 486 472 445 Q500 404 512 350 Q524 296 520 237 L168 237 Q172 166 199 132 Q226 98 283 98 Q322 98 346.5 114 Q371 130 378 162 L512 162 Q507 124 487.5 92 Q468 60 438 37 Q408 14 369 1.5 Q330 -11 284 -11 Q226 -11 180 8.5 Q134 28 101.5 64 Q69 100 51.5 150.5 Q34 201 34 264 Q34 324 51.5 374 Q69 424 102 460 Q135 496 182.5 515.5 Q230 535 289 535 Z M349 741 L474 594 L380 577 L288 661 L194 577 L101 594 L226 741 L349 741 Z M284 434 Q235 434 208 407.5 Q181 381 172 324 L383 324 Q381 372 357 403 Q333 434 284 434 Z " />
<glyph glyph-name="edieresis" unicode="&#xeb;" horiz-adv-x="554" d="M289 535 Q353 535 398.5 510.5 Q444 486 472 445 Q500 404 512 350 Q524 296 520 237 L168 237 Q172 166 199 132 Q226 98 283 98 Q322 98 346.5 114 Q371 130 378 162 L512 162 Q507 124 487.5 92 Q468 60 438 37 Q408 14 369 1.5 Q330 -11 284 -11 Q226 -11 180 8.5 Q134 28 101.5 64 Q69 100 51.5 150.5 Q34 201 34 264 Q34 324 51.5 374 Q69 424 102 460 Q135 496 182.5 515.5 Q230 535 289 535 Z M284 434 Q235 434 208 407.5 Q181 381 172 324 L383 324 Q381 372 357 403 Q333 434 284 434 Z M140 606 L140 709 L240 709 L240 606 L140 606 Z M337 606 L337 709 L436 709 L436 606 L337 606 Z " />
<glyph glyph-name="edotaccent" unicode="&#x117;" horiz-adv-x="554" d="M289 535 Q353 535 398.5 510.5 Q444 486 472 445 Q500 404 512 350 Q524 296 520 237 L168 237 Q172 166 199 132 Q226 98 283 98 Q322 98 346.5 114 Q371 130 378 162 L512 162 Q507 124 487.5 92 Q468 60 438 37 Q408 14 369 1.5 Q330 -11 284 -11 Q226 -11 180 8.5 Q134 28 101.5 64 Q69 100 51.5 150.5 Q34 201 34 264 Q34 324 51.5 374 Q69 424 102 460 Q135 496 182.5 515.5 Q230 535 289 535 Z M284 434 Q235 434 208 407.5 Q181 381 172 324 L383 324 Q381 372 357 403 Q333 434 284 434 Z M219 606 L219 724 L348 724 L348 606 L219 606 Z " />
<glyph glyph-name="egrave" unicode="&#xe8;" horiz-adv-x="554" d="M289 535 Q353 535 398.5 510.5 Q444 486 472 445 Q500 404 512 350 Q524 296 520 237 L168 237 Q172 166 199 132 Q226 98 283 98 Q322 98 346.5 114 Q371 130 378 162 L512 162 Q507 124 487.5 92 Q468 60 438 37 Q408 14 369 1.5 Q330 -11 284 -11 Q226 -11 180 8.5 Q134 28 101.5 64 Q69 100 51.5 150.5 Q34 201 34 264 Q34 324 51.5 374 Q69 424 102 460 Q135 496 182.5 515.5 Q230 535 289 535 Z M256 753 L365 582 L274 582 L117 737 L256 753 Z M284 434 Q235 434 208 407.5 Q181 381 172 324 L383 324 Q381 372 357 403 Q333 434 284 434 Z " />
<glyph glyph-name="emacron" unicode="&#x113;" horiz-adv-x="554" d="M289 535 Q353 535 398.5 510.5 Q444 486 472 445 Q500 404 512 350 Q524 296 520 237 L168 237 Q172 166 199 132 Q226 98 283 98 Q322 98 346.5 114 Q371 130 378 162 L512 162 Q507 124 487.5 92 Q468 60 438 37 Q408 14 369 1.5 Q330 -11 284 -11 Q226 -11 180 8.5 Q134 28 101.5 64 Q69 100 51.5 150.5 Q34 201 34 264 Q34 324 51.5 374 Q69 424 102 460 Q135 496 182.5 515.5 Q230 535 289 535 Z M147 601 L147 687 L425 687 L425 601 L147 601 Z M284 434 Q235 434 208 407.5 Q181 381 172 324 L383 324 Q381 372 357 403 Q333 434 284 434 Z " />
<glyph glyph-name="eogonek" unicode="&#x119;" horiz-adv-x="554" d="M289 535 Q353 535 398.5 510.5 Q444 486 472 445 Q500 404 512 350 Q524 296 520 237 L168 237 Q172 166 199 132 Q226 98 283 98 Q322 98 346.5 114 Q371 130 378 162 L512 162 Q503 98 457 53.5 Q411 9 341 -5 Q319 -24 306.5 -49 Q294 -74 294 -97 Q294 -119 307.5 -131 Q321 -143 344 -143 Q350 -143 356 -142.5 Q362 -142 368 -141 L368 -225 Q345 -230 321 -230 Q261 -230 226.5 -201.5 Q192 -173 192 -128 Q192 -96 209.5 -65.5 Q227 -35 262 -10 Q156 -2 95 71 Q34 144 34 264 Q34 324 51.5 374 Q69 424 102 460 Q135 496 182.5 515.5 Q230 535 289 535 Z M284 434 Q235 434 208 407.5 Q181 381 172 324 L383 324 Q381 372 357 403 Q333 434 284 434 Z " />
<glyph glyph-name="gacute" unicode="&#x1f5;" horiz-adv-x="582" d="M283 535 Q320 535 360.5 533.5 Q401 532 439.5 530 Q478 528 512.5 526.5 Q547 525 574 525 L574 422 Q552 422 518.5 425 Q485 428 456 432 Q481 419 494 393 Q507 367 507 336 Q507 260 450 214 Q393 168 279 168 Q239 168 207 175 Q194 169 186 156.5 Q178 144 178 130 Q178 110 191.5 102 Q205 94 231 94 L383 94 Q475 94 515 57.5 Q555 21 555 -45 Q555 -123 489 -172 Q423 -221 284 -221 Q219 -221 174 -213 Q129 -205 100.5 -189.5 Q72 -174 59 -151 Q46 -128 46 -98 Q46 -59 68.5 -32 Q91 -5 126 10 Q95 21 77 41.5 Q59 62 59 99 Q59 132 80 162 Q101 192 132 206 Q98 228 78.5 262.5 Q59 297 59 345 Q59 430 115.5 482.5 Q172 535 283 535 Z M376 345 Q376 388 355.5 414 Q335 440 284 440 Q236 440 215 415 Q194 390 194 345 Q194 307 215.5 282 Q237 257 284 257 Q332 257 354 280.5 Q376 304 376 345 Z M237 -3 Q231 -3 224 -2.5 Q217 -2 211 -2 Q177 -25 177 -63 Q177 -97 201.5 -112 Q226 -127 288 -127 Q360 -127 389 -108 Q418 -89 418 -54 Q418 -29 401 -16 Q384 -3 346 -3 L237 -3 Z M471 737 L315 582 L222 582 L332 753 L471 737 Z " />
<glyph glyph-name="gbreve" unicode="&#x11f;" horiz-adv-x="582" d="M283 535 Q320 535 360.5 533.5 Q401 532 439.5 530 Q478 528 512.5 526.5 Q547 525 574 525 L574 422 Q552 422 518.5 425 Q485 428 456 432 Q481 419 494 393 Q507 367 507 336 Q507 260 450 214 Q393 168 279 168 Q239 168 207 175 Q194 169 186 156.5 Q178 144 178 130 Q178 110 191.5 102 Q205 94 231 94 L383 94 Q475 94 515 57.5 Q555 21 555 -45 Q555 -123 489 -172 Q423 -221 284 -221 Q219 -221 174 -213 Q129 -205 100.5 -189.5 Q72 -174 59 -151 Q46 -128 46 -98 Q46 -59 68.5 -32 Q91 -5 126 10 Q95 21 77 41.5 Q59 62 59 99 Q59 132 80 162 Q101 192 132 206 Q98 228 78.5 262.5 Q59 297 59 345 Q59 430 115.5 482.5 Q172 535 283 535 Z M376 345 Q376 388 355.5 414 Q335 440 284 440 Q236 440 215 415 Q194 390 194 345 Q194 307 215.5 282 Q237 257 284 257 Q332 257 354 280.5 Q376 304 376 345 Z M237 -3 Q231 -3 224 -2.5 Q217 -2 211 -2 Q177 -25 177 -63 Q177 -97 201.5 -112 Q226 -127 288 -127 Q360 -127 389 -108 Q418 -89 418 -54 Q418 -29 401 -16 Q384 -3 346 -3 L237 -3 Z M226 734 Q227 700 244 681 Q261 662 295 662 Q333 662 348.5 683.5 Q364 705 364 734 L446 725 Q446 691 434 664.5 Q422 638 401 619.5 Q380 601 352.5 591.5 Q325 582 295 582 Q265 582 238 591.5 Q211 601 190 619.5 Q169 638 157 664.5 Q145 691 145 725 L226 734 Z " />
<glyph glyph-name="gcircumflex" unicode="&#x11d;" horiz-adv-x="582" d="M283 535 Q320 535 360.5 533.5 Q401 532 439.5 530 Q478 528 512.5 526.5 Q547 525 574 525 L574 422 Q552 422 518.5 425 Q485 428 456 432 Q481 419 494 393 Q507 367 507 336 Q507 260 450 214 Q393 168 279 168 Q239 168 207 175 Q194 169 186 156.5 Q178 144 178 130 Q178 110 191.5 102 Q205 94 231 94 L383 94 Q475 94 515 57.5 Q555 21 555 -45 Q555 -123 489 -172 Q423 -221 284 -221 Q219 -221 174 -213 Q129 -205 100.5 -189.5 Q72 -174 59 -151 Q46 -128 46 -98 Q46 -59 68.5 -32 Q91 -5 126 10 Q95 21 77 41.5 Q59 62 59 99 Q59 132 80 162 Q101 192 132 206 Q98 228 78.5 262.5 Q59 297 59 345 Q59 430 115.5 482.5 Q172 535 283 535 Z M376 345 Q376 388 355.5 414 Q335 440 284 440 Q236 440 215 415 Q194 390 194 345 Q194 307 215.5 282 Q237 257 284 257 Q332 257 354 280.5 Q376 304 376 345 Z M237 -3 Q231 -3 224 -2.5 Q217 -2 211 -2 Q177 -25 177 -63 Q177 -97 201.5 -112 Q226 -127 288 -127 Q360 -127 389 -108 Q418 -89 418 -54 Q418 -29 401 -16 Q384 -3 346 -3 L237 -3 Z M353 741 L478 594 L384 577 L292 661 L198 577 L105 594 L230 741 L353 741 Z " />
<glyph glyph-name="gcommaaccent" unicode="&#x123;" horiz-adv-x="582" d="M283 535 Q320 535 360.5 533.5 Q401 532 439.5 530 Q478 528 512.5 526.5 Q547 525 574 525 L574 422 Q552 422 518.5 425 Q485 428 456 432 Q481 419 494 393 Q507 367 507 336 Q507 260 450 214 Q393 168 279 168 Q239 168 207 175 Q194 169 186 156.5 Q178 144 178 130 Q178 110 191.5 102 Q205 94 231 94 L383 94 Q475 94 515 57.5 Q555 21 555 -45 Q555 -123 489 -172 Q423 -221 284 -221 Q219 -221 174 -213 Q129 -205 100.5 -189.5 Q72 -174 59 -151 Q46 -128 46 -98 Q46 -59 68.5 -32 Q91 -5 126 10 Q95 21 77 41.5 Q59 62 59 99 Q59 132 80 162 Q101 192 132 206 Q98 228 78.5 262.5 Q59 297 59 345 Q59 430 115.5 482.5 Q172 535 283 535 Z M376 345 Q376 388 355.5 414 Q335 440 284 440 Q236 440 215 415 Q194 390 194 345 Q194 307 215.5 282 Q237 257 284 257 Q332 257 354 280.5 Q376 304 376 345 Z M237 -3 Q231 -3 224 -2.5 Q217 -2 211 -2 Q177 -25 177 -63 Q177 -97 201.5 -112 Q226 -127 288 -127 Q360 -127 389 -108 Q418 -89 418 -54 Q418 -29 401 -16 Q384 -3 346 -3 L237 -3 Z M340 563 L220 563 L308 752 L383 752 L340 563 Z " />
<glyph glyph-name="gdotaccent" unicode="&#x121;" horiz-adv-x="582" d="M283 535 Q320 535 360.5 533.5 Q401 532 439.5 530 Q478 528 512.5 526.5 Q547 525 574 525 L574 422 Q552 422 518.5 425 Q485 428 456 432 Q481 419 494 393 Q507 367 507 336 Q507 260 450 214 Q393 168 279 168 Q239 168 207 175 Q194 169 186 156.5 Q178 144 178 130 Q178 110 191.5 102 Q205 94 231 94 L383 94 Q475 94 515 57.5 Q555 21 555 -45 Q555 -123 489 -172 Q423 -221 284 -221 Q219 -221 174 -213 Q129 -205 100.5 -189.5 Q72 -174 59 -151 Q46 -128 46 -98 Q46 -59 68.5 -32 Q91 -5 126 10 Q95 21 77 41.5 Q59 62 59 99 Q59 132 80 162 Q101 192 132 206 Q98 228 78.5 262.5 Q59 297 59 345 Q59 430 115.5 482.5 Q172 535 283 535 Z M376 345 Q376 388 355.5 414 Q335 440 284 440 Q236 440 215 415 Q194 390 194 345 Q194 307 215.5 282 Q237 257 284 257 Q332 257 354 280.5 Q376 304 376 345 Z M237 -3 Q231 -3 224 -2.5 Q217 -2 211 -2 Q177 -25 177 -63 Q177 -97 201.5 -112 Q226 -127 288 -127 Q360 -127 389 -108 Q418 -89 418 -54 Q418 -29 401 -16 Q384 -3 346 -3 L237 -3 Z M228 606 L228 724 L357 724 L357 606 L228 606 Z " />
<glyph glyph-name="hcircumflex" unicode="&#x125;" horiz-adv-x="594" d="M204 735 L204 445 Q225 486 263.5 510.5 Q302 535 362 535 Q441 535 483 487 Q525 439 525 352 L525 0 L390 0 L390 323 Q390 371 373.5 395 Q357 419 314 419 Q269 419 236.5 387 Q204 355 204 287 L204 0 L70 0 L70 735 L204 735 Z M327 759 L228 844 L128 759 L41 774 L172 922 L281 922 L414 774 L327 759 Z " />
<glyph glyph-name="hbar" unicode="&#x127;" horiz-adv-x="594" d="M204 735 L204 663 L301 663 L301 585 L204 585 L204 445 Q225 486 263.5 510.5 Q302 535 362 535 Q441 535 483 487 Q525 439 525 352 L525 0 L390 0 L390 323 Q390 371 373.5 395 Q357 419 314 419 Q269 419 236.5 387 Q204 355 204 287 L204 0 L70 0 L70 585 L13 585 L13 663 L70 663 L70 735 L204 735 Z " />
<glyph glyph-name="iacute" unicode="&#xed;" horiz-adv-x="275" d="M304 737 L148 582 L55 582 L165 753 L304 737 Z M70 0 L70 525 L204 525 L204 0 L70 0 Z " />
<glyph glyph-name="ibreve" unicode="&#x12d;" horiz-adv-x="275" d="M69 734 Q70 700 87 681 Q104 662 138 662 Q176 662 191.5 683.5 Q207 705 207 734 L289 725 Q289 691 277 664.5 Q265 638 244 619.5 Q223 601 195.5 591.5 Q168 582 138 582 Q108 582 81 591.5 Q54 601 33 619.5 Q12 638 0 664.5 Q-12 691 -12 725 L69 734 Z M70 0 L70 525 L204 525 L204 0 L70 0 Z " />
<glyph glyph-name="icircumflex" unicode="&#xee;" horiz-adv-x="275" d="M70 0 L70 525 L204 525 L204 0 L70 0 Z M200 741 L325 594 L231 577 L139 661 L45 577 L-48 594 L77 741 L200 741 Z " />
<glyph glyph-name="idieresis" unicode="&#xef;" horiz-adv-x="275" d="M-10 606 L-10 709 L90 709 L90 606 L-10 606 Z M187 606 L187 709 L286 709 L286 606 L187 606 Z M70 0 L70 525 L204 525 L204 0 L70 0 Z " />
<glyph glyph-name="igrave" unicode="&#xec;" horiz-adv-x="275" d="M109 753 L218 582 L127 582 L-30 737 L109 753 Z M70 0 L70 525 L204 525 L204 0 L70 0 Z " />
<glyph glyph-name="imacron" unicode="&#x12b;" horiz-adv-x="275" d="M-2 601 L-2 687 L276 687 L276 601 L-2 601 Z M70 0 L70 525 L204 525 L204 0 L70 0 Z " />
<glyph glyph-name="iogonek" unicode="&#x12f;" horiz-adv-x="274" d="M70 0 L70 525 L204 525 L204 0 L186 0 Q161 -19 146.5 -45.5 Q132 -72 132 -97 Q132 -119 145.5 -131 Q159 -143 182 -143 Q188 -143 194 -142.5 Q200 -142 206 -141 L206 -225 Q183 -230 159 -230 Q99 -230 64.5 -201.5 Q30 -173 30 -128 Q30 -93 51.5 -59.5 Q73 -26 115 0 L70 0 Z M205 713 L205 596 L70 596 L70 713 L205 713 Z " />
<glyph glyph-name="itilde" unicode="&#x129;" horiz-adv-x="275" d="M67 730 Q94 730 114.5 721 Q135 712 152 700.5 Q169 689 183.5 680 Q198 671 212 671 Q226 671 237 679 Q248 687 251 713 L309 704 Q304 649 280 617.5 Q256 586 214 586 Q190 586 170.5 595.5 Q151 605 133 617 Q115 629 98 638.5 Q81 648 63 648 Q46 648 36 636.5 Q26 625 24 600 L-32 613 Q-29 667 -5 698.5 Q19 730 67 730 Z M70 0 L70 525 L204 525 L204 0 L70 0 Z " />
<glyph glyph-name="dotlessi" unicode="&#x131;" horiz-adv-x="275" d="M70 0 L70 525 L204 525 L204 0 L70 0 Z " />
<glyph glyph-name="dotlessj" unicode="&#x237;" horiz-adv-x="269" d="M197 525 L197 -24 Q197 -74 178.5 -111 Q160 -148 130 -172.5 Q100 -197 62.5 -209 Q25 -221 -13 -221 L-13 -115 Q26 -115 48 -94.5 Q70 -74 70 -15 L70 525 L197 525 Z " />
<glyph glyph-name="jcircumflex" unicode="&#x135;" horiz-adv-x="269" d="M197 525 L197 -24 Q197 -74 178.5 -111 Q160 -148 130 -172.5 Q100 -197 62.5 -209 Q25 -221 -13 -221 L-13 -115 Q26 -115 48 -94.5 Q70 -74 70 -15 L70 525 L197 525 Z M195 741 L320 594 L226 577 L134 661 L40 577 L-53 594 L72 741 L195 741 Z " />
<glyph glyph-name="kcommaaccent" unicode="&#x137;" horiz-adv-x="558" d="M70 0 L70 735 L204 735 L204 0 L70 0 Z M407 0 L211 286 L394 525 L551 525 L361 291 L567 0 L407 0 Z M358 -43 L358 -109 Q358 -137 349.5 -159.5 Q341 -182 326 -200 Q311 -218 290.5 -232 Q270 -246 246 -257 L228 -212 Q262 -200 276.5 -180 Q291 -160 291 -131 L241 -131 L241 -43 L358 -43 Z " />
<glyph glyph-name="lacute" unicode="&#x13a;" horiz-adv-x="274" d="M70 0 L70 735 L204 735 L204 0 L70 0 Z M308 908 L145 759 L59 759 L183 922 L308 908 Z " />
<glyph glyph-name="lcaron" unicode="&#x13e;" horiz-adv-x="274" d="M70 0 L70 735 L204 735 L204 0 L70 0 Z M364 745 L312 581 L246 581 L248 745 L364 745 Z " />
<glyph glyph-name="lcommaaccent" unicode="&#x13c;" horiz-adv-x="274" d="M70 0 L70 735 L204 735 L204 0 L70 0 Z M191 -43 L191 -109 Q191 -137 182.5 -159.5 Q174 -182 159 -200 Q144 -218 123.5 -232 Q103 -246 79 -257 L61 -212 Q95 -200 109.5 -180 Q124 -160 124 -131 L74 -131 L74 -43 L191 -43 Z " />
<glyph glyph-name="lslash" unicode="&#x142;" horiz-adv-x="274" d="M70 0 L70 353 L36 319 L-25 378 L70 473 L70 735 L204 735 L204 608 L239 643 L301 583 L204 486 L204 0 L70 0 Z " />
<glyph glyph-name="nacute" unicode="&#x144;" horiz-adv-x="588" d="M204 525 L204 445 Q225 486 261.5 510.5 Q298 535 358 535 Q437 535 481 487 Q525 439 525 352 L525 0 L390 0 L390 323 Q390 371 373.5 395 Q357 419 313 419 Q268 419 236 387 Q204 355 204 287 L204 0 L70 0 L70 525 L204 525 Z M464 737 L308 582 L215 582 L325 753 L464 737 Z " />
<glyph glyph-name="napostrophe" unicode="&#x149;" horiz-adv-x="588" d="M204 525 L204 445 Q225 486 261.5 510.5 Q298 535 358 535 Q437 535 481 487 Q525 439 525 352 L525 0 L390 0 L390 323 Q390 371 373.5 395 Q357 419 313 419 Q268 419 236 387 Q204 355 204 287 L204 0 L70 0 L70 525 L204 525 Z M194 766 L194 700 Q194 672 185.5 649.5 Q177 627 162 609 Q147 591 126.5 577 Q106 563 82 552 L64 597 Q98 609 112.5 629 Q127 649 127 678 L77 678 L77 766 L194 766 Z " />
<glyph glyph-name="ncaron" unicode="&#x148;" horiz-adv-x="588" d="M204 525 L204 445 Q225 486 261.5 510.5 Q298 535 358 535 Q437 535 481 487 Q525 439 525 352 L525 0 L390 0 L390 323 Q390 371 373.5 395 Q357 419 313 419 Q268 419 236 387 Q204 355 204 287 L204 0 L70 0 L70 525 L204 525 Z M207 747 L300 663 L393 747 L487 731 L362 582 L239 582 L114 731 L207 747 Z " />
<glyph glyph-name="ncommaaccent" unicode="&#x146;" horiz-adv-x="588" d="M204 525 L204 445 Q225 486 261.5 510.5 Q298 535 358 535 Q437 535 481 487 Q525 439 525 352 L525 0 L390 0 L390 323 Q390 371 373.5 395 Q357 419 313 419 Q268 419 236 387 Q204 355 204 287 L204 0 L70 0 L70 525 L204 525 Z M357 -43 L357 -109 Q357 -137 348.5 -159.5 Q340 -182 325 -200 Q310 -218 289.5 -232 Q269 -246 245 -257 L227 -212 Q261 -200 275.5 -180 Q290 -160 290 -131 L240 -131 L240 -43 L357 -43 Z " />
<glyph glyph-name="ntilde" unicode="&#xf1;" horiz-adv-x="588" d="M204 525 L204 445 Q225 486 261.5 510.5 Q298 535 358 535 Q437 535 481 487 Q525 439 525 352 L525 0 L390 0 L390 323 Q390 371 373.5 395 Q357 419 313 419 Q268 419 236 387 Q204 355 204 287 L204 0 L70 0 L70 525 L204 525 Z M227 730 Q254 730 274.5 721 Q295 712 312 700.5 Q329 689 343.5 680 Q358 671 372 671 Q386 671 397 679 Q408 687 411 713 L469 704 Q464 649 440 617.5 Q416 586 374 586 Q350 586 330.5 595.5 Q311 605 293 617 Q275 629 258 638.5 Q241 648 223 648 Q206 648 196 636.5 Q186 625 184 600 L128 613 Q131 667 155 698.5 Q179 730 227 730 Z " />
<glyph glyph-name="oacute" unicode="&#xf3;" horiz-adv-x="560" d="M280 423 Q224 423 197 382 Q170 341 170 264 Q170 184 197 142.5 Q224 101 280 101 Q335 101 362.5 142.5 Q390 184 390 264 Q390 341 362.5 382 Q335 423 280 423 Z M280 535 Q334 535 379.5 516.5 Q425 498 457 463 Q489 428 507 378 Q525 328 525 264 Q525 199 507 148 Q489 97 457 61.5 Q425 26 379.5 7.5 Q334 -11 280 -11 Q225 -11 180 7.5 Q135 26 102.5 61.5 Q70 97 52.5 148 Q35 199 35 264 Q35 328 52.5 378 Q70 428 102.5 463 Q135 498 180 516.5 Q225 535 280 535 Z M436 737 L280 582 L187 582 L297 753 L436 737 Z " />
<glyph glyph-name="obreve" unicode="&#x14f;" horiz-adv-x="560" d="M280 423 Q224 423 197 382 Q170 341 170 264 Q170 184 197 142.5 Q224 101 280 101 Q335 101 362.5 142.5 Q390 184 390 264 Q390 341 362.5 382 Q335 423 280 423 Z M280 535 Q334 535 379.5 516.5 Q425 498 457 463 Q489 428 507 378 Q525 328 525 264 Q525 199 507 148 Q489 97 457 61.5 Q425 26 379.5 7.5 Q334 -11 280 -11 Q225 -11 180 7.5 Q135 26 102.5 61.5 Q70 97 52.5 148 Q35 199 35 264 Q35 328 52.5 378 Q70 428 102.5 463 Q135 498 180 516.5 Q225 535 280 535 Z M210 734 Q211 700 228 681 Q245 662 279 662 Q317 662 332.5 683.5 Q348 705 348 734 L430 725 Q430 691 418 664.5 Q406 638 385 619.5 Q364 601 336.5 591.5 Q309 582 279 582 Q249 582 222 591.5 Q195 601 174 619.5 Q153 638 141 664.5 Q129 691 129 725 L210 734 Z " />
<glyph glyph-name="ocircumflex" unicode="&#xf4;" horiz-adv-x="560" d="M280 423 Q224 423 197 382 Q170 341 170 264 Q170 184 197 142.5 Q224 101 280 101 Q335 101 362.5 142.5 Q390 184 390 264 Q390 341 362.5 382 Q335 423 280 423 Z M280 535 Q334 535 379.5 516.5 Q425 498 457 463 Q489 428 507 378 Q525 328 525 264 Q525 199 507 148 Q489 97 457 61.5 Q425 26 379.5 7.5 Q334 -11 280 -11 Q225 -11 180 7.5 Q135 26 102.5 61.5 Q70 97 52.5 148 Q35 199 35 264 Q35 328 52.5 378 Q70 428 102.5 463 Q135 498 180 516.5 Q225 535 280 535 Z M341 741 L466 594 L372 577 L280 661 L186 577 L93 594 L218 741 L341 741 Z " />
<glyph glyph-name="odieresis" unicode="&#xf6;" horiz-adv-x="560" d="M280 423 Q224 423 197 382 Q170 341 170 264 Q170 184 197 142.5 Q224 101 280 101 Q335 101 362.5 142.5 Q390 184 390 264 Q390 341 362.5 382 Q335 423 280 423 Z M280 535 Q334 535 379.5 516.5 Q425 498 457 463 Q489 428 507 378 Q525 328 525 264 Q525 199 507 148 Q489 97 457 61.5 Q425 26 379.5 7.5 Q334 -11 280 -11 Q225 -11 180 7.5 Q135 26 102.5 61.5 Q70 97 52.5 148 Q35 199 35 264 Q35 328 52.5 378 Q70 428 102.5 463 Q135 498 180 516.5 Q225 535 280 535 Z M131 606 L131 709 L231 709 L231 606 L131 606 Z M328 606 L328 709 L427 709 L427 606 L328 606 Z " />
<glyph glyph-name="ograve" unicode="&#xf2;" horiz-adv-x="560" d="M280 423 Q224 423 197 382 Q170 341 170 264 Q170 184 197 142.5 Q224 101 280 101 Q335 101 362.5 142.5 Q390 184 390 264 Q390 341 362.5 382 Q335 423 280 423 Z M280 535 Q334 535 379.5 516.5 Q425 498 457 463 Q489 428 507 378 Q525 328 525 264 Q525 199 507 148 Q489 97 457 61.5 Q425 26 379.5 7.5 Q334 -11 280 -11 Q225 -11 180 7.5 Q135 26 102.5 61.5 Q70 97 52.5 148 Q35 199 35 264 Q35 328 52.5 378 Q70 428 102.5 463 Q135 498 180 516.5 Q225 535 280 535 Z M262 753 L371 582 L280 582 L123 737 L262 753 Z " />
<glyph glyph-name="ohungarumlaut" unicode="&#x151;" horiz-adv-x="560" d="M280 423 Q224 423 197 382 Q170 341 170 264 Q170 184 197 142.5 Q224 101 280 101 Q335 101 362.5 142.5 Q390 184 390 264 Q390 341 362.5 382 Q335 423 280 423 Z M280 535 Q334 535 379.5 516.5 Q425 498 457 463 Q489 428 507 378 Q525 328 525 264 Q525 199 507 148 Q489 97 457 61.5 Q425 26 379.5 7.5 Q334 -11 280 -11 Q225 -11 180 7.5 Q135 26 102.5 61.5 Q70 97 52.5 148 Q35 199 35 264 Q35 328 52.5 378 Q70 428 102.5 463 Q135 498 180 516.5 Q225 535 280 535 Z M339 737 L212 591 L139 591 L233 753 L339 737 Z M513 737 L386 591 L313 591 L407 753 L513 737 Z " />
<glyph glyph-name="omacron" unicode="&#x14d;" horiz-adv-x="560" d="M280 423 Q224 423 197 382 Q170 341 170 264 Q170 184 197 142.5 Q224 101 280 101 Q335 101 362.5 142.5 Q390 184 390 264 Q390 341 362.5 382 Q335 423 280 423 Z M280 535 Q334 535 379.5 516.5 Q425 498 457 463 Q489 428 507 378 Q525 328 525 264 Q525 199 507 148 Q489 97 457 61.5 Q425 26 379.5 7.5 Q334 -11 280 -11 Q225 -11 180 7.5 Q135 26 102.5 61.5 Q70 97 52.5 148 Q35 199 35 264 Q35 328 52.5 378 Q70 428 102.5 463 Q135 498 180 516.5 Q225 535 280 535 Z M140 601 L140 687 L418 687 L418 601 L140 601 Z " />
<glyph glyph-name="otilde" unicode="&#xf5;" horiz-adv-x="560" d="M280 423 Q224 423 197 382 Q170 341 170 264 Q170 184 197 142.5 Q224 101 280 101 Q335 101 362.5 142.5 Q390 184 390 264 Q390 341 362.5 382 Q335 423 280 423 Z M280 535 Q334 535 379.5 516.5 Q425 498 457 463 Q489 428 507 378 Q525 328 525 264 Q525 199 507 148 Q489 97 457 61.5 Q425 26 379.5 7.5 Q334 -11 280 -11 Q225 -11 180 7.5 Q135 26 102.5 61.5 Q70 97 52.5 148 Q35 199 35 264 Q35 328 52.5 378 Q70 428 102.5 463 Q135 498 180 516.5 Q225 535 280 535 Z M207 730 Q234 730 254.5 721 Q275 712 292 700.5 Q309 689 323.5 680 Q338 671 352 671 Q366 671 377 679 Q388 687 391 713 L449 704 Q444 649 420 617.5 Q396 586 354 586 Q330 586 310.5 595.5 Q291 605 273 617 Q255 629 238 638.5 Q221 648 203 648 Q186 648 176 636.5 Q166 625 164 600 L108 613 Q111 667 135 698.5 Q159 730 207 730 Z " />
<glyph glyph-name="racute" unicode="&#x155;" horiz-adv-x="377" d="M204 525 L204 413 Q218 468 256.5 501.5 Q295 535 369 535 L369 405 Q365 407 356.5 408 Q348 409 339 409 Q313 409 288.5 399.5 Q264 390 245.5 370.5 Q227 351 215.5 320.5 Q204 290 204 249 L204 0 L70 0 L70 525 L204 525 Z M394 737 L238 582 L145 582 L255 753 L394 737 Z " />
<glyph glyph-name="rcaron" unicode="&#x159;" horiz-adv-x="377" d="M204 525 L204 413 Q218 468 256.5 501.5 Q295 535 369 535 L369 405 Q365 407 356.5 408 Q348 409 339 409 Q313 409 288.5 399.5 Q264 390 245.5 370.5 Q227 351 215.5 320.5 Q204 290 204 249 L204 0 L70 0 L70 525 L204 525 Z M132 747 L225 663 L318 747 L412 731 L287 582 L164 582 L39 731 L132 747 Z " />
<glyph glyph-name="rcommaaccent" unicode="&#x157;" horiz-adv-x="377" d="M204 525 L204 413 Q218 468 256.5 501.5 Q295 535 369 535 L369 405 Q365 407 356.5 408 Q348 409 339 409 Q313 409 288.5 399.5 Q264 390 245.5 370.5 Q227 351 215.5 320.5 Q204 290 204 249 L204 0 L70 0 L70 525 L204 525 Z M195 -43 L195 -109 Q195 -137 186.5 -159.5 Q178 -182 163 -200 Q148 -218 127.5 -232 Q107 -246 83 -257 L65 -212 Q99 -200 113.5 -180 Q128 -160 128 -131 L78 -131 L78 -43 L195 -43 Z " />
<glyph glyph-name="sacute" unicode="&#x15b;" horiz-adv-x="525" d="M262 535 Q317 535 358.5 522.5 Q400 510 428 488 Q456 466 470.5 435.5 Q485 405 486 368 L361 368 Q360 400 334.5 419 Q309 438 267 438 Q242 438 225 433 Q208 428 197.5 420 Q187 412 182.5 401.5 Q178 391 178 380 Q178 350 204.5 339 Q231 328 271 322 Q308 318 347 310.5 Q386 303 418.5 286.5 Q451 270 471.5 240.5 Q492 211 492 163 Q492 126 479.5 94.5 Q467 63 439.5 39.5 Q412 16 368 2.5 Q324 -11 262 -11 Q207 -11 165.5 1.5 Q124 14 96 36.5 Q68 59 53 90 Q38 121 37 158 L163 158 Q164 127 191 108 Q218 89 266 89 Q321 89 341 106.5 Q361 124 361 147 Q361 180 334 191.5 Q307 203 268 208 Q226 213 186.5 220.5 Q147 228 116 244.5 Q85 261 66 290 Q47 319 47 368 Q47 402 61.5 432.5 Q76 463 104 485.5 Q132 508 171.5 521.5 Q211 535 262 535 Z M432 737 L276 582 L183 582 L293 753 L432 737 Z " />
<glyph glyph-name="scaron" unicode="&#x161;" horiz-adv-x="525" d="M262 535 Q317 535 358.5 522.5 Q400 510 428 488 Q456 466 470.5 435.5 Q485 405 486 368 L361 368 Q360 400 334.5 419 Q309 438 267 438 Q242 438 225 433 Q208 428 197.5 420 Q187 412 182.5 401.5 Q178 391 178 380 Q178 350 204.5 339 Q231 328 271 322 Q308 318 347 310.5 Q386 303 418.5 286.5 Q451 270 471.5 240.5 Q492 211 492 163 Q492 126 479.5 94.5 Q467 63 439.5 39.5 Q412 16 368 2.5 Q324 -11 262 -11 Q207 -11 165.5 1.5 Q124 14 96 36.5 Q68 59 53 90 Q38 121 37 158 L163 158 Q164 127 191 108 Q218 89 266 89 Q321 89 341 106.5 Q361 124 361 147 Q361 180 334 191.5 Q307 203 268 208 Q226 213 186.5 220.5 Q147 228 116 244.5 Q85 261 66 290 Q47 319 47 368 Q47 402 61.5 432.5 Q76 463 104 485.5 Q132 508 171.5 521.5 Q211 535 262 535 Z M174 747 L267 663 L360 747 L454 731 L329 582 L206 582 L81 731 L174 747 Z " />
<glyph glyph-name="scedilla" unicode="&#x15f;" horiz-adv-x="525" d="M262 535 Q317 535 358.5 522.5 Q400 510 428 488 Q456 466 470.5 435.5 Q485 405 486 368 L361 368 Q360 400 334.5 419 Q309 438 267 438 Q242 438 225 433 Q208 428 197.5 420 Q187 412 182.5 401.5 Q178 391 178 380 Q178 350 204.5 339 Q231 328 271 322 Q308 318 347 310.5 Q386 303 418.5 286.5 Q451 270 471.5 240.5 Q492 211 492 163 Q492 128 480.5 97.5 Q469 67 444.5 44 Q420 21 380.5 7 Q341 -7 286 -10 L254 -57 Q262 -55 270 -54 Q278 -53 286 -53 Q305 -53 324 -58 Q343 -63 358 -73.5 Q373 -84 382 -100 Q391 -116 391 -139 Q391 -164 379.5 -184 Q368 -204 347.5 -217.5 Q327 -231 300 -238 Q273 -245 243 -245 Q208 -245 176.5 -235.5 Q145 -226 124 -206 L163 -161 Q171 -172 191.5 -179 Q212 -186 234 -186 Q262 -186 276.5 -175.5 Q291 -165 291 -147 Q291 -120 268 -109.5 Q245 -99 208 -99 Q196 -99 182 -100 Q168 -101 154 -103 L207 -7 Q124 4 81.5 49 Q39 94 37 158 L163 158 Q164 127 191 108 Q218 89 266 89 Q321 89 341 106.5 Q361 124 361 147 Q361 180 334 191.5 Q307 203 268 208 Q226 213 186.5 220.5 Q147 228 116 244.5 Q85 261 66 290 Q47 319 47 368 Q47 402 61.5 432.5 Q76 463 104 485.5 Q132 508 171.5 521.5 Q211 535 262 535 Z " />
<glyph glyph-name="scircumflex" unicode="&#x15d;" horiz-adv-x="525" d="M262 535 Q317 535 358.5 522.5 Q400 510 428 488 Q456 466 470.5 435.5 Q485 405 486 368 L361 368 Q360 400 334.5 419 Q309 438 267 438 Q242 438 225 433 Q208 428 197.5 420 Q187 412 182.5 401.5 Q178 391 178 380 Q178 350 204.5 339 Q231 328 271 322 Q308 318 347 310.5 Q386 303 418.5 286.5 Q451 270 471.5 240.5 Q492 211 492 163 Q492 126 479.5 94.5 Q467 63 439.5 39.5 Q412 16 368 2.5 Q324 -11 262 -11 Q207 -11 165.5 1.5 Q124 14 96 36.5 Q68 59 53 90 Q38 121 37 158 L163 158 Q164 127 191 108 Q218 89 266 89 Q321 89 341 106.5 Q361 124 361 147 Q361 180 334 191.5 Q307 203 268 208 Q226 213 186.5 220.5 Q147 228 116 244.5 Q85 261 66 290 Q47 319 47 368 Q47 402 61.5 432.5 Q76 463 104 485.5 Q132 508 171.5 521.5 Q211 535 262 535 Z M333 741 L458 594 L364 577 L272 661 L178 577 L85 594 L210 741 L333 741 Z " />
<glyph glyph-name="scommaaccent" unicode="&#x219;" horiz-adv-x="525" d="M262 535 Q317 535 358.5 522.5 Q400 510 428 488 Q456 466 470.5 435.5 Q485 405 486 368 L361 368 Q360 400 334.5 419 Q309 438 267 438 Q242 438 225 433 Q208 428 197.5 420 Q187 412 182.5 401.5 Q178 391 178 380 Q178 350 204.5 339 Q231 328 271 322 Q308 318 347 310.5 Q386 303 418.5 286.5 Q451 270 471.5 240.5 Q492 211 492 163 Q492 126 479.5 94.5 Q467 63 439.5 39.5 Q412 16 368 2.5 Q324 -11 262 -11 Q207 -11 165.5 1.5 Q124 14 96 36.5 Q68 59 53 90 Q38 121 37 158 L163 158 Q164 127 191 108 Q218 89 266 89 Q321 89 341 106.5 Q361 124 361 147 Q361 180 334 191.5 Q307 203 268 208 Q226 213 186.5 220.5 Q147 228 116 244.5 Q85 261 66 290 Q47 319 47 368 Q47 402 61.5 432.5 Q76 463 104 485.5 Q132 508 171.5 521.5 Q211 535 262 535 Z M323 -43 L323 -109 Q323 -137 314.5 -159.5 Q306 -182 291 -200 Q276 -218 255.5 -232 Q235 -246 211 -257 L193 -212 Q227 -200 241.5 -180 Q256 -160 256 -131 L206 -131 L206 -43 L323 -43 Z " />
<glyph glyph-name="tbar" unicode="&#x167;" horiz-adv-x="368" d="M228 647 L228 525 L359 525 L359 422 L228 422 L228 319 L325 319 L325 241 L228 241 L228 185 Q228 140 245.5 120.5 Q263 101 301 101 Q326 101 359 111 L359 -2 Q337 -6 317.5 -8.5 Q298 -11 279 -11 Q237 -11 203 -1 Q169 9 145 30.5 Q121 52 107.5 85.5 Q94 119 94 166 L94 241 L38 241 L38 319 L94 319 L94 422 L18 422 L18 525 L94 525 L94 647 L228 647 Z " />
<glyph glyph-name="tcaron" unicode="&#x165;" horiz-adv-x="368" d="M228 647 L228 525 L359 525 L359 422 L228 422 L228 185 Q228 140 245.5 120.5 Q263 101 301 101 Q326 101 359 111 L359 -2 Q337 -6 317.5 -8.5 Q298 -11 279 -11 Q237 -11 203 -1 Q169 9 145 30.5 Q121 52 107.5 85.5 Q94 119 94 166 L94 422 L18 422 L18 525 L94 525 L94 647 L228 647 Z M396 745 L344 581 L278 581 L280 745 L396 745 Z " />
<glyph glyph-name="tcommaaccent" unicode="&#x163;" horiz-adv-x="368" d="M228 647 L228 525 L359 525 L359 422 L228 422 L228 185 Q228 140 245.5 120.5 Q263 101 301 101 Q326 101 359 111 L359 -2 Q337 -6 317.5 -8.5 Q298 -11 279 -11 Q237 -11 203 -1 Q169 9 145 30.5 Q121 52 107.5 85.5 Q94 119 94 166 L94 422 L18 422 L18 525 L94 525 L94 647 L228 647 Z M283 -43 L283 -109 Q283 -137 274.5 -159.5 Q266 -182 251 -200 Q236 -218 215.5 -232 Q195 -246 171 -257 L153 -212 Q187 -200 201.5 -180 Q216 -160 216 -131 L166 -131 L166 -43 L283 -43 Z " />
<glyph glyph-name="uacute" unicode="&#xfa;" horiz-adv-x="595" d="M203 525 L203 201 Q203 154 219.5 130 Q236 106 279 106 Q325 106 356.5 138 Q388 170 388 238 L388 525 L523 525 L523 0 L388 0 L388 79 Q367 38 331 13.5 Q295 -11 235 -11 Q156 -11 112 37.5 Q68 86 68 173 L68 525 L203 525 Z M465 737 L309 582 L216 582 L326 753 L465 737 Z " />
<glyph glyph-name="ubreve" unicode="&#x16d;" horiz-adv-x="595" d="M203 525 L203 201 Q203 154 219.5 130 Q236 106 279 106 Q325 106 356.5 138 Q388 170 388 238 L388 525 L523 525 L523 0 L388 0 L388 79 Q367 38 331 13.5 Q295 -11 235 -11 Q156 -11 112 37.5 Q68 86 68 173 L68 525 L203 525 Z M227 734 Q228 700 245 681 Q262 662 296 662 Q334 662 349.5 683.5 Q365 705 365 734 L447 725 Q447 691 435 664.5 Q423 638 402 619.5 Q381 601 353.5 591.5 Q326 582 296 582 Q266 582 239 591.5 Q212 601 191 619.5 Q170 638 158 664.5 Q146 691 146 725 L227 734 Z " />
<glyph glyph-name="ucircumflex" unicode="&#xfb;" horiz-adv-x="595" d="M203 525 L203 201 Q203 154 219.5 130 Q236 106 279 106 Q325 106 356.5 138 Q388 170 388 238 L388 525 L523 525 L523 0 L388 0 L388 79 Q367 38 331 13.5 Q295 -11 235 -11 Q156 -11 112 37.5 Q68 86 68 173 L68 525 L203 525 Z M359 741 L484 594 L390 577 L298 661 L204 577 L111 594 L236 741 L359 741 Z " />
<glyph glyph-name="udieresis" unicode="&#xfc;" horiz-adv-x="595" d="M203 525 L203 201 Q203 154 219.5 130 Q236 106 279 106 Q325 106 356.5 138 Q388 170 388 238 L388 525 L523 525 L523 0 L388 0 L388 79 Q367 38 331 13.5 Q295 -11 235 -11 Q156 -11 112 37.5 Q68 86 68 173 L68 525 L203 525 Z M148 606 L148 709 L248 709 L248 606 L148 606 Z M345 606 L345 709 L444 709 L444 606 L345 606 Z " />
<glyph glyph-name="ugrave" unicode="&#xf9;" horiz-adv-x="595" d="M203 525 L203 201 Q203 154 219.5 130 Q236 106 279 106 Q325 106 356.5 138 Q388 170 388 238 L388 525 L523 525 L523 0 L388 0 L388 79 Q367 38 331 13.5 Q295 -11 235 -11 Q156 -11 112 37.5 Q68 86 68 173 L68 525 L203 525 Z M270 753 L379 582 L288 582 L131 737 L270 753 Z " />
<glyph glyph-name="uhungarumlaut" unicode="&#x171;" horiz-adv-x="595" d="M203 525 L203 201 Q203 154 219.5 130 Q236 106 279 106 Q325 106 356.5 138 Q388 170 388 238 L388 525 L523 525 L523 0 L388 0 L388 79 Q367 38 331 13.5 Q295 -11 235 -11 Q156 -11 112 37.5 Q68 86 68 173 L68 525 L203 525 Z M351 737 L224 591 L151 591 L245 753 L351 737 Z M525 737 L398 591 L325 591 L419 753 L525 737 Z " />
<glyph glyph-name="umacron" unicode="&#x16b;" horiz-adv-x="595" d="M203 525 L203 201 Q203 154 219.5 130 Q236 106 279 106 Q325 106 356.5 138 Q388 170 388 238 L388 525 L523 525 L523 0 L388 0 L388 79 Q367 38 331 13.5 Q295 -11 235 -11 Q156 -11 112 37.5 Q68 86 68 173 L68 525 L203 525 Z M157 601 L157 687 L435 687 L435 601 L157 601 Z " />
<glyph glyph-name="uogonek" unicode="&#x173;" horiz-adv-x="595" d="M388 0 L388 79 Q367 38 331 13.5 Q295 -11 235 -11 Q156 -11 112 37.5 Q68 86 68 173 L68 525 L203 525 L203 201 Q203 154 219.5 130 Q236 106 279 106 Q325 106 356.5 138 Q388 170 388 238 L388 525 L523 525 L523 0 L492 0 Q467 -19 452.5 -45.5 Q438 -72 438 -97 Q438 -119 451.5 -131 Q465 -143 488 -143 Q494 -143 500 -142.5 Q506 -142 512 -141 L512 -225 Q489 -230 465 -230 Q405 -230 370.5 -201.5 Q336 -173 336 -128 Q336 -93 357.5 -59.5 Q379 -26 421 0 L388 0 Z " />
<glyph glyph-name="uring" unicode="&#x16f;" horiz-adv-x="595" d="M203 525 L203 201 Q203 154 219.5 130 Q236 106 279 106 Q325 106 356.5 138 Q388 170 388 238 L388 525 L523 525 L523 0 L388 0 L388 79 Q367 38 331 13.5 Q295 -11 235 -11 Q156 -11 112 37.5 Q68 86 68 173 L68 525 L203 525 Z M296 777 Q323 777 347 770 Q371 763 389 749.5 Q407 736 417.5 716.5 Q428 697 428 671 Q428 645 417.5 625.5 Q407 606 389 592.5 Q371 579 347 572.5 Q323 566 296 566 Q269 566 245 572.5 Q221 579 203 592.5 Q185 606 174.5 625.5 Q164 645 164 671 Q164 697 174.5 716.5 Q185 736 203 749.5 Q221 763 245 770 Q269 777 296 777 Z M296 713 Q271 713 258 701 Q245 689 245 672 Q245 650 259.5 639.5 Q274 629 296 629 Q319 629 332.5 639.5 Q346 650 346 670 Q346 691 331 702 Q316 713 296 713 Z " />
<glyph glyph-name="utilde" unicode="&#x169;" horiz-adv-x="595" d="M203 525 L203 201 Q203 154 219.5 130 Q236 106 279 106 Q325 106 356.5 138 Q388 170 388 238 L388 525 L523 525 L523 0 L388 0 L388 79 Q367 38 331 13.5 Q295 -11 235 -11 Q156 -11 112 37.5 Q68 86 68 173 L68 525 L203 525 Z M224 730 Q251 730 271.5 721 Q292 712 309 700.5 Q326 689 340.5 680 Q355 671 369 671 Q383 671 394 679 Q405 687 408 713 L466 704 Q461 649 437 617.5 Q413 586 371 586 Q347 586 327.5 595.5 Q308 605 290 617 Q272 629 255 638.5 Q238 648 220 648 Q203 648 193 636.5 Q183 625 181 600 L125 613 Q128 667 152 698.5 Q176 730 224 730 Z " />
<glyph glyph-name="wcircumflex" unicode="&#x175;" horiz-adv-x="806" d="M137 525 L223 201 Q228 181 232 159 Q236 137 239 117 Q241 137 244.5 159 Q248 181 253 201 L340 525 L468 525 L557 201 Q562 181 565.5 159 Q569 137 572 117 Q574 137 577.5 159 Q581 181 586 201 L673 525 L804 525 L649 0 L491 0 L418 274 Q413 297 408 323 Q403 349 401 373 Q398 349 393.5 322.5 Q389 296 383 274 L308 0 L155 0 L1 525 L137 525 Z M464 741 L589 594 L495 577 L403 661 L309 577 L216 594 L341 741 L464 741 Z " />
<glyph glyph-name="wacute" unicode="&#x1e83;" horiz-adv-x="806" d="M137 525 L223 201 Q228 181 232 159 Q236 137 239 117 Q241 137 244.5 159 Q248 181 253 201 L340 525 L468 525 L557 201 Q562 181 565.5 159 Q569 137 572 117 Q574 137 577.5 159 Q581 181 586 201 L673 525 L804 525 L649 0 L491 0 L418 274 Q413 297 408 323 Q403 349 401 373 Q398 349 393.5 322.5 Q389 296 383 274 L308 0 L155 0 L1 525 L137 525 Z M572 737 L416 582 L323 582 L433 753 L572 737 Z " />
<glyph glyph-name="wgrave" unicode="&#x1e81;" horiz-adv-x="806" d="M137 525 L223 201 Q228 181 232 159 Q236 137 239 117 Q241 137 244.5 159 Q248 181 253 201 L340 525 L468 525 L557 201 Q562 181 565.5 159 Q569 137 572 117 Q574 137 577.5 159 Q581 181 586 201 L673 525 L804 525 L649 0 L491 0 L418 274 Q413 297 408 323 Q403 349 401 373 Q398 349 393.5 322.5 Q389 296 383 274 L308 0 L155 0 L1 525 L137 525 Z M379 753 L488 582 L397 582 L240 737 L379 753 Z " />
<glyph glyph-name="wdieresis" unicode="&#x1e85;" horiz-adv-x="806" d="M137 525 L223 201 Q228 181 232 159 Q236 137 239 117 Q241 137 244.5 159 Q248 181 253 201 L340 525 L468 525 L557 201 Q562 181 565.5 159 Q569 137 572 117 Q574 137 577.5 159 Q581 181 586 201 L673 525 L804 525 L649 0 L491 0 L418 274 Q413 297 408 323 Q403 349 401 373 Q398 349 393.5 322.5 Q389 296 383 274 L308 0 L155 0 L1 525 L137 525 Z M254 606 L254 709 L354 709 L354 606 L254 606 Z M451 606 L451 709 L550 709 L550 606 L451 606 Z " />
<glyph glyph-name="yacute" unicode="&#xfd;" horiz-adv-x="514" d="M138 525 L241 209 Q246 189 251 162 Q256 135 258 119 Q259 126 261.5 137.5 Q264 149 266 161.5 Q268 174 271 186.5 Q274 199 277 209 L385 525 L517 525 L324 -24 Q301 -92 274.5 -131 Q248 -170 214.5 -190 Q181 -210 139.5 -215.5 Q98 -221 45 -221 L45 -104 Q95 -103 123.5 -91.5 Q152 -80 166 -49 L183 -11 L-3 525 L138 525 Z M439 737 L283 582 L190 582 L300 753 L439 737 Z " />
<glyph glyph-name="ycircumflex" unicode="&#x177;" horiz-adv-x="514" d="M138 525 L241 209 Q246 189 251 162 Q256 135 258 119 Q259 126 261.5 137.5 Q264 149 266 161.5 Q268 174 271 186.5 Q274 199 277 209 L385 525 L517 525 L324 -24 Q301 -92 274.5 -131 Q248 -170 214.5 -190 Q181 -210 139.5 -215.5 Q98 -221 45 -221 L45 -104 Q95 -103 123.5 -91.5 Q152 -80 166 -49 L183 -11 L-3 525 L138 525 Z M322 741 L447 594 L353 577 L261 661 L167 577 L74 594 L199 741 L322 741 Z " />
<glyph glyph-name="ydieresis" unicode="&#xff;" horiz-adv-x="514" d="M138 525 L241 209 Q246 189 251 162 Q256 135 258 119 Q259 126 261.5 137.5 Q264 149 266 161.5 Q268 174 271 186.5 Q274 199 277 209 L385 525 L517 525 L324 -24 Q301 -92 274.5 -131 Q248 -170 214.5 -190 Q181 -210 139.5 -215.5 Q98 -221 45 -221 L45 -104 Q95 -103 123.5 -91.5 Q152 -80 166 -49 L183 -11 L-3 525 L138 525 Z M111 606 L111 709 L211 709 L211 606 L111 606 Z M308 606 L308 709 L407 709 L407 606 L308 606 Z " />
<glyph glyph-name="ygrave" unicode="&#x1ef3;" horiz-adv-x="514" d="M138 525 L241 209 Q246 189 251 162 Q256 135 258 119 Q259 126 261.5 137.5 Q264 149 266 161.5 Q268 174 271 186.5 Q274 199 277 209 L385 525 L517 525 L324 -24 Q301 -92 274.5 -131 Q248 -170 214.5 -190 Q181 -210 139.5 -215.5 Q98 -221 45 -221 L45 -104 Q95 -103 123.5 -91.5 Q152 -80 166 -49 L183 -11 L-3 525 L138 525 Z M242 753 L351 582 L260 582 L103 737 L242 753 Z " />
<glyph glyph-name="zacute" unicode="&#x17a;" horiz-adv-x="484" d="M29 0 L29 104 L293 422 L44 422 L44 525 L450 525 L450 422 L187 104 L456 104 L456 0 L29 0 Z M417 737 L261 582 L168 582 L278 753 L417 737 Z " />
<glyph glyph-name="zcaron" unicode="&#x17e;" horiz-adv-x="484" d="M29 0 L29 104 L293 422 L44 422 L44 525 L450 525 L450 422 L187 104 L456 104 L456 0 L29 0 Z M152 747 L245 663 L338 747 L432 731 L307 582 L184 582 L59 731 L152 747 Z " />
<glyph glyph-name="zdotaccent" unicode="&#x17c;" horiz-adv-x="484" d="M29 0 L29 104 L293 422 L44 422 L44 525 L450 525 L450 422 L187 104 L456 104 L456 0 L29 0 Z M182 606 L182 724 L311 724 L311 606 L182 606 Z " />
<glyph glyph-name="aeacute" unicode="&#x1fd;" horiz-adv-x="885" d="M288 535 Q353 535 393 520.5 Q433 506 456 478 Q487 505 527.5 520 Q568 535 619 535 Q678 535 722.5 511.5 Q767 488 796.5 448 Q826 408 839.5 354 Q853 300 849 239 L495 239 Q499 169 526 133.5 Q553 98 610 98 Q652 98 678.5 118.5 Q705 139 711 171 L841 171 Q838 130 819 96.5 Q800 63 769 39 Q738 15 698 2 Q658 -11 615 -11 Q541 -11 487.5 18.5 Q434 48 404 105 Q375 51 325.5 21 Q276 -9 198 -9 Q123 -9 82 30.5 Q41 70 41 137 Q41 226 105 274.5 Q169 323 315 323 L365 323 L365 365 Q365 397 343 415.5 Q321 434 277 434 Q235 434 206 415.5 Q177 397 176 357 L56 357 Q59 442 118.5 488.5 Q178 535 288 535 Z M241 95 Q266 95 289 103.5 Q312 112 328.5 127 Q345 142 355 163 Q365 184 365 210 L365 239 L317 239 Q249 239 210.5 220 Q172 201 172 158 Q172 127 190.5 111 Q209 95 241 95 Z M624 737 L468 582 L375 582 L485 753 L624 737 Z M612 435 Q520 435 500 323 L718 323 Q715 371 689 403 Q663 435 612 435 Z " />
<glyph glyph-name="oslashacute" unicode="&#x1ff;" horiz-adv-x="558" d="M280 535 Q352 535 405 506 L419 525 L521 525 L469 453 Q496 418 510.5 371 Q525 324 525 264 Q525 131 460 60 Q395 -11 280 -11 Q209 -11 155 17 L143 0 L39 0 L91 71 Q64 106 49.5 154 Q35 202 35 264 Q35 394 100 464.5 Q165 535 280 535 Z M448 737 L292 582 L199 582 L309 753 L448 737 Z M280 419 Q224 419 195 378 Q166 337 166 264 Q166 221 175 188 L333 406 Q309 419 280 419 Z M395 264 Q395 284 392.5 302 Q390 320 385 336 L228 118 Q250 106 280 106 Q335 106 365 147 Q395 188 395 264 Z " />
<glyph glyph-name="f_f" unicode="&#xfb00;" horiz-adv-x="669" d="M280 745 Q315 745 361 737 L361 627 Q341 632 327.5 633.5 Q314 635 298 635 Q262 635 246 617 Q230 599 230 564 L230 525 L401 525 L401 562 Q401 609 414.5 643.5 Q428 678 452.5 700.5 Q477 723 511 734 Q545 745 586 745 Q620 745 666 737 L666 627 Q646 632 632.5 633.5 Q619 635 603 635 Q567 635 551 617 Q535 599 535 564 L535 525 L666 525 L666 422 L535 422 L535 0 L401 0 L401 422 L230 422 L230 0 L95 0 L95 422 L20 422 L20 525 L95 525 L95 562 Q95 609 108.5 643.5 Q122 678 146.5 700.5 Q171 723 205 734 Q239 745 280 745 Z " />
<glyph glyph-name="f_i" unicode="&#xfb01;" horiz-adv-x="599" d="M280 745 Q291 745 306.5 743.5 Q322 742 335 740 L335 630 Q313 635 294 635 Q258 635 244 617 Q230 599 230 564 L230 525 L528 525 L528 0 L394 0 L394 422 L230 422 L230 0 L95 0 L95 422 L20 422 L20 525 L95 525 L95 562 Q95 609 108.5 643.5 Q122 678 146.5 700.5 Q171 723 205 734 Q239 745 280 745 Z M528 713 L528 596 L393 596 L393 713 L528 713 Z " />
<glyph glyph-name="f_l" unicode="&#xfb02;" horiz-adv-x="599" d="M320 745 Q371 745 424 739.5 Q477 734 528 724 L528 0 L394 0 L394 627 Q375 631 358 633 Q341 635 316 635 Q271 635 250.5 617 Q230 599 230 564 L230 525 L344 525 L344 422 L230 422 L230 0 L95 0 L95 422 L20 422 L20 525 L95 525 L95 562 Q95 609 112.5 643.5 Q130 678 160 700.5 Q190 723 231 734 Q272 745 320 745 Z " />
<glyph glyph-name="f_f_i" unicode="&#xfb03;" horiz-adv-x="905" d="M280 745 Q315 745 361 737 L361 627 Q341 632 327.5 633.5 Q314 635 298 635 Q262 635 246 617 Q230 599 230 564 L230 525 L401 525 L401 562 Q401 609 414.5 643.5 Q428 678 452.5 700.5 Q477 723 511 734 Q545 745 586 745 Q597 745 612 743.5 Q627 742 640 740 L640 630 Q631 632 619 633.5 Q607 635 599 635 Q564 635 549.5 617 Q535 599 535 564 L535 525 L833 525 L833 0 L699 0 L699 422 L535 422 L535 0 L401 0 L401 422 L230 422 L230 0 L95 0 L95 422 L20 422 L20 525 L95 525 L95 562 Q95 609 108.5 643.5 Q122 678 146.5 700.5 Q171 723 205 734 Q239 745 280 745 Z M698 596 L698 713 L834 713 L834 596 L698 596 Z " />
<glyph glyph-name="f_f_l" unicode="&#xfb04;" horiz-adv-x="905" d="M280 745 Q315 745 361 737 L361 627 Q341 632 327.5 633.5 Q314 635 298 635 Q262 635 246 617 Q230 599 230 564 L230 525 L401 525 L401 562 Q401 609 418 643.5 Q435 678 465.5 700.5 Q496 723 537 734 Q578 745 626 745 Q676 745 729 739.5 Q782 734 833 724 L833 0 L699 0 L699 627 Q681 631 665 633 Q649 635 624 635 Q535 635 535 564 L535 525 L648 525 L648 422 L535 422 L535 0 L401 0 L401 422 L230 422 L230 0 L95 0 L95 422 L20 422 L20 525 L95 525 L95 562 Q95 609 108.5 643.5 Q122 678 146.5 700.5 Q171 723 205 734 Q239 745 280 745 Z " />
<glyph glyph-name="s_t" unicode="&#xfb06;" horiz-adv-x="853" d="M266 535 Q308 535 345.5 533.5 Q383 532 419.5 530 Q456 528 494 526.5 Q532 525 575 525 L575 647 L709 647 L709 525 L848 525 L848 422 L709 422 L709 185 Q709 141 728.5 121 Q748 101 786 101 Q815 101 848 111 L848 -2 Q826 -6 806.5 -8.5 Q787 -11 767 -11 Q726 -11 690.5 0 Q655 11 629.5 33.5 Q604 56 589.5 90.5 Q575 125 575 172 L575 427 Q488 429 410.5 433.5 Q333 438 270 438 Q245 438 228 433 Q211 428 200.5 420 Q190 412 185.5 401.5 Q181 391 181 380 Q181 350 208 339 Q235 328 275 322 Q309 317 347.5 309.5 Q386 302 418 285.5 Q450 269 471 240 Q492 211 492 163 Q492 126 479.5 94.5 Q467 63 439.5 39.5 Q412 16 368 2.5 Q324 -11 262 -11 Q207 -11 166 1.5 Q125 14 97.5 36.5 Q70 59 55 90 Q40 121 37 158 L160 158 Q162 127 190 108 Q218 89 266 89 Q321 89 341 107.5 Q361 126 361 151 Q361 166 354 176 Q347 186 334.5 192.5 Q322 199 305 202.5 Q288 206 269 209 Q236 213 198 220.5 Q160 228 127 244.5 Q94 261 72.5 290 Q51 319 51 368 Q51 402 65.5 432.5 Q80 463 107.5 485.5 Q135 508 175 521.5 Q215 535 266 535 Z " />
<glyph glyph-name="C" unicode="C" horiz-adv-x="733" d="M702 231 Q696 177 672.5 132.5 Q649 88 609.5 56 Q570 24 516 6.5 Q462 -11 397 -11 Q318 -11 255 17.5 Q192 46 147.5 96 Q103 146 79.5 213.5 Q56 281 56 360 Q56 438 79.5 506 Q103 574 147.5 623.5 Q192 673 255 701.5 Q318 730 397 730 Q462 730 516 712.5 Q570 695 609.5 663 Q649 631 672.5 586.5 Q696 542 702 488 L556 488 Q546 543 506 574 Q466 605 397 605 Q349 605 314 587 Q279 569 255.5 537 Q232 505 221 459.5 Q210 414 210 360 Q210 306 221 261 Q232 216 255.5 184 Q279 152 314 134 Q349 116 397 116 Q466 116 506 146.5 Q546 177 556 231 L702 231 Z " />
<glyph glyph-name="nbspace" unicode="&#xa0;" horiz-adv-x="227" d="" />
<glyph glyph-name="A" unicode="A" horiz-adv-x="676" d="M443 720 L687 0 L529 0 L469 185 L200 185 L140 0 L-11 0 L235 720 L443 720 Z M335 627 Q330 604 322.5 573 Q315 542 307 519 L233 295 L436 295 L363 521 Q355 544 347.5 574 Q340 604 335 627 Z " />
<glyph glyph-name="B" unicode="B" horiz-adv-x="701" d="M370 421 Q431 421 455.5 449 Q480 477 480 517 Q480 559 456 583.5 Q432 608 370 608 L225 608 L225 421 L370 421 Z M82 0 L82 720 L411 720 Q466 720 506.5 706 Q547 692 574 668.5 Q601 645 614 613.5 Q627 582 627 547 Q627 481 592.5 437.5 Q558 394 480 378 Q566 367 608 317.5 Q650 268 650 197 Q650 156 635 120 Q620 84 591 57.5 Q562 31 519.5 15.5 Q477 0 422 0 L82 0 Z M379 113 Q448 113 477 141.5 Q506 170 506 216 Q506 261 476.5 292 Q447 323 380 323 L225 323 L225 113 L379 113 Z " />
</font>
</svg>
