<?xml version="1.0" encoding="UTF-8" standalone="no"?>
<svg width="32px" height="32px" viewBox="0 0 32 32" version="1.1" xmlns="http://www.w3.org/2000/svg" xmlns:xlink="http://www.w3.org/1999/xlink" xmlns:sketch="http://www.bohemiancoding.com/sketch/ns">
    <!-- Generator: Sketch 3.3.2 (12043) - http://www.bohemiancoding.com/sketch -->
    <title>cls</title>
    <desc>Created with Sketch.</desc>
    <defs></defs>
    <g id="Page-1" stroke="none" stroke-width="1" fill="none" fill-rule="evenodd" sketch:type="MSPage">
        <g id="cls" sketch:type="MSLayerGroup" fill="#000000">
            <path d="M15.9547301,11.6944264 L20.2708887,16.010585 L15.9547301,20.3267437 L11.6385715,16.010585 L15.9547301,11.6944264 Z M5.20960345,31.1065552 L31.1065552,5.20960345 C32.2978149,4.01834367 32.2978149,2.08470461 31.1065552,0.893444834 C29.9152954,-0.297814945 27.9816563,-0.297814945 26.7903965,0.893444834 L0.893444834,26.7903965 C-0.297814945,27.9816563 -0.297814945,29.9152954 0.893444834,31.1065552 C2.08470461,32.2978149 4.01834367,32.2978149 5.20960345,31.1065552 L5.20960345,31.1065552 Z M26.7903965,31.1065552 C27.9816563,32.2978149 29.9152954,32.2978149 31.1065552,31.1065552 C32.2978149,29.9152954 32.2978149,27.9816563 31.1065552,26.7903965 L5.20960345,0.893444834 C4.01834367,-0.297814945 2.08470461,-0.297814945 0.893444834,0.893444834 C-0.297814945,2.08470461 -0.297814945,4.01834367 0.893444834,5.20960345 L26.7903965,31.1065552 Z" id="Shape" sketch:type="MSShapeGroup"></path>
        </g>
    </g>
</svg>