<?xml version="1.0" encoding="UTF-8" standalone="no"?>
<svg width="31px" height="31px" viewBox="0 0 31 31" version="1.1" xmlns="http://www.w3.org/2000/svg" xmlns:xlink="http://www.w3.org/1999/xlink" xmlns:sketch="http://www.bohemiancoding.com/sketch/ns">
    <!-- Generator: Sketch 3.3.2 (12043) - http://www.bohemiancoding.com/sketch -->
    <title>lg</title>
    <desc>Created with Sketch.</desc>
    <defs></defs>
    <g id="Page-1" stroke="none" stroke-width="1" fill="none" fill-rule="evenodd" sketch:type="MSPage">
        <g id="lg" sketch:type="MSLayerGroup" transform="translate(-1.000000, -1.000000)" fill="#000000">
            <g id="baseline" transform="translate(4.413793, 0.000000)" sketch:type="MSShapeGroup">
                <path d="M-1.10344828,9.93103448 L25.3793103,9.93103448 C26.5975172,9.93103448 27.5862069,8.94234483 27.5862069,7.72413793 C27.5862069,6.50593103 26.5975172,5.51724138 25.3793103,5.51724138 L-1.10344828,5.51724138 C-2.32165517,5.51724138 -3.31034483,6.50593103 -3.31034483,7.72413793 C-3.31034483,8.94234483 -2.32165517,9.93103448 -1.10344828,9.93103448 L-1.10344828,9.93103448 Z M25.3793103,14.3448276 L-1.10344828,14.3448276 C-2.32165517,14.3448276 -3.31034483,15.3335172 -3.31034483,16.5517241 C-3.31034483,17.769931 -2.32165517,18.7586207 -1.10344828,18.7586207 L25.3793103,18.7586207 C26.5975172,18.7586207 27.5862069,17.769931 27.5862069,16.5517241 C27.5862069,15.3335172 26.5975172,14.3448276 25.3793103,14.3448276 L25.3793103,14.3448276 Z M25.3793103,23.1724138 L-1.10344828,23.1724138 C-2.32165517,23.1724138 -3.31034483,24.1611034 -3.31034483,25.3793103 C-3.31034483,26.5975172 -2.32165517,27.5862069 -1.10344828,27.5862069 L25.3793103,27.5862069 C26.5975172,27.5862069 27.5862069,26.5975172 27.5862069,25.3793103 C27.5862069,24.1611034 26.5975172,23.1724138 25.3793103,23.1724138 L25.3793103,23.1724138 Z" id="Shape" transform="translate(12.137931, 16.551724) rotate(90.000000) translate(-12.137931, -16.551724) "></path>
            </g>
            <g id="layout" transform="translate(0.000000, 5.517241)" sketch:type="MSShapeGroup">
                <path d="M3.31034483,4.4137931 L29.7931034,4.4137931 C31.0113103,4.4137931 32,3.42510345 32,2.20689655 C32,0.988689655 31.0113103,0 29.7931034,0 L3.31034483,0 C2.09213793,0 1.10344828,0.988689655 1.10344828,2.20689655 C1.10344828,3.42510345 2.09213793,4.4137931 3.31034483,4.4137931 L3.31034483,4.4137931 Z M29.7931034,8.82758621 L3.31034483,8.82758621 C2.09213793,8.82758621 1.10344828,9.81627586 1.10344828,11.0344828 C1.10344828,12.2526897 2.09213793,13.2413793 3.31034483,13.2413793 L29.7931034,13.2413793 C31.0113103,13.2413793 32,12.2526897 32,11.0344828 C32,9.81627586 31.0113103,8.82758621 29.7931034,8.82758621 L29.7931034,8.82758621 Z M29.7931034,17.6551724 L3.31034483,17.6551724 C2.09213793,17.6551724 1.10344828,18.6438621 1.10344828,19.862069 C1.10344828,21.0802759 2.09213793,22.0689655 3.31034483,22.0689655 L29.7931034,22.0689655 C31.0113103,22.0689655 32,21.0802759 32,19.862069 C32,18.6438621 31.0113103,17.6551724 29.7931034,17.6551724 L29.7931034,17.6551724 Z" id="Shape"></path>
            </g>
        </g>
    </g>
</svg>